<?xml version="1.0" standalone="no"?>
<!DOCTYPE svg PUBLIC "-//W3C//DTD SVG 1.1//EN" "http://www.w3.org/Graphics/SVG/1.1/DTD/svg11.dtd" >
<svg xmlns="http://www.w3.org/2000/svg" xmlns:xlink="http://www.w3.org/1999/xlink" version="1.1">
<metadata>
Created by FontForge 20170924 at Sat Oct 15 10:55:06 2005
 By www-data
Copyright (c) Gophmann A.L, 2005. All rights reserved.
</metadata>
<defs>
<font id="BickhamScriptOne" horiz-adv-x="239" >
  <font-face 
    font-family="Bickham Script One"
    font-weight="400"
    font-style="italic"
    font-stretch="normal"
    units-per-em="1000"
    panose-1="3 3 4 2 4 7 7 13 13 6"
    ascent="680"
    descent="-320"
    x-height="171"
    cap-height="521"
    bbox="-464.727 -406 1103 750"
    underline-thickness="30"
    underline-position="-120"
    slope="-39"
    unicode-range="U+0020-2122"
  />
<missing-glyph horiz-adv-x="153" 
 />
    <glyph glyph-name=".notdef" horiz-adv-x="153" 
 />
    <glyph glyph-name=".null" horiz-adv-x="0" 
 />
    <glyph glyph-name="nonmarkingreturn" horiz-adv-x="333" 
 />
    <glyph glyph-name="space" unicode=" " horiz-adv-x="153" 
 />
    <glyph glyph-name="exclam" unicode="!" 
d="M305 339q12 0 12 -5t-19 -30t-48 -58.5t-59.5 -67t-57 -61.5t-41.5 -43q-9 -9 -13 -7q-3 2 -0.5 6.5t6.5 9.5q42 56 83.5 113.5t76.5 110.5q15 22 29.5 27t30.5 5zM67 44q12 0 15.5 -7.5t-5.5 -18.5q-9 -12 -24 -19.5t-23 -7.5q-4 5 -4.5 15t3.5 19q5 11 14.5 15t23.5 4z
" />
    <glyph glyph-name="quotedbl" unicode="&#x22;" horiz-adv-x="190" 
d="M187 340q14 0 17 -6t-11 -17q-22 -20 -43.5 -38t-34.5 -28q-9 -7 -11 -5q-2 1 4 11q10 15 21 32.5t19 31.5q5 8 15.5 13.5t23.5 5.5zM266 340q14 0 17 -6t-11 -17q-22 -20 -43.5 -38t-34.5 -28q-8 -6 -11 -5t4 11q11 15 21.5 32.5t19.5 31.5q5 8 15.5 13.5t22.5 5.5z" />
    <glyph glyph-name="numbersign" unicode="#" horiz-adv-x="356" 
d="M246 281q11 0 11.5 -5t-17.5 -27q-14 -17 -27 -32.5t-25 -29.5q23 0 45 -0.5t47 -1.5q11 14 27.5 36t29.5 40q10 12 17 19.5t21 7.5q11 0 11.5 -5t-17.5 -27q-15 -19 -31 -38t-28 -33h51q5 0 10.5 -0.5t5.5 -3.5t-5.5 -3.5t-10.5 -0.5h-58q-14 -17 -27.5 -33.5
t-27.5 -33.5h18t21 -0.5t17.5 -0.5h8.5q5 0 10.5 -0.5t5.5 -3.5t-5.5 -3.5t-10.5 -0.5h-72l-46 -57.5t-42 -50.5q-2 -2 -7 -6.5t-9 -2.5q-4 3 5 15q14 20 33.5 46.5t41.5 55.5q-26 -1 -49.5 -1t-49.5 -1q-25 -31 -49 -60t-44 -53q-3 -4 -8.5 -7.5t-8.5 -1.5q-4 4 5 15
q16 21 36.5 49t43.5 58h-41q-8 0 -15.5 0.5t-8.5 5.5q0 5 7 6t14 1h53l24 32t24 31h-50q-7 0 -15 0.5t-9 4.5q-1 5 6.5 6.5t14.5 1.5q17 0 32 -0.5t30 -0.5q11 15 24.5 32.5t25.5 33.5q10 12 16.5 20t20.5 8zM128 111h47.5t49.5 -1q12 17 24.5 33.5t24.5 32.5
q-20 0 -44.5 -0.5t-49.5 -0.5z" />
    <glyph glyph-name="dollar" unicode="$" horiz-adv-x="245" 
d="M182 172q4 -12 11 -37t-1 -49q-6 -17 -17 -29.5t-25.5 -21t-29.5 -13t-28 -4.5h-6.5t-6.5 1l-10 -16q-5 -7 -9.5 -13.5t-6.5 -10.5q-6 -9 -11 -7t2 13q5 7 14 21q4 7 9 15q-23 6 -34.5 21t-7.5 35q3 16 13 23t21 6q9 -1 13.5 -8t2.5 -16q-3 -12 -10 -17t-8 -13
q-1 -6 3 -12t14 -9l74 113q-7 17 -8.5 38t4.5 36q11 30 38 46t56 17q2 2 4 6q2 2 4 5.5t4 6.5q10 15 14 19.5t9 2.5q3 -1 1 -6t-10 -18q-2 -4 -4 -7t-4 -5q-2 -3 -3 -5q17 -4 27.5 -15.5t5.5 -30.5q-4 -11 -12 -17t-16 -5q-11 2 -13.5 9.5t1.5 15.5q5 10 9.5 14.5t4.5 9.5
q-1 5 -5 7.5t-7 3.5zM233 273q-18 0 -35 -11.5t-23 -28.5q-7 -22 1 -46zM85 28q2 -1 5 -1h5q20 0 36.5 11.5t24.5 28.5q7 14 6 30t-8 33z" />
    <glyph glyph-name="percent" unicode="%" horiz-adv-x="392" 
d="M240 -6q-17 0 -27 11t-8 28q5 32 38 67q17 18 38.5 29t37.5 14q3 1 7.5 1t4.5 -2t-4 -3t-12 -6q-11 -7 -21.5 -18t-24.5 -28q-13 -17 -22.5 -33.5t-11.5 -30.5q-3 -17 10 -20q13 -2 28 10.5t29 32.5t23.5 35t14.5 34q3 10 2.5 14.5t-2.5 7.5q-2 2 -4 3t-2 2q0 2 4.5 2.5
t9.5 -1.5q11 -4 15 -14t1 -24q-6 -30 -41 -68q-19 -19 -42.5 -31t-40.5 -12zM306 250q-29 -16 -59 -19q-15 -2 -25.5 0.5t-18.5 5.5q5 -11 1 -27q-4 -14 -13 -29.5t-28 -34.5q-18 -20 -41.5 -32t-40.5 -12t-27 11t-8 28q4 33 38 68q17 18 38.5 29t37.5 14q4 1 7.5 1t3.5 -2
t-4.5 -3t-11.5 -6q-19 -13 -45 -47q-13 -17 -22.5 -33t-11.5 -30q-3 -19 10 -20q13 -2 28 10.5t29 32.5q14 19 23 34.5t15 34.5q3 9 2.5 14t-2.5 7q-2 3 -4.5 3.5t-1.5 2.5t5 2.5t9 -1.5q6 -2 8 -4q7 -4 19 -7.5t31 -1.5t40 11t40 23q11 11 20 19t23 8q10 0 7 -5.5
t-24 -26.5q-60 -59 -132 -135t-151 -167q-4 -4 -8.5 -7t-7.5 -1q-2 2 0.5 6t6.5 9q69 81 131.5 151.5t113.5 125.5z" />
    <glyph glyph-name="ampersand" unicode="&#x26;" horiz-adv-x="452" 
d="M506 299q22 0 33 -11.5t7 -29.5q-3 -14 -14 -25t-24 -8q-11 2 -11.5 11.5t1.5 19.5q2 8 -1.5 14t-12.5 7q-16 2 -41 -13.5t-69 -53.5q-29 -26 -60 -57t-61 -58q9 -13 18 -28t15.5 -33t9 -38.5t-2.5 -43.5q-6 -27 -22 -50.5t-38 -40t-49 -26t-55 -9.5q-27 0 -41.5 10
t-18.5 18q-7 14 -2 17q2 0 2.5 -3.5t5.5 -9.5q6 -8 18.5 -14t35.5 -6q40 0 71.5 25t43.5 65q11 37 4.5 74t-22.5 69q-17 -14 -36.5 -28t-39.5 -24.5t-40 -17t-39 -6.5q-17 0 -29 10.5t-7 33.5q5 25 29 45.5t56 40.5q17 10 32.5 18t31.5 17q-4 14 -5.5 30t1.5 30q3 13 9.5 26
t16 23.5t22 17t27.5 6.5t23.5 -13t0.5 -36q-9 -23 -27 -41.5t-42 -35.5q6 -17 16 -31.5t21 -31.5q31 29 61 60t59 57q38 34 72.5 56t66.5 22zM253 277q-16 0 -29.5 -17t-18.5 -39q-4 -24 3 -46q20 14 36 31.5t24 38.5q5 14 0.5 23t-15.5 9zM105 22q19 0 51 16.5t64 42.5
q-10 17 -18.5 35t-14.5 36q-17 -12 -31.5 -21.5t-27.5 -20.5q-40 -33 -46 -62q-3 -14 5 -20t18 -6z" />
    <glyph glyph-name="quotesingle" unicode="'" horiz-adv-x="109" 
d="M188 340q12 0 15 -6t-10 -17q-23 -20 -44.5 -38t-34.5 -28q-8 -7 -10 -5q-2 1 -0.5 4.5t3.5 6.5q10 15 21 32.5t20 31.5q5 8 15 13.5t25 5.5z" />
    <glyph glyph-name="parenleft" unicode="(" 
d="M72 -92q-4 0 -5 9q-3 14 -5 46.5t4 76.5t24 95t55 102q45 64 93.5 105.5t94 66.5t84.5 36.5t65 16.5q9 2 9 -1q0 -2 -9 -5q-27 -8 -63 -24t-76.5 -43t-82.5 -66.5t-81 -94.5q-35 -50 -55.5 -97.5t-32 -89t-14.5 -74t-3 -50.5v-6t-2 -3z" />
    <glyph glyph-name="parenright" unicode=")" 
d="M-107 -86q0 1 9 4q28 9 61.5 27t70 46.5t74 68.5t72.5 94q31 48 48.5 94.5t26 87t9 72t-0.5 50.5q0 2 -0.5 5t1.5 3q3 0 5 -7q5 -20 9.5 -52.5t1.5 -74t-17.5 -89.5t-47.5 -99q-41 -63 -85.5 -105.5t-86.5 -69t-79 -40t-62 -17.5q-9 -2 -9 2z" />
    <glyph glyph-name="asterisk" unicode="*" horiz-adv-x="231" 
d="M302 340q0 -4 -17 -4h-26t-31 1q6 -13 11.5 -26.5t7.5 -21.5q2 -5 3 -9.5t-2 -5.5t-9 7q-5 7 -14.5 20.5t-17.5 27.5q-16 -15 -30 -28.5t-24 -21.5q-13 -12 -16 -8q-2 2 0.5 6.5t6.5 9.5q8 9 19.5 24t25.5 29q-13 2 -25.5 5t-22.5 5q-5 2 -9 3t-4 6q1 5 16 5
q7 0 19.5 -0.5t26.5 -2.5q-6 12 -10.5 23t-8.5 22q-2 5 -2.5 10t2.5 7q2 2 5.5 -1.5t7.5 -8.5q5 -6 13 -19t16 -27q14 14 30 28.5t21 18.5q15 12 18 10q2 -2 -0.5 -7t-6.5 -10q-8 -11 -19 -25t-22 -26q14 -2 28 -4.5t25 -4.5q5 -1 10 -2.5t5 -4.5z" />
    <glyph glyph-name="plus" unicode="+" horiz-adv-x="356" 
d="M287 250q14 0 15.5 -5t-15.5 -27q-14 -17 -23 -27.5t-16 -19t-14 -16.5t-18 -21q65 -2 113 -3q16 0 16 -5q0 -3 -5.5 -4t-10.5 -1q-59 -2 -127 -3q-15 -17 -30.5 -35t-29 -33.5t-25 -28.5t-18.5 -21l-9 -9t-7 -2q-4 3 5 15q18 25 39.5 54t44.5 59q-24 0 -50 -0.5
t-55 -0.5q-17 0 -21 2.5t-2 7.5q2 8 8 10.5t13 2.5q29 -1 59.5 -2t60.5 -2q10 13 17 23t14 19.5t15 19.5t19 25q9 12 16 20t21 8z" />
    <glyph glyph-name="comma" unicode="," horiz-adv-x="105" 
d="M68 35q0 -8 -8 -17q-20 -25 -46 -44.5t-41 -28.5q-12 -6 -13 -5q-2 2 0.5 4.5l7.5 7.5q9 10 19.5 22.5t17.5 26.5q4 7 2 11.5t0 10.5q3 10 16.5 15.5t29.5 5.5q15 0 15 -9z" />
    <glyph glyph-name="hyphen" unicode="-" horiz-adv-x="245" 
d="M150 117q25 0 35.5 -16.5t9.5 -35.5q0 -5 -2 -5t-4 3q-5 8 -14 12t-26 4q-20 0 -35 -4.5t-40 -4.5q-8 0 -19 3.5t-16 9.5q-2 3 0 5t4 0q8 -4 16 -4q14 0 26.5 6t23.5 13q8 5 18.5 9.5t22.5 4.5z" />
    <glyph glyph-name="period" unicode="." horiz-adv-x="105" 
d="M50 44q13 0 16 -7.5t-6 -18.5q-9 -12 -24 -19.5t-23 -7.5q-4 5 -4 15t3 19q4 11 14 15t24 4z" />
    <glyph glyph-name="slash" unicode="/" 
d="M371 380q12 0 12 -5.5t-23 -29.5q-32 -34 -80 -86t-102.5 -110.5t-109.5 -118.5t-101 -109q-4 -4 -8.5 -6t-6.5 0t1 6.5t7 9.5q45 51 97 111.5t102.5 118.5t93 108.5t68.5 80.5q13 14 23.5 22t26.5 8z" />
    <glyph glyph-name="zero" unicode="0" horiz-adv-x="266" 
d="M64 -9q-28 0 -43.5 16.5t-12.5 48.5q3 37 24.5 70.5t42.5 56.5q28 32 65 53t66 27q8 2 14.5 1t6.5 -3t-5.5 -2t-15.5 -7q-18 -12 -41.5 -36t-46.5 -53q-25 -30 -44 -64t-24 -60q-8 -35 18 -37q23 -2 50.5 22t56.5 60q24 31 44 66.5t29 67.5q7 24 -3 34q-5 5 -9 6t-3 3
t8.5 2t14.5 -3q14 -6 22.5 -24.5t0.5 -45.5q-8 -29 -28 -60t-47 -60q-34 -37 -72 -58t-67 -21h-1z" />
    <glyph glyph-name="one" unicode="1" horiz-adv-x="187" 
d="M178 222q-15 -10 -32.5 -20.5t-33.5 -18.5q-17 -8 -32 -11t-16 0q0 1 1 2t5.5 3t14.5 6.5t27 13.5q23 12 45.5 24.5t41.5 25.5q8 5 21 12t20 7q5 0 4.5 -5t-11.5 -17q-48 -58 -85 -106.5t-72 -98.5q-9 -13 -15 -20.5t-13 -12t-17 -7.5t-27 -6q-7 -1 -11.5 -1t-4.5 3.5
t5 11.5t16 22q19 25 45.5 57t52 61t45.5 50t26 25z" />
    <glyph glyph-name="two" unicode="2" horiz-adv-x="249" 
d="M32 40q9 2 15 3t19 0q17 -2 34 -8.5t29 -6.5q18 0 33.5 7.5t37.5 30.5q6 6 8 5q2 -2 1 -4.5t-2 -3.5q-20 -26 -45 -47.5t-56 -21.5q-14 0 -29 4t-27 10q-11 5 -20 7t-21 2q-8 0 -17 -3t-15 -7q-5 -3 -12 -7.5t-10 -5.5q-5 -2 -2 6q2 5 6.5 8l10.5 7q11 8 38 21t55 30
q25 15 49.5 32.5t44.5 36.5t35 37.5t20 35.5t-2.5 28t-22.5 11q-37 0 -69 -26q-11 -9 -21.5 -22t-13.5 -27q-4 -18 4 -26t22 -4q6 2 7 0t-2 -3.5l-5 -2.5q-4 -2 -10.5 -3t-12.5 0q-17 2 -21 12t-2 21q4 17 18 33t31 30q22 17 47.5 27t50.5 10q34 0 46.5 -18t4.5 -46
q-10 -32 -41 -58t-70 -50q-30 -17 -62 -31t-56 -23z" />
    <glyph glyph-name="three" unicode="3" horiz-adv-x="252" 
d="M161 149q22 -1 36 -12q11 -9 13 -23t-3 -28q-7 -21 -25 -38.5t-42 -30.5q-22 -12 -47 -19t-51 -7q-27 1 -46.5 12.5t-15.5 36.5q3 19 17.5 30t32.5 11q13 0 19 -7t4 -16q-2 -7 -6.5 -11.5t-12.5 -9.5q-5 -3 -10 -8t-7 -11q-2 -9 6 -14t25 -4q10 0 23.5 4t27.5 14t28.5 27
t28.5 43q8 17 8.5 33t-12.5 18q-6 1 -13 -1.5t-13 -5.5q-5 -2 -9 -4.5t-5 -0.5q-2 3 3 7.5t14 8.5q44 18 68 41t24 45q0 19 -24 19q-11 0 -24 -3.5t-24 -11.5q-22 -16 -29 -37q-5 -14 -3 -21q1 -4 2.5 -5t-0.5 -3q-5 -3 -10 5q-6 10 -2 26q4 13 15.5 25.5t25.5 20.5
q17 10 37.5 16t42.5 6q21 0 31 -9t10 -22q0 -31 -38 -55q-14 -8 -31 -16t-39 -15z" />
    <glyph glyph-name="four" unicode="4" horiz-adv-x="273" 
d="M319 267q7 0 6.5 -2.5t-5.5 -8.5q-50 -62 -89.5 -116t-63.5 -88q9 -1 20 -1.5t19 -2.5q17 -3 14 -11q-1 -2 -4.5 -1.5t-13.5 1.5q-11 1 -22.5 1.5t-19.5 0.5q-26 -32 -43 -55t-36 -51q-11 -16 -22.5 -21.5t-27.5 -8.5q-8 -2 -13.5 -2t-6.5 3t3 11t15 23q19 26 37 49.5
t38 51.5q-24 0 -42.5 -0.5t-35.5 -2.5q-12 -1 -22.5 -2t-18.5 -3q-4 -1 -8.5 -1.5t-4.5 3.5q-1 3 4.5 8t10.5 9q7 6 20.5 16t30.5 23t36 26.5t39 27.5q50 34 87.5 58.5t74.5 48.5q16 10 26 13.5t17 3.5h1zM256 223q-13 -8 -30 -18.5t-35.5 -22.5t-37 -24.5t-34.5 -24.5
q-33 -24 -62 -45.5t-51 -39.5v-1q10 1 25 2l30 2t29 1h24q13 18 33 43t41 50t39.5 46t29.5 31z" />
    <glyph glyph-name="five" unicode="5" horiz-adv-x="258" 
d="M214 273q2 0 4 -2.5t4 -4.5q11 -11 28 -17q14 -5 34 -5q8 0 15.5 2.5t10.5 4.5q2 2 4 3.5t4 0.5q4 -2 -3 -10q-8 -11 -25 -19q-11 -5 -27 -8t-33 -2q-14 1 -26.5 5.5t-20.5 9.5q-6 -8 -15.5 -19t-20 -22.5t-21 -22l-17.5 -17.5l1 -1q10 5 22 8t27 3q13 0 25 -3.5t20 -11
t11.5 -20t-0.5 -29.5q-5 -24 -22 -43.5t-41 -33t-52 -21t-55 -7.5q-14 0 -26.5 2.5t-21.5 8.5t-13 15.5t-2 22.5q3 17 16 28t27 11q11 0 17 -5.5t5 -16.5t-13 -21q-5 -4 -9 -8.5t-5 -10.5q-1 -8 6 -12.5t19 -4.5q19 0 39 7.5t37 21.5t29.5 33.5t17.5 43.5q5 20 -2 31.5
t-23 11.5q-18 0 -32 -7q-9 -5 -19 -13q-4 -3 -7.5 -5.5t-7.5 -0.5q-5 4 -0.5 9.5t10.5 10.5q11 9 24.5 22t30.5 32q18 20 33.5 37.5t26.5 31.5q5 7 11 7h1z" />
    <glyph glyph-name="six" unicode="6" horiz-adv-x="261" 
d="M19 44q0 35 20 75.5t57 78.5q26 27 58 49.5t65 39t64.5 25t56.5 8.5q23 0 39 -9t22 -23q5 -11 0 -13q-2 -1 -3.5 2t-3.5 5q-9 15 -22.5 20.5t-30.5 5.5q-45 0 -95.5 -35t-109.5 -98q-15 -16 -30.5 -35t-27.5 -38.5t-20 -38.5t-8 -35q0 -29 25 -29q20 1 45.5 23.5
t48.5 54.5q22 31 28.5 57t-10.5 30q-15 2 -29 -4.5t-22 -12.5q-6 -4 -8 -2q-2 3 7 10q11 9 29 16t34 5t25.5 -13t11 -27.5t-5 -36.5t-20.5 -39q-26 -35 -64 -52.5t-69 -17.5q-28 0 -42.5 16t-14.5 37v1z" />
    <glyph glyph-name="seven" unicode="7" horiz-adv-x="215" 
d="M256 238q-12 -5 -27.5 -9.5t-32.5 -8t-34.5 -5.5t-32.5 -2t-28 7.5t-11 23.5q2 12 10.5 18.5t14.5 9.5t12.5 4.5t10.5 1.5q1 0 2 -1q1 -2 -0.5 -3.5t-3.5 -4.5q-6 -11 2 -20t39 -10q25 -1 51 2.5t43 8.5q3 2 9.5 3t6.5 -2q1 -3 -2.5 -4.5t-8.5 -2.5q-29 -25 -63 -58.5
t-68 -69.5t-66 -71.5t-56 -64.5q-5 -5 -20.5 -8.5t-32.5 -5.5q-26 -4 -27 -0.5t18 22.5q38 37 78.5 73.5t79 69.5t73.5 60.5t64 46.5z" />
    <glyph glyph-name="eight" unicode="8" horiz-adv-x="245" 
d="M238 304q-20 0 -38 -14t-23 -34q-5 -21 0 -40t14 -41q6 -17 11 -34t4 -34q-2 -24 -15 -45.5t-33.5 -38t-46 -25.5t-50.5 -7q-29 2 -46 20t-9 47q4 16 15 31t26 28t33.5 23t36.5 17q6 2 14 4.5t9 -0.5q1 -2 -4.5 -4.5t-13.5 -7.5q-25 -17 -42 -37t-25 -48q-8 -27 0 -42
t28 -16q18 -2 33 5.5t26 20.5t17 29t6 32q0 15 -5 30.5t-11 30.5q-8 19 -10.5 34.5t-1.5 30.5q1 20 12.5 38t29 32t38.5 22t41 8q29 -1 42 -18.5t7 -42.5q-3 -14 -12.5 -26t-21.5 -21.5t-25 -16.5t-23 -12t-18 -7t-9 0q-1 3 4.5 6t10.5 6q45 28 55 71q5 19 -3 32.5t-26 13.5
h-1z" />
    <glyph glyph-name="nine" unicode="9" horiz-adv-x="267" 
d="M-85 -92q28 0 61 12.5t72 44.5q15 11 31.5 27t33 34t31.5 36.5t26 33.5q34 49 50.5 79t18.5 52q3 24 -15 27q-19 5 -47.5 -15.5t-54.5 -58.5q-21 -30 -25 -54.5t13 -29.5q12 -3 26 3.5t23 13.5q5 4 8.5 7t5.5 1q2 -1 -1.5 -6t-11.5 -11q-14 -11 -29.5 -17t-32.5 -3
q-16 3 -25 13.5t-10.5 26.5t4.5 35t20 39q14 19 33 33t39 22t38.5 10.5t31.5 -0.5q20 -4 30 -18.5t11 -31.5q2 -25 -13 -62.5t-44 -74.5q-27 -36 -63 -68.5t-75.5 -57.5t-80.5 -39.5t-78 -14.5q-22 0 -37.5 9t-20.5 22q-2 5 -1.5 9t2.5 4q2 1 2.5 -1.5t2.5 -5.5
q6 -11 20 -18t30 -7h1z" />
    <glyph glyph-name="colon" unicode=":" horiz-adv-x="163" 
d="M61 44q12 0 15 -7.5t-6 -18.5q-9 -12 -24 -19.5t-23 -7.5q-4 5 -4 15t3 19q4 11 14 15t24 4h1zM109 143q12 0 15 -7.5t-6 -18.5q-9 -12 -24 -19.5t-23 -7.5q-4 5 -4 15t4 19q5 11 14 15t23 4h1z" />
    <glyph glyph-name="semicolon" unicode=";" horiz-adv-x="163" 
d="M79 34q0 -7 -8 -16q-20 -25 -46 -44.5t-41 -28.5q-11 -7 -13 -5t8 12q10 11 20 23t17 26q4 7 2 11.5t0 10.5q3 10 16 15.5t30 5.5q15 0 15 -9v-1zM108 143q13 0 16 -7.5t-6 -18.5q-9 -12 -24 -19.5t-23 -7.5q-4 5 -4 15t4 19q5 11 14 15t22 4h1z" />
    <glyph glyph-name="less" unicode="&#x3c;" horiz-adv-x="282" 
d="M39 130q0 5 23 13q72 27 131 48.5t103 37.5q4 2 8.5 2.5t4.5 -2.5q0 -4 -15 -10q-47 -20 -99 -43t-111 -49q40 -25 74 -46t66 -41q2 -1 5.5 -4t1.5 -5q-2 -3 -5.5 -2.5t-6.5 2.5q-34 17 -74.5 38t-92.5 48q-3 2 -8 5t-5 7v1z" />
    <glyph glyph-name="equal" unicode="=" horiz-adv-x="331" 
d="M343 160q0 -3 -5 -4t-10 -1q-54 -2 -113.5 -2.5t-134.5 -1.5q-11 0 -13 3.5t0 8.5q6 12 23 12q69 -2 127.5 -4.5t109.5 -4.5q5 0 10.5 -1t5.5 -4v-1zM306 96q0 -2 -5 -3.5t-10 -1.5q-54 -2 -113 -2t-135 -2q-11 0 -12.5 4t0.5 9q5 12 22 11q69 -2 127.5 -4t109.5 -4
q5 0 10.5 -1.5t5.5 -4.5v-1z" />
    <glyph glyph-name="greater" unicode="&#x3e;" horiz-adv-x="282" 
d="M265 129q0 -4 -23 -13q-72 -27 -131 -48.5t-102 -38.5q-5 -2 -8.5 -2t-4.5 2q-1 4 14 11q45 20 98 43t112 49q-20 12 -43.5 26.5t-44 27t-35 21.5t-17.5 11q-8 6 -6 10q2 2 5.5 2t5.5 -2q34 -17 74.5 -38t93.5 -48q12 -5 12 -12v-1z" />
    <glyph glyph-name="question" unicode="?" 
d="M257 337q29 0 42 -19t5 -47q-11 -35 -41.5 -59t-75.5 -45q-17 -8 -32.5 -16.5t-29.5 -16.5q-30 -17 -35 -32q-4 -7 -7 -18.5t-12 -11.5q-5 0 -3 10t5 15q7 14 20 28t35 27q53 32 84.5 61t44.5 62q7 17 1.5 29t-22.5 14t-35.5 -5t-34.5 -20q-23 -17 -34.5 -41t-3.5 -39
q2 -5 5.5 -6t2.5 -3t-4.5 -2t-6.5 1q-14 3 -16.5 15t0.5 23q5 17 19 31.5t32 28.5q23 17 47.5 26.5t48.5 9.5h1zM68 44q11 0 14.5 -7.5t-5.5 -18.5q-9 -12 -24 -19.5t-23 -7.5q-4 5 -4.5 15t3.5 19q5 11 14.5 15t23.5 4h1z" />
    <glyph glyph-name="at" unicode="@" horiz-adv-x="495" 
d="M319 264q53 0 79.5 -24.5t24.5 -58.5q-1 -13 -6.5 -26.5t-13.5 -24.5q4 -10 4 -19q0 -14 -4.5 -28t-15.5 -28q-26 -30 -67.5 -49.5t-96.5 -17.5q-51 1 -82 20.5t-43 48t-5 62t32 62.5q29 34 80 58.5t113 24.5h1zM317 256q-26 0 -50 -8t-45.5 -20.5t-38.5 -27.5t-27 -29
q-23 -29 -31.5 -59.5t-0.5 -55.5t32.5 -41.5t68.5 -17.5q51 -2 90.5 17.5t62.5 46.5q10 12 15.5 26t5.5 23q0 8 -1 11q-6 -8 -9 -11q-13 -14 -34.5 -29t-46.5 -15q-34 0 -37 22q-2 11 8 24h-1q-18 -17 -39 -31t-38 -14q-11 0 -21 5.5t-8 22.5q2 13 13 31t37 37q9 6 20 12
t23 10t23.5 6t19.5 1q11 -2 14.5 -9t1.5 -14h1q11 13 18.5 18t15.5 6q19 0 9 -11q-16 -20 -32.5 -40.5t-24.5 -34.5q-8 -12 -4.5 -20t15.5 -8q14 0 31 12t28 25q4 5 7 9.5t5 9.5q-2 6 -7 12q-4 5 -3 7q1 3 6 -2t8 -9q4 9 6.5 19t3.5 20q1 29 -20.5 51.5t-68.5 22.5h-1z
M301 184q-9 0 -25 -12t-35 -30q-36 -38 -36 -54q0 -7 8 -7q10 0 25 10t29 22q16 14 31 32.5t17 26.5q1 12 -13 12h-1z" />
    <glyph glyph-name="A" unicode="A" horiz-adv-x="690" 
d="M21 57q0 26 16 43t36 18q17 2 27 -7t10 -23q0 -11 -6 -18.5t-17 -15.5q-8 -5 -13 -11t-5 -14q0 -16 24.5 -26.5t73.5 -6.5q29 3 57.5 11.5t55 20.5t50.5 26.5t45 28.5q-7 6 -16.5 17.5t-18 26.5t-14.5 32.5t-6 36.5q1 45 33 75.5t86 29.5q20 -1 37 -8.5t30.5 -18
t22.5 -23t14 -22.5q10 10 24 23t23 21q40 36 76 65.5t74 49.5q29 16 60 27t60 11q14 0 22.5 -3.5t12.5 -6.5q5 -4 7 -8t0 -6q-1 0 -11 7q-8 6 -22 6q-18 0 -32 -11q-8 -7 -18.5 -18t-21.5 -23.5t-21.5 -26.5l-19.5 -26q-47 -65 -95.5 -138.5t-91.5 -143.5q25 2 56 17
q16 8 33.5 21.5t29.5 24.5q6 6 10 3q2 -3 -8 -13q-11 -10 -27 -22.5t-35 -22.5q-16 -8 -33 -12.5t-31 -5.5q-11 -11 -19.5 -17t-19.5 -8t-16.5 -1t-8 3.5t-2 5.5t2.5 6q2 5 4 8.5t4 6.5q-14 2 -33 7.5t-32 10.5q-17 7 -33 16.5t-26 18.5q-14 -10 -37 -24.5t-52.5 -29
t-63 -25t-68.5 -13.5q-29 -2 -55 1.5t-45.5 12.5t-31 23.5t-11.5 35.5v1zM558 99q9 13 24 35.5t32 47t34.5 48.5t30.5 41q46 60 86 94t75 51v1q-17 -2 -43 -11.5t-52 -23.5q-35 -20 -70 -48.5t-64 -54.5q-18 -17 -33 -31l-30 -28q4 -11 7.5 -26.5t5.5 -38.5q2 -29 -3 -56z
M439 286q-20 0 -34.5 -8t-25 -20.5t-16 -29t-6.5 -34.5q-1 -16 2.5 -31t8.5 -28t11 -23.5t11 -16.5q16 13 34.5 28.5t38.5 33.5l36 32t35 32q-15 28 -39 46.5t-55 18.5h-1zM397 86q8 -10 23 -19t29 -16q12 -5 31.5 -11t33.5 -8l7.5 12.5t9 14.5t8 12.5t5.5 8.5q5 11 6.5 32
t-0.5 42q-2 18 -4 32.5t-7 25.5q-18 -17 -35.5 -33t-34.5 -31q-20 -18 -37.5 -33t-34.5 -29z" />
    <glyph glyph-name="B" unicode="B" horiz-adv-x="640" 
d="M401 -9q-14 0 -28.5 2.5t-26 8t-19 15t-7.5 23.5q0 24 19.5 40t42.5 16q13 0 22 -6t9 -18t-8.5 -18.5t-17.5 -10.5q-8 -3 -15 -7.5t-9 -12.5q-2 -13 11 -18.5t27 -5.5q24 0 49 12.5t45.5 33.5t34 48.5t15.5 58.5q1 18 -5 30.5t-15.5 20t-20 10.5t-17.5 2q-9 -2 -15 -2.5
t-14 -0.5q-10 0 -17.5 1.5t-6.5 6.5t10 6.5t17 1.5q10 0 16.5 -1t13.5 -2q32 5 61.5 30.5t37.5 60.5q12 50 -22 71q-6 -6 -12 -11.5t-11 -11.5q-28 -28 -56.5 -65t-67.5 -89q-35 -47 -72.5 -88.5t-77 -73t-82 -50t-85.5 -18.5q-47 0 -76.5 17t-29.5 59q0 43 38 103.5
t127 125.5q43 31 89 54t92.5 38t91 22.5t83.5 7.5q21 0 39 -3q26 19 50.5 32.5t45.5 21.5q22 9 47.5 15t51.5 6q24 0 43 -7t27 -20q5 -8 2 -9q-1 0 -6 5q-8 10 -25 16.5t-40 6.5q-22 0 -46.5 -5.5t-47.5 -16.5q-36 -16 -79 -51q28 -11 44.5 -31t10.5 -51q-3 -21 -16.5 -37.5
t-32 -28.5t-39.5 -19t-39 -10v-1q46 -8 68 -31.5t20 -54.5q-2 -32 -18.5 -58t-43.5 -45t-61.5 -29.5t-72.5 -10.5zM38 55q0 -29 16 -47.5t49 -18.5q34 0 64 16t57.5 42.5t54.5 61.5t56 73q49 64 99.5 114.5t85.5 79.5q6 5 12.5 9.5t12.5 9.5q-14 3 -32 3q-36 0 -77.5 -7.5
t-85 -22.5t-87 -37.5t-83.5 -52.5q-41 -32 -68 -63t-43.5 -60.5t-23.5 -55t-7 -44.5z" />
    <glyph glyph-name="C" unicode="C" horiz-adv-x="390" 
d="M266 466q36 0 69.5 -17t53.5 -46q11 3 25 5.5t28 3.5q24 1 46.5 -1.5t39.5 -11.5t25.5 -24t4.5 -38t-24 -40.5t-47.5 -29t-60 -17t-60.5 -5.5q-42 0 -83 10t-68 30q-29 -26 -52.5 -55t-41 -58.5t-27 -58t-9.5 -52.5q0 -44 24 -62.5t62 -18.5q45 0 80.5 16t64.5 36
q20 14 36.5 28t25.5 22q11 10 15.5 13t6.5 1t-1 -5.5t-7 -7.5q-18 -17 -36.5 -33t-35.5 -27q-31 -22 -68.5 -38.5t-82.5 -18.5q-62 -2 -102 21.5t-42 79.5q-1 33 12.5 66.5t37 65.5t53.5 60t61 51q-11 14 -18 30t-7 33q0 21 8.5 38t22.5 29.5t32.5 19t38.5 6.5zM368 255
q27 0 53 6t47 17.5t35 27t18 33.5q8 35 -13.5 51t-61.5 15q-11 0 -27.5 -3t-25.5 -7q6 -11 10.5 -26t6.5 -29q2 -12 0.5 -19t-3.5 -6t-2 5t-2 15q-3 15 -10 30.5t-14 24.5q-40 -15 -82 -42t-74 -56q26 -20 65 -28.5t80 -8.5zM258 453q-32 0 -56.5 -21.5t-24.5 -59.5
q0 -30 20 -56q41 27 87.5 49t88.5 34q-23 26 -53 40t-62 14z" />
    <glyph glyph-name="D" unicode="D" horiz-adv-x="673" 
d="M356 273q0 21 -12 33t-32 13t-37.5 -7.5t-27.5 -18.5t-13 -15.5t-5 -4.5t1 7.5t11 15.5q9 11 28.5 22.5t45.5 9.5q23 -1 39.5 -15.5t16.5 -41.5q0 -28 -16 -56.5t-44 -51.5q-29 -24 -68.5 -38.5t-85.5 -12.5q-55 3 -86 27t-30 71q1 45 31 83.5t79 67t110.5 45t125.5 16.5
q31 0 62.5 -4t60.5 -12.5t54 -21t45 -29.5q9 6 27.5 16.5t37.5 18.5q20 8 45 14t53 6q20 0 34 -5t22 -10q5 -4 8 -8.5t1 -6.5q-2 -1 -4 2t-10 8q-6 4 -19 7.5t-32 3.5q-24 0 -48 -6t-45 -15q-20 -9 -36.5 -19.5t-23.5 -16.5q22 -25 33.5 -54t12 -60t-8 -61t-26.5 -56
q-21 -31 -53 -54t-70 -38t-78.5 -22t-78.5 -7q-39 0 -78 1.5t-59 3.5q-21 -2 -49.5 -4t-49.5 -2h-63t-50 1.5t-33 5.5t-12 11q2 14 43 17.5t102 1.5q27 -1 65 -5.5t69 -9.5q31 9 56.5 27.5t48.5 42t44.5 51t44.5 54.5q18 21 39.5 44t43 44t43 39t39.5 30q-17 17 -41 30
t-52 21.5t-57.5 12.5t-56.5 4q-59 0 -114 -17t-97 -46t-67 -67.5t-26 -80.5q0 -33 18.5 -55.5t56.5 -24.5q43 -2 78.5 13t62.5 39q26 24 41.5 50.5t15.5 47.5v1zM250 11q5 -1 15.5 -2.5t22.5 -3t24.5 -2.5t21.5 -1q77 0 141.5 33t112.5 99q18 25 28 52t12.5 54t-3 51
t-20.5 43q-13 -12 -27.5 -31t-30.5 -41t-32.5 -45.5t-32.5 -44.5q-29 -35 -57 -61t-56 -45t-57.5 -32t-61.5 -23z" />
    <glyph glyph-name="E" unicode="E" horiz-adv-x="390" 
d="M225 263q0 15 6.5 30.5t15.5 28.5q-19 14 -31 33t-12 41q0 30 21 48t53 20q29 2 63.5 -12t58.5 -43q17 3 36.5 5t37.5 1q51 -2 77 -20.5t26 -42.5q0 -17 -12 -31.5t-33 -25.5t-48 -17.5t-57 -6.5q-39 0 -75 7t-65 21q-4 -5 -8 -13t-7 -17q-6 -18 -3 -32q8 2 23 3t26 0
q22 -1 39 -6.5t15 -18.5q-2 -11 -19 -15t-36 -4q-23 0 -46.5 7t-33.5 20q-20 -8 -45 -24t-46 -36q-24 -23 -40.5 -52t-18.5 -58q-2 -35 21.5 -54t60.5 -19q45 0 81.5 16t65.5 36q10 7 20.5 15t20 16.5t17.5 15.5t13 11q10 9 13 6q2 -2 0.5 -4.5t-9.5 -9.5q-5 -5 -13.5 -12.5
t-18.5 -16t-20.5 -16.5t-18.5 -14q-31 -22 -68.5 -38.5t-82.5 -18.5q-65 -3 -104 19t-39 70q0 27 14 54t41 50t65.5 41.5t85.5 29.5q-7 11 -7 33zM425 281q25 0 48 5t40.5 14t28.5 22t11 30q1 18 -15.5 35.5t-60.5 19.5q-34 0 -68 -12q10 -20 13 -44q3 -26 -2 -26
q-2 0 -2 4.5t-3 15.5q-3 12 -9 23.5t-13 20.5q-19 -9 -37.5 -22.5t-35.5 -28.5q-5 -4 -13.5 -13.5t-14.5 -17.5q27 -14 62 -20t71 -6zM381 405q-19 23 -48 37.5t-57 12.5q-26 -2 -44.5 -16.5t-18.5 -41.5q0 -19 11 -35.5t29 -31.5q4 5 10 11.5t11 10.5q42 36 107 53z
M271 230q3 -12 17.5 -18t29.5 -7q14 -1 25 2t11 11q0 7 -12 10t-24 4q-8 1 -22.5 0.5t-24.5 -2.5z" />
    <glyph glyph-name="F" unicode="F" horiz-adv-x="546" 
d="M347 401q-35 0 -67.5 -6t-58 -19t-43.5 -33.5t-25 -48.5q-3 -14 -2 -29.5t8.5 -31t21.5 -29.5t38 -24q8 -3 11 -3.5t2 -2.5t-6 -1.5t-13 2.5q-45 16 -64 51t-14 75q4 28 20.5 52t44.5 41.5t66.5 27.5t85.5 10q32 0 77.5 -8.5t92.5 -21.5q25 -7 50.5 -14t51.5 -14
q20 11 50 19.5t60 8.5q26 0 44.5 -7.5t17.5 -23.5q-1 -13 -16.5 -20.5t-40.5 -7.5q-31 0 -56.5 2.5t-54.5 7.5q-8 -5 -18 -14.5t-21 -20.5t-21.5 -22.5t-18.5 -21.5q-23 -29 -40.5 -52.5t-38.5 -49.5h20t23 1t23 2.5t19 4.5q3 4 8.5 10.5t11.5 12t12.5 9t13.5 2.5
q12 -3 4.5 -12t-24.5 -25q-16 -14 -26.5 -24.5t-19.5 -21.5q-5 -5 -6.5 -8.5t-3.5 -2.5q-3 1 -1 7.5t5 12.5q4 8 9.5 16t8.5 12q-14 -4 -37 -5.5t-49 -1.5q-5 -7 -11 -13.5t-12 -13.5q-63 -68 -137.5 -110t-160.5 -42q-21 0 -42.5 3.5t-38.5 11.5t-27.5 21.5t-11.5 33.5
q-1 19 12 34.5t36 15.5q14 0 23 -9t7 -22q-2 -8 -6 -14t-9 -11q-13 -13 -13 -23q0 -8 6.5 -14t16 -10t21.5 -6t24 -2q56 0 108 26.5t92 70.5q19 20 33 37.5t28 36.5h-31.5t-23.5 -1q-16 -1 -21 -2.5t-5 3.5q1 3 8.5 5t25.5 4q8 1 25 1h29q11 14 22.5 28.5t28.5 33.5
q18 19 38.5 38.5t40.5 36t37 29.5t29 20q-17 4 -38.5 9t-47.5 11q-15 3 -35.5 7t-43.5 7.5t-46.5 6t-43.5 2.5zM733 393q-24 0 -47 -7t-40 -18q28 -8 54.5 -12t42.5 -4q17 0 29.5 5t13.5 15t-13.5 15.5t-39.5 5.5z" />
    <glyph glyph-name="G" unicode="G" horiz-adv-x="449" 
d="M577 367q0 -21 -10 -41.5t-26.5 -39.5t-39.5 -36t-48 -30q-45 -23 -95.5 -33t-93.5 -10q-24 0 -48.5 4t-41.5 10q-22 -32 -36 -63.5t-17 -63.5q-2 -26 10.5 -42.5t35.5 -17.5q40 -1 80.5 27.5t83.5 73.5q12 12 24.5 21.5t23.5 9.5q14 0 17.5 -3.5t-4.5 -12.5
q-14 -17 -25 -31.5t-25 -34.5l-12 -16t-12.5 -17t-15 -19.5t-19.5 -25.5v-1q18 10 43 25.5t52 35.5q20 14 36.5 27.5t33.5 28.5q5 4 8.5 6.5t5.5 0.5q3 -3 -13 -18q-9 -8 -26 -22t-34 -26q-31 -23 -61.5 -41.5t-55.5 -32.5q-18 -26 -30.5 -44t-25.5 -34.5t-28.5 -35.5
t-39.5 -47q-30 -35 -62.5 -64.5t-64.5 -51t-60 -34t-49 -12.5q-16 0 -30 8.5t-12 33.5q2 22 19 44.5t40.5 43.5t49.5 39t46 31q33 21 56 34t43.5 24t41.5 23.5t51 30.5q7 10 21 28.5t28 38.5q16 22 34 48q-31 -31 -66.5 -51t-67.5 -22q-43 -4 -72 13t-32 59q-2 32 14.5 72.5
t48.5 80.5q-24 16 -39.5 40.5t-15.5 54.5t13 53t34.5 39t49.5 24.5t59 8.5q34 0 66.5 -11.5t57.5 -37.5q45 20 83.5 29.5t64.5 9.5q13 0 27 -2.5t25.5 -9t19 -18t7.5 -28.5zM565 369q0 14 -6.5 22.5t-16 13.5t-21.5 7t-23 2q-27 0 -61.5 -10.5t-74.5 -33.5q8 -12 14.5 -27.5
t8.5 -26.5q3 -15 2.5 -22t-2.5 -7q-2 -1 -2.5 5.5t-5.5 19.5q-5 14 -12.5 27t-16.5 23q-25 -17 -51 -38t-53 -48q-36 -36 -64 -78q39 -12 83 -12q42 0 87 11t91 36q24 12 46 29t39.5 36t28 37.5t10.5 33.5zM219 423q-27 0 -52 -7.5t-44.5 -22t-31 -35.5t-11.5 -48
q0 -28 14.5 -50.5t36.5 -37.5q15 17 39.5 41.5t49.5 43.5q58 44 113 71q-50 45 -114 45zM206 -68q-22 -14 -40 -24.5t-38 -22t-45 -26t-59 -36.5q-20 -13 -42.5 -31t-41.5 -38t-31.5 -40.5t-12.5 -37.5q0 -23 23 -26q24 -3 62 20q26 16 60.5 50t67.5 79q28 37 52 69t45 64z
" />
    <glyph glyph-name="H" unicode="H" horiz-adv-x="650" 
d="M528 383q-29 -11 -81 -11t-133 3q-44 1 -83.5 -6.5t-69.5 -25t-47.5 -44.5t-17.5 -64q0 -13 4.5 -27t13.5 -27.5t23 -24.5t32 -17q7 -2 10 -2.5t2 -2.5t-7.5 -2.5t-11.5 1.5q-38 11 -61 40.5t-25 63.5q-1 34 12.5 63.5t42 51.5t71 33.5t99.5 10.5q25 -1 61 -4t71 -4.5
t64 -1t41 7.5q11 6 19.5 10.5t13.5 1.5t0 -6.5t-13 -11.5q-19 -18 -36 -36.5t-36 -42.5q-23 -28 -39.5 -50.5t-30.5 -40.5h143q12 14 29.5 33.5t54.5 53.5q35 33 70.5 59t55.5 37t47.5 20.5t52.5 9.5q28 0 43.5 -10.5t19.5 -21.5q5 -13 -1 -15q-2 -1 -2.5 1.5t-2.5 7.5
q-6 12 -19 20t-37 8t-48 -10t-43 -24q-20 -14 -40.5 -33.5t-50.5 -51.5q-20 -21 -39.5 -45.5t-30.5 -38.5q20 -1 43 -1.5t37 -2.5q6 -1 14.5 -2t8.5 -3q0 -3 -8.5 -3h-13.5h-50t-41 -1q-17 -21 -36 -46.5t-35.5 -49.5t-27 -45.5t-10.5 -35.5q0 -9 5.5 -13t13.5 -4
q13 0 30.5 7t40.5 24q11 8 28.5 22.5t28.5 24.5q9 8 12 5q2 -3 -6 -11q-10 -9 -28 -24.5t-30 -24.5q-6 -4 -15.5 -11t-22 -13.5t-26.5 -11t-29 -4.5q-22 0 -35 11t-13 33q0 19 11.5 43.5t27 48t31.5 44t25 31.5l-141 -1q-36 -45 -72 -85t-75 -70.5t-83.5 -48.5t-97.5 -18
q-18 0 -36 4t-32 13.5t-23 24.5t-9 36q0 20 14.5 36.5t37.5 15.5q15 -1 24.5 -11t7.5 -26q-1 -17 -16 -30q-13 -12 -13 -25q2 -16 18 -22.5t32 -6.5q40 0 78 23t71.5 56t62 70t49.5 64q-12 0 -30 -0.5t-44 -1.5h-13t-6 5q1 3 9.5 4t19.5 2q14 2 33 2.5t41 1.5q20 24 43.5 49
t47.5 47.5t45.5 41t36.5 28.5z" />
    <glyph glyph-name="I" unicode="I" horiz-adv-x="440" 
d="M613 413q-17 -5 -38.5 -9.5t-44.5 -10.5q-47 -12 -83 -25t-64 -30q-11 -6 -22.5 -15.5t-21 -20t-15.5 -22.5t-6 -23q0 -13 8 -19.5t19 -6.5q8 0 15 2.5t12 6.5q9 6 10 5q2 -3 -5 -10q-5 -5 -15 -9.5t-21 -4.5q-23 0 -35 12.5t-12 29.5q0 29 24.5 52.5t62.5 40.5
q30 15 70 27t77 20q29 7 52.5 11.5t39.5 11.5q5 2 10 4.5t10 1.5q6 -2 4.5 -8t-6.5 -8q-24 -11 -48.5 -37t-44.5 -55q-9 -14 -20.5 -31t-23.5 -35t-24 -35t-22 -31q-85 -109 -170.5 -159.5t-180.5 -50.5q-22 0 -44 4t-39 13.5t-28 24.5t-11 36q0 20 14.5 40t41.5 20
q16 0 26 -9.5t8 -25.5t-19 -30l-12.5 -12.5t-6.5 -17.5q0 -14 18.5 -23.5t48.5 -9.5q40 0 78.5 15t75 41.5t72 63.5t70.5 81q12 15 25.5 32.5t27 34.5t26.5 33t23 28q12 14 26.5 28t29.5 26.5t30 22t28 15.5z" />
    <glyph glyph-name="J" unicode="J" horiz-adv-x="335" 
d="M161 -21q26 10 54 26t67 44q13 10 25 19.5t26 22.5q13 12 16 9t-13 -18q-13 -11 -27.5 -23t-28.5 -23q-7 -6 -17 -12.5l-20 -13t-19 -11.5t-14 -8q-20 -11 -33.5 -17.5t-26.5 -11.5q-13 -16 -32 -39.5t-39 -43.5q-51 -54 -110 -101t-114 -74q-26 -13 -50.5 -20t-44.5 -7
q-7 0 -16.5 1.5t-18.5 6t-15 12.5t-6 22q0 32 45 69.5t126 76.5q43 21 93.5 42.5t113.5 44.5q51 69 100.5 130t91.5 108q23 26 64 64.5t90 77.5q25 20 47.5 35t36.5 25q11 8 11 9q0 5 -10 5q-40 1 -94.5 -12.5t-117.5 -46.5q-34 -18 -63.5 -40t-51 -46t-34 -48t-12.5 -46
q0 -17 7 -28.5t21 -15.5q11 -3 14 -1t4 -1q1 -2 -4.5 -4.5t-13.5 -1.5q-23 2 -37 19.5t-14 44.5q0 21 9.5 45.5t30.5 50.5t55 51.5t83 46.5q19 8 45.5 16.5t56.5 14.5t61 9.5t59 1.5q7 -1 15.5 -3.5t6.5 -11.5q-1 -3 -6 -7.5t-12 -9.5q-11 -8 -27 -23t-33 -31
q-33 -32 -62.5 -64.5t-61.5 -70.5q-24 -29 -50.5 -60.5t-50.5 -61t-44 -54.5t-31 -39zM73 -63q-24 -9 -51 -19.5t-53.5 -21.5t-50.5 -22t-42 -20q-74 -38 -110 -73t-33 -63q2 -13 11.5 -18.5t21.5 -6.5q19 -2 41.5 4t42.5 16q45 23 87.5 65t87.5 96q10 12 23.5 30.5
t24.5 32.5z" />
    <glyph glyph-name="K" unicode="K" horiz-adv-x="606" 
d="M834 367q0 -17 -11 -32t-29 -25.5t-40 -16t-44 -3.5q-11 1 -21 4t-15 6t-3 6q1 1 6 -1q6 -2 14 -4t18 -3q20 -2 40.5 2.5t37.5 14t27.5 23t10.5 29.5q0 20 -14.5 31t-34.5 11q-22 0 -40.5 -9.5t-35 -24.5t-32.5 -35t-32 -41q-35 -45 -75.5 -71t-75.5 -37q8 -5 15.5 -15
t9.5 -21q7 -28 -16 -62q-14 -22 -25 -38t-11 -32q0 -6 4 -11.5t14 -5.5q12 0 29 9t43 29q17 13 27 21.5t19 16.5q5 5 11 9.5t8 2.5t-1.5 -6.5t-5.5 -6.5q-10 -9 -23.5 -21t-31.5 -26q-21 -17 -45.5 -30.5t-48.5 -13.5q-23 0 -35 11t-13 28q0 20 10.5 39.5t24.5 38.5
q12 17 24 32t12 28q0 11 -7 20q-6 -3 -14.5 -4.5t-15.5 -1.5q-9 0 -19 3t-9 11t11 11t21 2q8 -1 16.5 -4t13.5 -6q19 7 34.5 20t30 29t28 34t30.5 37q44 49 85 74.5t89 25.5q25 0 42.5 -13t17.5 -38zM-21 60q0 20 14.5 36t37.5 15q16 -1 25.5 -10t7.5 -26q-1 -9 -5.5 -17
t-11.5 -14q-7 -7 -10 -12t-3 -13q0 -15 17 -22t33 -7q40 0 78 24t72 57.5t62 69.5t48 60q12 16 28 35t33.5 37t34.5 34t32 26v1q-20 -13 -40 -21.5t-39 -13.5t-34 -7t-24 -2q-24 0 -45 4t-35.5 12t-22 21t-4.5 31q2 18 13.5 32t22.5 21q7 5 15 7.5t13 2.5q14 0 0 -12
q-7 -6 -15.5 -19t-10.5 -33q-2 -25 15.5 -41t54.5 -16q24 0 49.5 6.5t51 18t50 26.5t44.5 33q7 7 15 12.5t11 3.5q5 -4 1 -8.5t-10 -10.5q-23 -23 -62 -73q-23 -28 -43 -57t-36 -48q-36 -45 -72 -85.5t-75 -70.5t-83.5 -48t-97.5 -18q-18 0 -36 4t-32 13.5t-23 24.5t-9 37z
M443 188q5 0 12 1.5t11 3.5q-3 3 -9 5t-12 3q-7 1 -14 -0.5t-7 -5.5t5 -5.5t13 -1.5h1z" />
    <glyph glyph-name="L" unicode="L" horiz-adv-x="599" 
d="M252 350q0 19 9.5 37t28.5 31.5t46.5 21.5t62.5 8q56 0 93.5 -14.5t65.5 -37.5q19 8 43.5 13.5t46.5 5.5q20 1 38 -3.5t30.5 -13.5t18.5 -22.5t3 -30.5q-5 -24 -27.5 -42.5t-52.5 -31.5t-61.5 -20.5t-53.5 -10.5q-26 -3 -56.5 -3t-53.5 3q-25 -36 -46.5 -63.5t-42.5 -49
t-42.5 -39t-45.5 -33.5q10 -2 31 -7t44 -11q27 -7 57 -12.5t46 -5.5q44 0 80.5 16t82.5 56q4 3 7.5 6t5.5 1t-1 -6t-8 -9q-27 -26 -48.5 -44t-41 -30t-39.5 -17.5t-44 -5.5q-29 0 -58 6t-50 14q-25 10 -49 20.5t-34 12.5q-9 -7 -22.5 -16t-31 -16.5t-38 -13t-43.5 -5.5
q-62 -2 -60 23q1 12 16 22t37.5 16.5t48 9.5t47.5 3q11 0 24.5 -1t22.5 -3q21 19 37 40.5t31 45.5t31.5 50t38.5 55q-25 5 -47.5 14.5t-39.5 22t-27 29t-10 35.5zM438 249q23 -3 51 -2.5t55 4.5q22 3 48.5 11t50.5 21t42.5 30.5t23.5 39.5q5 25 -12 40t-49 14
q-17 0 -41 -7.5t-38 -16.5q12 -15 19 -34q7 -20 6.5 -28.5t-2.5 -8.5t-3 8t-12 27q-5 8 -11.5 16t-11.5 12q-29 -17 -58.5 -51.5t-57.5 -74.5zM261 353q0 -18 10 -33t26.5 -27t38.5 -21t46 -14q17 22 37.5 42.5t41.5 38t41.5 31t38.5 20.5q-21 14 -57.5 29t-89.5 15
q-64 0 -98.5 -24.5t-34.5 -56.5zM224 44q-11 3 -26 5.5t-31 1.5q-32 -1 -55.5 -11.5t-24.5 -24.5q-1 -10 9 -13.5t23 -2.5q12 0 26 3.5t28.5 9.5t27.5 14.5t23 17.5z" />
    <glyph glyph-name="M" unicode="M" horiz-adv-x="828" 
d="M84 -30q-21 0 -41.5 3t-37 11.5t-27.5 22.5t-12 35q-1 25 16 46.5t44 21.5q17 0 28.5 -9.5t9.5 -24.5q-2 -12 -8 -20t-14 -14l-12 -12t-7 -13q-3 -15 15.5 -25t56.5 -10q32 0 72.5 11t83.5 30t87 44.5t83 54.5q69 51 136.5 115.5t142.5 133.5q-36 7 -84 11.5t-114 4.5
q-41 0 -80 -8t-70.5 -24t-53.5 -40.5t-29 -58.5q-3 -15 -2 -31.5t8.5 -31.5t22.5 -28t39 -21q6 -2 9.5 -2.5t2.5 -2.5q-2 -6 -19 -1q-44 13 -65.5 47t-17.5 74q7 70 73.5 111t183.5 37q63 -2 117 -11.5t88 -14.5q4 4 9 8.5t10 9.5q7 6 15.5 12.5t16.5 5.5q11 -2 10.5 -8
t-11.5 -18q-4 -5 -7 -8t-7 -8q19 -3 39 -4.5t34 -0.5q20 1 48.5 4t54.5 14t42 22.5t25 23.5q10 12 8.5 17t2.5 7q5 2 6 -7.5t-3 -17.5q-5 -10 -13 -21.5t-25 -28.5q-18 -19 -39.5 -42t-44 -48t-44 -50t-39.5 -47q-20 -24 -39 -49t-34 -48t-24.5 -42.5t-9.5 -33.5
q0 -13 13 -13q12 0 32 10.5t44 30.5q15 12 27.5 22.5t20.5 18.5q9 8 12 5q2 -3 -9 -14q-10 -9 -23.5 -21t-32.5 -27q-15 -12 -38 -25.5t-44 -14.5q-19 -1 -31.5 7t-13.5 30q-1 27 20.5 61.5t53.5 76.5q15 19 35.5 43.5t43 48.5t45.5 46.5t42 38.5h-1q-51 -38 -101 -79
t-100 -84q-57 -50 -102.5 -90.5t-88.5 -81.5q-9 -8 -14 -13t-12 0q-6 5 -4 13t7 14q22 30 50 74t57.5 89.5t57 86.5t47.5 66h-1q-14 -14 -43 -42t-65.5 -62t-75.5 -68t-72 -58q-37 -28 -80.5 -53.5t-88.5 -45t-89 -31.5t-83 -12h-1zM568 96q15 13 36.5 32t46.5 40.5t52 44.5
t53 44q42 34 79 62.5t76 55.5v1q-22 -8 -47.5 -11.5t-48.5 -4.5q-17 0 -37.5 1.5t-39.5 3.5q-18 -26 -40 -62.5t-45 -74t-45 -73t-40 -59.5z" />
    <glyph glyph-name="N" unicode="N" horiz-adv-x="645" 
d="M-88 49q0 25 17.5 43t38.5 18q19 0 29 -9.5t10 -23.5q-1 -19 -18 -33l-12.5 -12.5t-7.5 -14.5q-2 -14 14 -23.5t54 -9.5q30 0 65 8t71.5 23t73.5 36.5t71 47.5q69 52 124 114t93 135q3 6 8.5 15.5t10.5 16.5q7 9 18 19.5t22 11.5q9 1 11.5 -3t-1.5 -10q-16 -22 -24 -56
q-5 -23 -7.5 -55t-5.5 -67q-5 -58 -12 -93.5t-16 -57.5h1q24 35 52 73t57.5 75.5t58 71.5t53.5 61q51 54 100 88.5t95 34.5q32 0 46.5 -18t15.5 -38q0 -10 -3 -10q-2 0 -2.5 3.5t-2.5 6.5q-5 12 -19.5 19.5t-37.5 7.5q-26 0 -51.5 -9t-49 -23.5t-44.5 -33t-39 -37.5
q-35 -37 -71 -80.5t-70 -88.5t-65 -89t-57 -81q-5 -7 -11 -14t-14 -2q-7 4 -6 11.5t4 15.5q14 40 21.5 76.5t11.5 83.5q5 48 7 83.5t10 58.5h-1q-15 -29 -38 -59.5t-50 -60t-57 -56.5t-59 -49q-72 -54 -148 -85.5t-140 -33.5q-22 0 -44 3.5t-40 12.5t-29 23.5t-11 37.5v1z
" />
    <glyph glyph-name="O" unicode="O" horiz-adv-x="407" 
d="M136 52q0 -13 3 -21.5t8 -16.5q4 -6 4 -7q-2 -3 -8 3q-8 8 -11.5 17t-5.5 26q-2 32 12.5 77.5t52.5 93.5q27 33 57.5 60.5t61 46t58.5 28t50 7.5q26 -3 34.5 -23t5.5 -49q-1 -14 -7 -33.5t-15.5 -41.5t-23 -44t-29.5 -42q-26 -31 -58.5 -58.5t-68 -48t-72.5 -31.5
t-71 -10q-14 0 -30.5 3.5t-31 12.5t-25 24.5t-13.5 40.5q-5 49 21.5 108.5t80.5 113.5q29 28 65 53t76 42.5t81 27t80 7.5q29 -2 50.5 -15t23.5 -40q2 -14 -3 -27.5t-12 -21.5q-3 -4 -7.5 -7t-6.5 -1q-1 2 1 3.5t7 8.5t8.5 18.5t1.5 25.5q-2 20 -20.5 31t-42.5 12
q-33 1 -71 -13t-74 -36t-67.5 -47.5t-50.5 -47.5q-25 -29 -44 -59t-31 -58.5t-16.5 -54t-1.5 -45.5q5 -28 24 -38.5t38 -11.5q52 -2 110 37.5t118 114.5q16 20 31 42.5t27 45t20 44.5t10 40q5 35 -22 38q-19 2 -44.5 -8t-53 -29.5t-56 -46.5t-53.5 -58q-36 -46 -55 -89.5
t-19 -72.5z" />
    <glyph glyph-name="P" unicode="P" horiz-adv-x="567" 
d="M394 282q0 19 -12 31.5t-30 13.5q-21 1 -38.5 -8t-26.5 -17q-10 -9 -13.5 -15t-5.5 -5t1.5 8.5t12.5 17.5q8 8 26.5 19.5t46.5 9.5q22 -1 38.5 -15t16.5 -42t-16.5 -57t-44.5 -52t-64.5 -37.5t-75.5 -12.5q-53 2 -83 23t-28 67q1 44 30 82t76.5 66.5t110 45t130.5 16.5
q58 0 96.5 -11.5t61.5 -25.5q13 10 32.5 21t37.5 19q17 8 45 14.5t56 6.5q24 0 44.5 -6.5t28.5 -20.5q4 -8 0 -9q-2 0 -2.5 1.5t-3.5 4.5q-19 21 -66 21q-23 0 -48 -5.5t-47 -15.5q-20 -9 -37.5 -20t-28.5 -19q14 -12 25.5 -28.5t16.5 -37t0.5 -44.5t-22.5 -50
q-15 -22 -35.5 -36t-41.5 -22.5t-40.5 -12t-32.5 -4.5t-28 0t-22 3q-51 -54 -96.5 -80.5t-71.5 -37.5v-1q10 -2 24 -4.5t28.5 -5t27 -4t21.5 -1.5q22 0 42.5 4.5t38.5 17.5q8 5 9.5 7.5t3.5 0.5q2 -1 0.5 -5t-9.5 -11q-17 -15 -41.5 -24.5t-54.5 -9.5q-33 0 -67 6t-61 13
q-31 -11 -73 -16t-81 -5q-14 0 -29.5 1t-29.5 5t-23 10t-9 17q0 20 27.5 30.5t75.5 8.5q16 -1 37.5 -4t43.5 -7t43 -8.5t37 -8.5q42 25 79 64t81 92q18 22 39.5 47.5t44.5 50.5t48 48t50 40q-16 12 -55 25t-87 13q-62 0 -116.5 -14.5t-95.5 -41.5t-66.5 -65t-28.5 -85
q-2 -30 14.5 -52t54.5 -24q37 -2 71 13.5t59 39t40 50.5t15 49zM442 154q6 -2 16 -2.5t21 1.5q35 5 66 25.5t54 52.5q14 20 19.5 40t4.5 37.5t-7 32t-15 23.5q-17 -15 -36 -39.5t-37.5 -51.5t-35 -52.5t-29.5 -41.5q-8 -10 -13 -16t-8 -9zM212 15q-13 3 -30 6.5t-34.5 6.5
t-35 5.5t-30.5 3.5q-37 3 -61.5 0.5t-24.5 -16.5q0 -7 8.5 -11.5t20.5 -7t25.5 -3.5t23.5 -1q19 0 39 1t39 3.5t34.5 5.5t25.5 7z" />
    <glyph glyph-name="Q" unicode="Q" horiz-adv-x="500" 
d="M391 280q0 14 -13 25.5t-34 10.5q-16 -1 -29 -6.5t-21 -12.5q-11 -9 -14 -14t-5 -4q-5 4 13 22q8 8 24 16.5t36 8.5q26 0 43.5 -13t17.5 -41q0 -18 -11 -40t-34 -42q-27 -24 -64 -37.5t-75 -13.5q-34 0 -56.5 17t-24.5 51q-1 19 5 39t17 39.5t26.5 36.5t32.5 30
q21 17 46 29.5t50.5 20.5t49 12t41.5 4q24 0 48 -5.5t43.5 -17t32 -30t13.5 -45.5q1 -28 -10 -53.5t-29 -49t-41.5 -43.5t-47.5 -37q-20 -14 -48.5 -29.5t-58.5 -29.5t-58.5 -26t-49.5 -18v-1q26 -6 57.5 -13.5t56.5 -7.5q48 0 90 19t86 58q6 6 9 7.5t5 -0.5t-2 -6.5
t-6 -6.5q-45 -41 -91.5 -69t-99.5 -28q-42 0 -80 8.5t-72 18.5q-31 -11 -69.5 -18t-76.5 -7q-13 0 -27.5 1.5t-26.5 5t-20 9.5t-8 16q0 20 28.5 32t80.5 12q16 0 35.5 -2t39.5 -5.5t39.5 -8t36.5 -9.5q38 15 92 45t108 77q46 39 77 80.5t31 89.5q0 78 -87 78q-40 0 -86 -20
t-90 -56q-37 -32 -58.5 -64t-19.5 -62q2 -29 20.5 -44t46.5 -15q33 0 66 16.5t58 39.5q19 17 30.5 36t11.5 40zM143 20q-25 5 -56.5 11.5t-54.5 8.5q-16 1 -31.5 1t-28 -2.5t-20 -6.5t-7.5 -11t7 -11.5t17.5 -7t22.5 -3.5t22 -1q37 0 73.5 7.5t55.5 14.5z" />
    <glyph glyph-name="R" unicode="R" horiz-adv-x="659" 
d="M770 439q-20 0 -43.5 -5.5t-41.5 -13.5q-17 -7 -33 -15.5t-25 -15.5q8 -5 19.5 -16t20 -26t11 -34.5t-6.5 -41.5q-8 -19 -24 -32.5t-35 -22.5t-39 -13t-35 -4v-1q13 -5 23 -16t12 -26t-5 -30.5t-15 -26.5l-25 -37.5t-11 -32.5q0 -6 4 -11.5t15 -5.5q22 0 72 38
q16 12 28 22t20 18q10 10 14 7q2 -3 -7 -12q-19 -19 -53 -46q-22 -17 -46 -30t-47 -13q-24 0 -36 11t-12 29q-1 19 10.5 39.5t24.5 37.5q14 18 25 33t10 29q0 9 -6 14.5t-12 8.5q-5 -1 -11 -1.5t-11 0.5q-7 1 -11 2t-7 3q-5 -8 -13.5 -19t-14.5 -19q-27 -33 -52 -56.5
t-48 -40t-44.5 -27.5t-42.5 -20q10 -2 25 -4.5t24 -3.5q43 -3 73 17q11 8 13 10.5t4 1.5t0.5 -5.5t-9.5 -11.5q-20 -18 -44 -25.5t-50 -7.5q-18 0 -41 5t-36 9q-30 -9 -72.5 -13.5t-78.5 -3.5q-14 0 -29.5 1.5t-29.5 5.5t-23 10.5t-9 15.5q0 20 27.5 30.5t75.5 8.5
q16 -1 36.5 -5t42.5 -9t44 -10.5t41 -9.5q28 14 62.5 46.5t83.5 98.5q66 86 117.5 138t88.5 76q-17 11 -47 19t-78 8t-95 -13.5t-86.5 -38t-68 -58.5t-37.5 -74q-10 -40 3 -70t49 -33q17 -2 21 0.5t6 0.5t-6.5 -6.5t-22.5 -4.5q-45 2 -72 32t-17 82q8 42 38 77.5t75 61
t100 39.5t113 14q53 0 87.5 -9t51.5 -17q12 9 30.5 18.5t33.5 15.5q16 7 40.5 13t50.5 6q23 0 43.5 -6.5t28.5 -19.5q4 -6 4.5 -10.5t-1.5 -4.5t-2.5 2t-6.5 9q-9 10 -26.5 15.5t-40.5 5.5zM614 377q-16 -13 -32 -32.5t-33 -42.5t-32.5 -46.5t-30.5 -43.5h7.5t11.5 -1
q6 -1 10.5 -2t9.5 -3q33 2 63.5 22t44.5 52t6.5 57.5t-25.5 39.5zM208 10q-13 3 -29.5 7t-33.5 7.5l-34 7t-30 4.5q-37 4 -61.5 1t-24.5 -17q0 -6 8.5 -10t20.5 -7t25.5 -4.5t23.5 -1.5q18 0 38 0.5t38 2.5t33.5 4.5t25.5 5.5z" />
    <glyph glyph-name="S" unicode="S" horiz-adv-x="545" 
d="M383 216q42 17 79 33t77 32q27 42 56.5 74.5t59.5 53.5q16 11 32 17t30 7q12 1 24 -4.5t10 -22.5q-1 -12 -11.5 -26t-27 -28t-39 -27t-47.5 -23q-5 -2 -13 -5.5t-14 -5.5q-14 -26 -26.5 -51t-24.5 -48q-29 -56 -64.5 -96t-77 -66t-87 -39.5t-94.5 -16.5q-40 -2 -85 4.5
t-78 29.5q-28 -25 -49.5 -49t-30.5 -44q-5 -10 -8 -9q-2 1 -1.5 5.5t1.5 6.5q8 22 27.5 48t47.5 52q-16 14 -27.5 38t-9.5 56q3 37 25.5 65t54 47.5t66.5 30t63 12.5q20 2 43.5 0.5t46.5 -7.5t42 -17t30 -27zM605 305q4 2 9 3.5t9 3.5q21 9 41 20t36.5 23.5t27 25.5t12.5 25
q2 11 -5.5 15.5t-17.5 2.5q-21 -3 -46 -28q-14 -13 -32.5 -39t-33.5 -52zM249 70q-18 0 -38.5 5t-37.5 16q-16 -11 -30.5 -21t-29.5 -21q-9 -7 -17 -13t-16 -13q28 -27 71 -35t83 -5q80 7 140.5 58.5t114.5 151.5q11 20 22 38t22 35v1q-37 -15 -71.5 -30t-71.5 -32
q6 -14 6 -31q-1 -25 -15 -44.5t-35 -32.5t-47 -20t-50 -7zM247 80q21 0 42.5 6.5t40 18.5t30.5 29.5t13 38.5q0 13 -3 24q-16 -8 -32.5 -15.5t-34.5 -15.5q-25 -12 -57 -29.5t-65 -39.5q17 -9 34.5 -13t31.5 -4zM367 208q-9 17 -26 27.5t-37.5 16t-42.5 7t-40 -0.5
q-26 -2 -55.5 -11.5t-55 -26.5t-43 -43t-20.5 -61q-2 -26 4.5 -46.5t17.5 -33.5q13 13 31 26q14 11 27.5 20t30.5 20q-18 16 -21 38q-2 10 3 10q1 0 3 -8q3 -11 9.5 -19t14.5 -15q32 20 66.5 37.5t67.5 32.5l66 30v0z" />
    <glyph glyph-name="T" unicode="T" horiz-adv-x="620" 
d="M716 513q-42 0 -75 -14.5t-52 -36.5q-10 -11 -15 -27q-2 -7 -2.5 -10.5t-2.5 -3.5q-4 0 -2 13q2 17 15 34q19 25 53.5 41.5t81.5 16.5q31 0 57.5 -7t44.5 -21t25.5 -34t2.5 -46q-4 -21 -19.5 -37t-39.5 -26t-56 -14.5t-68 -3.5q-6 0 -13 0.5t-12 -1.5q-14 -5 -34.5 -21
t-41.5 -41q-16 -19 -28 -36t-24.5 -34t-27 -34.5t-33.5 -35.5q-55 -50 -118 -78.5t-112 -38.5v-1q8 -1 24.5 -2.5t37.5 -3t46 -2.5t51 -1q64 1 108 11t87 38q13 8 24 17.5t19 16.5q10 8 13 6q3 -3 -8 -13q-8 -8 -20 -18t-25 -19q-43 -30 -92.5 -44t-119.5 -14q-29 0 -58 1.5
t-55 3.5t-47.5 4.5t-34.5 4.5q-11 -2 -25 -4t-28.5 -3.5t-29 -2.5t-24.5 -1h-31t-32 1.5t-25 5t-9 10.5q3 15 28.5 20t54.5 5q16 0 36 -1.5t40.5 -3.5t39.5 -4t33 -4q26 5 65 22t71 43q21 18 37.5 35t31.5 35t31 37.5t37 41.5q37 40 75 66.5t79 38.5v1q-31 3 -63.5 8
t-72.5 13t-80.5 15t-80.5 9q-33 2 -63.5 -3t-54.5 -16.5t-39 -29.5t-18 -42q-2 -17 5 -31t20 -24.5t31 -16.5t39 -7q46 -1 74.5 16.5t30.5 46.5q2 17 -7 29q-2 2 -4 3.5t0 2.5q3 3 11 -3q5 -3 12.5 -11.5t7.5 -22.5q0 -17 -10 -30t-27.5 -22t-40.5 -13.5t-47 -4.5t-44 7
t-34.5 19t-22 28.5t-5.5 36.5q3 27 19.5 48.5t43.5 36t61.5 21.5t73.5 6q38 -1 82 -7.5t84 -13.5q35 -6 78 -12t91 -9q66 -3 109.5 13t49.5 51q6 33 -26 57.5t-92 24.5z" />
    <glyph glyph-name="U" unicode="U" horiz-adv-x="553" 
d="M407 134q-20 -20 -49.5 -45t-61.5 -47t-63.5 -36.5t-55.5 -14.5q-23 0 -35 11.5t-9 34.5q5 32 37 74t90 107q48 54 75.5 90t35.5 63q6 23 -9 31.5t-34 8.5q-38 0 -85 -22.5t-89 -64.5q-31 -30 -55.5 -65t-24.5 -65q0 -18 9 -29.5t27 -11.5q13 0 21.5 3t14.5 7
q8 5 10.5 8.5t4.5 1.5t-2.5 -7t-9.5 -9q-8 -5 -17.5 -9t-23.5 -4q-45 2 -50 49q-2 34 18.5 74t58.5 75q23 21 49 36t52 24t50 13.5t42 4.5q35 0 58.5 -14t22.5 -43q-1 -33 -30 -73.5t-67 -83.5q-59 -66 -91 -106.5t-36 -65.5q-2 -12 2 -17.5t12 -6.5q9 -1 22 3.5t28 12.5
t30.5 18t29.5 20q23 17 41.5 32.5t35.5 31.5t33.5 34.5t36.5 41.5q11 12 30 33t43 45.5t52.5 50.5t57.5 49q6 5 16.5 12t22.5 14t23 11.5t19 3.5q14 -2 11 -15.5t-17 -29.5q-17 -18 -37.5 -34.5t-37.5 -28.5l-22 -16.5t-20.5 -15t-22 -17t-26.5 -21.5q-6 -7 -14.5 -17.5
t-17.5 -21.5q-19 -25 -38 -50.5t-34.5 -49.5t-25.5 -44t-10 -34q0 -17 20 -17q12 0 29.5 9t34.5 22q11 8 24.5 19t24.5 21q7 6 12.5 10t7.5 2q2 -3 -10 -15q-14 -13 -28 -25t-25 -20q-13 -10 -36.5 -25t-51.5 -15q-22 0 -34.5 11t-12.5 33t13.5 47t30.5 49zM574 277
q14 11 29.5 21.5t29.5 21.5q23 15 40.5 30.5t25.5 23.5q31 34 19 39q-8 3 -23 -9t-31 -29q-22 -23 -44.5 -47.5t-45.5 -50.5z" />
    <glyph glyph-name="V" unicode="V" horiz-adv-x="482" 
d="M94 3q41 2 89.5 14t99.5 35q21 9 45 22.5t47.5 29t44.5 31t36 28.5q45 39 75 73t47 65q7 12 5 25q0 8 -3 23t-8 33q-3 11 -2.5 25.5t14.5 14.5q15 0 23 -13t6 -37q-2 -16 -9 -37t-16 -38q-19 -37 -47.5 -76t-69.5 -74q-43 -39 -88.5 -66t-92.5 -46q-57 -22 -112 -32
t-106 -12q-12 -3 -26.5 -5.5t-25.5 -3.5q-21 -2 -33.5 -0.5t-12.5 7.5q0 8 12 12t26 5q16 1 30.5 0.5t31.5 -2.5q33 14 76 47t94 85q20 20 40.5 44t37.5 50t29.5 53t15.5 53q5 40 -12.5 58t-47.5 18q-38 0 -78 -17.5t-71 -41.5q-32 -26 -54.5 -61t-26.5 -66q-3 -26 7 -44.5
t36 -20.5q29 -2 57 18.5t49 43.5q17 18 29.5 41.5t14.5 39.5t-4 26q-5 6 -4 7q2 3 8 -3q2 -2 7.5 -11.5t4.5 -26.5q-2 -20 -13.5 -42.5t-28.5 -41.5q-10 -11 -24 -21.5t-30 -19.5t-33.5 -14t-34.5 -4q-33 2 -49 22.5t-13 52.5q4 30 28 66t64 66q36 27 78.5 44t82.5 17
q21 0 42.5 -4.5t38 -16.5t25 -32.5t5.5 -51.5q-3 -25 -16 -51t-31.5 -51.5t-41 -49.5t-43.5 -44q-19 -18 -43 -35.5t-50 -33t-52 -28t-49 -20.5z" />
    <glyph glyph-name="W" unicode="W" horiz-adv-x="601" 
d="M305 412q-38 0 -77.5 -17.5t-71.5 -41.5q-32 -26 -54 -61t-26 -66q-3 -26 6.5 -44t36.5 -20q14 -1 28.5 4.5t28 14t26 20t23.5 22.5q17 18 29.5 41.5t14.5 39.5t-5 26q-3 6 -3 7q2 3 8 -3q2 -2 7.5 -11.5t3.5 -26.5q-1 -20 -12.5 -42.5t-28.5 -41.5q-10 -11 -24 -21.5
t-30 -19.5t-33.5 -14t-34.5 -4q-34 2 -50 22.5t-12 52.5q4 30 28 66t64 66q36 27 78.5 44t81.5 17q21 0 42.5 -4.5t38 -16.5t25.5 -32.5t5 -51.5q-2 -23 -21 -57.5t-46 -71.5t-57 -72t-55 -60v-1q24 17 50.5 36.5t63.5 46.5q32 23 66 48t58 44q9 26 19.5 51.5t24.5 47.5
q18 29 36.5 43t34.5 14q14 0 21.5 -11t1.5 -29q-5 -15 -16 -29.5t-24.5 -27t-27 -24t-23.5 -21.5q-6 -23 -12.5 -49.5t-14.5 -52t-17.5 -48.5t-21.5 -39v-1q13 12 34 31t46 40.5t51 44.5t49 43q36 33 61 61t41 52t24.5 42.5t10.5 31.5q2 11 0.5 20t-6.5 14t-9.5 5t-3.5 2
t4.5 2.5t5.5 0.5q22 0 32.5 -14.5t8.5 -34.5q-4 -31 -40 -79t-119 -116q-60 -49 -116.5 -97t-105.5 -95q-5 -5 -12 -10t-16 -5q-8 0 -8.5 5.5t4.5 11.5q13 17 23.5 43t19.5 54t17.5 56t17.5 49v1q-7 -6 -21 -17t-32 -24.5l-38 -28.5t-38 -28q-16 -11 -39 -28t-47 -34
t-46 -32.5t-36 -24.5q-5 -3 -10.5 -6.5t-10.5 -3.5q-9 0 -11 5.5t5 13.5q29 30 61.5 67.5t65.5 84.5t59 94.5t32 85.5q6 39 -12 57.5t-49 18.5zM527 261q7 7 18 16t22 20t21 23t15 24q5 14 1 22.5t-14 8.5q-11 0 -21 -12.5t-15 -23.5q-8 -17 -15 -39t-12 -39z" />
    <glyph glyph-name="X" unicode="X" horiz-adv-x="488" 
d="M475 314q15 13 38 30.5t50 33.5t56.5 27t57.5 11q22 0 35 -12t8 -32q-4 -18 -18 -32.5t-32 -25t-36 -17t-28 -7.5q-5 -1 -9.5 -1t-5.5 2q0 2 15 6q27 8 52.5 27.5t30.5 47.5q2 14 -4 23t-19 10q-27 1 -58 -16t-63.5 -44.5t-64.5 -62t-60 -70.5q-37 -48 -63 -91t-33 -73
q-8 -41 24 -41q16 0 37 10.5t43 25.5q11 8 27.5 21.5t28.5 24.5q14 13 17 10q2 -2 -2 -6.5t-9 -9.5t-12.5 -11.5t-15.5 -13.5t-16 -13t-13 -10t-15 -11t-23.5 -14t-29.5 -12.5t-32 -6.5q-36 -1 -49.5 14.5t-10.5 43.5q2 14 7.5 26t10.5 20v1q-23 -21 -49 -41t-55 -35.5
t-60.5 -24.5t-66.5 -9q-36 0 -65 13.5t-32 48.5q-2 24 14 46t47 22q15 0 24.5 -7.5t8.5 -21.5q-1 -11 -6.5 -17.5t-13.5 -13.5t-14.5 -13.5t-7.5 -17.5q-1 -17 14 -23.5t34 -6.5q42 0 82 18t76.5 46.5t69 63.5t58.5 68q19 24 36.5 49.5t32 49.5t24.5 44t13 32
q6 26 -7.5 35.5t-31.5 9.5q-38 0 -85 -22.5t-89 -64.5q-15 -15 -30 -31.5t-26 -33.5t-17.5 -33.5t-6.5 -31.5q0 -18 9 -29.5t27 -11.5q14 0 22 3t14 7t9 7.5t5 2.5q3 -2 -1.5 -7t-9.5 -9q-8 -5 -17.5 -9t-22.5 -4q-22 0 -35.5 13t-15.5 36q-1 35 18.5 75.5t58.5 73.5
q48 41 101.5 59.5t91.5 18.5q35 0 56 -14t20 -43q-1 -13 -4.5 -24.5t-12.5 -24.5z" />
    <glyph glyph-name="Y" unicode="Y" horiz-adv-x="499" 
d="M421 148q-24 -25 -56 -52.5t-65.5 -51t-66 -38.5t-56.5 -15q-23 0 -35 11.5t-9 34.5q5 32 37 74t90 107q48 54 75.5 90t35.5 63q6 23 -9 31.5t-34 8.5q-38 0 -85 -22.5t-89 -64.5q-31 -30 -55.5 -65t-24.5 -65q0 -18 9 -29.5t27 -11.5q12 0 21.5 3t14.5 7q6 4 9.5 8
t5.5 2t-2.5 -7t-9.5 -9q-8 -5 -17.5 -9t-23.5 -4q-21 0 -34.5 13t-15.5 36q-2 33 18.5 74t58.5 75q23 21 49 35.5t52 24t50 14t42 4.5q35 0 58.5 -14t22.5 -43q-1 -33 -30 -73.5t-67 -83.5q-59 -66 -91 -106.5t-36 -65.5q-2 -12 2 -17.5t12 -6.5q9 -1 22 3.5t28 12.5
t30.5 18t29.5 20q46 34 82 69.5t65 70.5q27 33 48 57.5t39 45t34.5 38t35.5 37.5q18 17 38 30t36 11q15 -2 14.5 -16t-11.5 -29q-14 -18 -32.5 -34.5t-33.5 -28.5q-11 -9 -20.5 -16.5t-18.5 -15t-19 -17t-23 -21.5q-14 -19 -31 -42t-34.5 -47t-34.5 -47t-30 -42
q-29 -42 -49.5 -71t-37.5 -52q77 2 117 -31t31 -90q-2 -8 -5 -14.5t-6 -5.5q-2 1 -0.5 4.5t3.5 14.5q6 54 -32.5 85t-113.5 27q-11 -16 -22 -31t-23.5 -30.5t-27.5 -34t-34 -40.5q-30 -35 -62.5 -64.5t-64 -51t-60 -34t-49.5 -12.5q-7 0 -14.5 2t-14 6.5t-10.5 12.5t-3 21
q2 22 18 47t38.5 49t47 44.5t44.5 34.5q49 32 100 54t92 30q19 27 40 57.5t40.5 59t36.5 53t29 41.5zM566 278q14 11 26 21t25 21q20 16 35.5 31t22.5 23q27 34 13 39q-8 3 -21 -9t-27 -29q-19 -23 -36.5 -47t-37.5 -50zM269 -74q-38 -8 -85 -29t-93 -53q-19 -13 -41.5 -34
t-41.5 -44.5t-31.5 -47.5t-12.5 -42q0 -14 6.5 -19.5t14.5 -6.5q24 -3 62 20q26 16 61 51.5t67 77.5q18 24 43 58t51 69z" />
    <glyph glyph-name="Z" unicode="Z" horiz-adv-x="457" 
d="M433 324q-35 -19 -66 -29.5t-63 -10.5q-14 0 -29.5 2.5t-27.5 8.5t-19.5 17t-5.5 28q2 18 15.5 33t32.5 26t41.5 17.5t42.5 7.5q5 0 10 -0.5t5 -3.5q0 -2 -4 -2t-11 -1q-26 -2 -48.5 -19t-24.5 -44q-2 -21 11 -30t27 -11q23 -2 57 4.5t72 26.5q10 11 24.5 25.5t30.5 27.5
q13 11 25 16.5t22 3.5q6 -1 5.5 -7t-7.5 -14q-15 -17 -33.5 -29.5t-40.5 -24.5q-19 -19 -49.5 -46t-65.5 -56q-31 -26 -59 -48t-47 -35v-1h12q53 0 87.5 -27.5t36.5 -84.5q9 4 19 11t19.5 14t17.5 13.5t12 10.5q9 8 12 5q2 -2 -2.5 -7t-7.5 -8q-4 -4 -12 -10.5t-17.5 -13.5
t-20 -14t-19.5 -12q-2 -59 -41 -114.5t-98 -105.5q-43 -36 -92 -67.5t-97 -55t-92.5 -36.5t-77.5 -13q-59 2 -63 46q-2 27 17 53t50 50.5t69.5 46.5t74.5 40q43 22 81 39t73.5 32.5t69.5 31.5t69 37q2 11 3.5 25t0.5 28.5t-5 28t-12 22.5t-19.5 13.5t-23.5 7t-23 2.5t-19 -1
q-15 -11 -29.5 -21.5t-31.5 -21.5q-29 -19 -48 -25t-25 4q-5 9 11.5 24.5t45.5 28.5q37 16 72 22q19 14 46.5 35t57.5 47q25 20 52 44t47 44zM330 3q-33 -20 -68 -36.5t-70.5 -32.5t-72 -32.5t-73.5 -36.5q-35 -19 -72 -39.5t-67.5 -43t-49.5 -46.5t-17 -49
q2 -19 16.5 -27.5t34.5 -8.5q30 0 69 12.5t80.5 34.5t83 52.5t77.5 67.5q49 51 82 96.5t47 88.5zM215 140q-10 -2 -24 -6t-28 -11q-22 -10 -34.5 -20t-10.5 -15t15.5 1t33.5 19q30 19 48 32z" />
    <glyph glyph-name="bracketleft" unicode="[" 
d="M481 456q-12 -1 -28.5 -2.5t-33.5 -3.5q-16 -2 -22.5 -5.5t-16.5 -16.5q-17 -22 -38.5 -51t-46.5 -61.5t-51 -67t-51 -65.5q-21 -27 -45.5 -57t-49.5 -60.5t-49 -59t-43 -51.5q-14 -17 -12 -22.5t19 -7.5q9 -1 19 -2t19 -2q11 -1 21 -2l-5 -6h-111q7 9 26.5 37t47.5 66
t61.5 83t67.5 88q33 42 68.5 85t67 81.5t56.5 67.5t36 42h98z" />
    <glyph glyph-name="backslash" unicode="\" 
d="M138 -86q-4 0 -7 13q-15 67 -28 123t-24.5 105.5t-22.5 95t-21 90.5q-5 21 10 39q10 11 13.5 -0.5t7.5 -29.5q16 -78 33.5 -180.5t42.5 -236.5q3 -19 -3 -19h-1z" />
    <glyph glyph-name="bracketright" unicode="]" 
d="M-131 -87l5 7q12 1 28.5 2.5t33.5 3.5q16 2 22 5t16 17q16 22 38 51t47 61.5t51 66.5t51 66q21 27 45.5 57t49.5 60.5t48.5 59t43.5 51.5q15 17 13 22.5t-19 7.5l-20 2t-19 2q-11 1 -20 2l4 6h111q-6 -9 -26 -37t-47.5 -66t-61 -82.5t-67.5 -87.5q-33 -42 -68.5 -85.5
t-67.5 -81.5t-56.5 -67.5t-36.5 -42.5h-98z" />
    <glyph glyph-name="asciicircum" unicode="^" horiz-adv-x="307" 
d="M207 252q2 0 5 -4t5 -7q19 -29 34 -49.5t36 -46.5q6 -8 4 -9q-2 -2 -6.5 0.5t-7.5 4.5q-15 11 -37 29t-43 41q-13 -9 -33.5 -21t-42.5 -23.5t-41 -20.5t-28 -13q-2 -1 -5 -2t-5 1t2 4.5t6 4.5q17 11 37.5 25.5t40 28.5t37 27t28.5 22q4 3 7 5.5t6 2.5h1z" />
    <glyph glyph-name="underscore" unicode="_" horiz-adv-x="500" 
d="M445 -135h-509v30h509v-30z" />
    <glyph glyph-name="grave" unicode="`" horiz-adv-x="307" 
d="M192 342q5 0 7 -3t4 -7q8 -20 22 -44t28 -42q2 -2 3 -4.5t-1 -4.5t-5 0t-5 4q-14 11 -35 30.5t-31 36.5q-2 2 -3.5 6t-1.5 9q0 8 5.5 13.5t11.5 5.5h1z" />
    <glyph glyph-name="a" unicode="a" horiz-adv-x="287" 
d="M195 133q18 19 31.5 28.5t25.5 9.5q16 1 18.5 -3t-5.5 -13q-10 -11 -25 -28.5t-31 -37.5q-10 -12 -19 -24.5t-16 -24.5q-10 -18 -3 -23q4 -3 10.5 -1t12.5 5q8 4 20.5 12.5t24.5 18.5q16 13 28 23t20 18q5 4 8.5 6.5t5.5 0.5q3 -3 -13 -18q-10 -9 -26 -23t-30 -25
q-15 -12 -38 -26t-48 -14q-14 0 -21 6t-8 15q-1 8 3 18t11 18l-1 1q-10 -9 -23 -18.5t-27.5 -18t-30 -14.5t-29.5 -7q-17 -1 -30.5 7.5t-10.5 32.5q2 11 8 23.5t20 28.5l-1 1l-5 -5t-8 -7q-7 -5 -9 -3q-3 4 14 19q2 2 12 10.5t18 13.5l20 12.5t26 15.5q29 15 54.5 23t45.5 5
q15 -2 20.5 -13.5t0.5 -24.5zM170 161q-15 0 -40 -18t-52 -45q-31 -30 -44.5 -49.5t-11.5 -29.5q1 -10 13 -10q14 0 39 14t45 33q12 10 24 23t22 25t16.5 22.5t6.5 16.5q1 18 -18 18z" />
    <glyph glyph-name="b" unicode="b" horiz-adv-x="298" 
d="M271 133q-3 -22 -20 -47t-47 -48q-31 -23 -60.5 -32.5t-54.5 -10.5q-17 0 -28.5 3.5t-11.5 16.5q1 14 18.5 22t46.5 16q21 5 42 11t35 12q8 8 18 23.5t14 26.5q3 8 3 19t-13 11q-14 0 -37 -12t-50 -33q-33 -26 -57.5 -49t-53.5 -52q-13 -13 -29 -14q-15 -1 -16.5 3.5
t2.5 12.5q7 15 17.5 31.5t23.5 35.5q7 10 14 19.5t15 19.5h-1q-11 -9 -20 -17.5t-16 -14.5q-8 -7 -11 -4q-3 2 5 10q12 11 29.5 26.5t34.5 29.5q27 35 57 72.5t65 77.5q21 25 52.5 59t65 67.5t64 62t50.5 42.5q20 15 41.5 27.5t43.5 12.5q20 0 26.5 -11t4.5 -25
q-3 -18 -21 -41.5t-46.5 -51t-64 -58t-73.5 -61.5q-23 -19 -49.5 -39t-53.5 -41t-53 -42t-48 -41q-7 -8 -18 -23.5t-22 -30.5q-13 -18 -27 -38l1 -1q22 23 46.5 42.5t47.5 34.5q15 10 40.5 21t47.5 8q17 -2 25 -11.5t6 -26.5zM89 6q15 2 26.5 6.5t21.5 10.5q27 17 46 42
q-9 -5 -29.5 -10.5t-32.5 -8.5q-27 -7 -42 -14t-14 -17q1 -6 7.5 -8t16.5 -1zM140 184q36 31 62 52.5t46.5 37.5t37 29.5t33.5 28.5q36 32 69.5 62.5t59.5 57t42 48.5t18 39q1 19 -17 19q-13 0 -31 -12.5t-34 -27.5q-26 -25 -60 -60.5t-73 -82.5q-27 -33 -47 -56.5
t-36.5 -44.5l-33 -42t-36.5 -48z" />
    <glyph glyph-name="c" unicode="c" horiz-adv-x="214" 
d="M39 -9q-56 0 -53 42q2 15 9.5 30.5t19.5 29.5l-1 1q-2 -2 -7 -6.5t-10 -8.5q-10 -9 -13 -6q-2 2 0.5 5t5.5 6q10 9 18 15.5t19 14.5q8 6 21.5 14.5t26.5 15.5q26 14 49 22t43 5q17 -3 23.5 -13.5t3.5 -24.5t-13.5 -24t-20.5 -10q-13 0 -14 9t6 20q8 14 10 22.5t-7 10.5
q-18 3 -62 -42q-20 -20 -37 -45.5t-19 -43.5q-3 -23 23 -23q10 0 34.5 6.5t57.5 29.5q14 10 31 23.5t29 24.5q8 7 11 4q2 -3 -8 -13q-10 -9 -27.5 -24t-31.5 -24q-26 -18 -58 -30.5t-58 -12.5h-1z" />
    <glyph glyph-name="d" unicode="d" horiz-adv-x="287" 
d="M170 161q-15 0 -40 -18t-52 -45q-31 -30 -44.5 -49.5t-11.5 -29.5q1 -10 13 -10q14 0 39 14t45 33q12 10 24 23t22 25t16.5 22.5t6.5 16.5q1 18 -18 18zM74 143q26 14 52.5 22.5t47.5 5.5q14 -2 19.5 -12.5t2.5 -21.5h1q23 34 56.5 75t71.5 86q26 31 56.5 62.5t62.5 61.5
q17 17 37 17q13 0 15 -7q-10 -10 -24 -24.5t-29.5 -31t-31 -34.5t-29.5 -34q-12 -14 -25 -29.5t-28 -33.5t-32.5 -40t-39.5 -50q-12 -15 -25 -32.5t-25 -34t-21 -29.5t-12 -19q-10 -18 -3 -23q4 -3 10.5 -1t12.5 5q8 4 20.5 12.5t24.5 18.5q16 13 28 23t20 18q5 4 8.5 6.5
t5.5 0.5q3 -3 -13 -18q-10 -9 -26 -23t-30 -25q-15 -12 -38 -26t-48 -14q-14 0 -21 6t-8 15q-1 8 3 18t11 18l-1 1q-10 -9 -23 -18.5t-27.5 -18t-30 -14.5t-29.5 -7q-17 -1 -30.5 7.5t-10.5 32.5q2 11 8 23.5t20 28.5l-1 1l-5 -5t-8 -7q-7 -5 -9 -3t3 7.5t13 13.5
q2 2 11 9.5t17 12.5t19.5 12.5t26.5 15.5z" />
    <glyph glyph-name="e" unicode="e" horiz-adv-x="213" 
d="M59 6q10 0 34 7t57 30q14 10 30.5 22.5t30.5 25.5q8 7 11 4q3 -4 -8 -13q-10 -9 -29.5 -25t-33.5 -25q-62 -41 -113 -41q-55 0 -53 40q1 28 30 62l-1 1q-2 -2 -8.5 -8t-11.5 -10q-7 -6 -10 -3q-2 2 0.5 5t5.5 6q10 9 18 15.5t19 14.5q8 6 21.5 14t27.5 16q22 11 44 19.5
t42 8.5h1q17 0 23.5 -8.5t5.5 -18.5q-2 -20 -21.5 -35t-42.5 -26q-22 -11 -45.5 -19t-40.5 -13q-6 -12 -6 -23q0 -23 23 -23zM48 63q15 4 33.5 11.5t34.5 18.5q19 13 29.5 27t11.5 25q2 14 -12 14q-13 0 -44 -29q-12 -11 -28 -31.5t-25 -35.5z" />
    <glyph glyph-name="f" unicode="f" horiz-adv-x="171" 
d="M506 569q17 0 23.5 -11t4.5 -25q-3 -18 -21 -41.5t-46.5 -50.5t-64 -57.5t-73.5 -61.5q-23 -19 -48 -39t-51 -41t-51.5 -42t-47.5 -41q-20 -24 -35.5 -44t-29.5 -38.5t-27 -36t-26 -36.5q8 2 20 5.5t23 8.5t25 11.5t31 17.5t32.5 23.5t24.5 20.5q3 3 8.5 7t7.5 2t-2.5 -7
t-6.5 -7q-11 -11 -28.5 -25t-36.5 -26q-21 -13 -43 -22.5t-36 -14.5q-18 -7 -25 -16q-5 -8 -7.5 -14t-6.5 -18q-6 -20 -15 -43.5t-20 -48.5t-23.5 -50.5t-25.5 -47.5q-24 -42 -55 -83.5t-61 -64.5q-24 -19 -43 -16q-10 2 -15 11t-1 27q4 20 18 50.5t34 66.5t45 75t52 75
q38 53 84.5 113.5t91.5 117.5l-1 1q-9 -7 -24 -20.5t-29 -26.5q-8 -7 -11 -4q-3 2 6 11q18 17 41 36.5t40 32.5q34 42 61.5 76.5t49.5 60.5q29 34 61.5 69t64 66.5t59 56.5t46.5 39t40 26.5t42 12.5h1zM149 185q35 31 60 52t44.5 37.5t35 30t32.5 28.5q36 32 69.5 62.5
t59.5 57t42 48.5t18 39q1 18 -16 18q-12 0 -28.5 -12.5t-33.5 -27.5q-51 -48 -130 -142q-28 -33 -47.5 -57t-36.5 -45t-33 -41.5t-36 -47.5zM-9 -25q-24 -31 -39 -50.5t-27.5 -37.5t-25.5 -37.5t-34 -50.5q-12 -19 -26.5 -41t-28 -43.5t-24.5 -41t-17 -33.5q-9 -19 0 -24
q8 -4 25 9q20 15 48.5 52t60.5 92q14 24 28 53.5t25.5 58t20.5 53.5t14 41z" />
    <glyph glyph-name="g" unicode="g" horiz-adv-x="284" 
d="M53 -62q-22 -15 -43 -27.5t-44.5 -26.5t-50.5 -31t-62 -40q-32 -21 -60.5 -44t-50.5 -46t-36 -45.5t-15 -41.5q-1 -22 15 -27q12 -4 30.5 2t32.5 14q34 20 78.5 62t104.5 118q30 38 58 75t43 58zM170 161q-15 0 -40 -18t-52 -45q-31 -30 -44.5 -49.5t-11.5 -29.5
q1 -10 13 -10q14 0 39 14t45 33q12 10 24 23t22 25t16.5 22.5t6.5 16.5q1 18 -18 18zM74 143q27 14 53.5 22.5t46.5 5.5q15 -2 20 -12t3 -22h1q17 19 27 26.5t21 7.5q28 0 13 -16q-14 -16 -25.5 -31t-26.5 -35q-13 -17 -36 -49t-46 -62q17 10 45 28t51 35q17 13 31.5 25
t30.5 26q8 8 12 5q2 -2 -2 -6.5t-8 -8.5q-11 -11 -26.5 -23t-32.5 -26q-27 -20 -56.5 -38.5t-53.5 -32.5q-16 -24 -35.5 -50t-38.5 -51t-35.5 -45.5t-27.5 -32.5q-51 -56 -106 -100.5t-100 -67.5q-39 -21 -69 -21q-9 0 -18.5 2t-16.5 6.5t-10.5 12.5t-1.5 21q3 22 24 48.5
t51 52.5t64 50.5t63 43.5q34 22 60.5 38t49.5 30t45 27t48 29q7 9 16 21.5t18.5 25.5t18 25.5t14.5 21.5l-1 1q-10 -9 -23 -18.5t-27.5 -17.5t-29 -13.5t-28.5 -6.5q-17 -1 -30 7t-11 33q2 11 8 23.5t20 28.5l-1 1l-5 -5t-8 -7q-7 -5 -9 -3t3 7.5t13 13.5q2 2 11 9.5
t17 12.5t19.5 12.5t26.5 15.5z" />
    <glyph glyph-name="h" unicode="h" horiz-adv-x="317" 
d="M140 184q36 31 62 52.5t46 37.5t37 29.5t34 28.5q36 31 69.5 61t59.5 57t42 49.5t18 39.5q1 19 -17 19q-13 0 -31 -12.5t-34 -27.5q-25 -25 -59.5 -60.5t-73.5 -82.5q-27 -33 -47 -56.5t-36.5 -44.5l-33 -42t-36.5 -48zM262 34q-8 -6 -18.5 -13t-22.5 -13t-24.5 -10
t-24.5 -4q-32 0 -30 26q1 17 14.5 35t27.5 35q11 14 22 26t20 23q3 4 4 8t-3 6t-11 0t-15 -6q-14 -7 -34 -19.5t-44 -31.5q-17 -13 -30 -24t-26 -21.5t-26.5 -21.5t-29.5 -24q-12 -9 -26 -9q-11 0 -14.5 2.5t1.5 13.5q16 30 41 67q6 9 13.5 19t16.5 21v1q-11 -10 -20.5 -18
t-17.5 -16q-8 -7 -11 -3q-1 3 5 9q1 1 8.5 7.5t17 15t20 17.5t19.5 16q26 34 56.5 73t64.5 77q22 25 53.5 59t64.5 68t63.5 62t50.5 42q21 15 42 27.5t43 12.5q20 0 26.5 -11t4.5 -25q-3 -18 -21 -41.5t-46.5 -51t-64 -58t-73.5 -61.5q-46 -38 -97 -76t-107 -87
q-6 -7 -16.5 -21t-22.5 -30.5t-23.5 -33.5t-20.5 -30l1 -1l42 35t50 40t56 37t53 17q34 0 31 -27q-2 -14 -15 -30t-25 -31q-23 -27 -33 -44t-4 -22q4 -3 11 -1t13 5q9 5 20 11t28 20q13 10 26.5 21.5t21.5 19.5q10 9 13 6q2 -3 -8 -13q-7 -7 -25.5 -23.5t-34.5 -28.5z" />
    <glyph glyph-name="i" unicode="i" horiz-adv-x="162" 
d="M221 304q10 0 13 -7.5t-6 -18.5q-9 -12 -24 -19.5t-23 -7.5q-4 5 -4.5 14.5t3.5 19.5q5 11 15.5 15t24.5 4h1zM81 143q-5 -2 -18.5 -11.5t-24.5 -18.5t-19.5 -16t-16.5 -14q-12 -10 -15 -8q-2 2 0.5 5t10.5 11q4 4 12.5 11t18.5 15t20.5 16t19.5 14q20 14 32 18t26 4
q16 0 18 -3t-7 -13q-25 -28 -54 -64q-13 -16 -21.5 -28.5t-13.5 -20.5q-9 -16 -3 -22q7 -6 24 3q8 4 19.5 11.5t24.5 18.5q16 13 25 21t21 19q13 12 16 9q2 -2 -3.5 -8t-7.5 -8q-9 -9 -25.5 -23.5t-31.5 -26.5t-38.5 -26.5t-48.5 -14.5q-30 0 -30 26q0 10 4.5 19.5
t10.5 18.5q7 12 17.5 24.5t21.5 24.5t20.5 22t15.5 15z" />
    <glyph glyph-name="j" unicode="j" horiz-adv-x="167" 
d="M94 150q-3 0 -16 -8q-6 -4 -17.5 -12t-22.5 -17t-19.5 -16t-16.5 -14q-12 -10 -15 -8q-2 2 0.5 5t10.5 11q4 4 12.5 11t18.5 15t20.5 16t19.5 14q17 12 30.5 17t27.5 5q17 0 18 -3t-7 -12q-24 -28 -52 -64q-17 -23 -41.5 -54.5t-47.5 -61.5q21 11 50 29t55 37
q16 11 34 26t29 25q3 3 8 6.5t7 1.5q4 -3 -11 -16q-11 -11 -29.5 -26t-34.5 -26q-26 -19 -58.5 -39t-57.5 -34q-16 -23 -35 -49t-37 -50t-34 -44t-27 -32q-36 -39 -74.5 -73.5t-75 -60t-70 -40.5t-58.5 -15q-7 0 -15 2t-15 6.5t-10.5 12.5t-1.5 21q3 22 23.5 47.5t49.5 51.5
t62.5 50t62.5 43q34 22 58.5 37.5t46.5 28t44 26t52 33.5q13 18 31.5 44t37.5 51q35 47 56.5 70.5t33.5 31.5zM-76 -65q-21 -15 -41 -27t-42 -25.5t-48.5 -30t-61.5 -39.5q-32 -21 -60.5 -44t-50.5 -46t-36 -45.5t-15 -41.5q-1 -13 3.5 -18.5t11.5 -7.5q12 -4 30.5 1.5
t33.5 14.5q33 20 77.5 61.5t104.5 117.5q30 38 54.5 72.5t39.5 57.5zM212 304q12 0 15 -7.5t-6 -18.5t-24 -18.5t-23 -7.5q-4 4 -4.5 14t3.5 19q5 12 14.5 15.5t23.5 3.5h1z" />
    <glyph glyph-name="k" unicode="k" horiz-adv-x="312" 
d="M43 120q-11 -10 -20.5 -18t-17.5 -16q-8 -7 -11 -3q-1 3 5 9q1 1 8.5 7.5t17 15t20 17.5t18.5 16q26 34 56.5 73t65.5 77q22 25 52.5 58t63 66t63 61.5t53.5 45.5q22 16 42.5 28t42.5 12q20 0 26.5 -11t4.5 -25q-3 -18 -21 -41.5t-46.5 -51t-64 -58t-73.5 -61.5
q-23 -19 -49.5 -39t-53.5 -41t-53 -42t-48 -41q-6 -7 -17.5 -22.5t-24 -32.5t-23 -32.5t-15.5 -22.5l2 -1q21 19 40.5 36.5t45.5 37.5q14 11 33 23t33 18q26 11 50 9q20 -2 30 -14t3 -26q-5 -10 -17.5 -14.5t-29.5 -6.5q-15 -2 -26.5 -4.5t-16.5 -9.5q-9 -14 -8 -41
q3 -34 17 -37q9 -1 26 8q7 4 16.5 10t21.5 16q16 13 27.5 23t20.5 18q1 1 6 4.5t7 1.5q2 -3 -3 -8l-7 -7q-10 -9 -25.5 -23t-33.5 -28q-7 -6 -17 -12.5t-21.5 -12.5t-23.5 -10t-24 -4q-15 0 -25 10.5t-9 36.5q1 20 8.5 34.5t13.5 20.5q7 7 18.5 11t22.5 6q8 2 16.5 4.5
t14.5 9.5q5 5 6.5 15t-7.5 14q-5 2 -14 0.5t-17 -5.5q-20 -9 -36.5 -20.5t-39.5 -29.5q-16 -14 -32.5 -28.5t-31.5 -27.5t-27 -23.5t-19 -15.5q-8 -5 -13 -7.5t-13 -2.5q-12 0 -15.5 3t1.5 13q7 15 17.5 31.5t23.5 35.5q9 13 15.5 21.5t14.5 18.5v1zM140 184q36 31 62 52.5
t46 37.5t37 29.5t34 28.5q36 31 69 61t59.5 57t42.5 49.5t18 39.5q1 19 -17 19q-13 0 -31 -12.5t-34 -27.5q-25 -25 -59.5 -60.5t-73.5 -82.5q-17 -21 -32 -39t-32 -39t-38 -47.5t-51 -65.5z" />
    <glyph glyph-name="l" unicode="l" horiz-adv-x="168" 
d="M46 123q-11 -10 -22 -19.5t-19 -17.5q-8 -7 -11 -3q-1 3 5 9q1 1 8.5 7.5t18 15.5t22.5 19.5t24 20.5q10 12 23.5 29t29 36.5t32.5 39.5t33 38q26 30 56 62t63 62q19 17 36 17q15 0 15 -7q-7 -7 -25.5 -27t-40.5 -44.5t-44.5 -50t-38.5 -44.5q-25 -30 -50.5 -62t-47 -61
t-38 -54.5t-24.5 -42.5q-2 -5 -4.5 -13.5t2.5 -13.5q5 -4 14.5 -1t16.5 7q10 5 20 12.5t21 15.5q14 11 24 19.5t20 17.5q3 3 8 6.5t7 1.5q2 -3 -7 -12t-26 -23.5t-35 -28.5q-8 -6 -18 -13t-22 -13t-25 -10t-25 -4q-15 0 -23.5 6.5t-7.5 20.5q1 18 17 45t39 56z" />
    <glyph glyph-name="m" unicode="m" horiz-adv-x="512" 
d="M51 138q20 16 36 24.5t32 8.5q14 0 19.5 -7t5.5 -15q0 -9 -5.5 -19t-15.5 -24q-11 -15 -25 -33t-22 -30l1 -1l42 35t50 40t56 37t52 17q19 0 26.5 -8t5.5 -21q-2 -12 -14 -27t-25 -30t-21 -25t-15 -19l1 -1q17 15 42.5 36t51.5 41t56 37t53 17q17 0 25 -7.5t6 -19.5
q-2 -14 -15 -30t-25 -31q-12 -14 -20 -25.5t-13 -18.5q-11 -17 -4 -22q4 -3 11 -1t13 5q9 5 20 11.5t28 19.5q13 10 26.5 21.5t21.5 19.5q10 9 13 6q2 -3 -8 -13q-7 -7 -25.5 -23.5t-34.5 -28.5q-8 -6 -18.5 -13t-22.5 -13t-24.5 -10t-24.5 -4q-32 0 -30 26q1 17 15 35.5
t27 34.5q11 14 21.5 26t20.5 23q3 4 4 8t-3 6t-11 0t-15 -6q-14 -7 -34 -19.5t-44 -31.5q-17 -13 -30 -24t-26 -21.5t-26.5 -21.5t-29.5 -24q-12 -9 -26 -9q-12 0 -15 3t2 13q8 16 23.5 38.5t29.5 39.5q13 16 25 28.5t17 20.5q3 4 3.5 8t-4.5 6q-7 2 -25 -6
q-14 -7 -34.5 -20t-43.5 -31q-17 -13 -30 -24t-26 -21.5t-26.5 -21.5t-29.5 -24q-12 -9 -26 -9q-11 0 -15 2.5t2 13.5q5 10 19 30.5t25 36.5t21.5 28.5t18.5 23.5q10 13 7 17q-4 5 -15 -1q-9 -5 -19.5 -12t-19.5 -15q-10 -8 -21 -18l-22 -20q-14 -12 -17 -9q-2 3 15 19
q9 8 23.5 21.5t28.5 24.5z" />
    <glyph glyph-name="n" unicode="n" horiz-adv-x="352" 
d="M207 -6q-14 0 -22.5 6.5t-7.5 19.5q1 17 14.5 35t27.5 35q11 14 22 26t20 23q3 4 4 8t-3 6t-11 0t-15 -6q-14 -7 -34 -19.5t-44 -31.5q-17 -13 -30 -24t-26 -21.5t-26.5 -21.5t-29.5 -24q-12 -9 -26 -9q-11 0 -15 2.5t2 13.5q5 10 18.5 30.5t25.5 36.5q8 11 20 26t20 26
q10 13 7 17q-4 5 -15 -1q-9 -5 -19.5 -12t-19.5 -15q-10 -8 -21 -18l-22 -20q-14 -12 -17 -9q-2 3 15 19q9 8 23.5 21.5t28.5 24.5q20 16 36 24.5t32 8.5q14 0 19.5 -7t5.5 -15q0 -9 -5.5 -19t-15.5 -24q-11 -15 -25 -33t-22 -30l1 -1l42 35t50 40t56 37t53 17q34 0 31 -27
q-2 -14 -15 -30t-25 -31q-12 -14 -20.5 -26t-12.5 -18q-11 -17 -4 -22q4 -3 11 -1t13 5q9 5 20 11.5t28 19.5q13 10 26.5 21.5t21.5 19.5q10 9 13 6q2 -3 -8 -13q-7 -7 -25.5 -23.5t-34.5 -28.5q-8 -6 -18.5 -13t-22.5 -13t-24.5 -10t-24.5 -4z" />
    <glyph glyph-name="o" unicode="o" horiz-adv-x="249" 
d="M21 100q-5 -5 -9 -8t-9 -8q-10 -9 -13 -6q-2 2 1 5.5t6 6.5q5 5 14 12.5t17 12.5q10 7 21 14t27 15q22 11 44 18.5t39 8.5q5 0 10 -0.5t5 -3.5q0 -1 -11 -6q-18 -8 -34.5 -21.5t-37.5 -33.5q-22 -22 -39 -47.5t-19 -40.5q-2 -17 14 -17q17 0 43.5 17.5t49.5 43.5
q1 8 4.5 18.5t13.5 23.5q8 11 17.5 17.5t14.5 8.5q2 5 2.5 12t0.5 11q0 8 -1.5 11t0.5 5q3 2 7 -0.5t7 -5.5q6 -6 10 -15t2 -20q-2 -18 -18 -39t-39 -42q3 -2 9.5 -1.5t9.5 1.5q15 3 34 17q10 7 17 12.5t15 13.5q14 13 17 10t-13 -18q-7 -6 -14.5 -12.5t-17.5 -13.5
q-12 -8 -21 -12t-17 -6q-7 -2 -14.5 -1.5t-12.5 3.5q-10 -8 -23 -16.5t-28 -15.5t-31.5 -12t-31.5 -5q-23 0 -36.5 11t-12.5 33q2 32 32 64l-1 1v0z" />
    <glyph glyph-name="p" unicode="p" horiz-adv-x="327" 
d="M101 173q-35 -32 -61.5 -56t-38.5 -35q-13 -12 -16 -9q-2 2 2 7t12 12q17 15 35.5 32t32.5 31q14 13 40 36.5t51 46.5q8 8 18 14t21 6q17 0 14.5 -5t-15.5 -20q-22 -26 -51.5 -62.5t-63 -80t-70 -91.5t-72.5 -97q-33 -45 -55.5 -76t-41.5 -58t-38 -55.5t-44 -67.5
q-6 -10 -7 -14t1 -6q4 -4 13 6q5 6 13.5 17.5t19.5 26.5t22.5 32t22.5 32q16 23 47.5 65l67.5 90q31 41 61.5 80t59.5 73q20 23 44 46.5t44 38.5t43 27t43 12q33 0 30 -26q-2 -13 -14.5 -28.5t-26.5 -31.5l-21 -24.5t-14 -18.5q-11 -17 -3 -23t27 3q9 5 20.5 12t25.5 18
t25 20.5t21 18.5q4 4 8.5 7t6.5 1t-2 -6.5t-6 -6.5q-4 -4 -11.5 -10.5t-16 -14t-17.5 -14.5t-16 -13q-16 -12 -40 -26t-50 -14q-19 0 -26.5 9t-5.5 20q2 16 16 34t28 33q12 14 25 28t18 22q6 10 0 13q-3 2 -9.5 0t-12.5 -5q-24 -12 -49.5 -31.5t-54.5 -51.5
q-12 -13 -28.5 -33t-36 -44t-40 -50.5t-40.5 -53.5q-33 -45 -65.5 -88.5t-55.5 -76.5q-12 -18 -24.5 -35.5t-24 -33t-21 -27t-16.5 -17.5q-6 -5 -13.5 -8.5t-15.5 -1.5q-17 3 -17 21q0 17 11.5 39t26.5 45q14 21 27.5 41t29.5 42.5t36 50t47 63.5q18 25 46 62t58.5 76.5
t59 76t47.5 60.5z" />
    <glyph glyph-name="q" unicode="q" horiz-adv-x="273" 
d="M174 171q15 -3 20.5 -14t0.5 -24q18 19 29 28.5t22 9.5q31 0 16 -16q-14 -16 -32 -36.5t-33 -40.5q-14 -17 -45 -58t-88 -119q-33 -45 -55.5 -76t-41 -58t-37 -55t-43.5 -67q-10 -16 -5 -20q5 -3 15 8q4 4 12 14.5t18 25t21.5 30.5t21.5 31q20 28 47.5 65.5t65.5 88.5
q32 41 60 73t59 64l19 19t19.5 19t17.5 16t12 11q13 12 16 9t-12 -17q-11 -9 -26.5 -24t-30.5 -31q-29 -29 -62.5 -68t-63.5 -77q-24 -32 -41 -55t-30.5 -41.5t-24.5 -34.5t-23 -33q-24 -34 -46 -64t-39 -46q-15 -15 -29 -13q-19 2 -19 21q0 13 11.5 34.5t29.5 50.5
q13 21 26 40.5t28.5 42t35 49.5t46.5 64q35 48 63.5 86.5t50.5 67.5l-1 1q-9 -9 -22 -19t-28 -18.5t-30 -14t-29 -6.5q-17 -1 -30.5 7.5t-10.5 32.5q2 11 8 23.5t20 28.5l-1 1l-5 -5t-8 -7q-7 -5 -9 -3t3 7.5t13 13.5q2 2 11 9.5t17 12.5t19.5 12.5t26.5 15.5
q27 14 53.5 22.5t46.5 5.5zM170 161q-15 0 -40 -18t-52 -45q-31 -30 -44.5 -49.5t-11.5 -29.5q1 -10 13 -10q14 0 39 14t45 33q12 10 24 23t22 25t16.5 22.5t6.5 16.5q1 18 -18 18z" />
    <glyph glyph-name="r" unicode="r" horiz-adv-x="206" 
d="M171 144q0 -10 -14.5 -25t-31.5 -35q-26 -30 -34 -47q-8 -14 -1 -19q6 -5 22 4q8 5 20.5 12.5t24.5 17.5q17 13 27 21.5t20 17.5q11 11 15 8q2 -2 -2 -6.5t-10 -10.5q-9 -8 -23.5 -21t-33.5 -27q-16 -12 -40 -26t-49 -14q-16 0 -24 7.5t-7 18.5q1 17 16 36t32 35
q9 9 20 18t20.5 16.5t16.5 13.5t8 9q3 8 -9 8h-31h-13.5t-9.5 2q-13 -14 -38 -38q-13 -12 -22.5 -20.5t-17.5 -16.5q-12 -11 -15 -8t11 16q9 8 17 15.5t22 20.5q22 21 35 35q-7 5 -7.5 14t7.5 18q14 17 38 17q6 0 11.5 -2.5t6.5 -7.5q-5 -4 -8.5 -6.5t-8.5 -7.5
q-19 -20 3 -22q21 -1 39 -3.5t18 -16.5v-1z" />
    <glyph glyph-name="s" unicode="s" horiz-adv-x="229" 
d="M119 21q8 3 20 8.5t24 13.5q21 13 37 26t29 24q4 3 7.5 5.5t5.5 0.5q3 -3 -11 -16q-8 -7 -21 -18t-30 -22t-33 -19.5t-30 -14.5t-37.5 -12t-46.5 -6q-20 0 -32.5 5.5t-19 14t-8.5 19t0 21.5q3 22 18 37.5t33 14.5q11 -1 16 -7.5t3 -14.5q-3 -15 -22 -25
q-7 -4 -14.5 -11.5t-8.5 -18.5q-1 -12 7 -18.5t22 -6.5q15 0 32.5 12.5t34.5 41.5q7 11 13.5 26.5t12.5 30.5t11.5 27.5t9.5 17.5v1q-8 -8 -21.5 -18.5t-26.5 -19.5q-11 -8 -21.5 -14.5t-16.5 -9.5q-8 -4 -10 -1q-1 4 5 8q8 5 19 12t23 16q14 10 28 21.5t31 26.5q2 3 6.5 8
t9.5 9q8 6 16 8.5t13 2.5q17 0 11 -7.5t-16 -13.5q-7 -5 -13.5 -8t-10.5 -7q-6 -6 -6.5 -12.5t-0.5 -14.5q1 -21 0.5 -41t-9.5 -41q-5 -11 -14 -23t-18 -18z" />
    <glyph glyph-name="t" unicode="t" horiz-adv-x="167" 
d="M44 120q-12 -10 -21.5 -18.5t-18.5 -16.5t-12 -5t7 12q20 18 39.5 35t33.5 30q-10 0 -18.5 -0.5t-17.5 -0.5q-12 0 -11 5q1 4 27 6q10 1 17.5 1h10.5q23 29 50 58t44 46q14 14 30.5 27.5t32.5 13.5q13 0 15 -6q-9 -8 -26.5 -26.5t-34.5 -38.5t-31.5 -37t-29.5 -37
q17 1 31 1h26q6 0 10.5 -1t3.5 -5q-1 -5 -6.5 -5h-11.5h-30.5t-30.5 -1q-8 -9 -17.5 -22.5t-19.5 -28.5t-19 -30.5t-16 -28.5q-5 -8 -6 -17t5 -12q5 -2 12 -0.5t13 4.5q9 5 21 12.5t24 17.5q14 11 26 21.5t21 18.5l8 6t6 1q2 -3 -7 -12q-4 -4 -11 -10.5t-15.5 -14t-17.5 -15
t-17 -13.5q-14 -11 -38.5 -26t-53.5 -15q-17 0 -24 8.5t-6 19.5q2 19 17 44.5t37 54.5z" />
    <glyph glyph-name="u" unicode="u" horiz-adv-x="322" 
d="M81 143q-5 -2 -18.5 -11.5t-24.5 -18.5t-19.5 -16t-16.5 -14q-12 -10 -15 -8q-2 2 0.5 5t10.5 11q4 4 12.5 11t18.5 15t20.5 16t19.5 14q20 14 32 18t26 4q16 0 18 -3t-7 -13q-10 -11 -23.5 -27t-28.5 -35q-12 -16 -22.5 -31t-14.5 -23q-6 -13 -1 -18q6 -6 23 2
q17 9 34.5 21.5t40.5 30.5q36 28 60 48t48 39q6 5 12 8t17 3q13 0 18.5 -2.5t-3.5 -13.5q-14 -17 -26 -30.5t-27 -33.5q-26 -32 -37 -51q-10 -17 -3 -22t23 3q8 4 20.5 12t24.5 18q15 12 27.5 22.5t20.5 18.5q11 11 14 7q2 -2 -2 -6.5t-6 -6.5q-9 -9 -26 -23.5t-35 -28.5
q-7 -5 -16.5 -12t-21 -13t-24 -10.5t-24.5 -4.5q-31 0 -31 24q0 11 4.5 21t11.5 20q8 12 21 25.5t26 26.5l-1 1l-37.5 -30t-42.5 -33q-31 -23 -57.5 -39t-49.5 -16q-16 0 -25 7t-8 21q1 11 6.5 21.5t12.5 19.5q15 20 31.5 39t39.5 41z" />
    <glyph glyph-name="v" unicode="v" horiz-adv-x="296" 
d="M222 45q-12 0 -21 5.5t-11 13.5q-17 -11 -42 -24q-23 -12 -46.5 -23t-49.5 -19q-7 -2 -17.5 -4.5t-16.5 -2.5q-5 0 -9.5 2t-5.5 10q-1 5 2 9t7 9q11 12 24 27.5t25 30.5q11 14 21 28.5t16 26.5q5 10 0 14q-3 2 -7.5 1.5t-7.5 -2.5q-8 -4 -19 -11.5t-20 -15.5
q-12 -10 -25 -21.5t-17 -15.5q-7 -7 -10 -4t4 10q2 2 8.5 8t15 13.5t16.5 14.5t13 11q18 14 36 24.5t34 10.5q14 0 22 -8.5t6 -26.5q-2 -14 -11.5 -30.5t-23.5 -33.5q-16 -20 -32.5 -36.5l-24.5 -24.5q20 5 43.5 16t46.5 23q8 4 22 12.5t22 14.5q1 14 8 30t15 27
q29 41 48 37q9 -2 9 -13.5t-6 -22.5q-5 -9 -19 -27t-45 -38q3 -14 22 -16q23 -2 48 16q9 7 15.5 12.5t9.5 8.5q4 4 8.5 7t6.5 1t-1.5 -6t-8.5 -9q-8 -8 -24 -20q-27 -19 -53 -19z" />
    <glyph glyph-name="w" unicode="w" horiz-adv-x="427" 
d="M22 -7q-15 0 -21.5 9t-4.5 22t12 31t25 36q11 14 27 29.5t32 29.5q-11 -5 -26 -15.5t-26 -19.5q-23 -18 -40 -34q-12 -11 -15 -8t13 18q4 4 12 11t18 15t20.5 16t19.5 14q19 13 32 17.5t33 4.5q16 0 18.5 -3t-7.5 -13q-14 -14 -29.5 -30t-30.5 -34q-27 -33 -34 -52
q-5 -12 0 -17q4 -4 10.5 -2.5t14.5 5.5q9 5 22.5 14t36.5 27q16 13 29 23.5t25 20.5t23 19.5t24 20.5q7 5 14 9.5t18 4.5q14 0 19 -2.5t-4 -13.5q-7 -8 -12 -14t-10 -12.5t-10.5 -13.5t-12.5 -16q-12 -17 -20 -29t-13 -22q-3 -6 -4 -14t4 -12q5 -3 12 -2t16 4
q13 5 29.5 14.5t28.5 17.5q18 13 29 25q0 16 8 33.5t16 28.5q29 41 48 37q8 -2 9 -13t-6 -23q-8 -14 -24 -32t-39 -37q4 -10 20 -12q10 -1 23.5 4t26.5 14q7 5 15 11.5t10 8.5q4 4 7.5 6.5t5.5 0.5q3 -3 -9 -15q-4 -4 -9 -8t-16 -12q-13 -9 -28 -14.5t-27 -4.5q-20 0 -27 14
q-6 -5 -13 -10t-12 -9q-29 -20 -58 -33.5t-55 -13.5q-19 0 -27 8.5t-8 20.5q0 15 13 36q6 10 15.5 22t20.5 24l-1 1q-16 -14 -37 -31t-38 -31q-9 -8 -21.5 -16.5t-25.5 -16t-27 -12.5t-26 -5h-1z" />
    <glyph glyph-name="x" unicode="x" horiz-adv-x="285" 
d="M95 49q-12 -18 -32 -36.5t-43 -18.5q-18 0 -29 8.5t-9 28.5q1 16 12.5 28.5t26.5 12.5q11 0 17 -7.5t2 -17.5q-3 -8 -10 -12.5t-9 -12.5q-1 -6 2 -9t8 -3q18 0 36.5 21t35.5 46q11 16 20 30.5t12 26.5q4 19 -12 22q-18 3 -38.5 -9.5t-36.5 -24.5q-13 -10 -24.5 -20
t-21.5 -19q-6 -5 -10.5 -8.5t-6.5 -1.5q-3 3 12 17q12 11 28 24.5t28 22.5q14 11 35.5 22.5t44.5 11.5q8 0 16.5 -3t15.5 -9t10 -16.5t0 -25.5h1q16 18 37.5 36t41.5 18q16 0 23.5 -10.5t4.5 -24.5q-2 -11 -11.5 -19t-20.5 -8q-6 0 -11 3.5t-4 11.5q1 6 4.5 9.5t5.5 9.5
q2 8 -8 8q-8 0 -17.5 -6.5t-20.5 -17.5q-8 -7 -17 -17t-21 -27q-8 -11 -15.5 -23.5t-9.5 -21.5q-3 -11 -1 -18.5t11 -9.5q14 -3 37 7.5t44 26.5q17 12 31 25t23 21q6 6 10 3q2 -3 -6 -11q-10 -9 -23.5 -21.5t-29.5 -24.5q-17 -13 -42 -27.5t-52 -14.5q-23 0 -36.5 14
t-7.5 41z" />
    <glyph glyph-name="y" unicode="y" horiz-adv-x="315" 
d="M212 113q-15 -13 -38 -31t-43 -33q-31 -23 -57.5 -39t-49.5 -16q-34 0 -32 29q2 18 18 40q32 42 71 80q-5 -2 -19 -12t-25 -19t-19 -15.5t-16 -13.5q-12 -10 -15 -8q-2 2 0.5 5t10.5 11q4 4 12.5 11t18.5 15t20.5 16t19.5 14q20 14 32 18t26 4q16 0 18 -3t-7 -13
q-10 -11 -23.5 -27t-28.5 -35q-13 -16 -23 -31t-14 -23q-6 -13 -1 -18q6 -6 23 3t34.5 21t40.5 30q36 28 60 48t48 39q6 5 12 8t17 3q13 0 17.5 -2.5t-3.5 -12.5q-12 -16 -28 -37t-31 -41q-13 -17 -44 -58t-88 -119q-33 -45 -63 -87.5t-53.5 -77t-39.5 -58.5t-21 -33
q-6 -10 -6.5 -14t1.5 -6q5 -3 15 8q4 4 12 14.5t18 25t21 30.5t22 31q17 24 45.5 63.5t67.5 90.5q31 39 63.5 76.5t64.5 69.5l14 14t17 16t17 15.5t13 12.5q2 2 7 5.5t7 1.5q2 -3 -11 -16q-10 -9 -25 -23.5t-33 -32.5q-29 -29 -62.5 -68t-63.5 -77q-35 -47 -65.5 -88.5
t-53.5 -75.5q-24 -34 -45 -63.5t-40 -46.5q-7 -6 -14 -10t-15 -3q-19 2 -19 21q0 13 12 35t29 50q13 21 26 40.5t28.5 42t34.5 49.5t46 64q36 50 73.5 101.5t82.5 113.5z" />
    <glyph glyph-name="z" unicode="z" horiz-adv-x="244" 
d="M50 36q14 3 26 2q15 -2 28.5 -9.5t19.5 -24.5q12 7 28.5 17.5t30.5 21.5q17 13 34 27t27 23q11 9 14 6t-13 -17q-9 -8 -24.5 -21t-31.5 -25q-17 -12 -33 -22.5t-30 -18.5q2 -6 2 -15q0 -27 -16.5 -59.5t-41 -65t-53 -62t-51.5 -49.5q-32 -28 -67.5 -55t-70.5 -48
t-66 -33.5t-53 -12.5q-24 0 -33 11t-9 24q0 37 44 82.5t111 96.5q59 44 109 75.5t86 53.5q21 13 40 24.5t36 22.5q2 20 -5.5 32t-21.5 12q-23 0 -41.5 -13t-30.5 -24q-2 -2 -5.5 -5t-6.5 0t-1.5 8t4.5 9q5 7 16.5 14.5t25.5 15.5q29 15 50.5 25t47.5 24q26 16 43.5 29
t29.5 27q2 2 3.5 4.5t0.5 4.5t-6 0q-19 -11 -45 -19t-45 -8q-37 0 -49 19q-13 -14 -27 -29t-26 -26q-5 -5 -7 -5.5t-4 1.5q-3 2 6 11q11 11 26.5 27t27.5 30q-1 6 1 14.5t9 16.5t16 11.5t17 3.5q6 0 11.5 -2.5t5.5 -7.5q-3 -2 -8.5 -5t-7.5 -11q-2 -6 3 -13t25 -7
q21 0 42.5 4.5t38.5 12.5q6 2 12 3t8 -2q4 -4 0 -12t-6 -11q-11 -14 -32 -32t-54 -36q-26 -14 -46 -22t-38 -18zM-286 -394q21 0 48 13.5t57 35.5t61 50t59 58q20 21 44 49t46.5 58t39.5 57.5t22 46.5q-16 -11 -34 -22t-35 -22q-36 -23 -87 -56t-107 -75q-59 -45 -96 -88
t-41 -78q-1 -10 3 -18.5t19 -8.5h1z" />
    <glyph glyph-name="braceleft" unicode="{" horiz-adv-x="295" 
d="M549 455q-8 0 -18 0.5t-22 0.5q-40 0 -67.5 -8t-47.5 -30q-17 -19 -29 -41.5t-25.5 -46t-30 -47.5t-41.5 -46q-20 -18 -44 -24t-46 -7q12 -12 14.5 -37t-16.5 -51q-23 -32 -47 -61.5t-41 -52.5q-39 -59 32 -78q11 -3 22.5 -4.5t21.5 -2.5l-6 -6q-8 0 -21.5 1t-27.5 4
q-46 10 -57 41.5t33 90.5q14 18 35 44.5t37 52.5q8 13 9.5 24t-2 19.5t-10.5 14t-15 7.5v1q10 0 23.5 2t27.5 6t26.5 10t21.5 15q32 32 50.5 65.5t37.5 62.5q26 42 64 66.5t109 24.5q11 0 21 -0.5t18 -0.5q9 -1 17 -1z" />
    <glyph glyph-name="bar" unicode="|" horiz-adv-x="144" 
d="M82 -250h-20v1000h20v-1000z" />
    <glyph glyph-name="braceright" unicode="}" horiz-adv-x="295" 
d="M258 463q9 0 22.5 -0.5t26.5 -3.5q23 -5 38 -15t19.5 -26.5t-3.5 -39t-30 -52.5q-14 -18 -34 -41.5t-36 -49.5q-8 -13 -9.5 -23.5t2 -18.5t11 -13t16.5 -6v-1q-12 1 -25.5 -1.5t-27.5 -8t-27 -14t-22 -18.5q-31 -32 -50.5 -65.5t-37.5 -62.5q-14 -21 -29 -38t-35.5 -28.5
t-46.5 -18t-62 -6.5h-21.5t-18.5 1q-10 0 -17 1l6 7h40q36 0 65.5 7.5t49.5 30.5q16 19 28.5 41.5t26 46t30 47.5t41.5 46q20 17 48 28t51 12q-14 10 -20 31.5t13 47.5q24 32 48 61.5t40 52.5q38 57 -31 78q-11 3 -22.5 4.5t-21.5 2.5z" />
    <glyph glyph-name="asciitilde" unicode="~" horiz-adv-x="307" 
d="M227 214q22 0 36.5 -5.5t24 -14.5t14 -20t6.5 -21q1 -6 -2 -6q-2 0 -2 2t-2 4q-7 11 -22.5 19.5t-55.5 8.5q-14 0 -28.5 -3.5t-29.5 -8t-30.5 -8t-31.5 -3.5q-26 0 -37 13t-14 19q-2 6 0 8q2 1 5 -4q4 -5 11.5 -10t20.5 -5q18 0 35 5.5t34 12t33.5 12t33.5 5.5h1z" />
    <glyph glyph-name="uni00A0" unicode="&#xa0;" horiz-adv-x="153" 
 />
    <glyph glyph-name="exclamdown" unicode="&#xa1;" 
d="M150 118q-11 0 -14.5 7.5t5.5 18.5q9 12 24 19.5t23 7.5q4 -5 4.5 -15t-3.5 -19q-5 -11 -14.5 -15t-23.5 -4h-1zM-88 -177q-11 0 -11 5t19 30t48 58.5t59.5 67t57 61.5t41.5 43q9 9 13 7q3 -2 0.5 -6.5t-6.5 -9.5q-42 -56 -83.5 -113.5t-76.5 -110.5q-15 -22 -29.5 -27
t-30.5 -5h-1z" />
    <glyph glyph-name="cent" unicode="&#xa2;" horiz-adv-x="207" 
d="M87 57q4 -1 10 0t9 2q14 4 29 11t33 23q3 2 6.5 4.5t5.5 0.5q3 -3 -6 -12q-15 -15 -41.5 -29.5t-54.5 -14.5q-10 -14 -18 -26q-8 -11 -14.5 -21t-11.5 -16q-6 -8 -10 -7q-3 1 -1.5 4.5t3.5 7.5q3 5 9.5 15t12.5 20q7 11 16 24q-21 2 -31.5 13t-8.5 29q2 23 17 46t31 39
q20 19 51 34.5t57 17.5q3 5 6 9q5 9 11 16q10 15 14.5 19.5t9.5 2.5q3 -2 1 -6.5t-11 -18.5q-5 -8 -10 -15q-3 -4 -5 -8q38 -5 35 -34q-2 -14 -12 -25t-20 -11q-11 0 -13 7.5t3 20.5q4 9 4.5 17.5t-5.5 12.5zM174 212q-9 0 -24 -9t-30 -26q-20 -20 -36.5 -46.5t-16.5 -49.5
q0 -14 8 -20z" />
    <glyph glyph-name="sterling" unicode="&#xa3;" horiz-adv-x="510" 
d="M631 300q0 -16 -28.5 -39t-76.5 -35q-26 -6 -47 -8.5t-39 -2.5q-6 -7 -13.5 -16t-14.5 -17q-10 -11 -18.5 -21t-19.5 -22h15.5h13t14 -0.5t18.5 -0.5q4 0 9 -0.5t5 -3.5q0 -2 -5 -3t-9 -1q-13 0 -22 -0.5t-16.5 -0.5h-15h-16.5q-30 -31 -64.5 -53t-66.5 -39
q21 -5 46.5 -10.5t54.5 -5.5t51 5t42 18q11 7 12 6q3 -3 -4 -10q-6 -6 -17 -14.5t-26 -16.5t-35 -13.5t-45 -5.5q-23 0 -51 8t-60 19q-29 -14 -68.5 -20t-80.5 -6q-12 0 -28 1.5t-30 5t-23.5 9t-8.5 13.5q0 10 12 17t30.5 11.5t41.5 6t46 1.5q20 0 50 -3t80 -14
q26 16 48 40.5t45 49.5q-30 -1 -56 -1h-68q-20 0 -20 6q0 8 19 8q38 -1 69.5 -1.5t63.5 -1.5q9 10 17.5 20t18.5 21q7 8 16.5 18.5t15.5 16.5q-43 3 -68 23t-25 51q0 18 12 31.5t29 18.5q11 3 11 -1q0 -2 -2.5 -2t-6.5 -2q-17 -6 -25 -18.5t-8 -26.5q0 -28 25 -44t56 -17h14
q22 22 48 40t52.5 30.5t51 19t43.5 6.5q32 0 32 -23v-1zM621 301q0 5 -4 9.5t-18 4.5q-35 0 -72 -20.5t-78 -66.5q44 5 81 16q42 13 66.5 28t24.5 28v1zM56 -1q34 0 73 5.5t62 16.5q-31 8 -64 12.5t-59 5.5h-35t-30.5 -2t-22 -6t-9.5 -10q-1 -7 10 -11t25.5 -6.5t28.5 -3.5
t20 -1h1z" />
    <glyph glyph-name="currency" unicode="&#xa4;" horiz-adv-x="320" 
d="M284 170q0 -30 -19 -60t-42 -49q16 -24 27 -45q5 -13 0 -15q-4 -2 -14 9q-8 10 -16 20.5t-14 18.5q-16 -12 -36.5 -20.5t-39.5 -9.5q-20 -1 -34 6.5t-22 16.5q-11 -7 -23.5 -15t-23.5 -15q-17 -11 -20 -7q-5 5 9 15q10 8 21.5 17t25.5 20q-2 5 -4 13t-2 18q0 31 19 59.5
t41 45.5q-8 13 -14 23.5t-12 21.5q-7 13 0 15q4 2 13 -9q8 -11 16 -20.5t14 -17.5q17 12 39 20t40 8q20 0 33.5 -6t21.5 -16q11 8 22 15.5t18 12.5q15 10 19 7q4 -2 0 -6.5t-7 -7.5q-5 -5 -16.5 -15t-25.5 -21q6 -12 6 -26v-1zM245 173q0 21 -10.5 34.5t-31.5 13.5
t-40.5 -15t-34.5 -36t-24 -45.5t-9 -43.5q0 -23 9 -37.5t31 -13.5q22 0 42 15t35 37t24 46t9 44v1z" />
    <glyph glyph-name="yen" unicode="&#xa5;" horiz-adv-x="371" 
d="M187 126q21 18 44.5 38t47.5 38.5t47 35t43 28.5q54 32 94.5 42t68.5 8q8 -1 16 -4t6 -8q-2 -2 -5 0.5t-14 2.5q-23 0 -62.5 -15.5t-93.5 -47.5q-19 -12 -42 -27t-46.5 -31t-45.5 -32t-38 -29h60t69 -1q5 0 11 -1t6 -3q0 -4 -6 -4.5t-11 -0.5q-38 -1 -75.5 -1.5
t-69.5 -0.5q-5 -3 -11 -7.5l-10 -7.5l-9 -9t-13 -14q35 -1 70.5 -1.5t54.5 -1.5q2 0 10 -0.5t8 -3.5t-8 -3.5t-10 -0.5q-28 -1 -61 -1h-76q-29 -33 -76 -76q-4 -4 -9.5 -7t-9.5 -1q-2 2 0 6t6 9q12 16 26.5 34t26.5 35q-14 0 -32 -0.5t-33 -0.5h-16.5t-8.5 5q0 10 26 10
h29.5t43.5 -1q8 11 12 15.5t6 7.5q3 4 6.5 8.5t4.5 6.5q-20 0 -44 -0.5t-53 -0.5q-8 0 -16.5 0.5t-8.5 5.5q0 10 26 10q29 -1 53.5 -1.5t49.5 -1.5q14 20 29 46.5t23 44.5q11 25 14.5 40.5t1.5 26.5q-1 7 -7.5 13.5t-22.5 6.5q-20 0 -39.5 -10.5t-30.5 -21.5l-4 -4t-4 -1
q-3 2 3 8q15 17 39 30t52 13q20 0 33 -6.5t18 -17.5q8 -17 4 -37.5t-9 -35.5q-11 -27 -28 -53t-30 -42z" />
    <glyph glyph-name="brokenbar" unicode="&#xa6;" horiz-adv-x="144" 
d="M82 325h-20v350h20v-350zM82 175v-350h-20v350h20z" />
    <glyph glyph-name="section" unicode="&#xa7;" horiz-adv-x="356" 
d="M41 -104q-35 0 -55 19t-15 45q4 17 14.5 25t23.5 6q9 -1 14 -8t3 -17q-2 -11 -11 -17.5t-9 -16.5q0 -9 9 -17t31 -8q24 0 43 10.5t29 32.5t5.5 42.5t-12.5 43.5q-8 20 -10.5 41t3.5 38q11 34 40.5 52t62.5 18q-5 17 -6.5 35t3.5 32q11 33 41 51.5t65 17.5q24 -1 40 -15
t9 -37q-3 -11 -12 -18.5t-19 -5.5q-12 2 -14 11t1 16q5 11 10.5 16t4.5 11t-8 9.5t-16 3.5q-24 1 -43 -12t-27 -33q-7 -19 -4.5 -35.5t10.5 -35.5q10 -23 16 -45t-2 -45q-12 -35 -43.5 -53.5t-62.5 -20.5q5 -16 6.5 -32.5t-3.5 -32.5q-6 -18 -18.5 -31.5t-27.5 -22.5
t-32 -13t-33 -4h-1zM210 175q-26 2 -47 -11.5t-29 -32.5q-7 -19 -4.5 -35.5t10.5 -35.5q2 -5 3.5 -9.5t3.5 -8.5q23 2 42.5 12.5t29.5 32.5q8 18 5.5 35.5t-9.5 38.5q-2 5 -3 8.5t-2 5.5z" />
    <glyph glyph-name="dieresis" unicode="&#xa8;" horiz-adv-x="307" 
d="M202 298q10 0 13 -6.5t-5 -16.5q-8 -11 -21.5 -17.5t-21.5 -6.5q-3 4 -3.5 13t3.5 17q4 11 13 14t21 3h1zM302 298q10 0 12.5 -6.5t-5.5 -16.5q-8 -11 -21.5 -17.5t-21.5 -6.5q-3 4 -3 13t3 17q4 11 13.5 14t21.5 3h1z" />
    <glyph glyph-name="copyright" unicode="&#xa9;" horiz-adv-x="509" 
d="M268 290q32 0 61.5 -12t51.5 -33t35 -49t13 -61t-13 -61t-35.5 -48.5t-51.5 -32.5t-62 -12t-62.5 12t-52 32.5t-35.5 48.5t-13 61t13 61t35.5 49t52 33t62.5 12h1zM265 272q-28 0 -52.5 -11t-43 -30t-29 -44t-10.5 -53t10.5 -52.5t29 -43t43.5 -29t53 -10.5t53 10.5
t43.5 29t29.5 43t11 52.5t-11 53t-29.5 44t-43.5 30t-53 11h-1zM326 163q-1 18 -11 30t-33 12q-27 0 -43.5 -18.5t-16.5 -50.5q0 -33 16 -52t42 -19q23 0 34 12t16 25h12q-1 -5 -1.5 -10.5t-2.5 -13.5t-4 -11.5t-10 -7.5q-8 -3 -22.5 -5.5t-23.5 -2.5q-42 0 -69 20t-27 62
q0 21 8.5 37t22.5 27t32 16.5t37 5.5q31 0 45 -8q14 -7 14 -26v-22h-15z" />
    <glyph glyph-name="ordfeminine" unicode="&#xaa;" horiz-adv-x="263" 
d="M293 388q12 13 19.5 18t15.5 6q19 0 9 -11q-16 -20 -33.5 -41t-28.5 -41q-7 -13 -2 -17q5 -3 16 3q14 7 31 21q12 10 20 17t15 13q8 7 10 5t-0.5 -5t-5.5 -6q-5 -5 -16 -15t-26 -22q-14 -11 -28 -18.5t-28 -7.5q-9 0 -15 3.5t-7 11.5t1.5 15.5t7.5 13.5h-1
q-14 -12 -35.5 -27.5t-41.5 -16.5q-11 -1 -21 4.5t-8 22.5q2 13 13 31t37 37q9 6 20 12t23 10t23.5 6t19.5 1q11 -2 14.5 -9t1.5 -14zM271 403q-9 0 -25 -11.5t-35 -30.5q-36 -38 -36 -52q0 -8 8 -8q10 0 25.5 10t31.5 25q17 14 31 30.5t14 24.5q0 12 -13 12h-1z" />
    <glyph glyph-name="guillemotleft" unicode="&#xab;" horiz-adv-x="279" 
d="M103 4q-2 0 -3 2.5t-2 4.5q-3 7 -8 17t-11 20.5t-12 20.5t-11 18q-2 3 -4 5.5t0 6.5q1 4 10 8q7 4 19.5 11t25.5 15t25.5 15.5t21.5 13.5q2 2 4.5 3.5t3.5 0.5q4 -3 -3 -11l-13 -13t-17.5 -17t-20.5 -17.5t-21 -14.5q8 -21 13.5 -43.5t6.5 -36.5q0 -2 -0.5 -5.5
t-2.5 -3.5h-1zM187 4q-2 0 -3 2.5t-2 4.5q-3 7 -8 17t-11 20.5t-12 20.5t-11 18q-2 3 -4 5.5t0 6.5q1 2 4.5 4t6.5 4q7 4 19.5 11t25.5 15t25.5 15.5t20.5 13.5q2 2 4.5 3.5t4.5 0.5q3 -3 -3 -11l-13 -13t-18 -17t-21 -17.5t-21 -14.5q8 -21 13.5 -45t6.5 -35
q0 -2 -0.5 -5.5t-2.5 -3.5h-1z" />
    <glyph glyph-name="logicalnot" unicode="&#xac;" horiz-adv-x="457" 
d="M80 160q0 3 6.5 4.5t12.5 1.5q31 0 68 0.5t76 1.5t78 2.5t75 2.5q12 1 15.5 -5t-0.5 -10q-25 -28 -54.5 -62t-48.5 -58q-5 -7 -10.5 -11.5t-9.5 -1.5q-2 2 -0.5 7t6.5 12q7 10 16 23t19 27t19.5 27t17.5 24q-76 2 -143 3.5t-124 3.5q-5 0 -12 1.5t-7 5.5v1z" />
    <glyph glyph-name="uni00AD" unicode="&#xad;" horiz-adv-x="245" 
d="M150 117q25 0 35.5 -16.5t9.5 -35.5q0 -5 -2 -5t-4 3q-5 8 -14 12t-26 4q-20 0 -35 -4.5t-40 -4.5q-8 0 -19 3.5t-16 9.5q-2 3 0 5t4 0q8 -4 16 -4q14 0 26.5 6t23.5 13q8 5 18.5 9.5t22.5 4.5z" />
    <glyph glyph-name="registered" unicode="&#xae;" horiz-adv-x="453" 
d="M366 285q0 -26 -11 -49t-29 -40t-42 -27t-50 -10q-27 0 -51 10t-42.5 27t-29.5 40.5t-11 49.5t11 49.5t29.5 41t42.5 27.5t51 10q26 0 50 -10t42 -27.5t29 -41t11 -49.5v-1zM344 287q0 22 -9 42t-24 35t-35.5 24t-42.5 9q-23 0 -43 -9t-35 -24t-24 -35t-9 -43t9 -43
t24 -35t35 -23.5t43 -8.5q22 0 42.5 8.5t35.5 23.5t24 35t9 43v1zM319 221h-24q-11 0 -20 6t-21 23q-5 8 -9 14.5t-7 12.5q-1 -1 -3 -1h-8h-6q-2 0 -3 1v-17q0 -15 3.5 -21t18.5 -6v-11h-73v11q14 0 17.5 6t3.5 22v56q0 14 -3.5 18.5t-17.5 4.5v11h69q20 0 35.5 -7t15.5 -27
q0 -11 -6.5 -18t-16.5 -12q4 -7 8.5 -15t11.5 -17q6 -8 15.5 -15t19.5 -9v-10zM218 288q19 -1 28.5 5t9.5 23q0 26 -38 23v-51z" />
    <glyph glyph-name="macron" unicode="&#xaf;" horiz-adv-x="307" 
d="M319 276q0 -2 -4 -6q-8 -8 -12.5 -9.5t-7.5 -1.5q-35 1 -72 1t-62 -1q-6 0 -9 0.5t1 5.5q6 8 12 9.5t17 3.5q25 3 61 4.5t63 -0.5q13 -1 13 -5v-1z" />
    <glyph glyph-name="degree" unicode="&#xb0;" horiz-adv-x="155" 
d="M125 264q17 0 30.5 -13t13.5 -32q0 -18 -13.5 -31t-31.5 -13q-19 0 -32 13t-13 31q0 19 13 32t32 13h1zM123 249q-11 0 -20 -9t-9 -21t9 -20.5t21 -8.5t21 8.5t9 20.5t-9 21t-21 9h-1z" />
    <glyph glyph-name="plusminus" unicode="&#xb1;" horiz-adv-x="359" 
d="M300 276q13 0 15 -5t-16 -27q-11 -14 -25 -30t-28 -33q65 -2 113 -3q5 0 10 -1t6 -4q0 -3 -5 -4t-10 -1q-29 -1 -60.5 -1.5t-66.5 -0.5q-20 -22 -32 -35t-27 -30q-5 -5 -10.5 -9t-8.5 -2q-4 4 5 16l9 13.5t6.5 9.5t9.5 13t17 23q-25 -1 -52 -1h-52q-18 0 -22 2.5t-2 7.5
q4 12 21 12q29 -1 60 -2t60 -2q11 15 23.5 33.5t23.5 32.5q9 12 16 20t21 8h1zM303 65q0 -3 -5 -4t-10 -1q-54 -2 -113 -2.5t-135 -1.5q-10 0 -12 3.5t0 8.5t7 8.5t16 3.5q69 -2 127.5 -4.5t109.5 -4.5q5 0 10 -1t5 -4v-1z" />
    <glyph glyph-name="two.superior" unicode="&#xb2;" horiz-adv-x="191" 
d="M115 185q14 3 23 2q11 -1 20 -5t17 -4q18 0 37 19q5 5 7 4t-1 -6q-14 -17 -28 -29t-32 -12q-8 0 -18.5 3t-17.5 6q-11 5 -25 5q-11 0 -20 -6q-4 -2 -7 -5t-5 -3q-4 0 -1 5q1 4 10 9q7 5 22 12.5t34 18.5q29 17 54.5 39t31.5 42q7 23 -15 23q-21 0 -39 -15
q-15 -12 -19 -27q-5 -22 14 -17q4 1 4 -1t-4 -4q-6 -3 -14 -3q-11 1 -13 8.5t0 13.5q2 9 10 19.5t19 18.5q14 10 29 16t29 6q20 0 30 -10.5t6 -27.5q-5 -20 -24.5 -35.5t-44.5 -29.5q-18 -10 -37 -18t-32 -12z" />
    <glyph glyph-name="three.superior" unicode="&#xb3;" horiz-adv-x="191" 
d="M188 248q12 0 21 -7q7 -5 7.5 -14.5t-1.5 -16.5q-9 -26 -39 -42q-14 -7 -29 -11t-31 -4q-18 0 -30 7t-10 23q2 11 11 18.5t20 8.5q10 1 13.5 -4t2.5 -10q-1 -4 -3 -7t-8 -6q-10 -5 -11 -11q-2 -11 16 -11q13 0 32 11t33 39q5 10 5 19t-8 10q-5 0 -15 -5q-8 -4 -9 -1
q-2 4 11 10q26 11 40.5 23.5t14.5 24.5t-15 12q-6 0 -13.5 -2.5t-15.5 -7.5q-6 -4 -10 -9t-6 -9q-3 -7 -1 -13l1 -5q-4 -2 -8 4t-1 15q2 8 9.5 15t15.5 12q10 6 22.5 10t25.5 4q26 0 28 -19q1 -19 -22 -33q-8 -5 -20 -10t-23 -8z" />
    <glyph glyph-name="acute" unicode="&#xb4;" horiz-adv-x="307" 
d="M318 334q4 0 7 -5q5 -8 2.5 -17t-9.5 -16q-6 -6 -16.5 -14t-23 -16t-24.5 -15.5t-19 -11.5q-10 -5 -12 -3q-2 3 5 10q14 14 36.5 37t38.5 42q7 9 14 9h1z" />
    <glyph glyph-name="mu" unicode="&#xb5;" horiz-adv-x="322" 
d="M71 21q17 9 34.5 21.5t40.5 30.5q36 28 60 48t48 39q6 5 12 8t17 3q13 0 18.5 -2.5t-3.5 -13.5q-14 -17 -26 -30.5t-27 -33.5q-26 -32 -37 -51q-10 -17 -3 -22t23 3q8 4 20.5 12t24.5 18q15 12 27.5 22.5t20.5 18.5q11 11 14 7q2 -2 -2 -6.5t-6 -6.5q-9 -9 -26 -23.5
t-35 -28.5q-7 -5 -16.5 -12t-21 -13t-24 -10.5t-24.5 -4.5q-31 0 -31 24q0 11 4.5 21t11.5 20q8 12 21 25.5t26 26.5l-1 1l-37.5 -30t-42.5 -33q-31 -23 -57.5 -39t-46.5 -16q-19 0 -24 13q-5 -7 -10 -16t-9 -17q-6 -11 -12 -26.5t-8 -29.5q-2 -10 0 -20q1 -3 -1 -4.5
t-7 0.5q-5 3 -9 9.5t-4 18.5q0 22 16 56q10 20 24.5 44t24.5 38q7 11 28.5 36t45.5 47q-6 -2 -20 -12t-25 -19t-19 -15.5t-16 -13.5q-12 -10 -15 -8q-2 2 0.5 5t10.5 11q4 4 12.5 11t18.5 15t20.5 16t19.5 14q20 14 32 18t26 4q16 0 18 -3t-7 -13q-10 -11 -23.5 -27
t-28.5 -35q-12 -16 -22.5 -31t-14.5 -23q-6 -13 -1 -18q6 -6 23 2z" />
    <glyph glyph-name="paragraph" unicode="&#xb6;" horiz-adv-x="417" 
d="M568 400q20 0 30.5 -4.5t10.5 -10.5q0 -9 -11 -9q-8 0 -11 3.5t-8 7.5q-8 6 -21 5q-23 -2 -50.5 -21.5t-62.5 -60.5q8 -2 14 -5.5t10 -6.5q7 -6 5 -8t-8 2q-10 7 -27 12q-11 -14 -23 -29t-26 -33q-15 -20 -34 -44t-38.5 -48t-37.5 -44.5t-30 -33.5q-43 -43 -80 -66
t-74 -24q-9 0 -15 2q-29 -20 -54 -29t-52 -9q-35 0 -56.5 15.5t-16.5 41.5q4 17 15.5 25t23.5 6q8 -1 13.5 -7.5t3.5 -17.5q-3 -14 -11 -19.5t-9 -14.5q-1 -8 9.5 -14t28.5 -6q16 0 32 5t30.5 12.5t27 16t21.5 16.5q25 21 48.5 48t49.5 59q-24 3 -42 17.5t-25.5 35.5
t-2 46.5t26.5 49.5q19 21 46 34.5t56.5 20.5t60 9t56.5 1q32 -1 60 -8q35 35 73 58.5t73 23.5h1zM380 314q-4 1 -13 1q-51 0 -97.5 -14.5t-81.5 -60.5q-19 -25 -25.5 -46t-4.5 -36.5t11.5 -25.5t21.5 -13q3 3 9 11q17 22 40 50.5t48 56t49 49t43 28.5zM89 -10q4 -2 9 -2
q20 0 46 16.5t61 52.5q31 32 58.5 68t65.5 84q20 25 41.5 52t45.5 50q-10 2 -14 2h-5t-5 -1q-12 -4 -27.5 -18t-34 -35t-39 -46.5t-41.5 -52.5q-22 -27 -43 -52t-40.5 -46t-35.5 -37t-28 -25q-8 -6 -14 -10z" />
    <glyph glyph-name="periodcentered" unicode="&#xb7;" horiz-adv-x="126" 
d="M94 162q12 0 15 -7.5t-5 -18.5q-10 -12 -25 -19.5t-23 -7.5q-3 5 -3.5 15t3.5 19q5 11 14.5 15t22.5 4h1z" />
    <glyph glyph-name="cedilla" unicode="&#xb8;" horiz-adv-x="307" 
d="M27 -98q17 0 30 8.5t14 22.5q2 25 -30 23q-8 -1 -13 -3.5t-7 -0.5t0 4.5t4 4.5q7 8 19.5 20t22.5 20l8 -5q-6 -5 -17 -15t-15 -15q6 2 14 2q21 0 33.5 -9t10.5 -29q-2 -19 -23.5 -31.5t-50.5 -10.5q-25 1 -38.5 9t-18.5 16q-10 13 -3 15q2 1 3.5 -1.5t4.5 -5.5
q6 -7 17.5 -13t33.5 -6h1z" />
    <glyph glyph-name="one.superior" unicode="&#xb9;" horiz-adv-x="191" 
d="M199 288q-9 -5 -20 -11.5t-20 -11.5q-10 -5 -17.5 -5t-8.5 2t3.5 3t25.5 12q28 14 52 30q5 3 13 7t12 4q4 1 5.5 -1.5t-6.5 -11.5q-29 -35 -51 -64.5t-43 -58.5q-6 -8 -10 -12.5t-8.5 -7.5t-11 -4.5t-16.5 -3.5q-9 -2 -10 1.5t12 20.5q12 15 27 33.5t30 35.5t26.5 29
t15.5 14z" />
    <glyph glyph-name="ordmasculine" unicode="&#xba;" horiz-adv-x="263" 
d="M193 287q-16 0 -25 8t-8 22q1 17 11 32t23 26q18 16 41 25.5t42 11.5q11 2 11 -2q0 -1 -8 -5q-11 -6 -24 -15.5t-26 -22.5q-15 -14 -27 -31.5t-13 -28.5q-2 -12 9 -12q12 0 30 11.5t35 29.5q1 5 3.5 12.5t9.5 17.5q12 15 22 17q4 8 2 18q-1 5 -1.5 7t1.5 3t4.5 -0.5
t4.5 -3.5q10 -10 9 -25q-2 -12 -12 -26t-27 -28q4 -3 13 -1q8 2 23 12q8 5 13.5 10t9.5 9q7 7 10 5q2 -3 -5 -10t-11.5 -10.5t-10.5 -8.5q-18 -13 -28 -15q-12 -3 -20 1q-14 -10 -36.5 -21.5t-43.5 -11.5h-1z" />
    <glyph glyph-name="guillemotright" unicode="&#xbb;" horiz-adv-x="279" 
d="M166 166q1 0 5 -7q3 -7 8 -17t11 -20.5l12 -21t11 -17.5q2 -3 3.5 -6t0.5 -6t-10 -8q-8 -4 -20 -11t-25.5 -15t-26 -15.5t-20.5 -13.5q-2 -2 -4 -3.5t-4 -0.5q-4 3 3 11q4 5 12 13t18 17t21 17.5t21 14.5q-8 21 -13.5 44.5t-6.5 34.5q0 3 0.5 6.5t2.5 3.5h1zM84 166
q2 0 3 -2.5t2 -4.5q3 -7 8 -17t11 -20.5t11.5 -21t10.5 -17.5q2 -4 4 -6.5t1 -5.5q-1 -2 -11 -8q-8 -4 -20 -11t-25 -15t-25.5 -15.5t-20.5 -13.5q-7 -6 -9 -4q-3 3 3 11q4 5 12.5 13t18.5 17t21 17.5t21 14.5q-8 21 -14 44.5t-6 34.5q0 10 3 10h1z" />
    <glyph glyph-name="onequarter" unicode="&#xbc;" horiz-adv-x="389" 
d="M183 52q0 2 4 5t9 6q12 8 30 19t35 22q23 14 37 22l28 16q16 8 26.5 11.5t14.5 3.5q5 0 5 -1.5t-2 -3.5q-22 -29 -38.5 -51t-27.5 -38q12 0 24 -3q13 -4 11 -7q-1 -1 -14 -1h-28q-5 -7 -15 -20t-19 -27q-5 -8 -13.5 -10t-16.5 -4q-10 -1 -11 1.5t7 15.5t15 22t17 22h-21
t-22 -1q-17 -1 -28 -3q-7 -2 -7 4zM332 137q-14 -8 -31 -17.5t-34 -20.5q-20 -12 -34 -21.5t-25 -15.5v-1q13 2 31.5 2.5t29.5 0.5l63 73v0zM355 300q10 0 7 -5.5t-24 -26.5q-60 -59 -132 -135t-151 -167q-3 -4 -8 -7t-8 -1q-2 2 0.5 6t6.5 9q75 90 143.5 166.5t122.5 133.5
q11 11 20 19t23 8zM160 236q-9 -5 -20 -11.5t-20 -11.5q-10 -5 -17.5 -5t-8.5 2t3.5 3t25.5 12q28 14 52 30q6 4 13.5 7.5t11.5 3.5t5.5 -2t-6.5 -11q-29 -35 -51 -64.5t-43 -58.5q-6 -8 -10 -12.5t-8.5 -7.5t-11 -4.5t-16.5 -3.5q-9 -2 -10 1.5t12 20.5q12 15 27 33.5
t30 35.5t26.5 29t15.5 14z" />
    <glyph glyph-name="onehalf" unicode="&#xbd;" horiz-adv-x="407" 
d="M239 25q5 1 10 1.5t12 -0.5q11 -1 20 -5t17 -4q11 0 18.5 4t18.5 16q4 4 6 3q3 -1 0 -4q-14 -17 -27.5 -29.5t-32.5 -12.5q-8 0 -18 2.5t-18 5.5q-7 2 -12 3.5t-13 1.5q-5 0 -10 -1t-9 -4q-3 -2 -6 -4.5t-5 -3.5t-3.5 0.5t0.5 3.5q2 4 10 9q7 5 23 13t33 18
q30 17 55.5 39t30.5 42q7 23 -15 23q-20 0 -39 -15q-15 -12 -19 -26q-5 -22 14 -19q5 2 5 0t-4 -4q-2 -1 -6.5 -2.5t-9.5 -0.5q-11 2 -12.5 9t0.5 13q2 10 10 20t19 18q13 10 28.5 16t29.5 6q20 0 29.5 -10.5t4.5 -27.5q-6 -20 -25 -35.5t-42 -29.5q-18 -11 -37 -18.5
t-31 -10.5zM356 300q10 0 7 -5.5t-24 -26.5q-60 -59 -132 -135t-151 -167q-3 -4 -8 -7t-8 -1q-2 2 0.5 6t6.5 9q75 90 143.5 166.5t122.5 133.5q11 11 20 19t23 8zM160 236q-9 -5 -20 -11.5t-20 -11.5q-10 -5 -17.5 -5t-8.5 2t3.5 3t25.5 12q28 14 52 30q6 4 13.5 7.5
t11.5 3.5t5.5 -2t-6.5 -11q-29 -35 -51 -64.5t-43 -58.5q-6 -8 -10 -12.5t-8.5 -7.5t-11 -4.5t-16.5 -3.5q-9 -2 -10 1.5t12 20.5q12 15 27 33.5t30 35.5t26.5 29t15.5 14z" />
    <glyph glyph-name="threequarters" unicode="&#xbe;" horiz-adv-x="420" 
d="M149 197q12 0 21 -7q7 -5 8 -13.5t-2 -17.5q-8 -26 -39 -42q-14 -7 -29 -11t-31 -4q-18 1 -30 7.5t-10 22.5q2 11 10.5 19t19.5 8q10 0 14 -4.5t3 -9.5q-1 -6 -11 -13q-3 -2 -6.5 -4.5t-4.5 -6.5q-2 -11 16 -11q13 1 32 11t33 39q5 10 5 19t-8 10q-5 0 -15 -5
q-7 -4 -9 -1q-2 4 11 10q26 11 40.5 23.5t14.5 24.5t-15 12q-13 0 -29 -10q-6 -4 -10 -9t-6 -9q-3 -7 -1 -12l1 -6q-4 -2 -8 4q-1 2 -2 6t1 9q2 8 9 15t15 12q10 6 23 10t26 4q28 0 28 -19q0 -20 -22 -33q-17 -11 -43 -18zM214 52q0 2 4 5t9 6q12 8 30 19t35 22q23 14 37 22
l28 16q16 8 26.5 11.5t14.5 3.5q5 0 5 -1.5t-2 -3.5q-22 -29 -38.5 -51t-27.5 -38q12 0 24 -3q13 -4 11 -7q-1 -1 -14 -1h-28q-5 -7 -15 -20t-19 -27q-5 -8 -13.5 -10t-16.5 -4q-10 -1 -11 1.5t7 15.5t15 22t17 22h-21t-22 -1q-17 -1 -28 -3q-7 -2 -7 4zM363 137
q-14 -8 -31 -17.5t-34 -20.5q-18 -11 -33 -21t-26 -16v-1q13 2 31.5 2.5t29.5 0.5q7 8 15.5 18.5t17.5 21t17 19t14 13.5zM386 300q10 0 7 -5.5t-24 -26.5q-60 -59 -132 -135t-151 -167q-3 -4 -8 -7t-8 -1q-2 2 0.5 6t6.5 9q75 90 143.5 166.5t122.5 133.5q11 11 20 19t23 8
z" />
    <glyph glyph-name="questiondown" unicode="&#xbf;" 
d="M-36 -175q-29 0 -42 19t-5 47q11 35 41.5 59t75.5 45q17 8 32.5 16.5t29.5 16.5q30 17 35 32q4 7 7 18.5t12 11.5q5 0 3 -10t-5 -15q-7 -14 -20 -28t-35 -27q-53 -32 -84.5 -61t-44.5 -62q-7 -17 -1.5 -29t22.5 -14t35.5 5t34.5 20q23 17 34.5 41t3.5 39q-2 5 -5.5 6
t-2.5 3t4.5 2t6.5 -1q14 -3 16.5 -15t-0.5 -23q-5 -17 -19 -31.5t-32 -28.5q-23 -17 -47.5 -26.5t-48.5 -9.5h-1zM153 118q-11 0 -14.5 7.5t5.5 18.5q9 12 24 19.5t23 7.5q4 -5 4.5 -15t-3.5 -19q-5 -11 -14.5 -15t-23.5 -4h-1z" />
    <glyph glyph-name="Agrave" unicode="&#xc0;" horiz-adv-x="690" 
d="M21 57q0 26 16 43t36 18q17 2 27 -7t10 -23q0 -11 -6 -18.5t-17 -15.5q-8 -5 -13 -11t-5 -14q0 -16 24.5 -26.5t73.5 -6.5q29 3 57.5 11.5t55 20.5t50.5 26.5t45 28.5q-7 6 -16.5 17.5t-18 26.5t-14.5 32.5t-6 36.5q1 45 33 75.5t86 29.5q20 -1 37 -8.5t30.5 -18
t22.5 -23t14 -22.5q10 10 24 23t23 21q40 36 76 65.5t74 49.5q29 16 60 27t60 11q14 0 22.5 -3.5t12.5 -6.5q5 -4 7 -8t0 -6q-1 0 -11 7q-8 6 -22 6q-18 0 -32 -11q-8 -7 -18.5 -18t-21.5 -23.5t-21.5 -26.5l-19.5 -26q-47 -65 -95.5 -138.5t-91.5 -143.5q25 2 56 17
q16 8 33.5 21.5t29.5 24.5q6 6 10 3q2 -3 -8 -13q-11 -10 -27 -22.5t-35 -22.5q-16 -8 -33 -12.5t-31 -5.5q-11 -11 -19.5 -17t-19.5 -8t-16.5 -1t-8 3.5t-2 5.5t2.5 6q2 5 4 8.5t4 6.5q-14 2 -33 7.5t-32 10.5q-17 7 -33 16.5t-26 18.5q-14 -10 -37 -24.5t-52.5 -29
t-63 -25t-68.5 -13.5q-29 -2 -55 1.5t-45.5 12.5t-31 23.5t-11.5 35.5v1zM558 99q9 13 24 35.5t32 47t34.5 48.5t30.5 41q46 60 86 94t75 51v1q-17 -2 -43 -11.5t-52 -23.5q-35 -20 -70 -48.5t-64 -54.5q-18 -17 -33 -31l-30 -28q4 -11 7.5 -26.5t5.5 -38.5q2 -29 -3 -56z
M439 286q-20 0 -34.5 -8t-25 -20.5t-16 -29t-6.5 -34.5q-1 -16 2.5 -31t8.5 -28t11 -23.5t11 -16.5q16 13 34.5 28.5t38.5 33.5l36 32t35 32q-15 28 -39 46.5t-55 18.5h-1zM397 86q8 -10 23 -19t29 -16q12 -5 31.5 -11t33.5 -8l7.5 12.5t9 14.5t8 12.5t5.5 8.5q5 11 6.5 32
t-0.5 42q-2 18 -4 32.5t-7 25.5q-18 -17 -35.5 -33t-34.5 -31q-20 -18 -37.5 -33t-34.5 -29zM793 524q-23 15 -12 34l4.5 4.5t6.5 2.5q5 0 13 -6q17 -14 40.5 -32.5t49.5 -36.5q8 -6 6 -8q-2 -3 -6 -2t-6 2q-9 3 -22 8t-27.5 11t-27 12t-19.5 11z" />
    <glyph glyph-name="Aacute" unicode="&#xc1;" horiz-adv-x="690" 
d="M21 57q0 26 16 43t36 18q17 2 27 -7t10 -23q0 -11 -6 -18.5t-17 -15.5q-8 -5 -13 -11t-5 -14q0 -16 24.5 -26.5t73.5 -6.5q29 3 57.5 11.5t55 20.5t50.5 26.5t45 28.5q-7 6 -16.5 17.5t-18 26.5t-14.5 32.5t-6 36.5q1 45 33 75.5t86 29.5q20 -1 37 -8.5t30.5 -18
t22.5 -23t14 -22.5q10 10 24 23t23 21q40 36 76 65.5t74 49.5q29 16 60 27t60 11q14 0 22.5 -3.5t12.5 -6.5q5 -4 7 -8t0 -6q-1 0 -11 7q-8 6 -22 6q-18 0 -32 -11q-8 -7 -18.5 -18t-21.5 -23.5t-21.5 -26.5l-19.5 -26q-47 -65 -95.5 -138.5t-91.5 -143.5q25 2 56 17
q16 8 33.5 21.5t29.5 24.5q6 6 10 3q2 -3 -8 -13q-11 -10 -27 -22.5t-35 -22.5q-16 -8 -33 -12.5t-31 -5.5q-11 -11 -19.5 -17t-19.5 -8t-16.5 -1t-8 3.5t-2 5.5t2.5 6q2 5 4 8.5t4 6.5q-14 2 -33 7.5t-32 10.5q-17 7 -33 16.5t-26 18.5q-14 -10 -37 -24.5t-52.5 -29
t-63 -25t-68.5 -13.5q-29 -2 -55 1.5t-45.5 12.5t-31 23.5t-11.5 35.5v1zM558 99q9 13 24 35.5t32 47t34.5 48.5t30.5 41q46 60 86 94t75 51v1q-17 -2 -43 -11.5t-52 -23.5q-35 -20 -70 -48.5t-64 -54.5q-18 -17 -33 -31l-30 -28q4 -11 7.5 -26.5t5.5 -38.5q2 -29 -3 -56z
M439 286q-20 0 -34.5 -8t-25 -20.5t-16 -29t-6.5 -34.5q-1 -16 2.5 -31t8.5 -28t11 -23.5t11 -16.5q16 13 34.5 28.5t38.5 33.5l36 32t35 32q-15 28 -39 46.5t-55 18.5h-1zM397 86q8 -10 23 -19t29 -16q12 -5 31.5 -11t33.5 -8l7.5 12.5t9 14.5t8 12.5t5.5 8.5q5 11 6.5 32
t-0.5 42q-2 18 -4 32.5t-7 25.5q-18 -17 -35.5 -33t-34.5 -31q-20 -18 -37.5 -33t-34.5 -29zM775 480q-1 2 2 4l6 4q35 14 67 33t53 33q7 4 13 4q8 0 10 -11q3 -17 -21 -30q-9 -5 -25 -10.5t-33.5 -10.5t-33.5 -9.5t-26 -6.5q-2 -1 -6.5 -1.5t-5.5 1.5z" />
    <glyph glyph-name="Acircumflex" unicode="&#xc2;" horiz-adv-x="690" 
d="M21 57q0 26 16 43t36 18q17 2 27 -7t10 -23q0 -11 -6 -18.5t-17 -15.5q-8 -5 -13 -11t-5 -14q0 -16 24.5 -26.5t73.5 -6.5q29 3 57.5 11.5t55 20.5t50.5 26.5t45 28.5q-7 6 -16.5 17.5t-18 26.5t-14.5 32.5t-6 36.5q1 45 33 75.5t86 29.5q20 -1 37 -8.5t30.5 -18
t22.5 -23t14 -22.5q10 10 24 23t23 21q40 36 76 65.5t74 49.5q29 16 60 27t60 11q14 0 22.5 -3.5t12.5 -6.5q5 -4 7 -8t0 -6q-1 0 -11 7q-8 6 -22 6q-18 0 -32 -11q-8 -7 -18.5 -18t-21.5 -23.5t-21.5 -26.5l-19.5 -26q-47 -65 -95.5 -138.5t-91.5 -143.5q25 2 56 17
q16 8 33.5 21.5t29.5 24.5q6 6 10 3q2 -3 -8 -13q-11 -10 -27 -22.5t-35 -22.5q-16 -8 -33 -12.5t-31 -5.5q-11 -11 -19.5 -17t-19.5 -8t-16.5 -1t-8 3.5t-2 5.5t2.5 6q2 5 4 8.5t4 6.5q-14 2 -33 7.5t-32 10.5q-17 7 -33 16.5t-26 18.5q-14 -10 -37 -24.5t-52.5 -29
t-63 -25t-68.5 -13.5q-29 -2 -55 1.5t-45.5 12.5t-31 23.5t-11.5 35.5v1zM558 99q9 13 24 35.5t32 47t34.5 48.5t30.5 41q46 60 86 94t75 51v1q-17 -2 -43 -11.5t-52 -23.5q-35 -20 -70 -48.5t-64 -54.5q-18 -17 -33 -31l-30 -28q4 -11 7.5 -26.5t5.5 -38.5q2 -29 -3 -56z
M439 286q-20 0 -34.5 -8t-25 -20.5t-16 -29t-6.5 -34.5q-1 -16 2.5 -31t8.5 -28t11 -23.5t11 -16.5q16 13 34.5 28.5t38.5 33.5l36 32t35 32q-15 28 -39 46.5t-55 18.5h-1zM397 86q8 -10 23 -19t29 -16q12 -5 31.5 -11t33.5 -8l7.5 12.5t9 14.5t8 12.5t5.5 8.5q5 11 6.5 32
t-0.5 42q-2 18 -4 32.5t-7 25.5q-18 -17 -35.5 -33t-34.5 -31q-20 -18 -37.5 -33t-34.5 -29zM764 470q-3 -1 -6.5 -1.5t-4.5 2.5q-1 2 2 4t5 3q12 7 27 16t30.5 19t29 19t22.5 16q6 4 10 4t6 -6q8 -19 17 -36t17 -30q3 -7 3 -8q-2 -2 -6 0l-6 3q-8 5 -19.5 14t-23.5 22
q-25 -13 -55 -24t-48 -17z" />
    <glyph glyph-name="Atilde" unicode="&#xc3;" horiz-adv-x="690" 
d="M21 57q0 26 16 43t36 18q17 2 27 -7t10 -23q0 -11 -6 -18.5t-17 -15.5q-8 -5 -13 -11t-5 -14q0 -16 24.5 -26.5t73.5 -6.5q29 3 57.5 11.5t55 20.5t50.5 26.5t45 28.5q-7 6 -16.5 17.5t-18 26.5t-14.5 32.5t-6 36.5q1 45 33 75.5t86 29.5q20 -1 37 -8.5t30.5 -18
t22.5 -23t14 -22.5q10 10 24 23t23 21q40 36 76 65.5t74 49.5q29 16 60 27t60 11q14 0 22.5 -3.5t12.5 -6.5q5 -4 7 -8t0 -6q-1 0 -11 7q-8 6 -22 6q-18 0 -32 -11q-8 -7 -18.5 -18t-21.5 -23.5t-21.5 -26.5l-19.5 -26q-47 -65 -95.5 -138.5t-91.5 -143.5q25 2 56 17
q16 8 33.5 21.5t29.5 24.5q6 6 10 3q2 -3 -8 -13q-11 -10 -27 -22.5t-35 -22.5q-16 -8 -33 -12.5t-31 -5.5q-11 -11 -19.5 -17t-19.5 -8t-16.5 -1t-8 3.5t-2 5.5t2.5 6q2 5 4 8.5t4 6.5q-14 2 -33 7.5t-32 10.5q-17 7 -33 16.5t-26 18.5q-14 -10 -37 -24.5t-52.5 -29
t-63 -25t-68.5 -13.5q-29 -2 -55 1.5t-45.5 12.5t-31 23.5t-11.5 35.5v1zM558 99q9 13 24 35.5t32 47t34.5 48.5t30.5 41q46 60 86 94t75 51v1q-17 -2 -43 -11.5t-52 -23.5q-35 -20 -70 -48.5t-64 -54.5q-18 -17 -33 -31l-30 -28q4 -11 7.5 -26.5t5.5 -38.5q2 -29 -3 -56z
M439 286q-20 0 -34.5 -8t-25 -20.5t-16 -29t-6.5 -34.5q-1 -16 2.5 -31t8.5 -28t11 -23.5t11 -16.5q16 13 34.5 28.5t38.5 33.5l36 32t35 32q-15 28 -39 46.5t-55 18.5h-1zM397 86q8 -10 23 -19t29 -16q12 -5 31.5 -11t33.5 -8l7.5 12.5t9 14.5t8 12.5t5.5 8.5q5 11 6.5 32
t-0.5 42q-2 18 -4 32.5t-7 25.5q-18 -17 -35.5 -33t-34.5 -31q-20 -18 -37.5 -33t-34.5 -29zM778 482q-4 2 1 11q10 18 25 29.5t35 10.5q18 -1 31 -11t30 -12q14 -1 24 5.5t16 13.5q2 2 4 4.5t4 0.5q2 -1 1.5 -4t-2.5 -6q-11 -20 -24 -31t-33 -11q-9 0 -17 3.5t-15.5 7.5
t-15 7.5t-16.5 4.5q-14 2 -25 -4t-16 -14q-4 -7 -7 -5z" />
    <glyph glyph-name="Adieresis" unicode="&#xc4;" horiz-adv-x="690" 
d="M21 57q0 26 16 43t36 18q17 2 27 -7t10 -23q0 -11 -6 -18.5t-17 -15.5q-8 -5 -13 -11t-5 -14q0 -16 24.5 -26.5t73.5 -6.5q29 3 57.5 11.5t55 20.5t50.5 26.5t45 28.5q-7 6 -16.5 17.5t-18 26.5t-14.5 32.5t-6 36.5q1 45 33 75.5t86 29.5q20 -1 37 -8.5t30.5 -18
t22.5 -23t14 -22.5q10 10 24 23t23 21q40 36 76 65.5t74 49.5q29 16 60 27t60 11q14 0 22.5 -3.5t12.5 -6.5q5 -4 7 -8t0 -6q-1 0 -11 7q-8 6 -22 6q-18 0 -32 -11q-8 -7 -18.5 -18t-21.5 -23.5t-21.5 -26.5l-19.5 -26q-47 -65 -95.5 -138.5t-91.5 -143.5q25 2 56 17
q16 8 33.5 21.5t29.5 24.5q6 6 10 3q2 -3 -8 -13q-11 -10 -27 -22.5t-35 -22.5q-16 -8 -33 -12.5t-31 -5.5q-11 -11 -19.5 -17t-19.5 -8t-16.5 -1t-8 3.5t-2 5.5t2.5 6q2 5 4 8.5t4 6.5q-14 2 -33 7.5t-32 10.5q-17 7 -33 16.5t-26 18.5q-14 -10 -37 -24.5t-52.5 -29
t-63 -25t-68.5 -13.5q-29 -2 -55 1.5t-45.5 12.5t-31 23.5t-11.5 35.5v1zM558 99q9 13 24 35.5t32 47t34.5 48.5t30.5 41q46 60 86 94t75 51v1q-17 -2 -43 -11.5t-52 -23.5q-35 -20 -70 -48.5t-64 -54.5q-18 -17 -33 -31l-30 -28q4 -11 7.5 -26.5t5.5 -38.5q2 -29 -3 -56z
M439 286q-20 0 -34.5 -8t-25 -20.5t-16 -29t-6.5 -34.5q-1 -16 2.5 -31t8.5 -28t11 -23.5t11 -16.5q16 13 34.5 28.5t38.5 33.5l36 32t35 32q-15 28 -39 46.5t-55 18.5h-1zM397 86q8 -10 23 -19t29 -16q12 -5 31.5 -11t33.5 -8l7.5 12.5t9 14.5t8 12.5t5.5 8.5q5 11 6.5 32
t-0.5 42q-2 18 -4 32.5t-7 25.5q-18 -17 -35.5 -33t-34.5 -31q-20 -18 -37.5 -33t-34.5 -29zM887 482q-3 5 -3.5 14t3.5 19q5 11 15 15t23 4q12 0 15.5 -7.5t-5.5 -18.5t-24 -18.5t-24 -7.5zM778 482q-9 11 -1 33q5 11 14.5 15t22.5 4q12 0 15 -7.5t-5 -18.5
q-9 -11 -24 -18.5t-22 -7.5z" />
    <glyph glyph-name="Aring" unicode="&#xc5;" horiz-adv-x="690" 
d="M21 57q0 26 16 43t36 18q17 2 27 -7t10 -23q0 -11 -6 -18.5t-17 -15.5q-8 -5 -13 -11t-5 -14q0 -16 24.5 -26.5t73.5 -6.5q29 3 57.5 11.5t55 20.5t50.5 26.5t45 28.5q-7 6 -16.5 17.5t-18 26.5t-14.5 32.5t-6 36.5q1 45 33 75.5t86 29.5q20 -1 37 -8.5t30.5 -18
t22.5 -23t14 -22.5q10 10 24 23t23 21q40 36 76 65.5t74 49.5q29 16 60 27t60 11q14 0 22.5 -3.5t12.5 -6.5q5 -4 7 -8t0 -6q-1 0 -11 7q-8 6 -22 6q-18 0 -32 -11q-8 -7 -18.5 -18t-21.5 -23.5t-21.5 -26.5l-19.5 -26q-47 -65 -95.5 -138.5t-91.5 -143.5q25 2 56 17
q16 8 33.5 21.5t29.5 24.5q6 6 10 3q2 -3 -8 -13q-11 -10 -27 -22.5t-35 -22.5q-16 -8 -33 -12.5t-31 -5.5q-11 -11 -19.5 -17t-19.5 -8t-16.5 -1t-8 3.5t-2 5.5t2.5 6q2 5 4 8.5t4 6.5q-14 2 -33 7.5t-32 10.5q-17 7 -33 16.5t-26 18.5q-14 -10 -37 -24.5t-52.5 -29
t-63 -25t-68.5 -13.5q-29 -2 -55 1.5t-45.5 12.5t-31 23.5t-11.5 35.5v1zM558 99q9 13 24 35.5t32 47t34.5 48.5t30.5 41q46 60 86 94t75 51v1q-17 -2 -43 -11.5t-52 -23.5q-35 -20 -70 -48.5t-64 -54.5q-18 -17 -33 -31l-30 -28q4 -11 7.5 -26.5t5.5 -38.5q2 -29 -3 -56z
M439 286q-20 0 -34.5 -8t-25 -20.5t-16 -29t-6.5 -34.5q-1 -16 2.5 -31t8.5 -28t11 -23.5t11 -16.5q16 13 34.5 28.5t38.5 33.5l36 32t35 32q-15 28 -39 46.5t-55 18.5h-1zM397 86q8 -10 23 -19t29 -16q12 -5 31.5 -11t33.5 -8l7.5 12.5t9 14.5t8 12.5t5.5 8.5q5 11 6.5 32
t-0.5 42q-2 18 -4 32.5t-7 25.5q-18 -17 -35.5 -33t-34.5 -31q-20 -18 -37.5 -33t-34.5 -29zM869 478q-19 0 -31 12.5t-12 31.5q0 17 12 31t31 14t31.5 -14t12.5 -31q0 -19 -13 -31.5t-31 -12.5zM869 498q11 0 18 7t7 18q0 9 -7 16.5t-18 7.5t-17.5 -7.5t-6.5 -16.5
q0 -11 6.5 -18t17.5 -7z" />
    <glyph glyph-name="AE" unicode="&#xc6;" horiz-adv-x="913" 
d="M885 217q0 6 -13.5 9t-24.5 4q-10 1 -23.5 1t-23.5 -2q4 -11 17.5 -17.5t27.5 -7.5t27 2t13 10v1zM578 105q7 17 22.5 39.5t50.5 45.5q24 16 55 26.5t57 15.5q-4 6 -6 17.5t0 26t8.5 30.5t20.5 31q12 14 28.5 25.5t34.5 20.5t35.5 14.5t32.5 8.5v1q-6 1 -12 1h-13
q-35 0 -69 -9.5t-63 -23.5q-38 -19 -77.5 -45.5t-70.5 -52.5q-17 -14 -31.5 -27.5t-29.5 -27.5q8 -15 17.5 -47t9.5 -70zM439 285q-20 0 -34.5 -8t-25 -20.5t-16 -29t-6.5 -34.5q-1 -16 2.5 -31t8.5 -28t11 -23.5t11 -16.5q14 12 32 27.5t37 32.5t38.5 35.5t37.5 36.5
q-16 26 -40 42.5t-55 16.5h-1zM569 54q-1 6 -0.5 14.5t2.5 16.5q-2 53 -12.5 84t-16.5 45q-38 -36 -76 -69.5t-69 -59.5q11 -12 38.5 -25t64.5 -16q17 -2 37 1.5t32 8.5zM843 23q-28 -20 -63 -34.5t-80 -16.5q-48 -2 -85.5 14.5t-44.5 57.5q-11 -5 -31 -8.5t-39 -2.5
q-43 2 -72.5 15.5t-43.5 26.5q-14 -10 -37 -24.5t-52 -29t-62.5 -25t-68.5 -13.5q-29 -2 -55 1.5t-45.5 12.5t-31 23.5t-11.5 35.5q0 27 16 44t36 18q17 2 27 -7.5t10 -23.5q-1 -11 -6.5 -18t-16.5 -15q-8 -5 -13.5 -11t-4.5 -14q0 -16 24.5 -26.5t73.5 -6.5q29 3 57.5 11.5
t55 20.5t50.5 26.5t44 28.5q-7 6 -16.5 17t-17.5 26t-14 33t-6 37q1 45 33 75.5t86 29.5q32 -2 60 -20.5t45 -46.5q17 16 30.5 28t28.5 25q32 28 74 55t77 44q31 14 65 22.5t74 8.5q11 0 23.5 -2.5t19.5 -4.5q10 2 27.5 3.5t31.5 0.5q51 -2 79.5 -20t28.5 -42
q0 -19 -13 -33.5t-34 -23.5t-47.5 -12.5t-53.5 -0.5q-22 2 -36.5 9.5t-19.5 14.5q-4 6 -2 7t2.5 -0.5t4.5 -4.5q5 -5 18 -10.5t31 -7.5q23 -2 46 1t41 10.5t29 19.5t11 29q0 20 -18.5 38t-63.5 18q-40 0 -82 -21q-20 -9 -38.5 -23t-35.5 -31q-5 -6 -12.5 -14.5t-14.5 -20.5
t-11.5 -27t-4.5 -32q8 2 22.5 2.5t26.5 -0.5q22 -1 39 -6t17 -18q0 -11 -18 -15t-37 -4q-23 0 -46.5 7.5t-34.5 20.5q-48 -15 -87 -48.5t-52 -93.5q-9 -46 11.5 -70.5t68.5 -24.5q38 0 70.5 13.5t59.5 31.5q10 7 20.5 15t20 16.5t17.5 15.5t13 11q10 9 13 6q2 -2 0.5 -4.5
t-9.5 -9.5q-5 -5 -13.5 -12.5t-18.5 -16t-20.5 -16.5t-18.5 -14z" />
    <glyph glyph-name="Ccedilla" unicode="&#xc7;" horiz-adv-x="390" 
d="M25 67q-1 33 12.5 66.5t37 65.5t53.5 60t61 51q-11 14 -18 30t-7 33q0 21 8.5 38t22.5 29.5t32.5 19t38.5 6.5q36 0 69.5 -17t53.5 -46q11 3 25 5.5t28 3.5q24 1 46.5 -1.5t39.5 -11.5t25.5 -24t4.5 -38t-24 -40.5t-47.5 -29t-60 -17t-60.5 -5.5q-42 0 -83 10t-68 30
q-29 -26 -52.5 -55t-41 -58.5t-27 -58t-9.5 -52.5q0 -44 24 -62.5t62 -18.5q45 0 80.5 16t64.5 36q20 14 36.5 28t25.5 22q11 10 15.5 13t6.5 1t-1 -5.5t-7 -7.5q-18 -17 -36.5 -33t-35.5 -27q-31 -22 -68.5 -38.5t-82.5 -18.5q-15 0 -28.5 0.5t-27.5 3.5q-5 -4 -12.5 -11
t-9.5 -11q6 2 11 2q22 0 35.5 -10t10.5 -27q-2 -18 -23 -31t-50 -11q-25 1 -38.5 9t-18.5 16q-9 11 -3 15q2 1 3 -1t5 -6q8 -5 18.5 -10.5t30.5 -5.5q14 1 26.5 7.5t14.5 19.5q2 10 -4.5 17t-21.5 6q-8 -1 -12 -3t-6 0t-0.5 4.5t3.5 4.5q7 7 15.5 15t14.5 13
q-34 9 -54.5 32.5t-22.5 62.5zM368 255q27 0 53 6t47 17.5t35 27t18 33.5q8 35 -13.5 51t-61.5 15q-11 0 -27.5 -3t-25.5 -7q6 -11 10.5 -26t6.5 -29q2 -25 -3 -25q-2 1 -2 5t-2 15q-3 15 -10 30.5t-14 24.5q-40 -15 -82 -42t-74 -56q26 -20 65 -28.5t80 -8.5zM258 453
q-32 0 -56.5 -21.5t-24.5 -59.5q0 -30 20 -56q41 27 87.5 49t88.5 34q-23 26 -53 40t-62 14z" />
    <glyph glyph-name="Egrave" unicode="&#xc8;" horiz-adv-x="390" 
d="M225 263q0 15 6.5 30.5t15.5 28.5q-19 14 -31 33t-12 41q0 30 21 48t53 20q29 2 63.5 -12t58.5 -43q17 3 36.5 5t37.5 1q51 -2 77 -20.5t26 -42.5q0 -17 -12 -31.5t-33 -25.5t-48 -17.5t-57 -6.5q-39 0 -75 7t-65 21q-4 -5 -8 -13t-7 -17q-6 -18 -3 -32q8 2 23 3t26 0
q22 -1 39 -6.5t15 -18.5q-2 -11 -19 -15t-36 -4q-23 0 -46.5 7t-33.5 20q-20 -8 -45 -24t-46 -36q-24 -23 -40.5 -52t-18.5 -58q-2 -35 21.5 -54t60.5 -19q45 0 81.5 16t65.5 36q10 7 20.5 15t20 16.5t17.5 15.5t13 11q10 9 13 6q2 -2 0.5 -4.5t-9.5 -9.5q-5 -5 -13.5 -12.5
t-18.5 -16t-20.5 -16.5t-18.5 -14q-31 -22 -68.5 -38.5t-82.5 -18.5q-65 -3 -104 19t-39 70q0 27 14 54t41 50t65.5 41.5t85.5 29.5q-7 11 -7 33zM425 281q25 0 48 5t40.5 14t28.5 22t11 30q1 18 -15.5 35.5t-60.5 19.5q-34 0 -68 -12q10 -20 13 -44q3 -26 -2 -26
q-2 0 -2 4.5t-3 15.5q-3 12 -9 23.5t-13 20.5q-19 -9 -37.5 -22.5t-35.5 -28.5q-5 -4 -13.5 -13.5t-14.5 -17.5q27 -14 62 -20t71 -6zM381 405q-19 23 -48 37.5t-57 12.5q-26 -2 -44.5 -16.5t-18.5 -41.5q0 -19 11 -35.5t29 -31.5q4 5 10 11.5t11 10.5q42 36 107 53z
M271 230q3 -12 17.5 -18t29.5 -7q14 -1 25 2t11 11q0 7 -12 10t-24 4q-8 1 -22.5 0.5t-24.5 -2.5zM434 524q-23 15 -12 34l4.5 4.5t6.5 2.5q5 0 13 -6q17 -14 40.5 -32.5t49.5 -36.5q8 -6 6 -8q-2 -3 -6 -2t-6 2q-9 3 -22 8t-27.5 11t-27 12t-19.5 11z" />
    <glyph glyph-name="Eacute" unicode="&#xc9;" horiz-adv-x="390" 
d="M225 263q0 15 6.5 30.5t15.5 28.5q-19 14 -31 33t-12 41q0 30 21 48t53 20q29 2 63.5 -12t58.5 -43q17 3 36.5 5t37.5 1q51 -2 77 -20.5t26 -42.5q0 -17 -12 -31.5t-33 -25.5t-48 -17.5t-57 -6.5q-39 0 -75 7t-65 21q-4 -5 -8 -13t-7 -17q-6 -18 -3 -32q8 2 23 3t26 0
q22 -1 39 -6.5t15 -18.5q-2 -11 -19 -15t-36 -4q-23 0 -46.5 7t-33.5 20q-20 -8 -45 -24t-46 -36q-24 -23 -40.5 -52t-18.5 -58q-2 -35 21.5 -54t60.5 -19q45 0 81.5 16t65.5 36q10 7 20.5 15t20 16.5t17.5 15.5t13 11q10 9 13 6q2 -2 0.5 -4.5t-9.5 -9.5q-5 -5 -13.5 -12.5
t-18.5 -16t-20.5 -16.5t-18.5 -14q-31 -22 -68.5 -38.5t-82.5 -18.5q-65 -3 -104 19t-39 70q0 27 14 54t41 50t65.5 41.5t85.5 29.5q-7 11 -7 33zM425 281q25 0 48 5t40.5 14t28.5 22t11 30q1 18 -15.5 35.5t-60.5 19.5q-34 0 -68 -12q10 -20 13 -44q3 -26 -2 -26
q-2 0 -2 4.5t-3 15.5q-3 12 -9 23.5t-13 20.5q-19 -9 -37.5 -22.5t-35.5 -28.5q-5 -4 -13.5 -13.5t-14.5 -17.5q27 -14 62 -20t71 -6zM381 405q-19 23 -48 37.5t-57 12.5q-26 -2 -44.5 -16.5t-18.5 -41.5q0 -19 11 -35.5t29 -31.5q4 5 10 11.5t11 10.5q42 36 107 53z
M271 230q3 -12 17.5 -18t29.5 -7q14 -1 25 2t11 11q0 7 -12 10t-24 4q-8 1 -22.5 0.5t-24.5 -2.5zM444 480q-1 2 2 4l6 4q35 14 67 33t53 33q7 4 13 4q8 0 10 -11q3 -17 -21 -30q-9 -5 -25 -10.5t-33.5 -10.5t-33.5 -9.5t-26 -6.5q-2 -1 -6.5 -1.5t-5.5 1.5z" />
    <glyph glyph-name="Ecircumflex" unicode="&#xca;" horiz-adv-x="390" 
d="M225 263q0 15 6.5 30.5t15.5 28.5q-19 14 -31 33t-12 41q0 30 21 48t53 20q29 2 63.5 -12t58.5 -43q17 3 36.5 5t37.5 1q51 -2 77 -20.5t26 -42.5q0 -17 -12 -31.5t-33 -25.5t-48 -17.5t-57 -6.5q-39 0 -75 7t-65 21q-4 -5 -8 -13t-7 -17q-6 -18 -3 -32q8 2 23 3t26 0
q22 -1 39 -6.5t15 -18.5q-2 -11 -19 -15t-36 -4q-23 0 -46.5 7t-33.5 20q-20 -8 -45 -24t-46 -36q-24 -23 -40.5 -52t-18.5 -58q-2 -35 21.5 -54t60.5 -19q45 0 81.5 16t65.5 36q10 7 20.5 15t20 16.5t17.5 15.5t13 11q10 9 13 6q2 -2 0.5 -4.5t-9.5 -9.5q-5 -5 -13.5 -12.5
t-18.5 -16t-20.5 -16.5t-18.5 -14q-31 -22 -68.5 -38.5t-82.5 -18.5q-65 -3 -104 19t-39 70q0 27 14 54t41 50t65.5 41.5t85.5 29.5q-7 11 -7 33zM425 281q25 0 48 5t40.5 14t28.5 22t11 30q1 18 -15.5 35.5t-60.5 19.5q-34 0 -68 -12q10 -20 13 -44q3 -26 -2 -26
q-2 0 -2 4.5t-3 15.5q-3 12 -9 23.5t-13 20.5q-19 -9 -37.5 -22.5t-35.5 -28.5q-5 -4 -13.5 -13.5t-14.5 -17.5q27 -14 62 -20t71 -6zM381 405q-19 23 -48 37.5t-57 12.5q-26 -2 -44.5 -16.5t-18.5 -41.5q0 -19 11 -35.5t29 -31.5q4 5 10 11.5t11 10.5q42 36 107 53z
M271 230q3 -12 17.5 -18t29.5 -7q14 -1 25 2t11 11q0 7 -12 10t-24 4q-8 1 -22.5 0.5t-24.5 -2.5zM436 470q-3 -1 -6.5 -1.5t-4.5 2.5q-1 2 2 4t5 3q12 7 27 16t30.5 19t29 19t22.5 16q6 4 10 4t6 -6q8 -19 17 -36t17 -30q3 -7 3 -8q-2 -2 -6 0l-6 3q-8 5 -19.5 14t-23.5 22
q-25 -13 -55 -24t-48 -17z" />
    <glyph glyph-name="Edieresis" unicode="&#xcb;" horiz-adv-x="390" 
d="M225 263q0 15 6.5 30.5t15.5 28.5q-19 14 -31 33t-12 41q0 30 21 48t53 20q29 2 63.5 -12t58.5 -43q17 3 36.5 5t37.5 1q51 -2 77 -20.5t26 -42.5q0 -17 -12 -31.5t-33 -25.5t-48 -17.5t-57 -6.5q-39 0 -75 7t-65 21q-4 -5 -8 -13t-7 -17q-6 -18 -3 -32q8 2 23 3t26 0
q22 -1 39 -6.5t15 -18.5q-2 -11 -19 -15t-36 -4q-23 0 -46.5 7t-33.5 20q-20 -8 -45 -24t-46 -36q-24 -23 -40.5 -52t-18.5 -58q-2 -35 21.5 -54t60.5 -19q45 0 81.5 16t65.5 36q10 7 20.5 15t20 16.5t17.5 15.5t13 11q10 9 13 6q2 -2 0.5 -4.5t-9.5 -9.5q-5 -5 -13.5 -12.5
t-18.5 -16t-20.5 -16.5t-18.5 -14q-31 -22 -68.5 -38.5t-82.5 -18.5q-65 -3 -104 19t-39 70q0 27 14 54t41 50t65.5 41.5t85.5 29.5q-7 11 -7 33zM425 281q25 0 48 5t40.5 14t28.5 22t11 30q1 18 -15.5 35.5t-60.5 19.5q-34 0 -68 -12q10 -20 13 -44q3 -26 -2 -26
q-2 0 -2 4.5t-3 15.5q-3 12 -9 23.5t-13 20.5q-19 -9 -37.5 -22.5t-35.5 -28.5q-5 -4 -13.5 -13.5t-14.5 -17.5q27 -14 62 -20t71 -6zM381 405q-19 23 -48 37.5t-57 12.5q-26 -2 -44.5 -16.5t-18.5 -41.5q0 -19 11 -35.5t29 -31.5q4 5 10 11.5t11 10.5q42 36 107 53z
M271 230q3 -12 17.5 -18t29.5 -7q14 -1 25 2t11 11q0 7 -12 10t-24 4q-8 1 -22.5 0.5t-24.5 -2.5zM553 482q-3 5 -3.5 14t3.5 19q5 11 15 15t23 4q12 0 15.5 -7.5t-5.5 -18.5t-24 -18.5t-24 -7.5zM444 482q-9 11 -1 33q5 11 14.5 15t22.5 4q12 0 15 -7.5t-5 -18.5
q-9 -11 -24 -18.5t-22 -7.5z" />
    <glyph glyph-name="Igrave" unicode="&#xcc;" horiz-adv-x="440" 
d="M613 413q-17 -5 -38.5 -9.5t-44.5 -10.5q-47 -12 -83 -25t-64 -30q-11 -6 -22.5 -15.5t-21 -20t-15.5 -22.5t-6 -23q0 -13 8 -19.5t19 -6.5q8 0 15 2.5t12 6.5q9 6 10 5q2 -3 -5 -10q-5 -5 -15 -9.5t-21 -4.5q-23 0 -35 12.5t-12 29.5q0 29 24.5 52.5t62.5 40.5
q30 15 70 27t77 20q29 7 52.5 11.5t39.5 11.5q5 2 10 4.5t10 1.5q6 -2 4.5 -8t-6.5 -8q-24 -11 -48.5 -37t-44.5 -55q-9 -14 -20.5 -31t-23.5 -35t-24 -35t-22 -31q-85 -109 -170.5 -159.5t-180.5 -50.5q-22 0 -44 4t-39 13.5t-28 24.5t-11 36q0 20 14.5 40t41.5 20
q16 0 26 -9.5t8 -25.5t-19 -30l-12.5 -12.5t-6.5 -17.5q0 -14 18.5 -23.5t48.5 -9.5q40 0 78.5 15t75 41.5t72 63.5t70.5 81q12 15 25.5 32.5t27 34.5t26.5 33t23 28q12 14 26.5 28t29.5 26.5t30 22t28 15.5zM548 524q-23 15 -12 34l4.5 4.5t6.5 2.5q5 0 13 -6
q17 -14 40.5 -32.5t49.5 -36.5q8 -6 6 -8q-2 -3 -6 -2t-6 2q-9 3 -22 8t-27.5 11t-27 12t-19.5 11z" />
    <glyph glyph-name="Iacute" unicode="&#xcd;" horiz-adv-x="440" 
d="M613 413q-17 -5 -38.5 -9.5t-44.5 -10.5q-47 -12 -83 -25t-64 -30q-11 -6 -22.5 -15.5t-21 -20t-15.5 -22.5t-6 -23q0 -13 8 -19.5t19 -6.5q8 0 15 2.5t12 6.5q9 6 10 5q2 -3 -5 -10q-5 -5 -15 -9.5t-21 -4.5q-23 0 -35 12.5t-12 29.5q0 29 24.5 52.5t62.5 40.5
q30 15 70 27t77 20q29 7 52.5 11.5t39.5 11.5q5 2 10 4.5t10 1.5q6 -2 4.5 -8t-6.5 -8q-24 -11 -48.5 -37t-44.5 -55q-9 -14 -20.5 -31t-23.5 -35t-24 -35t-22 -31q-85 -109 -170.5 -159.5t-180.5 -50.5q-22 0 -44 4t-39 13.5t-28 24.5t-11 36q0 20 14.5 40t41.5 20
q16 0 26 -9.5t8 -25.5t-19 -30l-12.5 -12.5t-6.5 -17.5q0 -14 18.5 -23.5t48.5 -9.5q40 0 78.5 15t75 41.5t72 63.5t70.5 81q12 15 25.5 32.5t27 34.5t26.5 33t23 28q12 14 26.5 28t29.5 26.5t30 22t28 15.5zM535 480q-1 2 2 4l6 4q35 14 67 33t53 33q7 4 13 4q8 0 10 -11
q3 -17 -21 -30q-9 -5 -25 -10.5t-33.5 -10.5t-33.5 -9.5t-26 -6.5q-2 -1 -6.5 -1.5t-5.5 1.5z" />
    <glyph glyph-name="Icircumflex" unicode="&#xce;" horiz-adv-x="440" 
d="M613 413q-17 -5 -38.5 -9.5t-44.5 -10.5q-47 -12 -83 -25t-64 -30q-11 -6 -22.5 -15.5t-21 -20t-15.5 -22.5t-6 -23q0 -13 8 -19.5t19 -6.5q8 0 15 2.5t12 6.5q9 6 10 5q2 -3 -5 -10q-5 -5 -15 -9.5t-21 -4.5q-23 0 -35 12.5t-12 29.5q0 29 24.5 52.5t62.5 40.5
q30 15 70 27t77 20q29 7 52.5 11.5t39.5 11.5q5 2 10 4.5t10 1.5q6 -2 4.5 -8t-6.5 -8q-24 -11 -48.5 -37t-44.5 -55q-9 -14 -20.5 -31t-23.5 -35t-24 -35t-22 -31q-85 -109 -170.5 -159.5t-180.5 -50.5q-22 0 -44 4t-39 13.5t-28 24.5t-11 36q0 20 14.5 40t41.5 20
q16 0 26 -9.5t8 -25.5t-19 -30l-12.5 -12.5t-6.5 -17.5q0 -14 18.5 -23.5t48.5 -9.5q40 0 78.5 15t75 41.5t72 63.5t70.5 81q12 15 25.5 32.5t27 34.5t26.5 33t23 28q12 14 26.5 28t29.5 26.5t30 22t28 15.5zM540 470q-3 -1 -6.5 -1.5t-4.5 2.5q-1 2 2 4t5 3q12 7 27 16
t30.5 19t29 19t22.5 16q6 4 10 4t6 -6q8 -19 17 -36t17 -30q3 -7 3 -8q-2 -2 -6 0l-6 3q-8 5 -19.5 14t-23.5 22q-25 -13 -55 -24t-48 -17z" />
    <glyph glyph-name="Idieresis" unicode="&#xcf;" horiz-adv-x="440" 
d="M613 413q-17 -5 -38.5 -9.5t-44.5 -10.5q-47 -12 -83 -25t-64 -30q-11 -6 -22.5 -15.5t-21 -20t-15.5 -22.5t-6 -23q0 -13 8 -19.5t19 -6.5q8 0 15 2.5t12 6.5q9 6 10 5q2 -3 -5 -10q-5 -5 -15 -9.5t-21 -4.5q-23 0 -35 12.5t-12 29.5q0 29 24.5 52.5t62.5 40.5
q30 15 70 27t77 20q29 7 52.5 11.5t39.5 11.5q5 2 10 4.5t10 1.5q6 -2 4.5 -8t-6.5 -8q-24 -11 -48.5 -37t-44.5 -55q-9 -14 -20.5 -31t-23.5 -35t-24 -35t-22 -31q-85 -109 -170.5 -159.5t-180.5 -50.5q-22 0 -44 4t-39 13.5t-28 24.5t-11 36q0 20 14.5 40t41.5 20
q16 0 26 -9.5t8 -25.5t-19 -30l-12.5 -12.5t-6.5 -17.5q0 -14 18.5 -23.5t48.5 -9.5q40 0 78.5 15t75 41.5t72 63.5t70.5 81q12 15 25.5 32.5t27 34.5t26.5 33t23 28q12 14 26.5 28t29.5 26.5t30 22t28 15.5zM665 482q-3 5 -3.5 14t3.5 19q5 11 15 15t23 4q12 0 15.5 -7.5
t-5.5 -18.5t-24 -18.5t-24 -7.5zM556 482q-9 11 -1 33q5 11 14.5 15t22.5 4q12 0 15 -7.5t-5 -18.5q-9 -11 -24 -18.5t-22 -7.5z" />
    <glyph glyph-name="Eth" unicode="&#xd0;" horiz-adv-x="673" 
d="M482 173h30t35 -1q3 0 6.5 -1t3.5 -3t-4 -2.5t-6 -0.5q-23 -1 -40 -1h-33q-28 -33 -54.5 -57.5t-53.5 -42.5t-56 -30.5t-60 -22.5q5 -1 15.5 -2.5t22.5 -3t24.5 -2.5t21.5 -1q77 0 141.5 33t112.5 99q18 25 28 52t12.5 54t-3 51t-20.5 43q-13 -12 -27.5 -31t-30 -41
t-32 -45t-33.5 -44zM372 161q-5 0 -10.5 0.5t-5.5 5.5t5 6t10 1h46q3 4 6 7t6 7q18 21 39.5 44t43 44t43 39t39.5 30q-17 17 -41 30t-52 21.5t-57.5 12.5t-56.5 4q-59 0 -114 -17t-97 -46t-67 -67.5t-26 -80.5q0 -33 18.5 -55.5t56.5 -24.5q42 -3 78 12.5t63 39.5
q26 24 41.5 50.5t15.5 47.5q0 22 -12 34t-32 13t-37.5 -7.5t-27.5 -18.5q-9 -10 -12.5 -15.5t-5.5 -4.5t1 7.5t11 15.5q9 11 28.5 22.5t45.5 9.5q23 -1 39.5 -15.5t16.5 -41.5q0 -28 -16 -56.5t-44 -51.5q-29 -24 -68.5 -38.5t-85.5 -12.5q-55 3 -86 27t-30 71q1 45 31 83.5
t79 67t110.5 45t125.5 16.5q31 0 62.5 -4t60.5 -12.5t54 -21t45 -29.5q9 6 27.5 16.5t37.5 18.5q19 7 44.5 13.5t53.5 6.5q20 0 34 -5t22 -10q5 -4 8 -8.5t1 -6.5q-2 -1 -4 2t-10 8q-6 4 -19 7.5t-32 3.5q-24 0 -48 -6t-45 -15q-20 -9 -36.5 -19.5t-23.5 -16.5
q22 -25 33.5 -54t12 -60t-8 -61t-26.5 -56q-21 -31 -53 -54t-70 -38t-78.5 -22t-78.5 -7q-39 0 -78 1.5t-59 3.5q-21 -2 -49.5 -4t-49.5 -2h-63t-50 1.5t-33 5.5t-12 11q2 14 43 17.5t102 1.5q27 -1 65 -5.5t69 -9.5q27 8 50 23t43.5 35t39.5 43t39 47h-35z" />
    <glyph glyph-name="Ntilde" unicode="&#xd1;" horiz-adv-x="645" 
d="M-88 49q0 25 17.5 43t38.5 18q19 0 29 -9.5t10 -23.5q-1 -19 -18 -33l-12.5 -12.5t-7.5 -14.5q-2 -14 14 -23.5t54 -9.5q30 0 65 8t71.5 23t73.5 36.5t71 47.5q69 52 124 114t93 135q3 6 8.5 15.5t10.5 16.5q7 9 18 19.5t22 11.5q9 1 11.5 -3t-1.5 -10q-16 -22 -24 -56
q-5 -23 -7.5 -55t-5.5 -67q-5 -58 -12 -93.5t-16 -57.5h1q24 35 52 73t57.5 75.5t58 71.5t53.5 61q51 54 100 88.5t95 34.5q32 0 46.5 -18t15.5 -38q0 -10 -3 -10q-2 0 -2.5 3.5t-2.5 6.5q-5 12 -19.5 19.5t-37.5 7.5q-26 0 -51.5 -9t-49 -23.5t-44.5 -33t-39 -37.5
q-35 -37 -71 -80.5t-70 -88.5t-65 -89t-57 -81q-5 -7 -11 -14t-14 -2q-7 4 -6 11.5t4 15.5q14 40 21.5 76.5t11.5 83.5q5 48 7 83.5t10 58.5h-1q-15 -29 -38 -59.5t-50 -60t-57 -56.5t-59 -49q-72 -54 -148 -85.5t-140 -33.5q-22 0 -44 3.5t-40 12.5t-29 23.5t-11 37.5v1z
M671 482q-4 2 1 11q10 18 25 29.5t35 10.5q18 -1 31 -11t30 -12q14 -1 24 5.5t16 13.5q2 2 4 4.5t4 0.5q2 -1 1.5 -4t-2.5 -6q-11 -20 -24 -31t-33 -11q-9 0 -17 3.5t-15.5 7.5t-15 7.5t-16.5 4.5q-14 2 -25 -4t-16 -14q-4 -7 -7 -5z" />
    <glyph glyph-name="Ograve" unicode="&#xd2;" horiz-adv-x="407" 
d="M136 52q0 -13 3 -21.5t8 -16.5q4 -6 4 -7q-2 -3 -8 3q-8 8 -11.5 17t-5.5 26q-2 32 12.5 77.5t52.5 93.5q27 33 57.5 60.5t61 46t58.5 28t50 7.5q26 -3 34.5 -23t5.5 -49q-1 -14 -7 -33.5t-15.5 -41.5t-23 -44t-29.5 -42q-26 -31 -58.5 -58.5t-68 -48t-72.5 -31.5
t-71 -10q-14 0 -30.5 3.5t-31 12.5t-25 24.5t-13.5 40.5q-5 49 21.5 108.5t80.5 113.5q29 28 65 53t76 42.5t81 27t80 7.5q29 -2 50.5 -15t23.5 -40q2 -14 -3 -27.5t-12 -21.5q-3 -4 -7.5 -7t-6.5 -1q-1 2 1 3.5t7 8.5t8.5 18.5t1.5 25.5q-2 20 -20.5 31t-42.5 12
q-33 1 -71 -13t-74 -36t-67.5 -47.5t-50.5 -47.5q-25 -29 -44 -59t-31 -58.5t-16.5 -54t-1.5 -45.5q5 -28 24 -38.5t38 -11.5q52 -2 110 37.5t118 114.5q16 20 31 42.5t27 45t20 44.5t10 40q5 35 -22 38q-19 2 -44.5 -8t-53 -29.5t-56 -46.5t-53.5 -58q-36 -46 -55 -89.5
t-19 -72.5zM380 524q-23 15 -12 34l4.5 4.5t6.5 2.5q5 0 13 -6q17 -14 40.5 -32.5t49.5 -36.5q8 -6 6 -8q-2 -3 -6 -2t-6 2q-9 3 -22 8t-27.5 11t-27 12t-19.5 11z" />
    <glyph glyph-name="Oacute" unicode="&#xd3;" horiz-adv-x="407" 
d="M136 52q0 -13 3 -21.5t8 -16.5q4 -6 4 -7q-2 -3 -8 3q-8 8 -11.5 17t-5.5 26q-2 32 12.5 77.5t52.5 93.5q27 33 57.5 60.5t61 46t58.5 28t50 7.5q26 -3 34.5 -23t5.5 -49q-1 -14 -7 -33.5t-15.5 -41.5t-23 -44t-29.5 -42q-26 -31 -58.5 -58.5t-68 -48t-72.5 -31.5
t-71 -10q-14 0 -30.5 3.5t-31 12.5t-25 24.5t-13.5 40.5q-5 49 21.5 108.5t80.5 113.5q29 28 65 53t76 42.5t81 27t80 7.5q29 -2 50.5 -15t23.5 -40q2 -14 -3 -27.5t-12 -21.5q-3 -4 -7.5 -7t-6.5 -1q-1 2 1 3.5t7 8.5t8.5 18.5t1.5 25.5q-2 20 -20.5 31t-42.5 12
q-33 1 -71 -13t-74 -36t-67.5 -47.5t-50.5 -47.5q-25 -29 -44 -59t-31 -58.5t-16.5 -54t-1.5 -45.5q5 -28 24 -38.5t38 -11.5q52 -2 110 37.5t118 114.5q16 20 31 42.5t27 45t20 44.5t10 40q5 35 -22 38q-19 2 -44.5 -8t-53 -29.5t-56 -46.5t-53.5 -58q-36 -46 -55 -89.5
t-19 -72.5zM359 480q-1 2 2 4l6 4q35 14 67 33t53 33q7 4 13 4q8 0 10 -11q3 -17 -21 -30q-9 -5 -25 -10.5t-33.5 -10.5t-33.5 -9.5t-26 -6.5q-2 -1 -6.5 -1.5t-5.5 1.5z" />
    <glyph glyph-name="Ocircumflex" unicode="&#xd4;" horiz-adv-x="407" 
d="M136 52q0 -13 3 -21.5t8 -16.5q4 -6 4 -7q-2 -3 -8 3q-8 8 -11.5 17t-5.5 26q-2 32 12.5 77.5t52.5 93.5q27 33 57.5 60.5t61 46t58.5 28t50 7.5q26 -3 34.5 -23t5.5 -49q-1 -14 -7 -33.5t-15.5 -41.5t-23 -44t-29.5 -42q-26 -31 -58.5 -58.5t-68 -48t-72.5 -31.5
t-71 -10q-14 0 -30.5 3.5t-31 12.5t-25 24.5t-13.5 40.5q-5 49 21.5 108.5t80.5 113.5q29 28 65 53t76 42.5t81 27t80 7.5q29 -2 50.5 -15t23.5 -40q2 -14 -3 -27.5t-12 -21.5q-3 -4 -7.5 -7t-6.5 -1q-1 2 1 3.5t7 8.5t8.5 18.5t1.5 25.5q-2 20 -20.5 31t-42.5 12
q-33 1 -71 -13t-74 -36t-67.5 -47.5t-50.5 -47.5q-25 -29 -44 -59t-31 -58.5t-16.5 -54t-1.5 -45.5q5 -28 24 -38.5t38 -11.5q52 -2 110 37.5t118 114.5q16 20 31 42.5t27 45t20 44.5t10 40q5 35 -22 38q-19 2 -44.5 -8t-53 -29.5t-56 -46.5t-53.5 -58q-36 -46 -55 -89.5
t-19 -72.5zM343 470q-3 -1 -6.5 -1.5t-4.5 2.5q-1 2 2 4t5 3q12 7 27 16t30.5 19t29 19t22.5 16q6 4 10 4t6 -6q8 -19 17 -36t17 -30q3 -7 3 -8q-2 -2 -6 0l-6 3q-8 5 -19.5 14t-23.5 22q-25 -13 -55 -24t-48 -17z" />
    <glyph glyph-name="Otilde" unicode="&#xd5;" horiz-adv-x="407" 
d="M136 52q0 -13 3 -21.5t8 -16.5q4 -6 4 -7q-2 -3 -8 3q-8 8 -11.5 17t-5.5 26q-2 32 12.5 77.5t52.5 93.5q27 33 57.5 60.5t61 46t58.5 28t50 7.5q26 -3 34.5 -23t5.5 -49q-1 -14 -7 -33.5t-15.5 -41.5t-23 -44t-29.5 -42q-26 -31 -58.5 -58.5t-68 -48t-72.5 -31.5
t-71 -10q-14 0 -30.5 3.5t-31 12.5t-25 24.5t-13.5 40.5q-5 49 21.5 108.5t80.5 113.5q29 28 65 53t76 42.5t81 27t80 7.5q29 -2 50.5 -15t23.5 -40q2 -14 -3 -27.5t-12 -21.5q-3 -4 -7.5 -7t-6.5 -1q-1 2 1 3.5t7 8.5t8.5 18.5t1.5 25.5q-2 20 -20.5 31t-42.5 12
q-33 1 -71 -13t-74 -36t-67.5 -47.5t-50.5 -47.5q-25 -29 -44 -59t-31 -58.5t-16.5 -54t-1.5 -45.5q5 -28 24 -38.5t38 -11.5q52 -2 110 37.5t118 114.5q16 20 31 42.5t27 45t20 44.5t10 40q5 35 -22 38q-19 2 -44.5 -8t-53 -29.5t-56 -46.5t-53.5 -58q-36 -46 -55 -89.5
t-19 -72.5zM357 482q-4 2 1 11q10 18 25 29.5t35 10.5q18 -1 31 -11t30 -12q14 -1 24 5.5t16 13.5q2 2 4 4.5t4 0.5q2 -1 1.5 -4t-2.5 -6q-11 -20 -24 -31t-33 -11q-9 0 -17 3.5t-15.5 7.5t-15 7.5t-16.5 4.5q-14 2 -25 -4t-16 -14q-4 -7 -7 -5z" />
    <glyph glyph-name="Odieresis" unicode="&#xd6;" horiz-adv-x="407" 
d="M136 52q0 -13 3 -21.5t8 -16.5q4 -6 4 -7q-2 -3 -8 3q-8 8 -11.5 17t-5.5 26q-2 32 12.5 77.5t52.5 93.5q27 33 57.5 60.5t61 46t58.5 28t50 7.5q26 -3 34.5 -23t5.5 -49q-1 -14 -7 -33.5t-15.5 -41.5t-23 -44t-29.5 -42q-26 -31 -58.5 -58.5t-68 -48t-72.5 -31.5
t-71 -10q-14 0 -30.5 3.5t-31 12.5t-25 24.5t-13.5 40.5q-5 49 21.5 108.5t80.5 113.5q29 28 65 53t76 42.5t81 27t80 7.5q29 -2 50.5 -15t23.5 -40q2 -14 -3 -27.5t-12 -21.5q-3 -4 -7.5 -7t-6.5 -1q-1 2 1 3.5t7 8.5t8.5 18.5t1.5 25.5q-2 20 -20.5 31t-42.5 12
q-33 1 -71 -13t-74 -36t-67.5 -47.5t-50.5 -47.5q-25 -29 -44 -59t-31 -58.5t-16.5 -54t-1.5 -45.5q5 -28 24 -38.5t38 -11.5q52 -2 110 37.5t118 114.5q16 20 31 42.5t27 45t20 44.5t10 40q5 35 -22 38q-19 2 -44.5 -8t-53 -29.5t-56 -46.5t-53.5 -58q-36 -46 -55 -89.5
t-19 -72.5zM472 482q-3 5 -3.5 14t3.5 19q5 11 15 15t23 4q12 0 15.5 -7.5t-5.5 -18.5t-24 -18.5t-24 -7.5zM363 482q-9 11 -1 33q5 11 14.5 15t22.5 4q12 0 15 -7.5t-5 -18.5q-9 -11 -24 -18.5t-22 -7.5z" />
    <glyph glyph-name="multiply" unicode="&#xd7;" horiz-adv-x="314" 
d="M174 140q35 27 63 48.5t37 28.5q17 12 27 18.5t24 4.5q14 -1 12.5 -6t-30.5 -25q-15 -11 -50 -35t-78 -53q5 -21 10 -43t10 -45q4 -16 0 -19q-5 -2 -10 11q-5 15 -13 37.5t-16 45.5q-34 -23 -67 -45.5t-62 -41.5q-7 -5 -13.5 -8.5t-8.5 -0.5q-3 3 12 14l22 16.5t32 23.5
t38 28.5t41 30.5q-9 25 -16.5 46.5t-11.5 32.5q-9 22 9 33q16 9 20 -11q4 -17 8.5 -38.5t10.5 -47.5z" />
    <glyph glyph-name="Oslash" unicode="&#xd8;" horiz-adv-x="407" 
d="M93 1q14 -7 30 -7q52 -2 110 37.5t118 114.5q32 41 56 83.5t32 85.5q2 8 2 17.5t-2 15.5q-2 11 -4.5 14.5t-0.5 4.5q6 2 14 -19q4 -10 7 -24t1 -30q-1 -14 -6.5 -33.5t-15 -41.5t-22.5 -44t-29 -42q-26 -31 -58.5 -58.5t-68.5 -48t-72.5 -31.5t-70.5 -10q-5 0 -14 1
t-17 3q-17 -17 -31 -32q-12 -13 -24 -25l-17 -17q-2 -2 -5.5 -4.5t-5.5 -0.5q-2 3 5 12q5 5 15 17t21 24q12 14 28 30q-19 7 -34.5 24t-20.5 49q-5 49 21.5 108t80.5 114q30 30 66 55t76 42.5t80.5 26t79.5 6.5q5 0 12.5 -1t12.5 -3q16 17 30 34t29 34q11 12 18 8
q3 -2 1.5 -6.5t-5.5 -9.5q-14 -17 -28 -33t-29 -33q14 -7 23 -19.5t10 -25.5q2 -14 -3.5 -27t-12.5 -21q-4 -5 -7.5 -8t-5.5 -1q-1 1 1 2.5t7 9.5t8.5 19t1.5 25q-1 10 -7.5 20t-23.5 16zM433 403q-8 2 -16 2q-33 1 -71 -13t-74 -36t-67.5 -47.5t-50.5 -47.5
q-25 -29 -44 -59t-31 -58.5t-16.5 -54t-1.5 -45.5q2 -14 7.5 -22.5t13.5 -13.5z" />
    <glyph glyph-name="Ugrave" unicode="&#xd9;" horiz-adv-x="553" 
d="M407 134q-20 -20 -49.5 -45t-61.5 -47t-63.5 -36.5t-55.5 -14.5q-23 0 -35 11.5t-9 34.5q5 32 37 74t90 107q48 54 75.5 90t35.5 63q6 23 -9 31.5t-34 8.5q-38 0 -85 -22.5t-89 -64.5q-31 -30 -55.5 -65t-24.5 -65q0 -18 9 -29.5t27 -11.5q13 0 21.5 3t14.5 7
q8 5 10.5 8.5t4.5 1.5t-2.5 -7t-9.5 -9q-8 -5 -17.5 -9t-23.5 -4q-45 2 -50 49q-2 34 18.5 74t58.5 75q23 21 49 36t52 24t50 13.5t42 4.5q35 0 58.5 -14t22.5 -43q-1 -33 -30 -73.5t-67 -83.5q-59 -66 -91 -106.5t-36 -65.5q-2 -12 2 -17.5t12 -6.5q9 -1 22 3.5t28 12.5
t30.5 18t29.5 20q23 17 41.5 32.5t35.5 31.5t33.5 34.5t36.5 41.5q11 12 30 33t43 45.5t52.5 50.5t57.5 49q6 5 16.5 12t22.5 14t23 11.5t19 3.5q14 -2 11 -15.5t-17 -29.5q-17 -18 -37.5 -34.5t-37.5 -28.5l-22 -16.5t-20.5 -15t-22 -17t-26.5 -21.5q-6 -7 -14.5 -17.5
t-17.5 -21.5q-19 -25 -38 -50.5t-34.5 -49.5t-25.5 -44t-10 -34q0 -17 20 -17q12 0 29.5 9t34.5 22q11 8 24.5 19t24.5 21q7 6 12.5 10t7.5 2q2 -3 -10 -15q-14 -13 -28 -25t-25 -20q-13 -10 -36.5 -25t-51.5 -15q-22 0 -34.5 11t-12.5 33t13.5 47t30.5 49zM574 277
q14 11 29.5 21.5t29.5 21.5q23 15 40.5 30.5t25.5 23.5q31 34 19 39q-8 3 -23 -9t-31 -29q-22 -23 -44.5 -47.5t-45.5 -50.5zM494 512q-23 15 -12 34l4.5 4.5t6.5 2.5q5 0 13 -6q17 -14 40.5 -32.5t49.5 -36.5q8 -6 6 -8q-2 -3 -6 -2t-6 2q-9 3 -22 8t-27.5 11t-27 12
t-19.5 11z" />
    <glyph glyph-name="Uacute" unicode="&#xda;" horiz-adv-x="553" 
d="M407 134q-20 -20 -49.5 -45t-61.5 -47t-63.5 -36.5t-55.5 -14.5q-23 0 -35 11.5t-9 34.5q5 32 37 74t90 107q48 54 75.5 90t35.5 63q6 23 -9 31.5t-34 8.5q-38 0 -85 -22.5t-89 -64.5q-31 -30 -55.5 -65t-24.5 -65q0 -18 9 -29.5t27 -11.5q13 0 21.5 3t14.5 7
q8 5 10.5 8.5t4.5 1.5t-2.5 -7t-9.5 -9q-8 -5 -17.5 -9t-23.5 -4q-45 2 -50 49q-2 34 18.5 74t58.5 75q23 21 49 36t52 24t50 13.5t42 4.5q35 0 58.5 -14t22.5 -43q-1 -33 -30 -73.5t-67 -83.5q-59 -66 -91 -106.5t-36 -65.5q-2 -12 2 -17.5t12 -6.5q9 -1 22 3.5t28 12.5
t30.5 18t29.5 20q23 17 41.5 32.5t35.5 31.5t33.5 34.5t36.5 41.5q11 12 30 33t43 45.5t52.5 50.5t57.5 49q6 5 16.5 12t22.5 14t23 11.5t19 3.5q14 -2 11 -15.5t-17 -29.5q-17 -18 -37.5 -34.5t-37.5 -28.5l-22 -16.5t-20.5 -15t-22 -17t-26.5 -21.5q-6 -7 -14.5 -17.5
t-17.5 -21.5q-19 -25 -38 -50.5t-34.5 -49.5t-25.5 -44t-10 -34q0 -17 20 -17q12 0 29.5 9t34.5 22q11 8 24.5 19t24.5 21q7 6 12.5 10t7.5 2q2 -3 -10 -15q-14 -13 -28 -25t-25 -20q-13 -10 -36.5 -25t-51.5 -15q-22 0 -34.5 11t-12.5 33t13.5 47t30.5 49zM574 277
q14 11 29.5 21.5t29.5 21.5q23 15 40.5 30.5t25.5 23.5q31 34 19 39q-8 3 -23 -9t-31 -29q-22 -23 -44.5 -47.5t-45.5 -50.5zM509 468q-1 2 2 4l6 4q35 14 67 33t53 33q7 4 13 4q8 0 10 -11q3 -17 -21 -30q-9 -5 -25 -10.5t-33.5 -10.5t-33.5 -9.5t-26 -6.5q-2 -1 -6.5 -1.5
t-5.5 1.5z" />
    <glyph glyph-name="Ucircumflex" unicode="&#xdb;" horiz-adv-x="553" 
d="M407 134q-20 -20 -49.5 -45t-61.5 -47t-63.5 -36.5t-55.5 -14.5q-23 0 -35 11.5t-9 34.5q5 32 37 74t90 107q48 54 75.5 90t35.5 63q6 23 -9 31.5t-34 8.5q-38 0 -85 -22.5t-89 -64.5q-31 -30 -55.5 -65t-24.5 -65q0 -18 9 -29.5t27 -11.5q13 0 21.5 3t14.5 7
q8 5 10.5 8.5t4.5 1.5t-2.5 -7t-9.5 -9q-8 -5 -17.5 -9t-23.5 -4q-45 2 -50 49q-2 34 18.5 74t58.5 75q23 21 49 36t52 24t50 13.5t42 4.5q35 0 58.5 -14t22.5 -43q-1 -33 -30 -73.5t-67 -83.5q-59 -66 -91 -106.5t-36 -65.5q-2 -12 2 -17.5t12 -6.5q9 -1 22 3.5t28 12.5
t30.5 18t29.5 20q23 17 41.5 32.5t35.5 31.5t33.5 34.5t36.5 41.5q11 12 30 33t43 45.5t52.5 50.5t57.5 49q6 5 16.5 12t22.5 14t23 11.5t19 3.5q14 -2 11 -15.5t-17 -29.5q-17 -18 -37.5 -34.5t-37.5 -28.5l-22 -16.5t-20.5 -15t-22 -17t-26.5 -21.5q-6 -7 -14.5 -17.5
t-17.5 -21.5q-19 -25 -38 -50.5t-34.5 -49.5t-25.5 -44t-10 -34q0 -17 20 -17q12 0 29.5 9t34.5 22q11 8 24.5 19t24.5 21q7 6 12.5 10t7.5 2q2 -3 -10 -15q-14 -13 -28 -25t-25 -20q-13 -10 -36.5 -25t-51.5 -15q-22 0 -34.5 11t-12.5 33t13.5 47t30.5 49zM574 277
q14 11 29.5 21.5t29.5 21.5q23 15 40.5 30.5t25.5 23.5q31 34 19 39q-8 3 -23 -9t-31 -29q-22 -23 -44.5 -47.5t-45.5 -50.5zM475 470q-3 -1 -6.5 -1.5t-4.5 2.5q-1 2 2 4t5 3q12 7 27 16t30.5 19t29 19t22.5 16q6 4 10 4t6 -6q8 -19 17 -36t17 -30q3 -7 3 -8q-2 -2 -6 0
l-6 3q-8 5 -19.5 14t-23.5 22q-25 -13 -55 -24t-48 -17z" />
    <glyph glyph-name="Udieresis" unicode="&#xdc;" horiz-adv-x="553" 
d="M407 134q-20 -20 -49.5 -45t-61.5 -47t-63.5 -36.5t-55.5 -14.5q-23 0 -35 11.5t-9 34.5q5 32 37 74t90 107q48 54 75.5 90t35.5 63q6 23 -9 31.5t-34 8.5q-38 0 -85 -22.5t-89 -64.5q-31 -30 -55.5 -65t-24.5 -65q0 -18 9 -29.5t27 -11.5q13 0 21.5 3t14.5 7
q8 5 10.5 8.5t4.5 1.5t-2.5 -7t-9.5 -9q-8 -5 -17.5 -9t-23.5 -4q-45 2 -50 49q-2 34 18.5 74t58.5 75q23 21 49 36t52 24t50 13.5t42 4.5q35 0 58.5 -14t22.5 -43q-1 -33 -30 -73.5t-67 -83.5q-59 -66 -91 -106.5t-36 -65.5q-2 -12 2 -17.5t12 -6.5q9 -1 22 3.5t28 12.5
t30.5 18t29.5 20q23 17 41.5 32.5t35.5 31.5t33.5 34.5t36.5 41.5q11 12 30 33t43 45.5t52.5 50.5t57.5 49q6 5 16.5 12t22.5 14t23 11.5t19 3.5q14 -2 11 -15.5t-17 -29.5q-17 -18 -37.5 -34.5t-37.5 -28.5l-22 -16.5t-20.5 -15t-22 -17t-26.5 -21.5q-6 -7 -14.5 -17.5
t-17.5 -21.5q-19 -25 -38 -50.5t-34.5 -49.5t-25.5 -44t-10 -34q0 -17 20 -17q12 0 29.5 9t34.5 22q11 8 24.5 19t24.5 21q7 6 12.5 10t7.5 2q2 -3 -10 -15q-14 -13 -28 -25t-25 -20q-13 -10 -36.5 -25t-51.5 -15q-22 0 -34.5 11t-12.5 33t13.5 47t30.5 49zM574 277
q14 11 29.5 21.5t29.5 21.5q23 15 40.5 30.5t25.5 23.5q31 34 19 39q-8 3 -23 -9t-31 -29q-22 -23 -44.5 -47.5t-45.5 -50.5zM604 482q-3 5 -3.5 14t3.5 19q5 11 15 15t23 4q12 0 15.5 -7.5t-5.5 -18.5t-24 -18.5t-24 -7.5zM495 482q-9 11 -1 33q5 11 14.5 15t22.5 4
q12 0 15 -7.5t-5 -18.5q-9 -11 -24 -18.5t-22 -7.5z" />
    <glyph glyph-name="Yacute" unicode="&#xdd;" horiz-adv-x="499" 
d="M421 148q-24 -25 -56 -52.5t-65.5 -51t-66 -38.5t-56.5 -15q-23 0 -35 11.5t-9 34.5q5 32 37 74t90 107q48 54 75.5 90t35.5 63q6 23 -9 31.5t-34 8.5q-38 0 -85 -22.5t-89 -64.5q-31 -30 -55.5 -65t-24.5 -65q0 -18 9 -29.5t27 -11.5q12 0 21.5 3t14.5 7q6 4 9.5 8
t5.5 2t-2.5 -7t-9.5 -9q-8 -5 -17.5 -9t-23.5 -4q-21 0 -34.5 13t-15.5 36q-2 33 18.5 74t58.5 75q23 21 49 35.5t52 24t50 14t42 4.5q35 0 58.5 -14t22.5 -43q-1 -33 -30 -73.5t-67 -83.5q-59 -66 -91 -106.5t-36 -65.5q-2 -12 2 -17.5t12 -6.5q9 -1 22 3.5t28 12.5
t30.5 18t29.5 20q46 34 82 69.5t65 70.5q27 33 48 57.5t39 45t34.5 38t35.5 37.5q18 17 38 30t36 11q15 -2 14.5 -16t-11.5 -29q-14 -18 -32.5 -34.5t-33.5 -28.5q-11 -9 -20.5 -16.5t-18.5 -15t-19 -17t-23 -21.5q-14 -19 -31 -42t-34.5 -47t-34.5 -47t-30 -42
q-29 -42 -49.5 -71t-37.5 -52q77 2 117 -31t31 -90q-2 -8 -5 -14.5t-6 -5.5q-2 1 -0.5 4.5t3.5 14.5q6 54 -32.5 85t-113.5 27q-11 -16 -22 -31t-23.5 -30.5t-27.5 -34t-34 -40.5q-30 -35 -62.5 -64.5t-64 -51t-60 -34t-49.5 -12.5q-7 0 -14.5 2t-14 6.5t-10.5 12.5t-3 21
q2 22 18 47t38.5 49t47 44.5t44.5 34.5q49 32 100 54t92 30q19 27 40 57.5t40.5 59t36.5 53t29 41.5zM566 278q14 11 26 21t25 21q20 16 35.5 31t22.5 23q27 34 13 39q-8 3 -21 -9t-27 -29q-19 -23 -36.5 -47t-37.5 -50zM269 -74q-38 -8 -85 -29t-93 -53q-19 -13 -41.5 -34
t-41.5 -44.5t-31.5 -47.5t-12.5 -42q0 -14 6.5 -19.5t14.5 -6.5q24 -3 62 20q26 16 61 51.5t67 77.5q18 24 43 58t51 69zM486 480q-1 2 2 4l6 4q35 14 67 33t53 33q7 4 13 4q8 0 10 -11q3 -17 -21 -30q-9 -5 -25 -10.5t-33.5 -10.5t-33.5 -9.5t-26 -6.5q-2 -1 -6.5 -1.5
t-5.5 1.5z" />
    <glyph glyph-name="Thorn" unicode="&#xde;" horiz-adv-x="586" 
d="M210 96q-20 -12 -43 -27t-45.5 -30t-42 -29t-32.5 -24q-15 -12 -29.5 -24.5t-26 -24t-18.5 -22t-7 -17.5t5 -9.5t10 -2.5q15 1 34.5 10.5t46.5 33.5t63.5 64t84.5 102zM476 358q23 5 43 11.5t31 10.5q10 4 23.5 10t26.5 13.5t22 16t10 17.5q2 22 -25 21q-24 -2 -46.5 -19
t-35.5 -30q-10 -9 -23 -23zM368 224q44 38 84.5 66t75.5 28q20 0 37 -13.5t17 -45.5q0 -20 -11 -46t-36 -58q-27 -35 -62.5 -62.5t-71.5 -45.5t-69.5 -26.5t-56.5 -5.5q-23 2 -32 10t-6 12q2 2 9 -4t28 -8t49 9t58 31t60 48t55 60q28 36 39 60.5t10.5 40.5t-9.5 23t-20 7
q-13 0 -32.5 -9.5t-42.5 -25t-47.5 -35.5t-46.5 -40q-52 -65 -101.5 -124.5t-112.5 -113.5q-17 -15 -36 -29.5t-38.5 -26t-38.5 -18.5t-36 -8q-13 0 -21.5 5t-8.5 19q0 18 25 43t60 53q15 12 37.5 27.5t48 32.5t51.5 33.5t48 29.5q10 12 29 37.5t37 47.5q10 12 24.5 29
t30.5 35t33 36t32 32v1q-22 -4 -43.5 -6.5t-43.5 -2.5q-23 0 -45 2.5t-38.5 9t-26.5 17.5t-10 28q0 23 21 38.5t45 20.5q33 6 33 -2q0 -2 -8.5 -1t-22.5 -4t-29 -18t-14 -35q2 -28 29.5 -37.5t64.5 -9.5q24 0 49 3t50 8q18 20 37.5 36.5t37.5 30.5q23 18 53.5 35.5
t58.5 18.5q17 1 26.5 -7.5t8.5 -22.5q-1 -12 -10.5 -22t-24 -18.5t-30 -15t-28.5 -10.5q-13 -5 -34 -11t-47 -13q-13 -15 -28.5 -33.5t-30 -36.5t-26 -32.5t-16.5 -20.5z" />
    <glyph glyph-name="germandbls" unicode="&#xdf;" horiz-adv-x="339" 
d="M229 21q11 4 25 11.5t31 18.5t30.5 22t21.5 18q3 3 8 6.5t7 1.5q2 -3 -3.5 -8.5l-8.5 -8.5q-8 -7 -20.5 -17.5t-29.5 -21.5t-33.5 -19.5t-30.5 -14.5q-13 -6 -38.5 -12t-48.5 -6q-34 0 -46.5 19t-7.5 40q5 24 20 38.5t33 12.5q10 -1 14.5 -7.5t2.5 -13.5
q-2 -8 -7.5 -13.5t-15.5 -11.5q-6 -4 -13.5 -11t-8.5 -18t6.5 -18t20.5 -7q16 0 33.5 11.5t32.5 37.5q11 19 15.5 47t-1.5 51q-3 11 -7 21.5t-6 21t-1 21t8 21.5q5 8 17 14t28 12t34 13.5t36 18.5q34 21 49.5 43t18.5 40q2 15 -5 23t-17 9q-21 2 -50.5 -13t-69.5 -62
q-10 -11 -23 -29t-27.5 -39t-30 -43.5t-30.5 -43.5q-29 -41 -60.5 -87t-75.5 -101q-17 -21 -41 -46.5t-51.5 -47.5t-57.5 -37t-59 -15q-39 0 -54.5 10t-17.5 22t5.5 19.5t18.5 7.5t16.5 -9.5t10.5 -17.5q5 -10 11.5 -16t14.5 -6q18 0 35.5 7.5t36.5 24t41 43t49 64.5
q25 34 48.5 71t45.5 69v1q-17 -14 -32 -27.5t-20 -18.5q-3 -3 -6.5 -5t-5.5 0q-2 3 7 12q11 11 33 30.5t47 40.5q12 16 25.5 35t27 37.5t26 34.5t21.5 27q63 73 114 97t80 20q26 -2 36 -22.5t2 -44.5q-5 -17 -22 -34.5t-43 -31.5q-17 -10 -37.5 -17t-38.5 -13t-32 -11.5
t-18 -12.5q-6 -9 -4 -19t7 -20.5t12 -20.5t12 -20q14 -25 17 -46t-5 -42q-5 -11 -13.5 -22t-17.5 -17z" />
    <glyph glyph-name="agrave" unicode="&#xe0;" horiz-adv-x="287" 
d="M167 352q5 0 7 -3t4 -7q8 -20 22 -44t28 -42q2 -2 3 -4.5t-1 -4.5t-5 0t-5 4q-14 11 -35 30.5t-31 36.5q-2 2 -3.5 6t-1.5 9q0 8 5.5 13.5t11.5 5.5h1zM195 133q18 19 31.5 28.5t25.5 9.5q16 1 18.5 -3t-5.5 -13q-10 -11 -25 -28.5t-31 -37.5q-10 -12 -19 -24.5
t-16 -24.5q-10 -18 -3 -23q4 -3 10.5 -1t12.5 5q8 4 20.5 12.5t24.5 18.5q16 13 28 23t20 18q5 4 8.5 6.5t5.5 0.5q3 -3 -13 -18q-10 -9 -26 -23t-30 -25q-15 -12 -38 -26t-48 -14q-14 0 -21 6t-8 15q-1 8 3 18t11 18l-1 1q-10 -9 -23 -18.5t-27.5 -18t-30 -14.5t-29.5 -7
q-17 -1 -30.5 7.5t-10.5 32.5q2 11 8 23.5t20 28.5l-1 1l-5 -5t-8 -7q-7 -5 -9 -3q-3 4 14 19q2 2 12 10.5t18 13.5l20 12.5t26 15.5q29 15 54.5 23t45.5 5q15 -2 20.5 -13.5t0.5 -24.5zM170 161q-15 0 -40 -18t-52 -45q-31 -30 -44.5 -49.5t-11.5 -29.5q1 -10 13 -10
q14 0 39 14t45 33q12 10 24 23t22 25t16.5 22.5t6.5 16.5q1 18 -18 18z" />
    <glyph glyph-name="aacute" unicode="&#xe1;" horiz-adv-x="287" 
d="M274 344q4 0 7 -5q5 -8 2.5 -17t-9.5 -16q-6 -6 -16.5 -14t-23 -16t-24.5 -15.5t-19 -11.5q-10 -5 -12 -3q-2 3 5 10q14 14 36.5 37t38.5 42q7 9 14 9h1zM195 133q18 19 31.5 28.5t25.5 9.5q16 1 18.5 -3t-5.5 -13q-10 -11 -25 -28.5t-31 -37.5q-10 -12 -19 -24.5
t-16 -24.5q-10 -18 -3 -23q4 -3 10.5 -1t12.5 5q8 4 20.5 12.5t24.5 18.5q16 13 28 23t20 18q5 4 8.5 6.5t5.5 0.5q3 -3 -13 -18q-10 -9 -26 -23t-30 -25q-15 -12 -38 -26t-48 -14q-14 0 -21 6t-8 15q-1 8 3 18t11 18l-1 1q-10 -9 -23 -18.5t-27.5 -18t-30 -14.5t-29.5 -7
q-17 -1 -30.5 7.5t-10.5 32.5q2 11 8 23.5t20 28.5l-1 1l-5 -5t-8 -7q-7 -5 -9 -3q-3 4 14 19q2 2 12 10.5t18 13.5l20 12.5t26 15.5q29 15 54.5 23t45.5 5q15 -2 20.5 -13.5t0.5 -24.5zM170 161q-15 0 -40 -18t-52 -45q-31 -30 -44.5 -49.5t-11.5 -29.5q1 -10 13 -10
q14 0 39 14t45 33q12 10 24 23t22 25t16.5 22.5t6.5 16.5q1 18 -18 18z" />
    <glyph glyph-name="acircumflex" unicode="&#xe2;" horiz-adv-x="287" 
d="M243 321q3 0 5 -7q8 -18 17 -35.5t17 -30.5q4 -5 2 -7t-5.5 -0.5t-5.5 3.5q-8 5 -20 16.5t-23 25.5q-15 -9 -30.5 -16.5t-30 -13.5t-26.5 -10.5t-18 -6.5q-2 -1 -5 -1t-4 2t2 3t5 3q12 7 27 16.5t30.5 19t29 18.5t22.5 16q3 2 5 3.5t5 1.5h1zM195 133q18 19 31.5 28.5
t25.5 9.5q16 1 18.5 -3t-5.5 -13q-10 -11 -25 -28.5t-31 -37.5q-10 -12 -19 -24.5t-16 -24.5q-10 -18 -3 -23q4 -3 10.5 -1t12.5 5q8 4 20.5 12.5t24.5 18.5q16 13 28 23t20 18q5 4 8.5 6.5t5.5 0.5q3 -3 -13 -18q-10 -9 -26 -23t-30 -25q-15 -12 -38 -26t-48 -14
q-14 0 -21 6t-8 15q-1 8 3 18t11 18l-1 1q-10 -9 -23 -18.5t-27.5 -18t-30 -14.5t-29.5 -7q-17 -1 -30.5 7.5t-10.5 32.5q2 11 8 23.5t20 28.5l-1 1l-5 -5t-8 -7q-7 -5 -9 -3q-3 4 14 19q2 2 12 10.5t18 13.5l20 12.5t26 15.5q29 15 54.5 23t45.5 5q15 -2 20.5 -13.5
t0.5 -24.5zM170 161q-15 0 -40 -18t-52 -45q-31 -30 -44.5 -49.5t-11.5 -29.5q1 -10 13 -10q14 0 39 14t45 33q12 10 24 23t22 25t16.5 22.5t6.5 16.5q1 18 -18 18z" />
    <glyph glyph-name="atilde" unicode="&#xe3;" horiz-adv-x="287" 
d="M237 251q-9 0 -16.5 4t-15 9t-15 9t-16.5 5q-14 2 -24 -6t-16 -16q-5 -7 -8 -6q-4 2 1 12q9 16 24 28.5t35 11.5q10 0 17.5 -4.5t14.5 -9.5t14 -9t16 -5q14 -1 24.5 8t15.5 16q4 6 8 5q2 -1 1.5 -4.5t-2.5 -6.5q-6 -12 -21 -26.5t-36 -14.5h-1zM195 133q18 19 31.5 28.5
t25.5 9.5q16 1 18.5 -3t-5.5 -13q-10 -11 -25 -28.5t-31 -37.5q-10 -12 -19 -24.5t-16 -24.5q-10 -18 -3 -23q4 -3 10.5 -1t12.5 5q8 4 20.5 12.5t24.5 18.5q16 13 28 23t20 18q5 4 8.5 6.5t5.5 0.5q3 -3 -13 -18q-10 -9 -26 -23t-30 -25q-15 -12 -38 -26t-48 -14
q-14 0 -21 6t-8 15q-1 8 3 18t11 18l-1 1q-10 -9 -23 -18.5t-27.5 -18t-30 -14.5t-29.5 -7q-17 -1 -30.5 7.5t-10.5 32.5q2 11 8 23.5t20 28.5l-1 1l-5 -5t-8 -7q-7 -5 -9 -3q-3 4 14 19q2 2 12 10.5t18 13.5l20 12.5t26 15.5q29 15 54.5 23t45.5 5q15 -2 20.5 -13.5
t0.5 -24.5zM170 161q-15 0 -40 -18t-52 -45q-31 -30 -44.5 -49.5t-11.5 -29.5q1 -10 13 -10q14 0 39 14t45 33q12 10 24 23t22 25t16.5 22.5t6.5 16.5q1 18 -18 18z" />
    <glyph glyph-name="adieresis" unicode="&#xe4;" horiz-adv-x="287" 
d="M189 298q10 0 13 -6.5t-5 -16.5q-8 -11 -21.5 -17.5t-21.5 -6.5q-3 4 -3.5 13t3.5 17q4 11 13 14t21 3h1zM289 298q10 0 12.5 -6.5t-5.5 -16.5q-8 -11 -21.5 -17.5t-21.5 -6.5q-3 4 -3 13t3 17q4 11 13.5 14t21.5 3h1zM195 133q18 19 31.5 28.5t25.5 9.5q16 1 18.5 -3
t-5.5 -13q-10 -11 -25 -28.5t-31 -37.5q-10 -12 -19 -24.5t-16 -24.5q-10 -18 -3 -23q4 -3 10.5 -1t12.5 5q8 4 20.5 12.5t24.5 18.5q16 13 28 23t20 18q5 4 8.5 6.5t5.5 0.5q3 -3 -13 -18q-10 -9 -26 -23t-30 -25q-15 -12 -38 -26t-48 -14q-14 0 -21 6t-8 15q-1 8 3 18
t11 18l-1 1q-10 -9 -23 -18.5t-27.5 -18t-30 -14.5t-29.5 -7q-17 -1 -30.5 7.5t-10.5 32.5q2 11 8 23.5t20 28.5l-1 1l-5 -5t-8 -7q-7 -5 -9 -3q-3 4 14 19q2 2 12 10.5t18 13.5l20 12.5t26 15.5q29 15 54.5 23t45.5 5q15 -2 20.5 -13.5t0.5 -24.5zM170 161q-15 0 -40 -18
t-52 -45q-31 -30 -44.5 -49.5t-11.5 -29.5q1 -10 13 -10q14 0 39 14t45 33q12 10 24 23t22 25t16.5 22.5t6.5 16.5q1 18 -18 18z" />
    <glyph glyph-name="aring" unicode="&#xe5;" horiz-adv-x="287" 
d="M219 335q17 0 30 -14t13 -31q0 -19 -13 -31.5t-31 -12.5q-19 0 -31.5 12.5t-12.5 31.5q0 17 12.5 31t31.5 14h1zM217 317q-11 0 -18 -8t-7 -19t7 -18.5t19 -7.5q11 0 18.5 7.5t7.5 18.5t-7.5 19t-18.5 8h-1zM195 133q18 19 31.5 28.5t25.5 9.5q16 1 18.5 -3t-5.5 -13
q-10 -11 -25 -28.5t-31 -37.5q-10 -12 -19 -24.5t-16 -24.5q-10 -18 -3 -23q4 -3 10.5 -1t12.5 5q8 4 20.5 12.5t24.5 18.5q16 13 28 23t20 18q5 4 8.5 6.5t5.5 0.5q3 -3 -13 -18q-10 -9 -26 -23t-30 -25q-15 -12 -38 -26t-48 -14q-14 0 -21 6t-8 15q-1 8 3 18t11 18l-1 1
q-10 -9 -23 -18.5t-27.5 -18t-30 -14.5t-29.5 -7q-17 -1 -30.5 7.5t-10.5 32.5q2 11 8 23.5t20 28.5l-1 1l-5 -5t-8 -7q-7 -5 -9 -3q-3 4 14 19q2 2 12 10.5t18 13.5l20 12.5t26 15.5q29 15 54.5 23t45.5 5q15 -2 20.5 -13.5t0.5 -24.5zM170 161q-15 0 -40 -18t-52 -45
q-31 -30 -44.5 -49.5t-11.5 -29.5q1 -10 13 -10q14 0 39 14t45 33q12 10 24 23t22 25t16.5 22.5t6.5 16.5q1 18 -18 18z" />
    <glyph glyph-name="ae" unicode="&#xe6;" horiz-adv-x="353" 
d="M199 6q10 0 34 7t57 30q14 10 31.5 23.5t29.5 24.5q8 7 11 4q3 -4 -8 -13q-10 -9 -27.5 -24t-31.5 -24q-65 -43 -115 -43q-54 0 -52 41q0 12 7 23h-1q-9 -9 -22.5 -19t-28.5 -19t-31.5 -15.5t-31.5 -7.5q-17 -1 -30.5 7.5t-10.5 32.5q2 11 8 23.5t20 28.5l-1 1l-4.5 -4.5
t-6.5 -5.5q-8 -7 -11 -4q-2 2 1 5.5t8 8.5q7 6 15 13t16 12q8 6 21.5 14.5t28.5 16.5q27 14 54.5 20t45.5 7q11 1 22.5 -1t10.5 -5q-1 -5 -11.5 -4.5t-25.5 -3.5q-15 -3 -40 -17t-52 -41q-29 -28 -43.5 -48.5t-12.5 -30.5q1 -10 13 -10q14 0 39 14t45 33q44 39 71 69.5
t41 41.5q8 7 14.5 9.5t14.5 3.5q9 1 12 -0.5t-4 -9.5q-2 -3 -8.5 -10t-10.5 -10q32 22 54 22q16 0 23 -8t6 -19q-2 -20 -21.5 -35t-42.5 -26q-22 -11 -45.5 -19t-40.5 -13q-6 -12 -6 -23q0 -23 23 -23zM188 63q15 4 33.5 11.5t34.5 18.5q19 13 29.5 27t11.5 25q2 14 -12 14
t-43 -28q-12 -11 -28.5 -32t-25.5 -36z" />
    <glyph glyph-name="ccedilla" unicode="&#xe7;" horiz-adv-x="214" 
d="M32 -9q-5 -4 -13.5 -12t-12.5 -13q6 2 13 2q21 0 34.5 -10.5t10.5 -27.5q-3 -19 -24 -31.5t-50 -10.5q-25 1 -38.5 9t-18.5 16q-9 11 -3 15q2 1 3.5 -1.5t4.5 -5.5q6 -7 17.5 -13t33.5 -6h1q17 0 30 8.5t14 22.5q2 25 -32 23q-8 -1 -12 -3.5t-6 -0.5t0 4.5t4 4.5l19 19
t14 13q-38 6 -35 40q2 15 9.5 30.5t19.5 29.5l-1 1q-2 -2 -7 -6.5t-10 -8.5q-10 -9 -13 -6q-2 2 0.5 5t5.5 6q10 9 18 15.5t19 14.5q8 6 21.5 14.5t26.5 15.5q26 14 49 22t43 5q17 -3 23.5 -13.5t3.5 -24.5t-13.5 -24t-20.5 -10q-13 0 -14 9t6 20q8 14 10 22.5t-7 10.5
q-18 3 -62 -42q-20 -20 -37 -45.5t-19 -43.5q-3 -23 23 -23q10 0 34.5 6.5t57.5 29.5q14 10 31 23.5t29 24.5q8 7 11 4q3 -4 -8 -13q-10 -9 -27.5 -24t-31.5 -24q-26 -18 -58 -30.5t-58 -12.5h-8z" />
    <glyph glyph-name="egrave" unicode="&#xe8;" horiz-adv-x="213" 
d="M143 349q5 0 7 -3t4 -7q8 -20 22 -44t28 -42q2 -2 3 -4.5t-1 -4.5t-5 0t-5 4q-14 11 -35 30.5t-31 36.5q-2 2 -3.5 6t-1.5 9q0 8 5.5 13.5t11.5 5.5h1zM59 6q10 0 34 7t57 30q14 10 30.5 22.5t30.5 25.5q8 7 11 4q3 -4 -8 -13q-10 -9 -29.5 -25t-33.5 -25
q-62 -41 -113 -41q-55 0 -53 40q1 28 30 62l-1 1q-2 -2 -8.5 -8t-11.5 -10q-7 -6 -10 -3q-2 2 0.5 5t5.5 6q10 9 18 15.5t19 14.5q8 6 21.5 14t27.5 16q22 11 44 19.5t42 8.5h1q17 0 23.5 -8.5t5.5 -18.5q-2 -20 -21.5 -35t-42.5 -26q-22 -11 -45.5 -19t-40.5 -13
q-6 -12 -6 -23q0 -23 23 -23zM48 63q15 4 33.5 11.5t34.5 18.5q19 13 29.5 27t11.5 25q2 14 -12 14q-13 0 -44 -29q-12 -11 -28 -31.5t-25 -35.5z" />
    <glyph glyph-name="eacute" unicode="&#xe9;" horiz-adv-x="213" 
d="M241 344q4 0 7 -5q5 -8 2.5 -17t-9.5 -16q-6 -6 -16.5 -14t-23 -16t-24.5 -15.5t-19 -11.5q-10 -5 -12 -3q-2 3 5 10q14 14 36.5 37t38.5 42q7 9 14 9h1zM59 6q10 0 34 7t57 30q14 10 30.5 22.5t30.5 25.5q8 7 11 4q3 -4 -8 -13q-10 -9 -29.5 -25t-33.5 -25
q-62 -41 -113 -41q-55 0 -53 40q1 28 30 62l-1 1q-2 -2 -8.5 -8t-11.5 -10q-7 -6 -10 -3q-2 2 0.5 5t5.5 6q10 9 18 15.5t19 14.5q8 6 21.5 14t27.5 16q22 11 44 19.5t42 8.5h1q17 0 23.5 -8.5t5.5 -18.5q-2 -20 -21.5 -35t-42.5 -26q-22 -11 -45.5 -19t-40.5 -13
q-6 -12 -6 -23q0 -23 23 -23zM48 63q15 4 33.5 11.5t34.5 18.5q19 13 29.5 27t11.5 25q2 14 -12 14q-13 0 -44 -29q-12 -11 -28 -31.5t-25 -35.5z" />
    <glyph glyph-name="ecircumflex" unicode="&#xea;" horiz-adv-x="213" 
d="M206 321q3 0 5 -7q8 -18 17 -35.5t17 -30.5q4 -5 2 -7t-5.5 -0.5t-5.5 3.5q-8 5 -20 16.5t-23 25.5q-15 -9 -30.5 -16.5t-30 -13.5t-26.5 -10.5t-18 -6.5q-2 -1 -5 -1t-4 2t2 3t5 3q12 7 27 16.5t30.5 19t29 18.5t22.5 16q3 2 5 3.5t5 1.5h1zM59 6q10 0 34 7t57 30
q14 10 30.5 22.5t30.5 25.5q8 7 11 4q3 -4 -8 -13q-10 -9 -29.5 -25t-33.5 -25q-62 -41 -113 -41q-55 0 -53 40q1 28 30 62l-1 1q-2 -2 -8.5 -8t-11.5 -10q-7 -6 -10 -3q-2 2 0.5 5t5.5 6q10 9 18 15.5t19 14.5q8 6 21.5 14t27.5 16q22 11 44 19.5t42 8.5h1q17 0 23.5 -8.5
t5.5 -18.5q-2 -20 -21.5 -35t-42.5 -26q-22 -11 -45.5 -19t-40.5 -13q-6 -12 -6 -23q0 -23 23 -23zM48 63q15 4 33.5 11.5t34.5 18.5q19 13 29.5 27t11.5 25q2 14 -12 14q-13 0 -44 -29q-12 -11 -28 -31.5t-25 -35.5z" />
    <glyph glyph-name="edieresis" unicode="&#xeb;" horiz-adv-x="213" 
d="M144 298q10 0 13 -6.5t-5 -16.5q-8 -11 -21.5 -17.5t-21.5 -6.5q-3 4 -3.5 13t3.5 17q4 11 13 14t21 3h1zM244 298q10 0 12.5 -6.5t-5.5 -16.5q-8 -11 -21.5 -17.5t-21.5 -6.5q-3 4 -3 13t3 17q4 11 13.5 14t21.5 3h1zM59 6q10 0 34 7t57 30q14 10 30.5 22.5t30.5 25.5
q8 7 11 4q3 -4 -8 -13q-10 -9 -29.5 -25t-33.5 -25q-62 -41 -113 -41q-55 0 -53 40q1 28 30 62l-1 1q-2 -2 -8.5 -8t-11.5 -10q-7 -6 -10 -3q-2 2 0.5 5t5.5 6q10 9 18 15.5t19 14.5q8 6 21.5 14t27.5 16q22 11 44 19.5t42 8.5h1q17 0 23.5 -8.5t5.5 -18.5q-2 -20 -21.5 -35
t-42.5 -26q-22 -11 -45.5 -19t-40.5 -13q-6 -12 -6 -23q0 -23 23 -23zM48 63q15 4 33.5 11.5t34.5 18.5q19 13 29.5 27t11.5 25q2 14 -12 14q-13 0 -44 -29q-12 -11 -28 -31.5t-25 -35.5z" />
    <glyph glyph-name="igrave" unicode="&#xec;" horiz-adv-x="162" 
d="M133 345q5 0 7 -3t4 -7q8 -20 22 -44t28 -42q2 -2 3 -4.5t-1 -4.5t-5 0t-5 4q-14 11 -35 30.5t-31 36.5q-2 2 -3.5 6t-1.5 9q0 8 5.5 13.5t11.5 5.5h1zM81 143q-5 -2 -19 -12t-25 -19t-19 -15.5t-16 -13.5q-12 -10 -15 -8q-2 2 0.5 5t10.5 11q4 4 12.5 11t18.5 15
t20.5 16t19.5 14q20 14 32 18t26 4q16 0 18 -3t-7 -13q-14 -15 -26 -30t-27 -34q-26 -32 -36 -49q-9 -16 -3 -22q7 -6 24 3q8 4 19.5 11.5t24.5 18.5q16 13 25 21t21 19q13 12 16 9q2 -2 -3.5 -8t-7.5 -8q-9 -9 -25.5 -23.5t-31.5 -26.5t-38.5 -26.5t-48.5 -14.5
q-30 0 -30 26q0 10 4.5 19.5t10.5 18.5q7 12 17.5 24.5t21.5 24.5t20.5 22t15.5 15z" />
    <glyph glyph-name="iacute" unicode="&#xed;" horiz-adv-x="162" 
d="M213 344q4 0 7 -5q5 -8 2.5 -17t-9.5 -16q-6 -6 -16.5 -14t-23 -16t-24.5 -15.5t-19 -11.5q-10 -5 -12 -3q-2 3 5 10q14 14 36.5 37t38.5 42q7 9 14 9h1zM81 143q-5 -2 -19 -12t-25 -19t-19 -15.5t-16 -13.5q-12 -10 -15 -8q-2 2 0.5 5t10.5 11q4 4 12.5 11t18.5 15
t20.5 16t19.5 14q20 14 32 18t26 4q16 0 18 -3t-7 -13q-14 -15 -26 -30t-27 -34q-26 -32 -36 -49q-9 -16 -3 -22q7 -6 24 3q8 4 19.5 11.5t24.5 18.5q16 13 25 21t21 19q13 12 16 9q2 -2 -3.5 -8t-7.5 -8q-9 -9 -25.5 -23.5t-31.5 -26.5t-38.5 -26.5t-48.5 -14.5
q-30 0 -30 26q0 10 4.5 19.5t10.5 18.5q7 12 17.5 24.5t21.5 24.5t20.5 22t15.5 15z" />
    <glyph glyph-name="icircumflex" unicode="&#xee;" horiz-adv-x="162" 
d="M192 321q3 0 5 -7q8 -18 17 -35.5t17 -30.5q4 -5 2 -7t-5.5 -0.5t-5.5 3.5q-8 5 -20 16.5t-23 25.5q-15 -9 -30.5 -16.5t-30 -13.5t-26.5 -10.5t-18 -6.5q-2 -1 -5 -1t-4 2t2 3t5 3q12 7 27 16.5t30.5 19t29 18.5t22.5 16q3 2 5 3.5t5 1.5h1zM81 143q-5 -2 -19 -12
t-25 -19t-19 -15.5t-16 -13.5q-12 -10 -15 -8q-2 2 0.5 5t10.5 11q4 4 12.5 11t18.5 15t20.5 16t19.5 14q20 14 32 18t26 4q16 0 18 -3t-7 -13q-14 -15 -26 -30t-27 -34q-26 -32 -36 -49q-9 -16 -3 -22q7 -6 24 3q8 4 19.5 11.5t24.5 18.5q16 13 25 21t21 19q13 12 16 9
q2 -2 -3.5 -8t-7.5 -8q-9 -9 -25.5 -23.5t-31.5 -26.5t-38.5 -26.5t-48.5 -14.5q-30 0 -30 26q0 10 4.5 19.5t10.5 18.5q7 12 17.5 24.5t21.5 24.5t20.5 22t15.5 15z" />
    <glyph glyph-name="idieresis" unicode="&#xef;" horiz-adv-x="162" 
d="M119 298q10 0 13 -6.5t-5 -16.5q-8 -11 -21.5 -17.5t-21.5 -6.5q-3 4 -3.5 13t3.5 17q4 11 13 14t21 3h1zM219 298q10 0 12.5 -6.5t-5.5 -16.5q-8 -11 -21.5 -17.5t-21.5 -6.5q-3 4 -3 13t3 17q4 11 13.5 14t21.5 3h1zM81 143q-5 -2 -19 -12t-25 -19t-19 -15.5t-16 -13.5
q-12 -10 -15 -8q-2 2 0.5 5t10.5 11q4 4 12.5 11t18.5 15t20.5 16t19.5 14q20 14 32 18t26 4q16 0 18 -3t-7 -13q-14 -15 -26 -30t-27 -34q-26 -32 -36 -49q-9 -16 -3 -22q7 -6 24 3q8 4 19.5 11.5t24.5 18.5q16 13 25 21t21 19q13 12 16 9q2 -2 -3.5 -8t-7.5 -8
q-9 -9 -25.5 -23.5t-31.5 -26.5t-38.5 -26.5t-48.5 -14.5q-30 0 -30 26q0 10 4.5 19.5t10.5 18.5q7 12 17.5 24.5t21.5 24.5t20.5 22t15.5 15z" />
    <glyph glyph-name="eth" unicode="&#xf0;" horiz-adv-x="262" 
d="M52 2q23 0 48 19t44 41q6 6 13 16.5t13.5 22t10.5 23t4 19.5q2 18 -16 18q-9 0 -19.5 -5t-21.5 -13.5t-21.5 -18t-18.5 -18.5q-10 -10 -19 -22t-16.5 -24t-12 -23t-4.5 -18q0 -10 5 -13.5t11 -3.5zM174 171q14 -3 19.5 -15t2.5 -24q5 7 11.5 20t12.5 28.5t10.5 32
t5.5 31.5v10t-1 10q-20 -7 -40 -13.5t-48 -16.5q-3 -1 -6 -1.5t-5 1.5q-3 5 9 10q19 8 43.5 17.5t44.5 17.5q-7 31 -27 52t-51 23q-9 1 -13.5 -0.5t-4.5 0.5q-2 6 18 8q36 3 65 -18t43 -54q11 4 23 8.5t23 8.5q3 2 8.5 2t7.5 -5t-3 -7.5t-10 -4.5q-12 -5 -23 -9t-21 -7
q5 -20 5 -37q0 -31 -11 -61t-27.5 -56t-34.5 -46t-32 -31q-24 -19 -57 -36.5t-68 -17.5q-22 0 -35.5 11.5t-13.5 31.5t7.5 35.5t20.5 29.5l-1 1q-5 -5 -9 -8t-9 -8q-10 -9 -13 -6q-2 2 1 5.5t6 6.5q5 5 14 12.5t17 12.5q10 7 21 14t27 15q22 11 44 18.5t39 8.5h15z" />
    <glyph glyph-name="ntilde" unicode="&#xf1;" horiz-adv-x="352" 
d="M278 251q-9 0 -16.5 4t-15 9t-15 9t-16.5 5q-14 2 -24 -6t-16 -16q-5 -7 -8 -6q-4 2 1 12q9 16 24 28.5t35 11.5q10 0 17.5 -4.5t14.5 -9.5t14 -9t16 -5q14 -1 24.5 8t15.5 16q4 6 8 5q2 -1 1.5 -4.5t-2.5 -6.5q-6 -12 -21 -26.5t-36 -14.5h-1zM207 -6q-14 0 -22.5 6.5
t-7.5 19.5q1 17 14.5 35t27.5 35q11 14 22 26t20 23q3 4 4 8t-3 6t-11 0t-15 -6q-14 -7 -34 -19.5t-44 -31.5q-17 -13 -30 -24t-26 -21.5t-26.5 -21.5t-29.5 -24q-12 -9 -26 -9q-11 0 -15 2.5t2 13.5q5 10 18.5 30.5t25.5 36.5q8 11 20 26t20 26q10 13 7 17q-4 5 -15 -1
q-9 -5 -19.5 -12t-19.5 -15q-10 -8 -21 -18l-22 -20q-14 -12 -17 -9q-2 3 15 19q9 8 23.5 21.5t28.5 24.5q20 16 36 24.5t32 8.5q14 0 19.5 -7t5.5 -15q0 -9 -5.5 -19t-15.5 -24q-11 -15 -25 -33t-22 -30l1 -1l42 35t50 40t56 37t53 17q34 0 31 -27q-2 -14 -15 -30t-25 -31
q-12 -14 -20.5 -26t-12.5 -18q-11 -17 -4 -22q4 -3 11 -1t13 5q9 5 20 11.5t28 19.5q13 10 26.5 21.5t21.5 19.5q10 9 13 6q2 -3 -8 -13q-7 -7 -25.5 -23.5t-34.5 -28.5q-8 -6 -18.5 -13t-22.5 -13t-24.5 -10t-24.5 -4z" />
    <glyph glyph-name="ograve" unicode="&#xf2;" horiz-adv-x="249" 
d="M167 349q5 0 7 -3t4 -7q8 -20 22 -44t28 -42q2 -2 3 -4.5t-1 -4.5t-5 0t-5 4q-14 11 -35 30.5t-31 36.5q-2 2 -3.5 6t-1.5 9q0 8 5.5 13.5t11.5 5.5h1zM21 100q-5 -5 -9 -8t-9 -8q-10 -9 -13 -6q-2 2 1 5.5t6 6.5q5 5 14 12.5t17 12.5q10 7 21 14t27 15q22 11 44 18.5
t39 8.5q5 0 10 -0.5t5 -3.5q0 -1 -11 -6q-18 -8 -34.5 -21.5t-37.5 -33.5q-22 -22 -39 -47.5t-19 -40.5q-2 -17 14 -17q17 0 43.5 17.5t49.5 43.5q1 8 4.5 18.5t13.5 23.5q8 11 17.5 17.5t14.5 8.5q2 5 2.5 12t0.5 11q0 8 -1.5 11t0.5 5q3 2 7 -0.5t7 -5.5q6 -6 10 -15
t2 -20q-2 -18 -18 -39t-39 -42q3 -2 9.5 -1.5t9.5 1.5q15 3 34 17q10 7 17 12.5t15 13.5q14 13 17 10t-13 -18q-7 -6 -14.5 -12.5t-17.5 -13.5q-12 -8 -21 -12t-17 -6q-7 -2 -14.5 -1.5t-12.5 3.5q-10 -8 -23 -16.5t-28 -15.5t-31.5 -12t-31.5 -5q-23 0 -36.5 11t-12.5 33
q2 32 32 64l-1 1v0z" />
    <glyph glyph-name="oacute" unicode="&#xf3;" horiz-adv-x="249" 
d="M265 344q4 0 7 -5q5 -8 2.5 -17t-9.5 -16q-6 -6 -16.5 -14t-23 -16t-24.5 -15.5t-19 -11.5q-10 -5 -12 -3q-2 3 5 10q14 14 36.5 37t38.5 42q7 9 14 9h1zM21 100q-5 -5 -9 -8t-9 -8q-10 -9 -13 -6q-2 2 1 5.5t6 6.5q5 5 14 12.5t17 12.5q10 7 21 14t27 15q22 11 44 18.5
t39 8.5q5 0 10 -0.5t5 -3.5q0 -1 -11 -6q-18 -8 -34.5 -21.5t-37.5 -33.5q-22 -22 -39 -47.5t-19 -40.5q-2 -17 14 -17q17 0 43.5 17.5t49.5 43.5q1 8 4.5 18.5t13.5 23.5q8 11 17.5 17.5t14.5 8.5q2 5 2.5 12t0.5 11q0 8 -1.5 11t0.5 5q3 2 7 -0.5t7 -5.5q6 -6 10 -15
t2 -20q-2 -18 -18 -39t-39 -42q3 -2 9.5 -1.5t9.5 1.5q15 3 34 17q10 7 17 12.5t15 13.5q14 13 17 10t-13 -18q-7 -6 -14.5 -12.5t-17.5 -13.5q-12 -8 -21 -12t-17 -6q-7 -2 -14.5 -1.5t-12.5 3.5q-10 -8 -23 -16.5t-28 -15.5t-31.5 -12t-31.5 -5q-23 0 -36.5 11t-12.5 33
q2 32 32 64l-1 1v0z" />
    <glyph glyph-name="ocircumflex" unicode="&#xf4;" horiz-adv-x="249" 
d="M226 321q3 0 5 -7q8 -18 17 -35.5t17 -30.5q4 -5 2 -7t-5.5 -0.5t-5.5 3.5q-8 5 -20 16.5t-23 25.5q-15 -9 -30.5 -16.5t-30 -13.5t-26.5 -10.5t-18 -6.5q-2 -1 -5 -1t-4 2t2 3t5 3q12 7 27 16.5t30.5 19t29 18.5t22.5 16q3 2 5 3.5t5 1.5h1zM21 100q-5 -5 -9 -8t-9 -8
q-10 -9 -13 -6q-2 2 1 5.5t6 6.5q5 5 14 12.5t17 12.5q10 7 21 14t27 15q22 11 44 18.5t39 8.5q5 0 10 -0.5t5 -3.5q0 -1 -11 -6q-18 -8 -34.5 -21.5t-37.5 -33.5q-22 -22 -39 -47.5t-19 -40.5q-2 -17 14 -17q17 0 43.5 17.5t49.5 43.5q1 8 4.5 18.5t13.5 23.5
q8 11 17.5 17.5t14.5 8.5q2 5 2.5 12t0.5 11q0 8 -1.5 11t0.5 5q3 2 7 -0.5t7 -5.5q6 -6 10 -15t2 -20q-2 -18 -18 -39t-39 -42q3 -2 9.5 -1.5t9.5 1.5q15 3 34 17q10 7 17 12.5t15 13.5q14 13 17 10t-13 -18q-7 -6 -14.5 -12.5t-17.5 -13.5q-12 -8 -21 -12t-17 -6
q-7 -2 -14.5 -1.5t-12.5 3.5q-10 -8 -23 -16.5t-28 -15.5t-31.5 -12t-31.5 -5q-23 0 -36.5 11t-12.5 33q2 32 32 64l-1 1v0z" />
    <glyph glyph-name="otilde" unicode="&#xf5;" horiz-adv-x="249" 
d="M229 251q-9 0 -16.5 4t-15 9t-15 9t-16.5 5q-14 2 -24 -6t-16 -16q-5 -7 -8 -6q-4 2 1 12q9 16 24 28.5t35 11.5q10 0 17.5 -4.5t14.5 -9.5t14 -9t16 -5q14 -1 24.5 8t15.5 16q4 6 8 5q2 -1 1.5 -4.5t-2.5 -6.5q-6 -12 -21 -26.5t-36 -14.5h-1zM21 100q-5 -5 -9 -8t-9 -8
q-10 -9 -13 -6q-2 2 1 5.5t6 6.5q5 5 14 12.5t17 12.5q10 7 21 14t27 15q22 11 44 18.5t39 8.5q5 0 10 -0.5t5 -3.5q0 -1 -11 -6q-18 -8 -34.5 -21.5t-37.5 -33.5q-22 -22 -39 -47.5t-19 -40.5q-2 -17 14 -17q17 0 43.5 17.5t49.5 43.5q1 8 4.5 18.5t13.5 23.5
q8 11 17.5 17.5t14.5 8.5q2 5 2.5 12t0.5 11q0 8 -1.5 11t0.5 5q3 2 7 -0.5t7 -5.5q6 -6 10 -15t2 -20q-2 -18 -18 -39t-39 -42q3 -2 9.5 -1.5t9.5 1.5q15 3 34 17q10 7 17 12.5t15 13.5q14 13 17 10t-13 -18q-7 -6 -14.5 -12.5t-17.5 -13.5q-12 -8 -21 -12t-17 -6
q-7 -2 -14.5 -1.5t-12.5 3.5q-10 -8 -23 -16.5t-28 -15.5t-31.5 -12t-31.5 -5q-23 0 -36.5 11t-12.5 33q2 32 32 64l-1 1v0z" />
    <glyph glyph-name="odieresis" unicode="&#xf6;" horiz-adv-x="249" 
d="M171 298q10 0 13 -6.5t-5 -16.5q-8 -11 -21.5 -17.5t-21.5 -6.5q-3 4 -3.5 13t3.5 17q4 11 13 14t21 3h1zM271 298q10 0 12.5 -6.5t-5.5 -16.5q-8 -11 -21.5 -17.5t-21.5 -6.5q-3 4 -3 13t3 17q4 11 13.5 14t21.5 3h1zM21 100q-5 -5 -9 -8t-9 -8q-10 -9 -13 -6
q-2 2 1 5.5t6 6.5q5 5 14 12.5t17 12.5q10 7 21 14t27 15q22 11 44 18.5t39 8.5q5 0 10 -0.5t5 -3.5q0 -1 -11 -6q-18 -8 -34.5 -21.5t-37.5 -33.5q-22 -22 -39 -47.5t-19 -40.5q-2 -17 14 -17q17 0 43.5 17.5t49.5 43.5q1 8 4.5 18.5t13.5 23.5q8 11 17.5 17.5t14.5 8.5
q2 5 2.5 12t0.5 11q0 8 -1.5 11t0.5 5q3 2 7 -0.5t7 -5.5q6 -6 10 -15t2 -20q-2 -18 -18 -39t-39 -42q3 -2 9.5 -1.5t9.5 1.5q15 3 34 17q10 7 17 12.5t15 13.5q14 13 17 10t-13 -18q-7 -6 -14.5 -12.5t-17.5 -13.5q-12 -8 -21 -12t-17 -6q-7 -2 -14.5 -1.5t-12.5 3.5
q-10 -8 -23 -16.5t-28 -15.5t-31.5 -12t-31.5 -5q-23 0 -36.5 11t-12.5 33q2 32 32 64l-1 1v0z" />
    <glyph glyph-name="divide" unicode="&#xf7;" horiz-adv-x="319" 
d="M218 215q10 0 13 -7t-5 -17t-21.5 -17t-21.5 -7q-3 5 -3.5 13.5t3.5 17.5q5 11 13.5 14t20.5 3h1zM311 128q0 -2 -5.5 -3.5t-10.5 -1.5q-27 -1 -52.5 -1.5t-53.5 -0.5t-59.5 -0.5t-69.5 -0.5q-11 0 -12.5 3.5t0.5 8.5q5 12 22 12q69 -3 121.5 -5t103.5 -4q5 0 10.5 -1
t5.5 -5v-1zM168 90q10 0 13 -7t-5 -17t-21.5 -16.5t-21.5 -6.5q-3 4 -3.5 12.5t3.5 17.5q5 11 13.5 14t20.5 3h1z" />
    <glyph glyph-name="oslash" unicode="&#xf8;" horiz-adv-x="249" 
d="M178 166q-11 0 -33 -13.5t-54 -45.5q-16 -15 -30.5 -34.5t-22.5 -38.5q-5 -12 -5 -19q18 17 38.5 36.5t41.5 39.5t40.5 38.5t35.5 33.5q-3 3 -10 3h-1zM47 1q17 0 43.5 18t49.5 43q1 8 4.5 18.5t13.5 23.5q8 11 17.5 17.5t14.5 8.5q5 11 3 23q-16 -15 -36 -33.5
t-41 -38.5t-41.5 -39.5t-38.5 -35.5q3 -5 10 -5h1zM28 115q10 7 21 14t27 15q23 13 46.5 19.5t42.5 8.5q18 1 30 -3q6 6 14 13.5t16 15.5q14 13 19 17t8 2t0.5 -6.5t-16.5 -17.5q-1 -1 -9 -8.5t-22 -20.5q16 -13 13 -36q-2 -18 -18 -39t-39 -42q3 -2 9.5 -1.5t9.5 1.5
q15 3 34 17q10 7 17 12.5t15 13.5q14 13 17 10t-13 -18q-7 -6 -14.5 -12.5t-17.5 -13.5q-12 -8 -21 -12t-17 -6q-7 -2 -14.5 -1.5t-12.5 3.5q-23 -17 -53.5 -33t-59.5 -16h-9t-8 2q-13 -12 -23 -21.5t-15 -14.5q-9 -9 -12 -5q-3 2 6 11q5 5 14 13.5t20 19.5q-12 5 -18 15
t-5 24q2 32 32 64l-1 1q-5 -5 -9 -8t-9 -8q-10 -9 -13 -6q-2 2 1 5.5t6 6.5q5 5 14 12.5t17 12.5z" />
    <glyph glyph-name="ugrave" unicode="&#xf9;" horiz-adv-x="322" 
d="M168 342q5 0 7 -3t4 -7q8 -20 22 -44t28 -42q2 -2 3 -4.5t-1 -4.5t-5 0t-5 4q-14 11 -35 30.5t-31 36.5q-2 2 -3.5 6t-1.5 9q0 8 5.5 13.5t11.5 5.5h1zM81 143q-5 -2 -18.5 -11.5t-24.5 -18.5t-19.5 -16t-16.5 -14q-12 -10 -15 -8q-2 2 0.5 5t10.5 11q4 4 12.5 11
t18.5 15t20.5 16t19.5 14q20 14 32 18t26 4q16 0 18 -3t-7 -13q-10 -11 -23.5 -27t-28.5 -35q-12 -16 -22.5 -31t-14.5 -23q-6 -13 -1 -18q6 -6 23 2q17 9 34.5 21.5t40.5 30.5q36 28 60 48t48 39q6 5 12 8t17 3q13 0 18.5 -2.5t-3.5 -13.5q-14 -17 -26 -30.5t-27 -33.5
q-26 -32 -37 -51q-10 -17 -3 -22t23 3q8 4 20.5 12t24.5 18q15 12 27.5 22.5t20.5 18.5q11 11 14 7q2 -2 -2 -6.5t-6 -6.5q-9 -9 -26 -23.5t-35 -28.5q-7 -5 -16.5 -12t-21 -13t-24 -10.5t-24.5 -4.5q-31 0 -31 24q0 11 4.5 21t11.5 20q8 12 21 25.5t26 26.5l-1 1l-37.5 -30
t-42.5 -33q-31 -23 -57.5 -39t-49.5 -16q-16 0 -25 7t-8 21q1 11 6.5 21.5t12.5 19.5q15 20 31.5 39t39.5 41z" />
    <glyph glyph-name="uacute" unicode="&#xfa;" horiz-adv-x="322" 
d="M291 344q4 0 7 -5q5 -8 2.5 -17t-9.5 -16q-6 -6 -16.5 -14t-23 -16t-24.5 -15.5t-19 -11.5q-10 -5 -12 -3q-2 3 5 10q14 14 36.5 37t38.5 42q7 9 14 9h1zM81 143q-5 -2 -18.5 -11.5t-24.5 -18.5t-19.5 -16t-16.5 -14q-12 -10 -15 -8q-2 2 0.5 5t10.5 11q4 4 12.5 11
t18.5 15t20.5 16t19.5 14q20 14 32 18t26 4q16 0 18 -3t-7 -13q-10 -11 -23.5 -27t-28.5 -35q-12 -16 -22.5 -31t-14.5 -23q-6 -13 -1 -18q6 -6 23 2q17 9 34.5 21.5t40.5 30.5q36 28 60 48t48 39q6 5 12 8t17 3q13 0 18.5 -2.5t-3.5 -13.5q-14 -17 -26 -30.5t-27 -33.5
q-26 -32 -37 -51q-10 -17 -3 -22t23 3q8 4 20.5 12t24.5 18q15 12 27.5 22.5t20.5 18.5q11 11 14 7q2 -2 -2 -6.5t-6 -6.5q-9 -9 -26 -23.5t-35 -28.5q-7 -5 -16.5 -12t-21 -13t-24 -10.5t-24.5 -4.5q-31 0 -31 24q0 11 4.5 21t11.5 20q8 12 21 25.5t26 26.5l-1 1l-37.5 -30
t-42.5 -33q-31 -23 -57.5 -39t-49.5 -16q-16 0 -25 7t-8 21q1 11 6.5 21.5t12.5 19.5q15 20 31.5 39t39.5 41z" />
    <glyph glyph-name="ucircumflex" unicode="&#xfb;" horiz-adv-x="322" 
d="M265 326q3 0 5 -7q8 -18 17 -35.5t17 -30.5q4 -5 2 -7t-5.5 -0.5t-5.5 3.5q-8 5 -20 16.5t-23 25.5q-15 -9 -30.5 -16.5t-30 -13.5t-26.5 -10.5t-18 -6.5q-2 -1 -5 -1t-4 2t2 3t5 3q12 7 27 16.5t30.5 19t29 18.5t22.5 16q3 2 5 3.5t5 1.5h1zM81 143q-5 -2 -18.5 -11.5
t-24.5 -18.5t-19.5 -16t-16.5 -14q-12 -10 -15 -8q-2 2 0.5 5t10.5 11q4 4 12.5 11t18.5 15t20.5 16t19.5 14q20 14 32 18t26 4q16 0 18 -3t-7 -13q-10 -11 -23.5 -27t-28.5 -35q-12 -16 -22.5 -31t-14.5 -23q-6 -13 -1 -18q6 -6 23 2q17 9 34.5 21.5t40.5 30.5q36 28 60 48
t48 39q6 5 12 8t17 3q13 0 18.5 -2.5t-3.5 -13.5q-14 -17 -26 -30.5t-27 -33.5q-26 -32 -37 -51q-10 -17 -3 -22t23 3q8 4 20.5 12t24.5 18q15 12 27.5 22.5t20.5 18.5q11 11 14 7q2 -2 -2 -6.5t-6 -6.5q-9 -9 -26 -23.5t-35 -28.5q-7 -5 -16.5 -12t-21 -13t-24 -10.5
t-24.5 -4.5q-31 0 -31 24q0 11 4.5 21t11.5 20q8 12 21 25.5t26 26.5l-1 1l-37.5 -30t-42.5 -33q-31 -23 -57.5 -39t-49.5 -16q-16 0 -25 7t-8 21q1 11 6.5 21.5t12.5 19.5q15 20 31.5 39t39.5 41z" />
    <glyph glyph-name="udieresis" unicode="&#xfc;" horiz-adv-x="322" 
d="M207 298q10 0 13 -6.5t-5 -16.5q-8 -11 -21.5 -17.5t-21.5 -6.5q-3 4 -3.5 13t3.5 17q4 11 13 14t21 3h1zM307 298q10 0 12.5 -6.5t-5.5 -16.5q-8 -11 -21.5 -17.5t-21.5 -6.5q-3 4 -3 13t3 17q4 11 13.5 14t21.5 3h1zM81 143q-5 -2 -18.5 -11.5t-24.5 -18.5t-19.5 -16
t-16.5 -14q-12 -10 -15 -8q-2 2 0.5 5t10.5 11q4 4 12.5 11t18.5 15t20.5 16t19.5 14q20 14 32 18t26 4q16 0 18 -3t-7 -13q-10 -11 -23.5 -27t-28.5 -35q-12 -16 -22.5 -31t-14.5 -23q-6 -13 -1 -18q6 -6 23 2q17 9 34.5 21.5t40.5 30.5q36 28 60 48t48 39q6 5 12 8t17 3
q13 0 18.5 -2.5t-3.5 -13.5q-14 -17 -26 -30.5t-27 -33.5q-26 -32 -37 -51q-10 -17 -3 -22t23 3q8 4 20.5 12t24.5 18q15 12 27.5 22.5t20.5 18.5q11 11 14 7q2 -2 -2 -6.5t-6 -6.5q-9 -9 -26 -23.5t-35 -28.5q-7 -5 -16.5 -12t-21 -13t-24 -10.5t-24.5 -4.5q-31 0 -31 24
q0 11 4.5 21t11.5 20q8 12 21 25.5t26 26.5l-1 1l-37.5 -30t-42.5 -33q-31 -23 -57.5 -39t-49.5 -16q-16 0 -25 7t-8 21q1 11 6.5 21.5t12.5 19.5q15 20 31.5 39t39.5 41z" />
    <glyph glyph-name="yacute" unicode="&#xfd;" horiz-adv-x="315" 
d="M290 339q4 0 7 -5q5 -8 2.5 -17t-9.5 -16q-6 -6 -16.5 -14t-23 -16t-24.5 -15.5t-19 -11.5q-10 -5 -12 -3q-2 3 5 10q14 14 36.5 37t38.5 42q7 9 14 9h1zM212 113q-15 -13 -38 -31t-43 -33q-31 -23 -57.5 -39t-49.5 -16q-34 0 -32 29q2 18 18 40q32 42 71 80
q-5 -2 -19 -12t-25 -19t-19 -15.5t-16 -13.5q-12 -10 -15 -8q-2 2 0.5 5t10.5 11q4 4 12.5 11t18.5 15t20.5 16t19.5 14q20 14 32 18t26 4q16 0 18 -3t-7 -13q-10 -11 -23.5 -27t-28.5 -35q-13 -16 -23 -31t-14 -23q-6 -13 -1 -18q6 -6 23 3t34.5 21t40.5 30q36 28 60 48
t48 39q6 5 12 8t17 3q13 0 17.5 -2.5t-3.5 -12.5q-12 -16 -28 -37t-31 -41q-13 -17 -44 -58t-88 -119q-33 -45 -63 -87.5t-53.5 -77t-39.5 -58.5t-21 -33q-6 -10 -6.5 -14t1.5 -6q5 -3 15 8q4 4 12 14.5t18 25t21 30.5t22 31q17 24 45.5 63.5t67.5 90.5q31 39 63.5 76.5
t64.5 69.5l14 14t17 16t17 15.5t13 12.5q2 2 7 5.5t7 1.5q2 -3 -11 -16q-10 -9 -25 -23.5t-33 -32.5q-29 -29 -62.5 -68t-63.5 -77q-35 -47 -65.5 -88.5t-53.5 -75.5q-24 -34 -45 -63.5t-40 -46.5q-7 -6 -14 -10t-15 -3q-19 2 -19 21q0 13 12 35t29 50q13 21 26 40.5
t28.5 42t34.5 49.5t46 64q36 50 73.5 101.5t82.5 113.5z" />
    <glyph glyph-name="thorn" unicode="&#xfe;" horiz-adv-x="327" 
d="M67 155q14 13 32.5 30t36.5 35q8 11 27 33t39 45q26 30 56 62t63 62q17 17 37 17q14 0 14 -7q-10 -11 -28.5 -30.5t-41.5 -46t-50.5 -58t-55.5 -64.5q-22 -26 -51.5 -62.5t-63 -80t-70 -91.5t-72.5 -97q-33 -45 -55.5 -76t-41.5 -58t-38 -55.5t-44 -67.5q-6 -10 -7 -14
t1 -6q4 -3 13 6q5 6 14 17.5t19.5 26.5t22 32t22.5 32q16 21 47.5 64t67.5 91q31 41 61.5 80t59.5 73q20 23 44 46.5t44 38.5q21 15 43.5 27t42.5 12q35 0 30 -26q-2 -13 -14.5 -28.5t-26.5 -31.5l-21 -24.5t-14 -18.5q-11 -17 -3 -23t27 3q9 5 20.5 12t25.5 18t26 21.5
t22 19.5q9 9 13 6q2 -2 -2 -6.5t-6 -6.5q-4 -4 -11 -10.5t-15.5 -14t-17.5 -14.5t-17 -13q-16 -12 -40 -26t-50 -14q-19 0 -26.5 9t-5.5 20q2 16 16 34.5t28 32.5q12 14 25 28t18 22q7 10 0 13q-3 2 -9.5 0t-12.5 -5q-24 -11 -49.5 -31t-54.5 -52q-12 -13 -28.5 -33t-36 -44
t-40 -50.5t-40.5 -53.5q-33 -45 -65.5 -88.5t-55.5 -76.5q-12 -18 -24.5 -35.5t-24 -33t-21 -27t-16.5 -17.5q-6 -5 -13.5 -8.5t-15.5 -1.5q-17 3 -17 21q0 17 11.5 39t26.5 45q20 29 34 50t28.5 41.5t32.5 45t45 60.5q18 25 46 62t58.5 77t59 76.5t47.5 59.5
q-35 -32 -61 -56t-39 -35t-16 -8t10 15q17 15 37.5 33.5t34.5 32.5z" />
    <glyph glyph-name="ydieresis" unicode="&#xff;" horiz-adv-x="315" 
d="M199 298q10 0 13 -6.5t-5 -16.5q-8 -11 -21.5 -17.5t-21.5 -6.5q-3 4 -3.5 13t3.5 17q4 11 13 14t21 3h1zM299 298q10 0 12.5 -6.5t-5.5 -16.5q-8 -11 -21.5 -17.5t-21.5 -6.5q-3 4 -3 13t3 17q4 11 13.5 14t21.5 3h1zM212 113q-15 -13 -38 -31t-43 -33
q-31 -23 -57.5 -39t-49.5 -16q-34 0 -32 29q2 18 18 40q32 42 71 80q-5 -2 -19 -12t-25 -19t-19 -15.5t-16 -13.5q-12 -10 -15 -8q-2 2 0.5 5t10.5 11q4 4 12.5 11t18.5 15t20.5 16t19.5 14q20 14 32 18t26 4q16 0 18 -3t-7 -13q-10 -11 -23.5 -27t-28.5 -35
q-13 -16 -23 -31t-14 -23q-6 -13 -1 -18q6 -6 23 3t34.5 21t40.5 30q36 28 60 48t48 39q6 5 12 8t17 3q13 0 17.5 -2.5t-3.5 -12.5q-12 -16 -28 -37t-31 -41q-13 -17 -44 -58t-88 -119q-33 -45 -63 -87.5t-53.5 -77t-39.5 -58.5t-21 -33q-6 -10 -6.5 -14t1.5 -6q5 -3 15 8
q4 4 12 14.5t18 25t21 30.5t22 31q17 24 45.5 63.5t67.5 90.5q31 39 63.5 76.5t64.5 69.5l14 14t17 16t17 15.5t13 12.5q2 2 7 5.5t7 1.5q2 -3 -11 -16q-10 -9 -25 -23.5t-33 -32.5q-29 -29 -62.5 -68t-63.5 -77q-35 -47 -65.5 -88.5t-53.5 -75.5q-24 -34 -45 -63.5
t-40 -46.5q-7 -6 -14 -10t-15 -3q-19 2 -19 21q0 13 12 35t29 50q13 21 26 40.5t28.5 42t34.5 49.5t46 64q36 50 73.5 101.5t82.5 113.5z" />
    <glyph glyph-name="OE" unicode="&#x152;" horiz-adv-x="675" 
d="M748 406q-23 0 -50 -9.5t-44 -20.5q-23 -14 -41.5 -30.5t-26.5 -26.5q16 -13 43 -22t63 -9q49 0 86 14.5t43 48.5q4 20 -12 37.5t-60 17.5h-1zM556 230q3 -12 17.5 -18t29.5 -7q14 -1 25 2t11 11q0 7 -12 10t-24 4q-8 1 -22.5 0.5t-24.5 -2.5zM454 -34q-68 -2 -106.5 21
t-36.5 77q-46 -37 -98 -59t-100 -20q-14 0 -30.5 3.5t-31 12.5t-25 24.5t-13.5 40.5q-5 49 22 108t80 114q30 31 66 56t75.5 42.5t80.5 25.5t80 6q37 -2 58 -17t23 -38q2 -17 -3.5 -29.5t-11.5 -19.5q-4 -5 -9 -7.5t-6 -0.5t1.5 3.5t7.5 8.5q4 5 8.5 16.5t2.5 27.5
q-2 20 -22 30.5t-49 12.5q-33 1 -69.5 -11.5t-71.5 -33.5t-66.5 -47t-55.5 -52t-42.5 -55.5t-30.5 -59t-17.5 -56t-2.5 -46.5q5 -28 24 -38.5t38 -11.5q52 -2 110 37.5t118 114.5q16 20 31 42.5t27 45t20 44.5t10 40q2 17 -3.5 27.5t-18.5 12.5t-18 -1.5t-6 -1.5q-2 2 6 6.5
t19 4.5q26 0 34.5 -21.5t5.5 -50.5q-2 -17 -10 -43t-22 -53q20 10 42.5 18t48.5 14q-7 11 -7 33q2 25 12 44.5t27 35.5q-4 5 -7 14t-3 20q0 12 3.5 20.5t6.5 7.5q2 -1 0 -6t-2 -22t9 -28q16 14 36.5 26.5t50.5 22.5q24 8 49.5 12.5t51.5 4.5q51 0 77 -18.5t23 -45.5
q-2 -18 -16 -31.5t-35.5 -22.5t-48 -13.5t-53.5 -4.5q-39 0 -68 11t-43 22q-6 -8 -12.5 -19.5t-10.5 -23.5q-3 -11 -3.5 -18t0.5 -14q9 2 24 3t26 0q22 -1 37.5 -6.5t15.5 -18.5q0 -11 -18 -15t-37 -4q-23 0 -46.5 7t-33.5 20q-21 -8 -45 -24t-46 -36q-24 -23 -40.5 -52
t-18.5 -58q-2 -35 21.5 -54t61.5 -19q45 0 81 16t65 36q10 7 20.5 15t20 16.5t17.5 15.5t13 11q10 9 13 6q2 -2 0.5 -4.5t-9.5 -9.5q-5 -5 -13.5 -12.5t-18.5 -16t-20.5 -16.5t-18.5 -14q-31 -22 -68.5 -38.5t-82.5 -18.5z" />
    <glyph glyph-name="oe" unicode="&#x153;" horiz-adv-x="364" 
d="M199 63q15 4 33.5 11.5t34.5 18.5q19 13 29.5 27t11.5 25q2 14 -12 14t-43 -28q-12 -11 -28.5 -31.5t-25.5 -36.5zM28 115q10 7 22 14t26 15q20 11 43 18.5t40 8.5q5 0 10 -0.5t5 -3.5q0 -1 -11 -6q-34 -16 -72 -55q-21 -21 -38.5 -46t-19.5 -42t14 -17q17 0 40.5 16
t52.5 45q17 17 31 35.5t19 32.5q2 5 3 12.5t0 12.5t-2 8.5t1 5.5t6.5 -0.5t7.5 -5.5q5 -5 9 -12.5t3 -15.5q1 1 7 5q21 14 45 23t44 9q17 0 23.5 -8.5t5.5 -18.5q-2 -20 -21.5 -35t-42.5 -26q-22 -11 -45.5 -19t-40.5 -13q-6 -12 -6 -23q0 -23 23 -23q10 0 34 7t57 30
q14 10 31.5 23.5t29.5 24.5q8 7 11 4q3 -4 -8 -13q-10 -9 -27.5 -24t-31.5 -24q-65 -43 -118 -43q-28 0 -40 10t-12 27q-23 -15 -48 -26t-49 -11q-23 0 -36.5 11t-12.5 33q2 32 32 64l-1 1q-5 -5 -9 -8t-9 -8q-10 -9 -13 -6q-2 2 1 5.5t6 6.5q5 5 14 12.5t17 12.5z" />
    <glyph glyph-name="Scaron" unicode="&#x160;" horiz-adv-x="545" 
d="M383 216q42 17 79 33t77 32q27 42 56.5 74.5t59.5 53.5q16 11 32 17t30 7q12 1 24 -4.5t10 -22.5q-1 -12 -11.5 -26t-27 -28t-39 -27t-47.5 -23q-5 -2 -13 -5.5t-14 -5.5q-14 -26 -26.5 -51t-24.5 -48q-29 -56 -64.5 -96t-77 -66t-87 -39.5t-94.5 -16.5q-40 -2 -85 4.5
t-78 29.5q-28 -25 -49.5 -49t-30.5 -44q-5 -10 -8 -9q-2 1 -1.5 5.5t1.5 6.5q8 22 27.5 48t47.5 52q-16 14 -27.5 38t-9.5 56q3 37 25.5 65t54 47.5t66.5 30t63 12.5q20 2 43.5 0.5t46.5 -7.5t42 -17t30 -27zM605 305q4 2 9 3.5t9 3.5q21 9 41 20t36.5 23.5t27 25.5t12.5 25
q2 11 -5.5 15.5t-17.5 2.5q-21 -3 -46 -28q-14 -13 -32.5 -39t-33.5 -52zM249 70q-18 0 -38.5 5t-37.5 16q-16 -11 -30.5 -21t-29.5 -21q-9 -7 -17 -13t-16 -13q28 -27 71 -35t83 -5q80 7 140.5 58.5t114.5 151.5q11 20 22 38t22 35v1q-37 -15 -71.5 -30t-71.5 -32
q6 -14 6 -31q-1 -25 -15 -44.5t-35 -32.5t-47 -20t-50 -7zM247 80q21 0 42.5 6.5t40 18.5t30.5 29.5t13 38.5q0 13 -3 24q-16 -8 -32.5 -15.5t-34.5 -15.5q-25 -12 -57 -29.5t-65 -39.5q17 -9 34.5 -13t31.5 -4zM367 208q-9 17 -26 27.5t-37.5 16t-42.5 7t-40 -0.5
q-26 -2 -55.5 -11.5t-55 -26.5t-43 -43t-20.5 -61q-2 -26 4.5 -46.5t17.5 -33.5q13 13 31 26q14 11 27.5 20t30.5 20q-18 16 -21 38q-2 10 3 10q1 0 3 -8q3 -11 9.5 -19t14.5 -15q32 20 66.5 37.5t67.5 32.5l66 30v0zM735 484q-3 0 -6 6q-8 17 -17 35t-17 31q-4 7 -3 8
q3 2 12 -3q8 -5 19.5 -14t23.5 -22q25 13 55 24t48 17q3 1 6 1t4 -2q1 -3 -6 -7q-12 -7 -27 -16t-30.5 -19t-29 -19t-22.5 -16q-5 -4 -10 -4z" />
    <glyph glyph-name="scaron" unicode="&#x161;" horiz-adv-x="229" 
d="M189 277q-3 0 -5 7q-8 18 -17 35.5t-17 30.5q-4 5 -2 7t5.5 0.5t5.5 -3.5q8 -5 20 -16.5t23 -25.5q15 9 30.5 16.5t30 13.5t26.5 10.5t18 6.5q2 1 5 1t4 -2t-2 -3t-5 -3q-12 -7 -27 -16.5t-30.5 -19t-29 -18.5t-22.5 -16q-3 -2 -5 -3.5t-5 -1.5h-1zM119 21q8 3 20 8.5
t24 13.5q21 13 37 26t29 24q4 3 7.5 5.5t5.5 0.5q3 -3 -11 -16q-8 -7 -21 -18t-30 -22t-33 -19.5t-30 -14.5t-37.5 -12t-46.5 -6q-20 0 -32.5 5.5t-19 14t-8.5 19t0 21.5q3 22 18 37.5t33 14.5q11 -1 16 -7.5t3 -14.5q-3 -15 -22 -25q-7 -4 -14.5 -11.5t-8.5 -18.5
q-1 -12 7 -18.5t22 -6.5q15 0 32.5 12.5t34.5 41.5q7 11 13.5 26.5t12.5 30.5t11.5 27.5t9.5 17.5v1q-8 -8 -21.5 -18.5t-26.5 -19.5q-11 -8 -21.5 -14.5t-16.5 -9.5q-8 -4 -10 -1q-1 4 5 8q8 5 19 12t23 16q14 10 28 21.5t31 26.5q2 3 6.5 8t9.5 9q8 6 16 8.5t13 2.5
q17 0 11 -7.5t-16 -13.5q-7 -5 -13.5 -8t-10.5 -7q-6 -6 -6.5 -12.5t-0.5 -14.5q1 -21 0.5 -41t-9.5 -41q-5 -11 -14 -23t-18 -18z" />
    <glyph glyph-name="Ydieresis" unicode="&#x178;" horiz-adv-x="499" 
d="M421 148q-24 -25 -56 -52.5t-65.5 -51t-66 -38.5t-56.5 -15q-23 0 -35 11.5t-9 34.5q5 32 37 74t90 107q48 54 75.5 90t35.5 63q6 23 -9 31.5t-34 8.5q-38 0 -85 -22.5t-89 -64.5q-31 -30 -55.5 -65t-24.5 -65q0 -18 9 -29.5t27 -11.5q12 0 21.5 3t14.5 7q6 4 9.5 8
t5.5 2t-2.5 -7t-9.5 -9q-8 -5 -17.5 -9t-23.5 -4q-21 0 -34.5 13t-15.5 36q-2 33 18.5 74t58.5 75q23 21 49 35.5t52 24t50 14t42 4.5q35 0 58.5 -14t22.5 -43q-1 -33 -30 -73.5t-67 -83.5q-59 -66 -91 -106.5t-36 -65.5q-2 -12 2 -17.5t12 -6.5q9 -1 22 3.5t28 12.5
t30.5 18t29.5 20q46 34 82 69.5t65 70.5q27 33 48 57.5t39 45t34.5 38t35.5 37.5q18 17 38 30t36 11q15 -2 14.5 -16t-11.5 -29q-14 -18 -32.5 -34.5t-33.5 -28.5q-11 -9 -20.5 -16.5t-18.5 -15t-19 -17t-23 -21.5q-14 -19 -31 -42t-34.5 -47t-34.5 -47t-30 -42
q-29 -42 -49.5 -71t-37.5 -52q77 2 117 -31t31 -90q-2 -8 -5 -14.5t-6 -5.5q-2 1 -0.5 4.5t3.5 14.5q6 54 -32.5 85t-113.5 27q-11 -16 -22 -31t-23.5 -30.5t-27.5 -34t-34 -40.5q-30 -35 -62.5 -64.5t-64 -51t-60 -34t-49.5 -12.5q-7 0 -14.5 2t-14 6.5t-10.5 12.5t-3 21
q2 22 18 47t38.5 49t47 44.5t44.5 34.5q49 32 100 54t92 30q19 27 40 57.5t40.5 59t36.5 53t29 41.5zM566 278q14 11 26 21t25 21q20 16 35.5 31t22.5 23q27 34 13 39q-8 3 -21 -9t-27 -29q-19 -23 -36.5 -47t-37.5 -50zM269 -74q-38 -8 -85 -29t-93 -53q-19 -13 -41.5 -34
t-41.5 -44.5t-31.5 -47.5t-12.5 -42q0 -14 6.5 -19.5t14.5 -6.5q24 -3 62 20q26 16 61 51.5t67 77.5q18 24 43 58t51 69zM593 482q-3 5 -3.5 14t3.5 19q5 11 15 15t23 4q12 0 15.5 -7.5t-5.5 -18.5t-24 -18.5t-24 -7.5zM484 482q-9 11 -1 33q5 11 14.5 15t22.5 4
q12 0 15 -7.5t-5 -18.5q-9 -11 -24 -18.5t-22 -7.5z" />
    <glyph glyph-name="Zcaron" unicode="&#x17d;" horiz-adv-x="457" 
d="M433 324q-35 -19 -66 -29.5t-63 -10.5q-14 0 -29.5 2.5t-27.5 8.5t-19.5 17t-5.5 28q2 18 15.5 33t32.5 26t41.5 17.5t42.5 7.5q5 0 10 -0.5t5 -3.5q0 -2 -4 -2t-11 -1q-26 -2 -48.5 -19t-24.5 -44q-2 -21 11 -30t27 -11q23 -2 57 4.5t72 26.5q10 11 24.5 25.5t30.5 27.5
q13 11 25 16.5t22 3.5q6 -1 5.5 -7t-7.5 -14q-15 -17 -33.5 -29.5t-40.5 -24.5q-19 -19 -49.5 -46t-65.5 -56q-31 -26 -59 -48t-47 -35v-1h12q53 0 87.5 -27.5t36.5 -84.5q9 4 19 11t19.5 14t17.5 13.5t12 10.5q9 8 12 5q2 -2 -2.5 -7t-7.5 -8q-4 -4 -12 -10.5t-17.5 -13.5
t-20 -14t-19.5 -12q-2 -59 -41 -114.5t-98 -105.5q-43 -36 -92 -67.5t-97 -55t-92.5 -36.5t-77.5 -13q-59 2 -63 46q-2 27 17 53t50 50.5t69.5 46.5t74.5 40q43 22 81 39t73.5 32.5t69.5 31.5t69 37q2 11 3.5 25t0.5 28.5t-5 28t-12 22.5t-19.5 13.5t-23.5 7t-23 2.5t-19 -1
q-15 -11 -29.5 -21.5t-31.5 -21.5q-29 -19 -48 -25t-25 4q-5 9 11.5 24.5t45.5 28.5q37 16 72 22q19 14 46.5 35t57.5 47q25 20 52 44t47 44zM330 3q-33 -20 -68 -36.5t-70.5 -32.5t-72 -32.5t-73.5 -36.5q-35 -19 -72 -39.5t-67.5 -43t-49.5 -46.5t-17 -49
q2 -19 16.5 -27.5t34.5 -8.5q30 0 69 12.5t80.5 34.5t83 52.5t77.5 67.5q49 51 82 96.5t47 88.5zM215 140q-10 -2 -24 -6t-28 -11q-22 -10 -34.5 -20t-10.5 -15t15.5 1t33.5 19q30 19 48 32zM445 466q-3 0 -6 6q-8 17 -17 35t-17 31q-4 7 -3 8q3 2 12 -3q8 -5 19.5 -14
t23.5 -22q25 13 55 24t48 17q3 1 6 1t4 -2q1 -3 -6 -7q-12 -7 -27 -16t-30.5 -19t-29 -19t-22.5 -16q-5 -4 -10 -4z" />
    <glyph glyph-name="zcaron" unicode="&#x17e;" horiz-adv-x="244" 
d="M170 250q-3 0 -5 7q-8 18 -17 35.5t-17 30.5q-4 5 -2 7t5.5 0.5t5.5 -3.5q8 -5 20 -16.5t23 -25.5q15 9 30.5 16.5t30 13.5t26.5 10.5t18 6.5q2 1 5 1t4 -2t-2 -3t-5 -3q-12 -7 -27 -16.5t-30.5 -19t-29 -18.5t-22.5 -16q-3 -2 -5 -3.5t-5 -1.5h-1zM50 36q14 3 26 2
q15 -2 28.5 -9.5t19.5 -24.5q12 7 28.5 17.5t30.5 21.5q17 13 34 27t27 23q11 9 14 6t-13 -17q-9 -8 -24.5 -21t-31.5 -25q-17 -12 -33 -22.5t-30 -18.5q2 -6 2 -15q0 -27 -16.5 -59.5t-41 -65t-53 -62t-51.5 -49.5q-32 -28 -67.5 -55t-70.5 -48t-66 -33.5t-53 -12.5
q-24 0 -33 11t-9 24q0 37 44 82.5t111 96.5q59 44 109 75.5t86 53.5q21 13 40 24.5t36 22.5q2 20 -5.5 32t-21.5 12q-23 0 -41.5 -13t-30.5 -24q-2 -2 -5.5 -5t-6.5 0t-1.5 8t4.5 9q5 7 16.5 14.5t25.5 15.5q29 15 50.5 25t47.5 24q26 16 43.5 29t29.5 27q2 2 3.5 4.5
t0.5 4.5t-6 0q-19 -11 -45 -19t-45 -8q-37 0 -49 19q-13 -14 -27 -29t-26 -26q-5 -5 -7 -5.5t-4 1.5q-3 2 6 11q11 11 26.5 27t27.5 30q-1 6 1 14.5t9 16.5t16 11.5t17 3.5q6 0 11.5 -2.5t5.5 -7.5q-3 -2 -8.5 -5t-7.5 -11q-2 -6 3 -13t25 -7q21 0 42.5 4.5t38.5 12.5
q6 2 12 3t8 -2q4 -4 0 -12t-6 -11q-11 -14 -32 -32t-54 -36q-26 -14 -46 -22t-38 -18zM-286 -394q21 0 48 13.5t57 35.5t61 50t59 58q20 21 44 49t46.5 58t39.5 57.5t22 46.5q-16 -11 -34 -22t-35 -22q-36 -23 -87 -56t-107 -75q-59 -45 -96 -88t-41 -78q-1 -10 3 -18.5
t19 -8.5h1z" />
    <glyph glyph-name="florin" unicode="&#x192;" horiz-adv-x="281" 
d="M460 351q0 -4 -1.5 -7.5t-3.5 -3.5t-3 12q-2 9 -7 14.5t-11.5 8.5t-13 4t-10.5 1q-11 0 -23.5 -2t-27 -8.5t-32 -20t-37.5 -37.5q-20 -22 -43 -53.5t-43 -60.5q-8 -11 -14 -19.5t-8 -12.5q25 -1 52 -1t62 -1q3 0 7 -0.5t4 -3.5t-4 -3.5t-7 -0.5h-66.5t-54.5 -1
q-13 -17 -30.5 -41t-36.5 -47q-29 -35 -64 -67.5t-73 -56.5q-41 -26 -75.5 -36.5t-74.5 -10.5q-23 0 -38.5 8.5t-21.5 22.5q-6 11 0 13q2 0 6 -7q7 -12 23 -18.5t31 -6.5q32 0 66 11.5t73 42.5q29 23 59.5 59.5t59.5 74.5q7 8 19 25.5t23 32.5h-35q-5 0 -12 0.5t-7 5.5t6 6
t11 1h45q29 38 49.5 64.5t39.5 48.5q33 37 61.5 59t52.5 33.5t43.5 14.5t34.5 3q18 0 34 -9.5t16 -28.5v-1z" />
    <glyph glyph-name="circumflex" unicode="&#x2c6;" horiz-adv-x="307" 
d="M265 321q3 0 5 -7q8 -18 17 -35.5t17 -30.5q4 -5 2 -7t-5.5 -0.5t-5.5 3.5q-8 5 -20 16.5t-23 25.5q-15 -9 -30.5 -16.5t-30 -13.5t-26.5 -10.5t-18 -6.5q-2 -1 -5 -1t-4 2t2 3t5 3q12 7 27 16.5t30.5 19t29 18.5t22.5 16q3 2 5 3.5t5 1.5h1z" />
    <glyph glyph-name="tilde" unicode="&#x2dc;" horiz-adv-x="307" 
d="M268 251q-9 0 -16.5 4t-15 9t-15 9t-16.5 5q-14 2 -24 -6t-16 -16q-5 -7 -8 -6q-4 2 1 12q9 16 24 28.5t35 11.5q10 0 17.5 -4.5t14.5 -9.5t14 -9t16 -5q14 -1 24.5 8t15.5 16q4 6 8 5q2 -1 1.5 -4.5t-2.5 -6.5q-6 -12 -21 -26.5t-36 -14.5h-1z" />
    <glyph glyph-name="afii10023" unicode="&#x401;" horiz-adv-x="390" 
d="M225 263q0 15 6.5 30.5t15.5 28.5q-19 14 -31 33t-12 41q0 30 21 48t53 20q29 2 63.5 -12t58.5 -43q17 3 36.5 5t37.5 1q51 -2 77 -20.5t26 -42.5q0 -17 -12 -31.5t-33 -25.5t-48 -17.5t-57 -6.5q-39 0 -75 7t-65 21q-4 -5 -8 -13t-7 -17q-6 -18 -3 -32q8 2 23 3t26 0
q22 -1 39 -6.5t15 -18.5q-2 -11 -19 -15t-36 -4q-23 0 -46.5 7t-33.5 20q-20 -8 -45 -24t-46 -36q-24 -23 -40.5 -52t-18.5 -58q-2 -35 21.5 -54t60.5 -19q45 0 81.5 16t65.5 36q10 7 20.5 15t20 16.5t17.5 15.5t13 11q10 9 13 6q2 -2 0.5 -4.5t-9.5 -9.5q-5 -5 -13.5 -12.5
t-18.5 -16t-20.5 -16.5t-18.5 -14q-31 -22 -68.5 -38.5t-82.5 -18.5q-65 -3 -104 19t-39 70q0 27 14 54t41 50t65.5 41.5t85.5 29.5q-7 11 -7 33zM425 281q25 0 48 5t40.5 14t28.5 22t11 30q1 18 -15.5 35.5t-60.5 19.5q-34 0 -68 -12q10 -20 13 -44q3 -26 -2 -26
q-2 0 -2 4.5t-3 15.5q-3 12 -9 23.5t-13 20.5q-19 -9 -37.5 -22.5t-35.5 -28.5q-5 -4 -13.5 -13.5t-14.5 -17.5q27 -14 62 -20t71 -6zM381 405q-19 23 -48 37.5t-57 12.5q-26 -2 -44.5 -16.5t-18.5 -41.5q0 -19 11 -35.5t29 -31.5q4 5 10 11.5t11 10.5q42 36 107 53z
M271 230q3 -12 17.5 -18t29.5 -7q14 -1 25 2t11 11q0 7 -12 10t-24 4q-8 1 -22.5 0.5t-24.5 -2.5zM553 482q-3 5 -3.5 14t3.5 19q5 11 15 15t23 4q12 0 15.5 -7.5t-5.5 -18.5t-24 -18.5t-24 -7.5zM444 482q-9 11 -1 33q5 11 14.5 15t22.5 4q12 0 15 -7.5t-5 -18.5
q-9 -11 -24 -18.5t-22 -7.5z" />
    <glyph glyph-name="afii10053" unicode="&#x404;" horiz-adv-x="400" 
d="M257 219q22 -1 41 -1.5t33 -2.5q11 -1 19.5 -2t9.5 -4q2 -5 -6 -5h-13q-26 1 -43.5 1.5t-29.5 0.5l-107 1l-11 13zM125 126q-12 -32 -12 -61q0 -45 24 -63.5t61 -18.5q35 0 73.5 15t67.5 35q16 12 33 27t28 26q7 8 11 7q3 -2 0 -6.5l-5 -7.5q-8 -9 -26 -27t-34 -29
q-31 -23 -68.5 -38.5t-81.5 -17.5q-31 -1 -59 4t-49.5 18t-34 33t-12.5 49q0 7 1.5 18t3.5 22.5t4 21.5t4 13q1 3 6 12t10.5 19t11 19t8.5 13q18 26 48 56.5t64 56.5q24 19 55.5 38t65.5 34t69.5 24.5t68.5 9.5q48 0 79 -21.5t34 -57.5q3 -26 -6 -44t-23 -18
q-12 0 -16.5 9.5t-1.5 25.5q3 13 8 22t5 19q0 23 -21 38.5t-56 15.5q-31 0 -62.5 -11.5t-61 -29t-56 -39t-47.5 -42.5q-11 -10 -23 -25t-23 -30.5t-20 -29.5t-15 -23q-2 -4 -6.5 -12.5t-9 -18t-9 -18t-5.5 -12.5z" />
    <glyph glyph-name="uni0406" unicode="&#x406;" horiz-adv-x="440" 
d="M613 413q-17 -5 -38.5 -9.5t-44.5 -10.5q-47 -12 -83 -25t-64 -30q-11 -6 -22.5 -15.5t-21 -20t-15.5 -22.5t-6 -23q0 -13 8 -19.5t19 -6.5q8 0 15 2.5t12 6.5q9 6 10 5q2 -3 -5 -10q-5 -5 -15 -9.5t-21 -4.5q-23 0 -35 12.5t-12 29.5q0 29 24.5 52.5t62.5 40.5
q30 15 70 27t77 20q29 7 52.5 11.5t39.5 11.5q5 2 10 4.5t10 1.5q6 -2 4.5 -8t-6.5 -8q-24 -11 -48.5 -37t-44.5 -55q-9 -14 -20.5 -31t-23.5 -35t-24 -35t-22 -31q-85 -109 -170.5 -159.5t-180.5 -50.5q-22 0 -44 4t-39 13.5t-28 24.5t-11 36q0 20 14.5 40t41.5 20
q16 0 26 -9.5t8 -25.5t-19 -30l-12.5 -12.5t-6.5 -17.5q0 -14 18.5 -23.5t48.5 -9.5q40 0 78.5 15t75 41.5t72 63.5t70.5 81q12 15 25.5 32.5t27 34.5t26.5 33t23 28q12 14 26.5 28t29.5 26.5t30 22t28 15.5z" />
    <glyph glyph-name="afii10056" unicode="&#x407;" horiz-adv-x="440" 
d="M613 413q-17 -5 -38.5 -9.5t-44.5 -10.5q-47 -12 -83 -25t-64 -30q-11 -6 -22.5 -15.5t-21 -20t-15.5 -22.5t-6 -23q0 -13 8 -19.5t19 -6.5q8 0 15 2.5t12 6.5q9 6 10 5q2 -3 -5 -10q-5 -5 -15 -9.5t-21 -4.5q-23 0 -35 12.5t-12 29.5q0 29 24.5 52.5t62.5 40.5
q30 15 70 27t77 20q29 7 52.5 11.5t39.5 11.5q5 2 10 4.5t10 1.5q6 -2 4.5 -8t-6.5 -8q-24 -11 -48.5 -37t-44.5 -55q-9 -14 -20.5 -31t-23.5 -35t-24 -35t-22 -31q-85 -109 -170.5 -159.5t-180.5 -50.5q-22 0 -44 4t-39 13.5t-28 24.5t-11 36q0 20 14.5 40t41.5 20
q16 0 26 -9.5t8 -25.5t-19 -30l-12.5 -12.5t-6.5 -17.5q0 -14 18.5 -23.5t48.5 -9.5q40 0 78.5 15t75 41.5t72 63.5t70.5 81q12 15 25.5 32.5t27 34.5t26.5 33t23 28q12 14 26.5 28t29.5 26.5t30 22t28 15.5zM665 482q-3 5 -3.5 14t3.5 19q5 11 15 15t23 4q12 0 15.5 -7.5
t-5.5 -18.5t-24 -18.5t-24 -7.5zM556 482q-9 11 -1 33q5 11 14.5 15t22.5 4q12 0 15 -7.5t-5 -18.5q-9 -11 -24 -18.5t-22 -7.5z" />
    <glyph glyph-name="afii10057" unicode="&#x408;" horiz-adv-x="335" 
d="M161 -21q26 10 54 26t67 44q13 10 25 19.5t26 22.5q13 12 16 9t-13 -18q-13 -11 -27.5 -23t-28.5 -23q-7 -6 -17 -12.5l-20 -13t-19 -11.5t-14 -8q-20 -11 -33.5 -17.5t-26.5 -11.5q-13 -16 -32 -39.5t-39 -43.5q-51 -54 -110 -101t-114 -74q-26 -13 -50.5 -20t-44.5 -7
q-7 0 -16.5 1.5t-18.5 6t-15 12.5t-6 22q0 32 45 69.5t126 76.5q43 21 93.5 42.5t113.5 44.5q51 69 100.5 130t91.5 108q23 26 64 64.5t90 77.5q25 20 47.5 35t36.5 25q11 8 11 9q0 5 -10 5q-40 1 -94.5 -12.5t-117.5 -46.5q-34 -18 -63.5 -40t-51 -46t-34 -48t-12.5 -46
q0 -17 7 -28.5t21 -15.5q11 -3 14 -1t4 -1q1 -2 -4.5 -4.5t-13.5 -1.5q-23 2 -37 19.5t-14 44.5q0 21 9.5 45.5t30.5 50.5t55 51.5t83 46.5q19 8 45.5 16.5t56.5 14.5t61 9.5t59 1.5q7 -1 15.5 -3.5t6.5 -11.5q-1 -3 -6 -7.5t-12 -9.5q-11 -8 -27 -23t-33 -31
q-33 -32 -62.5 -64.5t-61.5 -70.5q-24 -29 -50.5 -60.5t-50.5 -61t-44 -54.5t-31 -39zM73 -63q-24 -9 -51 -19.5t-53.5 -21.5t-50.5 -22t-42 -20q-74 -38 -110 -73t-33 -63q2 -13 11.5 -18.5t21.5 -6.5q19 -2 41.5 4t42.5 16q45 23 87.5 65t87.5 96q10 12 23.5 30.5
t24.5 32.5z" />
    <glyph glyph-name="afii10062" unicode="&#x40e;" horiz-adv-x="499" 
d="M421 149q-24 -25 -55.5 -53t-65.5 -51t-66.5 -38.5t-56.5 -15.5q-23 0 -35 11.5t-9 34.5q5 32 37 74t90 107q48 54 75.5 90t35.5 63q6 23 -9 31.5t-34 8.5q-38 0 -85 -22.5t-89 -64.5q-31 -30 -55.5 -65t-24.5 -65q0 -18 9 -29.5t27 -11.5q12 -1 21.5 2.5t14.5 7.5
q8 4 10.5 8t4.5 2t-2.5 -7t-9.5 -9q-8 -5 -18 -9.5t-24 -3.5q-21 1 -34 13.5t-15 35.5q-2 33 18.5 74t58.5 75q23 21 49 35.5t52 24t50 14t42 4.5q35 0 58.5 -14t22.5 -43q-1 -33 -30 -73.5t-67 -83.5q-59 -66 -91 -106.5t-36 -65.5q-2 -12 2.5 -17t11.5 -7q9 -1 22 3.5
t28 12.5t30.5 18t29.5 20q46 34 82 69.5t65 70.5q27 33 48 57.5t39 45t34.5 38.5t35.5 37q18 17 38 30t36 11q15 -2 14.5 -15.5t-11.5 -29.5q-14 -18 -32.5 -34.5t-33.5 -28.5q-11 -9 -20.5 -16.5t-18.5 -15t-19 -17t-23 -21.5q-14 -19 -31 -42t-34.5 -47t-34 -47t-30.5 -42
q-29 -42 -49.5 -71t-37.5 -52q77 2 116.5 -31t31.5 -90q-1 -8 -4.5 -14.5t-6.5 -5.5q-2 1 -0.5 4.5t3.5 14.5q6 54 -32.5 85t-113.5 27q-11 -16 -22 -31t-23.5 -30.5t-27.5 -34t-34 -40.5q-30 -35 -62.5 -64.5t-64 -51t-60 -34t-49.5 -12.5q-7 0 -14.5 2t-14 6.5t-10.5 12.5
t-3 21q2 22 18 47t38.5 49t47.5 44.5t44 34.5q49 32 100 54t92 30q19 27 40 57.5t40.5 59t36.5 53.5t29 41v1zM566 277q14 12 26 22t25 21q20 15 35.5 30.5t22.5 23.5q26 34 13 39q-8 3 -21 -9t-27 -29q-19 -23 -36.5 -47t-37.5 -50v-1zM269 -73q-38 -9 -85 -30t-93 -53
q-19 -13 -41.5 -34t-42 -44.5t-32 -47.5t-11.5 -42q0 -14 6.5 -19t14.5 -7q24 -3 62 20q26 16 61 51.5t67 77.5q18 24 43 58t51 69v1zM698 558q-1 -22 -51 -46q-48 -24 -76 -24q-14 0 -30 8.5t-18 19.5q-3 15 -2 24t5 14t9 7t8 2q24 0 24 -17t-26 -31q7 -15 32 -15
q26 0 75 29l48 30q1 0 2 -1z" />
    <glyph glyph-name="afii10017" unicode="&#x410;" horiz-adv-x="687" 
d="M21 57q0 26 16 43t36 18q17 2 27 -7.5t10 -23.5q-1 -11 -6.5 -18t-16.5 -15q-8 -5 -13.5 -11t-4.5 -14q0 -16 24.5 -26.5t73.5 -6.5q29 3 57.5 11.5t55 20.5t50.5 26.5t45 28.5q-7 6 -16.5 17.5t-18 26.5t-14.5 32.5t-6 36.5q1 45 33 75.5t86 29.5q20 -1 37 -8.5
t30.5 -18t23 -23t13.5 -22.5q11 11 22 21.5t20 18.5q40 36 78.5 67.5t76.5 51.5q29 16 60 27t60 11q14 0 22.5 -3.5t12.5 -6.5q5 -4 7 -8t0 -6q-1 0 -11 7q-3 2 -10 4t-12 2q-8 0 -17 -3t-15 -8q-8 -7 -18.5 -18t-21.5 -23.5t-21.5 -26.5l-19.5 -26q-47 -65 -95.5 -138.5
t-91.5 -143.5q26 2 57 17q16 8 31 21t25 22q5 5 10 9t7 2q3 -3 -11 -17q-11 -10 -25.5 -22.5t-33.5 -22.5q-16 -8 -33.5 -13t-31.5 -6q-11 -11 -19.5 -17t-19.5 -8t-16.5 -1t-7.5 3.5t-1 6t2 5.5q2 5 4 8.5t4 6.5q-14 2 -34 7.5t-32 10.5q-16 6 -32.5 16t-26.5 19
q-14 -10 -37 -24.5t-52.5 -29t-63 -25t-68.5 -13.5q-29 -2 -55 1.5t-45.5 12.5t-31 23.5t-11.5 35.5v1zM559 99q8 14 23 36t32 46.5t34.5 48.5t30.5 41q46 60 86 94t75 51v1q-17 -2 -43 -11.5t-52 -23.5q-35 -20 -70 -48t-64 -54q-16 -15 -32 -31t-31 -30q4 -8 7.5 -25.5
t5.5 -38.5q2 -28 -3 -56h1zM439 286q-19 0 -34 -8t-25.5 -20.5t-16 -29t-6.5 -34.5q-1 -31 11 -59t22 -40q15 13 34 28.5t39 33.5q36 31 71 65q-15 28 -39 46t-55 18h-1zM397 85q8 -9 23 -18t29 -16q12 -5 31.5 -11t33.5 -8l7.5 12.5t9 14.5t8.5 12.5t5 8.5q5 11 6.5 31
t-0.5 43q-2 16 -4.5 31t-7.5 26q-18 -17 -35 -33t-34 -30q-20 -18 -37.5 -33t-34.5 -29v-1z" />
    <glyph glyph-name="afii10018" unicode="&#x411;" horiz-adv-x="705" 
d="M461 -9q-13 0 -26.5 7t-18 16.5t4 21t40.5 21.5q15 5 45 3t63 -3q6 0 12 -1q20 21 35 47q19 31 24 65q4 20 -1.5 33.5t-15 21.5t-21 11t-18.5 2q-14 0 -29.5 -4.5t-29.5 -10.5t-26 -13h-1q-13 -17 -28 -36l-9 -11q-5 -6 -11 -12.5t-12 -14.5q-63 -69 -137 -110.5
t-161 -41.5q-22 0 -43 3.5t-37.5 11.5t-27.5 21.5t-12 33.5q-1 19 12 34.5t36 15.5q13 0 22.5 -9.5t7.5 -21.5q-3 -15 -15 -25q-13 -13 -13 -23q0 -8 6.5 -14t16.5 -10t22 -6t23 -2q57 0 108.5 26t91.5 71q19 20 32 37.5t27 36.5l9 10q11 14 23 29t28 33q38 41 77 75.5
t68 49.5q-21 4 -41 8l-45 11q-15 3 -35.5 7t-43.5 7.5t-46 6t-43 2.5h-1q-36 0 -68 -6t-57.5 -19t-43.5 -33.5t-25 -48.5q-3 -14 -2 -29.5t8.5 -31t21.5 -29.5t38 -24q10 -4 13 -6t-7 -2q-5 0 -12 3q-45 16 -64 51t-14 75q8 57 65 94t152 37q32 0 77 -8.5t93 -21.5
q25 -7 50 -12.5t57 -13.5q25 12 61.5 21t74.5 9q32 0 55.5 -8t20.5 -25q-2 -14 -20.5 -22t-49.5 -8q-38 0 -69.5 2.5t-67.5 8.5q-9 -6 -20 -15.5t-23 -20.5t-23 -22.5t-19 -21.5q-23 -28 -40 -51l6 2q18 9 36 13.5t34.5 5.5t28.5 -2q44 -9 62.5 -34.5t12.5 -59.5
q-5 -35 -28 -64q-11 -13 -24 -25q31 4 52 21q3 2 13 9t13 5q4 -2 -6.5 -12t-21.5 -17q-26 -15 -63 -17q-9 -7 -18 -13q-32 -21 -70 -32.5t-74 -11.5h-1zM764 396q-30 0 -58 -7t-50 -19q35 -9 67.5 -13t52.5 -4q21 0 36.5 5t16.5 16t-17 16.5t-47 5.5h-1zM517 11q29 13 53 35
h-25q-38 1 -71.5 -2t-49.5 -21q-2 -13 11 -18.5t27 -5.5q26 -1 55 12z" />
    <glyph glyph-name="afii10019" unicode="&#x412;" horiz-adv-x="640" 
d="M400 -9q-14 0 -28 2.5t-25.5 8t-19 15t-7.5 23.5q0 24 19.5 40t42.5 16q13 0 22 -6t9 -18t-8.5 -18.5t-17.5 -10.5q-8 -3 -15 -7.5t-9 -12.5q-2 -13 11 -18.5t27 -5.5q24 0 49 12.5t45.5 33.5t34.5 48.5t15 58.5q1 18 -5 30.5t-15.5 20t-20 10.5t-17.5 2
q-9 -2 -13.5 -2.5t-12.5 -0.5q-10 -1 -19 1t-8 7q2 5 10.5 7t16.5 1q10 0 16.5 -1t13.5 -2q32 5 61.5 30.5t37.5 60.5q13 50 -22 71q-6 -6 -12 -11.5t-11 -11.5q-28 -28 -56.5 -65t-67.5 -89q-34 -47 -72 -88.5t-77.5 -73t-81.5 -50t-86 -18.5q-47 0 -76.5 17t-29.5 59
q0 44 38 104t127 125q43 31 89 54t92.5 38t91 22.5t83.5 7.5q21 0 39 -3q26 19 50.5 32.5t45.5 21.5q22 9 47.5 15t51.5 6q24 0 44 -7t28 -20q4 -7 0 -9q-3 -1 -4 1t-3 4q-8 10 -24.5 16.5t-39.5 6.5q-22 0 -46.5 -5.5t-47.5 -16.5q-36 -16 -79 -51q28 -11 44.5 -31
t10.5 -51q-3 -21 -16.5 -37t-32 -28t-39.5 -19.5t-39 -10.5v-1q46 -8 68 -31.5t20 -54.5q-1 -31 -18 -57.5t-44 -45.5t-61.5 -29.5t-72.5 -10.5h-1zM38 54q0 -29 16 -47t49 -18q35 0 64.5 16t57 42.5t54.5 61.5t56 73q49 64 99.5 114.5t85.5 79.5q6 5 12.5 9.5t12.5 9.5
q-13 3 -32 3q-36 0 -77.5 -7.5t-85 -22.5t-87 -37.5t-83.5 -52.5q-41 -31 -68 -62.5t-43.5 -61t-23.5 -54.5t-7 -45v-1z" />
    <glyph glyph-name="afii10020" unicode="&#x413;" horiz-adv-x="546" 
d="M347 401q-35 0 -67.5 -6t-58 -19t-43.5 -33.5t-25 -48.5q-3 -14 -2 -29.5t8.5 -31t21.5 -29.5t38 -24q8 -3 11 -3.5t2 -2.5t-7 -2q-5 0 -12 3q-45 16 -64 51t-14 75q4 28 20.5 52t44.5 41.5t66.5 27.5t85.5 10q32 0 77.5 -8.5t92.5 -21.5q25 -7 50.5 -14t51.5 -14
q20 11 50 19.5t60 8.5q26 0 45 -7.5t17 -23.5q-2 -13 -17 -20.5t-40 -7.5q-31 0 -56.5 2.5t-54.5 7.5q-7 -5 -17.5 -14.5t-21.5 -20.5t-21.5 -22.5t-18.5 -21.5q-23 -29 -40.5 -52.5t-38.5 -49.5l-9 -11q-5 -6 -11 -12.5t-12 -14.5q-63 -68 -137.5 -110t-160.5 -42
q-21 0 -42.5 3.5t-38.5 11.5t-27.5 21.5t-11.5 33.5q-1 19 12 34.5t36 15.5q13 0 22.5 -9.5t7.5 -21.5q-3 -14 -15 -25q-13 -13 -13 -23q0 -8 6.5 -14t16.5 -10t21.5 -6t23.5 -2q56 0 108 26.5t92 70.5q19 20 32 37.5t27 36.5l9 10q11 14 23 29t28 33q19 20 39.5 39.5t40 36
t36.5 29t29 19.5q-17 4 -38.5 9t-47.5 11q-15 3 -35.5 7t-43.5 7.5t-46 6t-43 2.5h-1zM733 393q-24 0 -47 -7t-40 -18q28 -8 54.5 -12t42.5 -4q17 0 29.5 5t13.5 15t-13.5 15.5t-38.5 5.5h-1z" />
    <glyph glyph-name="afii10021" unicode="&#x414;" horiz-adv-x="673" 
d="M356 273q0 21 -12 33t-32 13t-37.5 -7.5t-27.5 -18.5q-9 -10 -12.5 -15.5t-5.5 -4.5t1 7.5t11 15.5q9 11 28.5 22.5t45.5 9.5q23 -1 39.5 -15.5t16.5 -41.5q0 -28 -16 -56.5t-44 -51.5q-29 -24 -68.5 -38.5t-85.5 -12.5q-55 3 -86 27t-30 71q1 45 31 84t79 67.5
t110.5 44.5t125.5 16q62 0 122.5 -16t99.5 -51q9 6 27.5 16.5t37.5 18.5q19 7 44.5 13.5t53.5 6.5q20 0 34 -5t22 -10q5 -4 8 -8.5t1 -6.5q-2 -1 -4 2t-10 8q-6 4 -19 7.5t-32 3.5q-24 0 -48 -6t-45 -15q-20 -9 -36.5 -19.5t-23.5 -16.5q23 -25 34 -54t11.5 -60t-8 -61
t-26.5 -56q-21 -31 -53 -54t-70 -38t-78.5 -22t-78.5 -7q-39 0 -78 1.5t-59 3.5q-21 -2 -49.5 -4t-49.5 -2h-63t-50 1.5t-33 5.5t-12 11q2 14 43 17.5t102 1.5q27 -1 65 -5.5t69 -9.5q31 9 56.5 27.5t48.5 42t44.5 51t44.5 54.5q18 21 39.5 44t43 44t43 39t39.5 30
q-17 17 -41 30t-52 21.5t-57.5 12.5t-56.5 4q-59 0 -113.5 -17t-96.5 -46t-67.5 -67.5t-26.5 -80.5q0 -33 18.5 -55.5t56.5 -24.5q42 -3 78 12.5t63 39.5q26 24 41.5 50.5t15.5 47.5v1zM250 10q5 -1 15.5 -2t22.5 -2.5t24.5 -2.5t21.5 -1q77 0 141.5 33t112.5 99
q18 25 28 52t12.5 54t-3 51t-20.5 43q-13 -12 -27.5 -31t-30.5 -41t-32 -45.5t-33 -44.5q-29 -35 -57 -61t-56 -45t-57.5 -32t-61.5 -23v-1z" />
    <glyph glyph-name="afii10022" unicode="&#x415;" horiz-adv-x="387" 
d="M225 264q0 14 6 29t15 28q-19 14 -31 33.5t-12 41.5q0 30 21.5 48t53.5 20q29 2 63.5 -12t58.5 -43q19 3 37.5 5t36.5 1q51 -2 77 -20.5t26 -42.5q0 -17 -12 -31.5t-33 -25.5t-48 -17.5t-57 -6.5q-39 0 -75 6.5t-65 20.5q-4 -5 -8.5 -13t-6.5 -16q-6 -17 -3 -32q8 2 23 3
t26 0q22 -1 38.5 -6.5t15.5 -18.5q0 -11 -18 -15t-37 -4q-23 0 -46.5 7t-33.5 20q-20 -8 -45 -24t-46 -36q-24 -23 -40.5 -52t-18.5 -58q-2 -35 21.5 -54t60.5 -19q45 0 80.5 16t65.5 35q17 12 35.5 27.5t25.5 23.5l5 5t6 1q2 -2 0.5 -5.5t-4.5 -5.5q-4 -4 -11.5 -11
t-16.5 -15t-18.5 -15.5t-17.5 -12.5q-31 -22 -68.5 -38.5t-82.5 -18.5q-65 -2 -103.5 19.5t-38.5 69.5q0 27 14.5 54t41.5 50.5t65.5 42t85.5 29.5q-8 13 -8 32v1zM426 281q24 0 47 5t40.5 14t28.5 22t11 30q2 18 -15 35.5t-61 19.5q-33 0 -68 -12q10 -20 13 -44
q2 -13 1 -20t-3 -6t-1.5 4.5t-3.5 15.5q-3 12 -9 23t-13 21q-14 -7 -35 -21t-38 -30q-15 -14 -28 -31q27 -14 62 -20t71 -6h1zM381 405q-20 23 -48.5 37.5t-56.5 12.5q-26 -2 -44 -16.5t-18 -41.5q0 -19 10.5 -35.5t28.5 -31.5q9 12 18 20q21 19 50.5 33t58.5 22h1zM272 229
q3 -10 17 -16t29 -7q14 -1 24.5 2t11.5 10q0 7 -12.5 10t-23.5 4h-22t-24 -2v-1z" />
    <glyph glyph-name="afii10024" unicode="&#x416;" horiz-adv-x="777" 
d="M769 313q15 14 38 32t50 33.5t56.5 26.5t57.5 11q22 0 35 -12t8 -32q-4 -18 -18.5 -32.5t-32 -25t-35 -16.5t-28.5 -8q-5 -2 -9.5 -1.5t-5.5 2.5q0 1 15 6q27 8 52.5 27.5t30.5 47.5q3 12 -3.5 22t-19.5 11q-26 1 -57.5 -15.5t-64 -44t-64.5 -62.5t-60 -71
q-37 -48 -63 -91t-33 -73q-8 -41 24 -41q16 0 37 10.5t43 25.5q10 8 27 21.5t28 23.5q3 3 6.5 5.5t5.5 0.5t-1.5 -6t-5.5 -6q-4 -4 -11.5 -10.5t-15.5 -13.5t-15.5 -13l-12.5 -10t-15 -11t-23.5 -14t-29.5 -12.5t-32 -6.5q-36 -1 -49 14.5t-9 43.5q5 37 33 78.5t61 78.5
q-62 -47 -120.5 -94.5t-105.5 -86.5l-16 -12t-15 -2q-4 4 -0.5 10.5t10.5 14.5q27 34 48.5 65.5t44.5 73.5q24 42 39.5 73t31.5 51h-1q-45 -45 -111 -90t-131 -83q-5 -5 -9.5 -8.5t-9.5 -8.5q-23 -22 -53.5 -44t-64 -39.5t-69.5 -28.5t-71 -11q-36 0 -65 13.5t-32 48.5
q-2 24 14 46t47 22q15 0 25 -8.5t8 -20.5q-2 -11 -7 -17t-13 -14q-8 -7 -14.5 -13.5t-7.5 -17.5q-1 -17 14 -23.5t34 -6.5q42 0 82 18.5t76.5 47t69 63t58.5 67.5q19 24 36.5 49.5t32 49.5t24.5 44t13 32q6 26 -7.5 35.5t-31.5 9.5q-38 0 -85 -22.5t-89 -64.5
q-31 -31 -55.5 -65.5t-24.5 -64.5q0 -18 9 -29.5t27 -11.5q13 -1 21.5 2.5t14.5 7.5q7 4 9.5 8t4.5 2q3 -2 -1.5 -7.5t-9.5 -8.5q-8 -5 -18.5 -9.5t-23.5 -3.5q-46 1 -49 49q-1 35 18.5 75.5t58.5 73.5q24 21 50 35.5t51.5 24t49 14t42.5 4.5q54 0 72 -31t-5 -78
q-26 -50 -56.5 -88.5t-66.5 -74.5q134 78 238 180q7 5 15 13t16 14t23 15.5t25 10.5q18 0 4 -12q-11 -9 -22 -21t-21 -27q-14 -20 -29.5 -48t-32.5 -59q-26 -51 -46 -82t-37 -49l1 -1q46 39 99.5 82.5t106.5 81.5q26 26 45.5 44t23.5 23z" />
    <glyph glyph-name="afii10025" unicode="&#x417;" horiz-adv-x="456" 
d="M433 325q-35 -20 -66 -30.5t-63 -10.5q-14 0 -29.5 2.5t-27.5 8.5t-19 17t-6 28q2 18 15.5 33.5t32.5 26.5t41.5 17.5t42.5 7.5q3 0 9.5 -1t5.5 -4q0 -2 -4 -2t-11 -1q-26 -2 -48.5 -19t-24.5 -44q-2 -21 11 -30t27 -11q23 -2 57 4.5t72 26.5q10 11 24.5 25.5t30.5 27.5
q7 5 22 13.5t25 6.5q5 -2 5.5 -7.5t-7.5 -13.5q-15 -17 -33.5 -29.5t-40.5 -24.5q-19 -19 -49.5 -46t-65.5 -56q-31 -26 -59 -48t-47 -35v-1h20q23 -1 43.5 -7.5t36.5 -20t25.5 -34t10.5 -49.5q23 14 41 27t27 21q10 9 13 6q2 -2 -1.5 -6t-6.5 -7q-4 -4 -12.5 -11
t-18.5 -14.5t-21 -14.5t-20 -12q-2 -59 -41 -115t-98 -106q-43 -36 -92 -67.5t-97 -55t-92.5 -36.5t-77.5 -13q-29 1 -46 12t-17 34q0 27 19.5 53.5t50 50.5t68 46t73.5 40q43 22 81 39t73.5 32.5t69.5 31.5t69 37q2 11 3.5 25t0.5 28.5t-5 28t-12 22.5q-16 17 -42.5 21
t-42.5 1q-15 -11 -29.5 -21.5t-31.5 -21.5q-29 -19 -48 -25t-25 4q-5 9 11.5 24.5t45.5 28.5q37 16 72 22q19 14 46.5 35t57.5 47q25 20 52 44t47 44v1zM330 4q-33 -20 -68 -36.5t-70.5 -33t-72 -33t-73.5 -36.5q-35 -19 -71.5 -39.5t-66.5 -43t-49 -46.5t-19 -49
q0 -19 15.5 -27.5t35.5 -8.5q30 0 69 12.5t80.5 34.5t83 52.5t77.5 67.5q49 51 82 96.5t47 88.5v1zM215 141q-10 -2 -24 -6.5t-28 -11.5q-22 -10 -34.5 -20t-10.5 -15t15.5 1t33.5 19q30 19 48 32v1z" />
    <glyph glyph-name="afii10026" unicode="&#x418;" horiz-adv-x="552" 
d="M406 134q-20 -20 -49 -45t-61 -46.5t-63.5 -36.5t-55.5 -15q-23 0 -35 11.5t-9 34.5q5 32 37 74t90 107q48 54 75.5 90t35.5 63q6 23 -9 31.5t-34 8.5q-38 0 -85 -22.5t-89 -64.5q-31 -30 -55.5 -65t-24.5 -65q0 -18 9 -29.5t27 -11.5q13 -1 22 2.5t14 7.5q8 5 10.5 8.5
t4.5 1.5t-2.5 -7t-9.5 -9q-8 -5 -17.5 -9t-23.5 -4q-45 2 -50 49q-2 34 18.5 74t58.5 75q23 21 49 36t52 24t50 13.5t42 4.5q35 0 58.5 -14t22.5 -43q-1 -33 -30 -73.5t-67 -83.5q-59 -66 -91 -106.5t-36 -65.5q-2 -12 2.5 -17t11.5 -7q9 -1 22 3.5t28 12.5t30.5 18t29.5 20
q23 17 41.5 32.5t35.5 31.5t34 34.5t36 41.5q11 12 30 33t43 45.5t52.5 50.5t57.5 49q6 5 16.5 12t22.5 14t23 11.5t19 3.5q14 -2 11 -15.5t-17 -29.5q-17 -18 -37.5 -34.5t-37.5 -28.5l-22 -16.5t-20.5 -15t-22 -17t-26.5 -21.5q-6 -7 -14.5 -17.5t-17.5 -21.5
q-19 -25 -38 -50.5t-34.5 -49.5t-25.5 -44t-10 -34q0 -9 7 -13t13 -4q12 0 29.5 9t34.5 22q11 8 27.5 22t27.5 24q4 3 8 5.5t6 0.5t-2 -6.5t-6 -6.5q-10 -9 -27 -24t-28 -23q-5 -4 -14 -10.5t-20.5 -13t-25 -11.5t-28.5 -5q-22 0 -34.5 11t-12.5 33t13.5 47t30.5 49h-1z
M574 276q14 12 29.5 22.5t29.5 21.5q23 15 40.5 30.5t25.5 23.5q31 34 19 39q-8 3 -23 -9t-31 -29q-22 -23 -44.5 -47.5t-45.5 -50.5v-1z" />
    <glyph glyph-name="afii10027" unicode="&#x419;" horiz-adv-x="552" 
d="M407 134q-17 -24 -30.5 -49t-13.5 -47t12.5 -33t34.5 -11q15 0 28.5 5t25 11.5t20.5 13t14 10.5q6 4 13.5 10t15 13t14.5 13t12 11q2 2 6 6.5t2 6.5t-6 -0.5t-8 -5.5q-11 -10 -27.5 -24t-27.5 -22q-17 -13 -34.5 -22t-29.5 -9q-6 0 -13 4t-7 13q0 13 10 33.5t25.5 44.5
t34.5 49.5t38 50.5q9 11 17.5 21.5t14.5 17.5q30 24 48.5 38t42.5 32q17 12 37.5 28.5t37.5 34.5q14 16 17 29.5t-11 15.5q-8 1 -19 -3.5t-23 -11.5t-22.5 -14t-16.5 -12q-29 -23 -57 -49t-52.5 -50.5t-43.5 -45.5t-30 -33q-19 -23 -36 -41.5t-34 -35t-35.5 -31.5t-41.5 -32
q-14 -10 -29.5 -20t-30.5 -18t-28 -12.5t-22 -3.5q-7 2 -11.5 7t-2.5 17q4 25 35.5 65.5t91.5 106.5q19 21 36.5 42t31 41t21.5 38.5t8 35.5q1 29 -22.5 43t-58.5 14q-18 0 -42 -4.5t-50 -13.5t-52 -24t-49 -36q-38 -35 -58.5 -75t-18.5 -74q5 -47 50 -49q14 0 23.5 4
t17.5 9q14 11 12.5 15.5t-15.5 -9.5q-5 -4 -14 -7.5t-22 -2.5q-18 0 -27 11.5t-9 29.5q0 30 24.5 65t55.5 65q42 42 89 64.5t85 22.5q19 0 34 -8.5t9 -31.5q-8 -27 -35.5 -63t-75.5 -90q-58 -65 -90 -107t-37 -74q-3 -23 9 -34.5t35 -11.5q24 0 55.5 15t63.5 36.5t61 46.5
t49 45h1zM574 277q23 26 45.5 50.5t44.5 47.5q16 17 31 29t23 9q12 -5 -19 -39q-8 -8 -25.5 -23.5t-40.5 -30.5q-14 -11 -29.5 -21.5t-29.5 -22.5v1zM698 558q-1 -22 -51 -46q-48 -24 -76 -24q-14 0 -30 8.5t-18 19.5q-3 15 -2 24t5 14t9 7t8 2q24 0 24 -17t-26 -31
q7 -15 32 -15q26 0 75 29l48 30q1 0 2 -1z" />
    <glyph glyph-name="afii10028" unicode="&#x41a;" horiz-adv-x="605" 
d="M834 366q0 -17 -11 -31.5t-29 -25t-40 -16t-44 -3.5q-11 1 -20.5 4t-15.5 6q-4 3 -3 6q1 1 6 -1q6 -2 14 -4t18 -3q20 -2 40.5 2.5t37.5 14t27.5 23t10.5 29.5q0 20 -14.5 31t-34.5 11q-22 0 -40.5 -9.5t-35 -24.5t-32 -35t-32.5 -41q-35 -45 -75.5 -71t-75.5 -37v-1
q8 -5 15.5 -14.5t9.5 -20.5q7 -28 -16 -62q-14 -22 -25 -38t-11 -32q0 -6 4 -11.5t14 -5.5q12 0 32.5 11.5t45.5 31.5q16 13 26.5 21.5t19.5 17.5q3 2 6.5 5t5.5 1t-2 -7t-6 -7q-19 -19 -53 -46q-9 -7 -20 -15t-23.5 -14.5t-25.5 -10.5t-25 -4q-23 0 -35 11t-13 28
q0 20 12 40.5t23 37.5q12 17 24 32t12 28q0 11 -7 20q-6 -3 -14.5 -4.5t-15.5 -1.5q-9 0 -19 3t-9 11q2 8 12 11t20 2q6 -1 15.5 -4t14.5 -6q20 8 35 20.5t29.5 28.5t28.5 34t30 37q44 49 85 74.5t89 25.5q25 0 42.5 -13t17.5 -38v-1zM-21 60q0 20 14.5 36t37.5 15
q15 -2 24.5 -11.5t7.5 -25.5q-1 -17 -16 -30q-5 -6 -9 -12t-4 -13q2 -16 18 -22.5t32 -6.5q40 0 78.5 24t72 57.5t61.5 69.5t48 60q12 16 28.5 35t33.5 37t34 34t32 26v1q-19 -13 -39.5 -21.5t-39.5 -13.5t-34 -7t-24 -2q-24 -1 -45 3t-35.5 12.5t-22 21.5t-4.5 31
q2 18 13.5 32t22.5 21q7 5 15 7.5t13 2.5q12 0 0 -12q-7 -6 -15.5 -19t-10.5 -33q-2 -25 15.5 -41t54.5 -16q24 0 49.5 6.5t51 18t50 26.5t44.5 33q5 5 14 11.5t12 4.5q5 -4 1 -8.5t-10 -10.5q-23 -23 -62 -73q-23 -28 -43 -57t-36 -48q-36 -45 -72 -85.5t-75 -70.5
t-83.5 -48t-97.5 -18q-18 0 -36 4t-32 13.5t-23 24.5t-9 36v1zM445 188q6 0 11.5 1.5t9.5 3.5q-3 3 -9 5t-12 3q-6 0 -13.5 -1t-7.5 -5t6 -5.5t14 -1.5h1z" />
    <glyph glyph-name="afii10029" unicode="&#x41b;" horiz-adv-x="702" 
d="M799 400q-63 -40 -107 -70.5t-77 -55.5t-57.5 -46.5t-47.5 -42.5t-48 -43.5t-59 -49.5q-17 -14 -43.5 -31.5t-58.5 -34t-67 -28.5t-70 -15q-29 -2 -55 1.5t-45.5 12.5t-31 23.5t-11.5 35.5v1q0 26 16 43t36 18q17 2 27 -7.5t10 -23.5q-1 -11 -6.5 -18t-16.5 -15
q-8 -5 -13.5 -11t-4.5 -14q0 -16 24.5 -26.5t73.5 -6.5q45 5 85.5 21t77.5 38.5t70 49t63 52.5l44 38.5t64.5 54.5t80 62.5t90.5 62.5q-19 -6 -33.5 -8.5t-37.5 -4.5q-9 0 -26.5 1t-37.5 3t-38.5 4.5t-28.5 4.5q-36 5 -84 6.5t-114 -1.5q-41 -2 -79.5 -12t-70 -28t-52 -44
t-24.5 -60q-2 -15 0 -31.5t10.5 -31t24 -26.5t40.5 -19q7 -3 10 -3q4 0 2 -2q-1 -5 -19 -2q-45 11 -68.5 43.5t-21.5 73.5q5 71 68 115t181 47q63 1 118 -5.5t89 -10.5q4 -2 21.5 -4t38 -4t39 -3.5t25.5 -0.5q20 2 47.5 6.5t53.5 17.5q24 15 38 28t22 26t6 18t2 7
q5 3 6.5 -6.5t-0.5 -17.5q-4 -11 -10 -24.5t-20 -33.5q-17 -20 -37.5 -44.5t-41.5 -50.5t-41 -52t-37 -49q-18 -26 -35.5 -51.5t-31.5 -49.5t-22.5 -44t-7.5 -34q1 -12 13 -12q12 1 31.5 13t42.5 33q15 13 23 21t16 17q4 3 8 5.5t6 0.5t-2 -7t-6 -7q-9 -10 -20.5 -20.5
t-28.5 -26.5q-14 -13 -36 -27.5t-43 -16.5q-19 -2 -33 5t-14 29q-1 31 17.5 64.5t48.5 77.5q14 20 34 46t42.5 52.5t44.5 51t40 41.5z" />
    <glyph glyph-name="afii10030" unicode="&#x41c;" horiz-adv-x="826" 
d="M84 -30q-21 0 -41.5 3t-37 11.5t-27.5 22.5t-12 35q-1 25 16 46.5t44 21.5q17 0 28.5 -9.5t9.5 -24.5q-2 -12 -8 -20t-14 -14l-12 -12t-7 -13q-3 -15 15.5 -25t56.5 -10q32 0 72.5 11t83.5 30t87 44.5t83 54.5q69 51 136.5 115.5t142.5 133.5q-36 7 -84 11.5t-114 4.5
q-41 0 -80 -8t-71 -24t-54 -40.5t-28 -58.5q-3 -15 -2 -31.5t8.5 -31.5t22.5 -28t39 -21q8 -3 10 -3q3 0 2 -2q-2 -6 -19 -1q-44 13 -65.5 47t-17.5 74q4 35 22.5 63.5t51 48t79 29t104.5 7.5q63 -2 117.5 -12t88.5 -15q8 10 19 19q7 6 15 12.5t16 5.5q20 -3 -2 -26l-6 -8
t-7 -8q19 -3 39 -4.5t34 -0.5q20 1 48.5 4t54.5 14t42 22.5t25 23.5q10 12 8.5 17t2.5 7q5 2 6 -7.5t-3 -17.5q-5 -10 -13 -21.5t-25 -28.5q-18 -19 -39.5 -42.5t-44 -48t-44 -49.5t-39.5 -47q-19 -24 -38.5 -49t-34.5 -48t-24.5 -42.5t-9.5 -33.5q0 -13 12 -13t32.5 11
t44.5 31q15 12 24 19.5t17 15.5q4 3 8 5.5t6 0.5t-2.5 -7t-6.5 -7q-10 -9 -21.5 -19t-29.5 -25q-15 -12 -38 -25.5t-44 -14.5q-19 -1 -32.5 7t-12.5 30q1 31 21.5 63.5t52.5 74.5q15 19 36 43t43.5 48.5t45 47t41.5 38.5h-1q-51 -38 -101 -79.5t-100 -83.5
q-58 -49 -101.5 -90t-89.5 -82q-6 -6 -12.5 -12t-13.5 -1q-6 5 -4 13t7 14q22 30 50 74t57.5 89.5t57 86.5t47.5 66h-1q-14 -13 -43 -41.5t-65.5 -62.5t-75.5 -68t-72 -58q-37 -28 -80.5 -53.5t-88.5 -45t-89 -31.5t-83 -12h-1zM570 98q15 14 36 32.5t46 39.5t51.5 43.5
t52.5 43.5q42 34 79 62.5t76 55.5v1q-22 -8 -47.5 -11.5t-48.5 -4.5q-17 0 -37.5 1.5t-39.5 3.5q-18 -26 -40 -62t-44 -73t-44 -72t-40 -59v-1z" />
    <glyph glyph-name="afii10031" unicode="&#x41d;" horiz-adv-x="649" 
d="M528 384q-29 -11 -81 -11.5t-133 2.5q-43 2 -82.5 -6t-69.5 -25.5t-48 -44.5t-18 -64q0 -13 4.5 -27t13.5 -27.5t23 -24.5t32 -17q7 -2 10 -2.5t2 -2.5t-6.5 -2.5t-12.5 1.5q-38 12 -61 41t-25 63q-1 34 12.5 63.5t42 51.5t71 34t99.5 10q26 -1 61.5 -4t70.5 -4.5t64 -1
t41 7.5q11 6 19.5 10.5t13.5 1.5t0 -6.5t-13 -11.5q-19 -18 -36 -36.5t-36 -42.5q-23 -28 -39.5 -50.5t-30.5 -40.5h143q12 14 29.5 33.5t54.5 53.5q18 17 36 31.5t35 27t31.5 22t23.5 15.5q20 12 47.5 21t52.5 9q28 0 43.5 -10.5t19.5 -21.5q5 -13 -1 -15q-2 -1 -2.5 1.5
t-2.5 7.5q-6 12 -19 20t-37 8t-48 -10.5t-43 -23.5q-18 -14 -39.5 -33.5t-51.5 -51.5q-20 -21 -39.5 -45.5t-30.5 -38.5q20 -1 43 -1.5t37 -2.5q6 -1 14.5 -2t8.5 -3q0 -4 -8 -3.5t-14 0.5h-50t-41 -1q-17 -21 -36 -46.5t-35.5 -49.5t-27 -45.5t-10.5 -35.5q0 -9 6.5 -13
t12.5 -4q13 0 30.5 7t40.5 24q10 8 27 22t28 24q3 3 7.5 5.5t6.5 0.5t-2 -6.5t-6 -6.5q-10 -9 -27.5 -24t-28.5 -23q-5 -4 -14.5 -10.5t-22 -13t-27 -11.5t-29.5 -5q-22 0 -35 11t-13 33q0 20 11 44t26.5 47.5t31.5 44t25 31.5l-140 -1q-36 -45 -72 -85t-75 -70.5
t-83.5 -48.5t-97.5 -18q-18 0 -36 4t-32 13.5t-23 24.5t-9 36q0 20 14.5 36.5t37.5 15.5q15 -2 24.5 -11.5t7.5 -25.5q-1 -17 -16 -30q-5 -6 -9 -12t-4 -13q2 -16 18 -22.5t32 -6.5q40 0 77.5 23t71 56t62 70t49.5 64q-12 0 -29.5 -0.5t-43.5 -1.5h-13t-6 5q1 3 9.5 4
t19.5 2q14 2 33 2.5t41 1.5q20 24 43.5 49t47.5 47.5t45.5 41t36.5 28.5v1z" />
    <glyph glyph-name="afii10032" unicode="&#x41e;" horiz-adv-x="407" 
d="M136 51q0 -12 3 -20.5t8 -16.5q2 -3 3.5 -4t0.5 -3q-2 -3 -8 3q-14 11 -17 43q-2 32 12.5 77.5t52.5 93.5q27 33 57.5 60.5t61 46t58.5 28t50 7.5q26 -3 34.5 -23t5.5 -49q-1 -14 -7 -33.5t-15.5 -41.5t-23 -44t-29.5 -42q-25 -31 -58 -58.5t-68.5 -47.5t-72.5 -31.5
t-71 -10.5q-14 0 -30.5 3.5t-31 12.5t-25 24.5t-13.5 40.5q-5 49 21.5 108.5t80.5 113.5q29 29 65 53.5t76 42t81 27t80 7.5q29 -2 50.5 -15t23.5 -40q2 -14 -3 -27.5t-11 -21.5q-3 -3 -8.5 -7t-6.5 -1q-1 2 1 3.5t7 8.5t8.5 18.5t1.5 25.5q-2 20 -20.5 31t-42.5 12
q-33 2 -71 -12.5t-74 -36.5t-67 -47.5t-51 -47.5q-25 -28 -44 -58.5t-31 -59t-16.5 -54t-1.5 -45.5q5 -28 24 -38.5t38 -11.5q52 -2 110 37.5t118 114.5q16 20 31 42.5t27 45t20 44.5t10 40q2 17 -3.5 27t-18.5 11q-19 2 -44.5 -8t-53 -29.5t-56 -46t-53.5 -58.5
q-36 -46 -55 -89.5t-19 -72.5v-1z" />
    <glyph glyph-name="afii10033" unicode="&#x41f;" horiz-adv-x="703" 
d="M662 335q-28 1 -63 7.5t-73.5 14t-79.5 14t-81 9.5q-33 2 -63.5 -3t-54.5 -16.5t-39 -29.5t-18 -42q-2 -17 5 -31t20 -24.5t31 -16.5t39 -7q46 -1 74.5 16.5t30.5 46.5q3 16 -7 29q-6 5 -4 6q2 2 5.5 0.5t5.5 -3.5q6 -3 13 -11.5t7 -22.5q0 -16 -10.5 -29t-27.5 -22
t-39.5 -14t-47.5 -5q-24 0 -44 7t-34.5 19t-22 28.5t-5.5 36.5q3 27 19.5 48.5t43.5 36t61.5 21.5t73.5 6q38 -1 82 -7.5t84 -13.5q35 -6 78 -12t91 -9q66 -3 109.5 13t49.5 51q6 33 -25.5 57.5t-91.5 24.5h-1q-42 0 -76 -15t-51 -36q-5 -7 -9.5 -15t-5.5 -13q-3 -13 -5 -13
q-3 0 -2 13q1 6 5 16t10 18q19 25 53 41.5t82 16.5q32 0 58 -7t43.5 -21t25.5 -34t3 -46q-4 -21 -19.5 -37t-39.5 -26t-56 -14.5t-68 -3.5q-2 0 -6.5 0.5t-9.5 1t-9.5 1t-5.5 0.5q-3 0 -8 -1v1zM498 226q-81 -117 -170.5 -183t-199.5 -66q-22 0 -44 4t-39 13.5t-28 24.5
t-11 36q0 20 14.5 40t41.5 20q12 0 20.5 -6t12 -15.5t-0.5 -21t-17 -22.5l-12.5 -12.5t-6.5 -17.5q0 -14 20.5 -23.5t46.5 -9.5q45 0 88.5 19.5t84.5 52.5t80 75.5t74 88.5q25 29 56.5 55.5t57.5 38.5q5 2 13.5 10t13.5 7q6 -2 4.5 -8t-6.5 -8q-24 -11 -48.5 -37t-44.5 -55z
M726 287q-15 -19 -43 -55t-56.5 -76t-50 -76.5t-22.5 -56.5q-1 -9 5.5 -13t12.5 -4q13 0 31 7t42 24l27.5 22t28.5 24q4 3 8.5 5.5t6.5 0.5t-2.5 -6.5l-6.5 -6.5q-10 -9 -28 -24t-30 -23q-5 -4 -15 -10.5t-23 -13t-27.5 -11.5t-29.5 -5q-22 0 -34.5 11t-11.5 33
q1 19 13.5 43.5t28.5 48t32.5 44t26.5 31.5q15 16 26 27.5t21.5 22t22.5 22t31 28.5q9 9 16.5 12.5t11 2t1 -8t-12.5 -19.5z" />
    <glyph glyph-name="afii10034" unicode="&#x420;" horiz-adv-x="567" 
d="M394 282q0 19 -12 31.5t-30 13.5q-21 1 -38.5 -8t-26.5 -17q-10 -9 -13.5 -15t-5.5 -5t1.5 8.5t12.5 17.5q8 8 26.5 19.5t46.5 9.5q22 -1 38.5 -15t16.5 -42t-16.5 -56.5t-44.5 -52t-64.5 -37.5t-75.5 -13q-53 2 -83 23t-28 67q2 44 30.5 82t76 66.5t110 45t130.5 16.5
q58 0 97 -12t62 -26q10 8 30 20t39 20t46 15.5t55 7.5q24 0 44.5 -7t28.5 -21q4 -8 0 -9q-2 0 -2.5 1.5t-3.5 4.5q-19 21 -66 21q-23 0 -48 -5.5t-47 -15.5q-20 -9 -37.5 -20t-28.5 -19q14 -12 25.5 -28.5t16.5 -37t0.5 -44.5t-22.5 -50q-15 -22 -35.5 -36t-41.5 -22.5
t-40.5 -12t-32.5 -4.5t-28 0t-22 3q-51 -54 -96.5 -80.5t-71.5 -37.5v-1q11 -2 24.5 -4.5t28 -5t27 -4t21.5 -1.5q22 0 42.5 4.5t38.5 17.5q8 5 9.5 7.5t3.5 0.5q2 -1 0.5 -5t-9.5 -11q-17 -15 -41.5 -24.5t-54.5 -9.5q-33 0 -67 6t-61 13q-31 -11 -73 -16t-81 -5
q-13 0 -29 1t-30 5t-23 10.5t-9 16.5q0 20 27.5 30.5t75.5 8.5q16 -1 37.5 -4t43.5 -7t43 -8.5t37 -8.5q42 25 79 64t81 92q18 22 40.5 48.5t46.5 52.5t48.5 48.5t46.5 36.5q-16 12 -55 25t-87 13q-62 0 -116.5 -14.5t-95.5 -41.5t-66.5 -65t-28.5 -85q-2 -30 14.5 -52
t54.5 -24q38 -1 71.5 14t58.5 38.5t40 50.5t15 48v1zM440 153q7 -2 19 -2t20 2q35 4 66 25t54 53q14 20 19.5 40t4.5 37.5t-7 32t-15 23.5q-17 -15 -36 -39.5t-37.5 -51.5t-35 -52.5t-29.5 -41.5q-8 -9 -11.5 -14t-11.5 -11v-1zM212 16q-13 2 -30 5.5t-34.5 6.5t-34.5 5.5
t-31 3.5q-37 3 -61.5 0.5t-24.5 -16.5q0 -7 8.5 -11.5t20.5 -7t25.5 -3.5t23.5 -1q19 0 39 1.5t39 3.5t34.5 5t25.5 7v1z" />
    <glyph glyph-name="afii10035" unicode="&#x421;" horiz-adv-x="388" 
d="M267 466q35 0 68 -16.5t53 -45.5q11 3 25.5 5.5t28.5 2.5q24 1 46.5 -2t39.5 -11.5t25.5 -23.5t4.5 -38t-24 -40.5t-47.5 -29t-59.5 -17t-61 -5.5q-42 0 -83 10t-68 30q-28 -25 -52 -54.5t-41.5 -59t-27 -58t-9.5 -52.5q0 -44 24 -62.5t62 -18.5q45 0 80.5 16t64.5 35
q17 12 35.5 27.5t25.5 23.5q2 2 5.5 5t5.5 1t0.5 -5.5t-3.5 -5.5q-4 -4 -11.5 -11t-16.5 -15t-19 -15.5t-18 -12.5q-31 -22 -68.5 -38.5t-82.5 -18.5q-62 -2 -102 22t-42 79q-1 33 13 66.5t37 65.5t53 60.5t61 50.5q-11 14 -18 30t-7 33q0 21 8.5 38t22.5 29.5t32.5 19
t38.5 6.5h1zM369 255q27 0 52.5 6t46 17.5t35 27t18.5 33.5q8 35 -13.5 51t-61.5 15q-12 -1 -27.5 -4t-24.5 -7q6 -11 10 -25.5t6 -28.5q1 -12 0 -19.5t-3 -5.5q-2 1 -1.5 5t-2.5 15q-3 15 -10 30.5t-14 24.5q-40 -15 -82 -42t-74 -56q26 -20 65 -28.5t80 -8.5h1zM258 453
q-32 0 -56.5 -21.5t-24.5 -59.5q0 -14 6.5 -28.5t16.5 -27.5q41 27 86 49t87 34q-23 26 -53.5 40t-60.5 14h-1z" />
    <glyph glyph-name="afii10036" unicode="&#x422;" horiz-adv-x="777" 
d="M706 331q-30 1 -66.5 7.5t-77 13.5t-84 13.5t-85.5 9.5q-35 2 -67.5 -3t-57.5 -16.5t-41 -29.5t-19 -42q-2 -17 5 -31t21 -24.5t33 -17t41 -7.5q48 -1 78.5 16.5t32.5 46.5q3 17 -7 30q-6 5 -4 6q2 2 5.5 0.5t5.5 -3.5q6 -3 14 -11.5t8 -23.5q0 -16 -11 -29t-29.5 -22
t-42.5 -14t-50 -5q-25 0 -46 7t-36.5 19.5t-23.5 29t-6 36.5q3 27 20.5 48.5t46 36.5t65.5 22t78 6q40 -1 86.5 -7.5t88.5 -14.5q38 -6 82.5 -12t95.5 -9q70 -2 116 13.5t52 51.5q7 33 -26.5 58t-96.5 25h-1q-45 0 -80.5 -15.5t-53.5 -35.5q-5 -7 -10.5 -15.5t-6.5 -13.5
q-3 -13 -5 -13q-3 0 -2 13q1 6 5 16.5t12 18.5q20 25 55.5 41.5t86.5 16.5q34 0 61.5 -7.5t46 -21.5t26.5 -34t3 -46q-4 -21 -20.5 -37t-42 -26.5t-59 -15t-71.5 -3.5q-5 1 -17.5 2.5t-15.5 1.5h-3t-6 -2v2zM497 226q-81 -117 -170.5 -183t-199.5 -66q-22 0 -44 4t-39 13.5
t-28 24.5t-11 36q0 20 14.5 40t41.5 20q12 0 20.5 -6t12 -15.5t-0.5 -21t-17 -22.5l-12.5 -12.5t-6.5 -17.5q0 -14 20.5 -23.5t46.5 -9.5q45 0 88.5 19.5t84.5 52.5t80 75.5t74 88.5q25 29 56.5 55.5t57.5 38.5q5 2 13.5 10t13.5 7q6 -2 4.5 -8t-6.5 -8q-24 -11 -48.5 -37
t-44.5 -55zM793 287q-15 -19 -43 -55t-56.5 -76t-50 -76.5t-22.5 -56.5q-1 -9 5.5 -13t12.5 -4q13 0 31 7t42 24l27.5 22t28.5 24q4 3 8.5 5.5t6.5 0.5t-2.5 -6.5l-6.5 -6.5q-10 -9 -28 -24t-30 -23q-5 -4 -15 -10.5t-23 -13t-27.5 -11.5t-29.5 -5q-22 0 -34.5 11t-11.5 33
q1 19 13.5 43.5t28.5 48t32.5 44t26.5 31.5q15 16 26 27.5t21.5 22t22.5 22t31 28.5q9 9 16.5 12.5t11 2t1 -8t-12.5 -19.5zM373 -6q-17 -8 -18 -5.5t7 5.5q19 7 48.5 26t53.5 42q15 16 25.5 30.5t21 29.5t22 31.5t26.5 36.5q49 67 111 100q17 9 18 6.5t-7 -6.5
q-11 -6 -25.5 -21t-28.5 -37q-13 -15 -21.5 -29.5t-16.5 -28.5t-17 -28.5t-22 -30.5q-20 -23 -43.5 -42t-47 -34t-46 -26.5t-40.5 -18.5z" />
    </font>
</defs>
</svg>
