<?xml version="1.0" encoding="utf-8"?>
<!-- Generator: Adobe Illustrator 25.0.0, SVG Export Plug-In . SVG Version: 6.00 Build 0)  -->
<svg version="1.1" id="Ebene_1" xmlns="http://www.w3.org/2000/svg" xmlns:xlink="http://www.w3.org/1999/xlink" x="0px" y="0px"
	 viewBox="0 0 260 100" style="enable-background:new 0 0 260 100;" xml:space="preserve">
<style type="text/css">
	.st0{fill:#18470F;}
	.st1{fill:#A12537;}
</style>
<g>
	<path class="st0" d="M255.5,81.8c-21.3-7.6-59.6-13.1-105.2-14.7c-1.3,1.8-2.5,3.5-3.8,5.2c45,1.1,83.9,5,108.6,10.6
		C255.8,82.9,256.1,82,255.5,81.8z"/>
	<path class="st0" d="M107.1,65.4c-34.2,0-76,5.5-102.2,9.7c-1.1,0.1-0.9,1.8,0.3,1.6c26-2.5,66.9-6,98.2-6c3.5,0,7,0,10.6,0
		c3.1-2,5.7-3.6,8.2-5.2C117.2,65.4,112.1,65.4,107.1,65.4z"/>
	<path class="st1" d="M254.4,80.8c-21.3-7.6-59.6-13.1-105.2-14.7c-1.3,1.8-2.5,3.5-3.8,5.2c45,1.1,83.9,5,108.6,10.6
		C254.7,81.9,255,81,254.4,80.8z"/>
	<path class="st1" d="M109.8,64.4c-34.2,0-76,5.5-102.2,9.7c-1.1,0.1-0.9,1.8,0.3,1.6c26-2.5,66.9-6,98.2-6c3.5,0,7,0,10.6,0
		c3.1-2,5.7-3.6,8.2-5.2C119.8,64.4,114.8,64.4,109.8,64.4z"/>
	<g>
		<g>
			<path class="st0" d="M93.7,21.9c0.8-4.3-1.9-6.9-5.8-7.9c2.9-2.6,5.8-4.8,8.2-6c3.1-1.8,6.8-2.8,9.8-3c3.1-0.3,5.7,0.8,6.8,2
				c0.3,0.3,0.4,0.6,0.6,0.5c0.3-0.1,0.1-0.4-0.3-0.9c-1.1-1.8-4-2.6-7.3-2.4c-3.5,0.3-7.3,1.5-10.3,2.9c-2.9,1.4-6.4,3.6-10.1,6.5
				c-1.3-0.1-2.6,0-4,0.1C70.5,15,56.2,21.3,44.5,32.2c-12.2,11.6-17,21.5-17,27.6c0,5.7,4.5,6.8,10.8,5.4
				c12-2.5,23.3-15.4,32.7-29.7c5.4-7.9,9.1-13.3,12.8-17.6c0.8-0.9,1.5-1.8,2.4-2.6c2.4,1.3,3.1,3.8,2.3,7.2
				c-1.1,4.9-5.8,9.4-10.3,10.6c-0.9,0-1.8-0.1-3.1,0.1c-1,0.1-2.6,0.5-2.8,1.3c-0.1,0.6,1.1,0.6,2.5,0.5c1.1-0.1,1.8-0.4,3-0.6
				c2-0.5,6.3,0.8,6,5.8c-0.4,8.6-8.2,16.9-15,17.9C67,58.1,64.6,57.8,65,56c0.3-1.1,1.5-1.9,2.5-2.5c1.3-0.8,2.6-1.8,2.6-3.4
				c0-1.6-1.5-2.3-3.3-2c-3.1,0.5-6.4,3.5-6.4,6.8c0,3.9,4.4,4.4,8.4,3.8c10.4-1.5,20-8.6,20.4-17.4c0.3-4.3-2.8-7.7-9.2-7.9v-0.1
				C85.5,31.8,92.7,27.7,93.7,21.9z M81.6,16.9c-4.9,4.5-12.5,13-19.3,22.8c-7.9,11.8-14.5,22.5-23.9,24.5c-4.5,1-6.7-1.3-6.7-5.4
				c0-5.4,3.4-15.4,14.6-26.3c10.9-10.6,24.5-16.7,34.5-17.9c1.3-0.1,2.4-0.1,3.3-0.1C83.3,15.3,82.5,16.1,81.6,16.9z"/>
			<path class="st0" d="M206.2,53c-1.6,1.1-3.5,2-4.7,2.4c-1.1,0.5-1.9,0.5-2.3,0.1c-0.4-0.4-0.4-1.1,0.1-2c0.5-1,1.8-2.5,3.5-4.4
				c2.3-2.4,4.8-4,4.8-5.7c0-1.9-3-2.4-5.9-3c-1.4-0.3-1.6-1.1-0.3-2.4c0.6-0.5,1-0.8,1.8-1.1c-0.1-0.6-1-1.1-1.9-1.3
				c-1.6-0.3-3.1,0.3-3.9,1.3c-1,1.1-0.9,2.5,0,3.3c-0.9,0.9-2.1,2-3.6,3.1c-1.4,1-2.6,2.1-4,3.3l0,0c-2,1.5-4.4,3.1-6.3,4.3
				c-4.5,2.6-8.2,3-9.4,2.9c-1.5-0.1-2.4-1-2.4-2.6c0-0.6,0.3-1.5,0.6-2.4c2.4-0.4,5.9-1.4,8.9-2.5c3.1-1.3,6.4-2.9,6.7-5.7
				c0.1-1.4-0.8-2.9-3.1-3.1c-2.8-0.3-5.9,0.8-8.9,2c-2,0.9-4,1.9-5.2,2.6c-1.1,0.8-1.9,1.3-2.8,1.9c-0.1,0-0.1,0.1-0.3,0.1
				c-2.1,1.8-4.2,3.3-6.4,4.9c-3.1,2.3-7.7,4.8-10.1,6c3.1-4,6.8-8.9,8.6-11.2c2.1-2.6,3.5-4.5,5.4-6.5c1.1-1.1,0.6-1.6-1.4-1.8
				c-1.5-0.1-2.8,0.8-5,3.3h-0.1c0.3-1.6-0.4-3.3-2.4-3.6c-2.8-0.5-6.7,0.6-10.4,2.5c-2.1,1-3.8,2.1-4.8,2.8c-1,0.8-2.6,1.9-2.9,2.3
				l-0.1,0.1c0,0,0,0-0.1,0.1c-1.4,1.3-2.6,2.3-4.9,4c-1.6,1.4-3.5,2.5-4.7,3.1c-1.1,0.6-1.9,0.8-2.3,0.5c-0.4-0.3-0.4-1,0.1-2
				c0.5-1,1.8-2.9,3.5-4.9c2.3-2.8,4.8-4.8,4.8-6.4c0-1.9-3-2-5.9-2c-1.4-0.1-1.6-0.8-0.4-2.3c0.6-0.6,1-1,1.8-1.5
				c-0.1-0.6-1-1-1.9-1c-1.6,0-3.1,0.8-4,1.9c-1,1.3-0.9,2.8,0,3.3c-0.9,1-2.1,2.4-3.6,3.8c-1.4,1.3-2.6,2.5-4,3.9l0,0
				c-2,1.9-4.4,3.8-6.4,5.3c-4.7,3.4-8.2,4.4-9.6,4.4c-1.5,0.1-2.4-0.6-2.4-2.1c0-0.6,0.3-1.6,0.6-2.4c2.4-0.8,5.9-2.3,8.9-3.9
				c3.1-1.8,6.4-4,6.7-6.7c0.1-1.4-0.8-2.8-3.1-2.6c-2.8,0.1-5.9,1.6-8.9,3.5c-2,1.1-4,2.6-5.2,3.5c-1.5,1.3-2.5,2.1-3.9,3.4
				c-0.4,0.5-0.9,0.9-0.6,1.3c0.3,0.3,0.5,0,1-0.4c0.8-0.6,1.4-1.4,2.1-2c0,0,0.1,0,0.1,0.1c-2.1,2.6-3,4.7-3.1,6.7
				c-0.1,2.8,1.6,4,5.5,3.6c3.5-0.3,7.4-1.9,11.8-5c1.9-1.4,5.3-4.2,6.5-5.5l0,0c0,0,0,0,0.1,0c1.4-1.4,2.8-2.6,4.2-4
				c1.6-1.6,3.1-3.1,4-4c0.5,0.3,1.4,0.1,2.4,0.1c2.6,0,4.7-0.4,4.2,0.8c-0.3,0.8-4.3,3.5-6.8,6c-2.3,2.3-4.9,5.3-5,7.6
				c-0.1,1.5,1,2.6,3.3,2.6c3.4-0.1,7.2-2.6,9.3-4.3c2.1-1.6,3.9-3.1,5.2-4.3l0,0l0,0c0.3-0.3,0.6-0.5,0.8-0.6s0.1-0.1,0.3-0.3
				c0.1-0.1,0.3-0.1,0.3-0.3l0.1,0.1c-1.9,2.1-2.8,3.8-2.9,5.4c-0.3,3.4,2,4.3,4.3,4.2c3.9-0.1,8.4-3.3,11.3-5.5l0.1,0.1
				c-1.6,2.4-5.2,7-7,9.6c-7.2,4.4-11.6,6.5-21.3,13c-8.2,5.4-20.3,15-21.1,21.3c-0.5,3.5,2.3,4.2,4.9,4c2-0.1,4.5-1,7.2-2.5
				c6.2-3.5,14.6-10.3,21.5-17.9c3-3.3,9.8-12,14.3-18.4c3.4-1.8,7.8-4.3,11.5-6.8c2.1-1.5,3.9-2.9,5.4-4.2l0,0
				c0.1-0.1,0.1-0.1,0.3-0.3c0.1-0.1,0.3-0.3,0.4-0.4l0.1-0.1c0.4-0.4,0.9-0.8,1.3-1l0.1,0.1c-2.1,2.4-3,4.2-3.1,6.2
				c-0.1,2.6,1.6,4.3,5.5,4.5c3.5,0.3,7.4-0.8,11.8-3.1c1.9-1,5.2-3.4,6.5-4.4l0,0c0,0,0,0,0.1,0c1.4-1.1,2.8-2.3,4.2-3.3
				c1.6-1.4,3.1-2.6,3.9-3.4c0.5,0.3,1.4,0.4,2.4,0.5c2.6,0.4,4.5,0.4,4.2,1.4c-0.3,0.6-4.3,2.9-6.8,4.9c-2.3,1.9-4.9,4.4-5,6.7
				c-0.1,1.5,1,2.9,3.3,3.1c3.4,0.5,7-1.5,9.2-2.8c2.6-1.5,4.7-3.1,5.9-4c0.9-0.6,1.5-1.1,1.3-1.5c-0.3-0.3-0.9,0-1.5,0.6
				C209.7,50.7,208.4,51.6,206.2,53z M178.2,41.4c2.1-1.8,3.6-2.6,4.5-2.5c0.9,0.1,1.4,0.6,1.3,1.6c-0.1,1.4-1.6,3.4-4.3,4.9
				c-2.1,1.3-5,2.1-7,2.5C173.9,45.9,176.6,42.8,178.2,41.4z M104.7,40.4c2.1-2.1,3.6-3.3,4.7-3.3c0.9,0,1.4,0.5,1.3,1.4
				c-0.1,1.5-1.6,3.8-4.3,5.7c-2.1,1.6-5,2.9-7,3.6C100.5,45.5,103,42,104.7,40.4z M150.4,47.3c-2.8,2.5-6.8,4.7-8.8,4.7
				c-0.8,0-1.3-0.4-1.4-1c-0.3-1.4,1.5-4,5.9-8.1c3.8-3.6,7.6-6.3,9.6-6.2c1.1,0,2,0.6,1.9,2C157.5,40.1,153.8,44.5,150.4,47.3z
				 M132.9,73.1c-8.3,10.6-14.5,16.1-19.1,19.1c-1.9,1.3-4.9,2.4-6.5,2c-1-0.3-1.6-1.1-1.5-2.8c0.4-5.4,8.2-13.1,17-19.1
				c9.7-6.7,14.7-9.2,20.9-13.1C141.5,62.3,137.1,67.8,132.9,73.1z"/>
			<path class="st0" d="M222.9,33.1c1.4,0.1,3.3-0.4,3.5-1.4c0.1-0.6-0.1-1,0.1-2c0.3-1.5,1.4-2.9,2.8-4.2c0.5-0.4,0.9-0.5,0.6-0.8
				c-0.1-0.1-0.5-0.1-1.1,0.1c-1.8,0.8-4.9,2.9-6.8,5.5c-0.4,0.5-0.6,1-0.6,1.4C221.3,32.6,221.8,33,222.9,33.1z"/>
			<path class="st0" d="M241.1,55.6c-1.8,1.1-3.9,2.5-6.8,3.6c-1.6,0.6-3.4,1.1-4.5,1.3c1.3-0.6,2.6-2.3,3.3-3.5
				c1.3-2.6,1-5.4,0.9-8.3c0-1.1-0.1-2,0.8-2.6c0.5-0.4,1.5-0.6,2.5-1c1.4-0.5,2.9-1.5,0.5-2c-0.8-0.1-1.9-0.1-3,0.5
				c-0.8,0.4-1.4,1-1.6,1.4c-2.4,1.5-4.3,2.8-6,3.6c-1.6,0.9-3.3,1.6-4.3,2c-0.5,0.3-0.6,0.4-0.5,0.8c0.3,0.4,0.6,0.3,1,0.1
				c0.9-0.3,2.5-1,3.9-1.8c1.8-0.9,3.9-2.1,4.9-2.9v0.1c-1.1,1.1-3,6.9-4.8,9.6c-2.3,3.5-4.9,4.7-6.9,4.3c-1.9-0.4-3.1-1.5-3-3.1
				c0.1-1.4,1.5-2.4,2.4-2.6c1.4-0.5,2-1.1,2.3-2.1c0.3-1.1-0.5-2.3-2-2.6c-2.5-0.6-4.9,1.5-5.3,4.4c-0.4,2.9,0.8,6.3,6.2,7.4
				c3.1,0.6,6.8,0.3,8.7-0.1c2-0.4,4.3-1.1,6.4-2.1c2.3-1,4.2-2.3,5.3-2.9c0.9-0.6,1.4-1.1,1.1-1.4
				C242.1,54.9,241.6,55.2,241.1,55.6z"/>
		</g>
	</g>
</g>
</svg>
