<?xml version="1.0" encoding="utf-8"?>
<svg version="1.1" id="Ebene_1" xmlns="http://www.w3.org/2000/svg" xmlns:xlink="http://www.w3.org/1999/xlink" x="0px" y="0px"
	 viewBox="0 0 260 140" style="enable-background:new 0 0 260 140;" xml:space="preserve">
<style type="text/css">
	.st0{fill:#848484;}
	.st1{fill:#CCCCCC;}
</style>
<g>
	<path class="st0" d="M228,9.1v84.5c0,2.5-0.9,4.7-2.7,6.6c-1.8,1.9-4,2.7-6.6,2.6h-18.6V9.1h-27.9v93.7h-27.9V9.1H4.1v121.8H32
		V37.2h27.9v93.7h27.9V37.2h18.6c2.6,0,4.8,0.9,6.6,2.7c1.8,1.8,2.7,4,2.7,6.5v84.5h103.1c10.3,0,19.1-3.7,26.3-11
		c7.2-7.3,10.9-16.1,10.9-26.5V9.1L228,9.1L228,9.1L228,9.1L228,9.1z"/>
	<g>
		<path class="st1" d="M188.2,56.2c-2.1-7.6-7.8-13.6-16-17.9v55.7C185.2,82.1,191.6,68.4,188.2,56.2z M115.6,121.9
			c2.9-0.6,5.7-1.4,8.5-2.2c14.1-4,26.7-9.9,37-16.9h-16.7V31.2c-13.2-0.9-28.3,0.6-43.7,5.1c-1,0.3-2,0.6-3,0.9h8.7
			c2.6,0,4.8,0.9,6.6,2.7c1.8,1.8,2.7,4,2.7,6.5L115.6,121.9L115.6,121.9z M59.9,48c12.1-7.4,26.5-13.8,42.5-18.3
			c14.6-4.2,28.9-6.4,42-6.9V10.9c-10.9,0.9-22.3,2.9-33.9,6.2c-18,5.2-35.5,13.1-50.7,22.7L59.9,48L59.9,48z M59.9,123.9v7.1h27.9
			V40.6c-9.9,3.8-19.4,8.6-27.9,14L59.9,123.9L59.9,123.9z M26.5,102.6c0.9,3.4,2.8,6.4,5.5,9V80.1C26.8,87.8,24.5,95.6,26.5,102.6z
			"/>
		<path class="st1" d="M13.1,107.6c2.5,8.8,9.2,15.8,18.8,21.1v-11.4c-4.4-3.8-7.5-8.4-9-13.6c-2.8-10.1,0.7-21.2,9-31.9V61.8
			C17.1,77,9.1,93.3,13.1,107.6z"/>
		<path class="st1" d="M4.1,9V131h20.1c-7.8-5.9-13.3-13.3-15.7-22C3.3,90.6,12.7,70,32,51.6V37.2h17.8C66.1,25.8,86.5,15.9,109.4,9
			L4.1,9L4.1,9z M228,9v1.3c13.3,6.7,22.5,16.2,25.9,28.3c8.9,31.7-25.5,70.1-79.4,92.3h44.2c10.3,0,19.1-3.7,26.3-11
			c7.2-7.3,10.9-16.2,10.9-26.5V9H228z"/>
		<path class="st1" d="M228,61.4V50.9c-0.2-1.6-0.5-3.1-0.9-4.6c-3.4-12.2-13.2-21.6-26.9-27.8V9h-27.9v15.8
			c11.7,2.3,21.4,6.6,27.9,12.6c4.1,3.7,6.9,8.1,8.3,13.1c2.8,9.8-0.5,20.6-8.3,31c-13.1,17.4-39,33.8-71.1,43
			c-4.5,1.3-9,2.4-13.4,3.3v3.1h33.7c20.7-6.7,38.6-16.7,52.2-28.1C216.4,90.1,226.1,75.6,228,61.4z"/>
	</g>
</g>
</svg>
