<?xml version="1.0" encoding="utf-8"?>
<!-- Generator: Adobe Illustrator 25.0.0, SVG Export Plug-In . SVG Version: 6.00 Build 0)  -->
<svg version="1.1" id="Ebene_1" xmlns="http://www.w3.org/2000/svg" xmlns:xlink="http://www.w3.org/1999/xlink" x="0px" y="0px"
	 viewBox="0 0 260 140" style="enable-background:new 0 0 260 140;" xml:space="preserve">
<style type="text/css">
	.st0{fill:#14A000;}
	.st1{fill:#2D2D2D;}
	.st2{fill:#FFFFFF;}
	.st3{fill:#D70014;}
	.st4{fill:#FFCB96;}
	.st5{fill:#F0B77D;}
	.st6{fill:#FAFAFA;}
	.st7{fill:#E3E3E3;}
	.st8{fill:#202020;}
	.st9{fill:#1E1E1E;}
	.st10{fill:#DF2623;}
	.st11{fill:#F1F2F2;}
	.st12{fill:#525252;}
	.st13{fill:#D99550;}
	.st14{fill:url(#SVGID_1_);}
</style>
<g id="chef">
	<g>
		<g>
			<polygon class="st0" points="156.2,14.3 182.5,59.7 156.2,105 103.8,105 77.5,59.7 103.8,14.3 			"/>
			<path class="st1" d="M156.2,105.9h-52.5c-0.3,0-0.6-0.2-0.7-0.4L76.8,60.1c-0.2-0.3-0.2-0.6,0-0.9L103,13.9
				c0.2-0.3,0.4-0.4,0.7-0.4h52.5c0.3,0,0.6,0.2,0.7,0.4l26.2,45.4c0.2,0.3,0.2,0.6,0,0.9L157,105.5
				C156.8,105.7,156.5,105.9,156.2,105.9z M104.3,104.2h51.5l25.7-44.5l-25.7-44.5h-51.5L78.5,59.7L104.3,104.2z"/>
		</g>
		<path class="st2" d="M150.8,23.9c-1.5,0-3.3,0.3-5,0.9v-0.8h-10.3H134h-9.2h-0.3c0.2-0.4,0.3-0.9,0.3-1.5c0-1.9-1.5-3.4-3.4-3.4
			c-1.9,0-3.4,1.5-3.4,3.4c0,0.3,0,0.5,0.1,0.8c-1.1-1.4-2.9-2.1-5.3-2.1h-7.3v15.4h6.9v-3.3h0.4c2.3,0,4.1-0.8,5.2-2.1v5.4h5.5h1.2
			h9.1h1.9h10.3v-0.5c0.7,0.4,1.6,0.7,2.6,0.7c0.5,0,1-0.1,1.5-0.2h6.7v-7.8C156.7,25.8,154.4,23.9,150.8,23.9z"/>
		<g>
			<path class="st3" d="M112.7,22.6c3.3,0,5.2,1.7,5.2,4.6c0,3.1-1.9,4.9-5.2,4.9H111v3.3h-4.2V22.6H112.7z M111,28.8h1.5
				c0.9,0,1.4-0.6,1.4-1.5c0-0.9-0.5-1.5-1.4-1.5H111V28.8z"/>
			<path class="st3" d="M123.4,22.6c0,1.2-0.9,2.1-2.1,2.1c-1.2,0-2.1-0.9-2.1-2.1c0-1.2,0.9-2.1,2.1-2.1
				C122.5,20.5,123.4,21.4,123.4,22.6z M119.3,35.3v-9.9h4.1v9.9H119.3z"/>
			<path class="st3" d="M130,32.3h4.3v3.1h-9.5V33l4.1-4.5h-4v-3h9.1v2.4L130,32.3z"/>
			<path class="st3" d="M140.3,32.3h4.3v3.1h-9.5V33l4.1-4.5h-4v-3h9.1v2.4L140.3,32.3z"/>
			<path class="st3" d="M155.4,28.9v6.4h-4v-1.1c-0.6,0.8-1.5,1.3-2.8,1.3c-2.1,0-3.3-1.2-3.3-3.1c0-2,1.3-3,3.8-3h2.3
				c0-0.7-0.5-1.1-1.5-1.1c-0.7,0-1.9,0.2-3,0.6l-0.9-2.7c1.7-0.6,3.4-1,4.9-1C153.7,25.2,155.4,26.6,155.4,28.9z M151.4,32.2v-0.9
				h-1.4c-0.6,0-0.9,0.3-0.9,0.8c0,0.5,0.3,0.9,0.9,0.9C150.5,32.9,151,32.6,151.4,32.2z"/>
		</g>
		<g>
			<g id="Right_hand_3_">
				<path class="st4" d="M160.8,119c-0.1-0.7-0.2-1.2-0.3-1.4c-0.4,0-0.8,0-1.3,0c-1-0.1-2-0.2-3-0.4c-0.9-0.2-1.7-0.4-2.4-0.6
					c-0.1,0.2-0.4,0.5-0.8,0.9c-0.3,0.3-0.6,0.7-1,1.1c-0.3,0.4-0.7,0.9-1,1.5c-0.1,0.3-0.2,0.6-0.3,0.8c0,0.1,0,0.3,0,0.4
					c0,0.1,0,0.1,0,0.2c0,0.1,0,0.1,0.1,0.2c0.1,0.2,0.2,0.5,0.4,0.6c0.2,0.1,0.3,0.2,0.5,0.3c0.2,0,0.4,0.1,0.5,0
					c0.2,0,0.3-0.1,0.4-0.1c0,0,0,0,0,0c0.2-0.1,0.4-0.3,0.6-0.4c0.2-0.2,0.4-0.4,0.4-0.6c0.1-0.1,0.1-0.2,0.1-0.2c0,0,0,0.1,0,0.3
					c0,0.1,0,0.2-0.1,0.3c-0.1,0.1-0.2,0.3-0.3,0.4c-0.2,0.3-0.5,0.5-0.9,0.8c-0.2,0.1-0.4,0.2-0.6,0.3c-0.1,0.1-0.2,0.1-0.3,0.2
					c-0.1,0-0.1,0.1-0.2,0.1c0,0,0,0,0,0c0,0,0,0,0,0c0,0,0,0,0,0l0,0c0,0,0,0,0,0l0,0.1c0,0.1,0.1,0.2,0.2,0.3
					c0.1,0.1,0.1,0.2,0.2,0.3c0.1,0.1,0.2,0.2,0.3,0.3c0.3,0.2,0.5,0.4,0.8,0.5c0.1,0,0.2,0.1,0.2,0.1c0.1,0,0.2,0,0.2,0
					c0.1,0,0.3,0,0.4,0c0.3,0,0.5-0.2,0.7-0.3c0.2-0.2,0.4-0.4,0.5-0.6c0.3-0.4,0.4-0.7,0.5-1c0.1-0.2,0.2-0.4,0.2-0.4
					c0,0,0,0.1,0,0.3c0,0,0,0.1,0,0.1c-0.1,0.3-0.2,0.6-0.4,1.1c-0.1,0.2-0.3,0.4-0.5,0.7c-0.1,0.1-0.3,0.2-0.4,0.3
					c0.1,0,0.2,0.1,0.4,0.1c0.1,0,0.2,0.1,0.4,0.1c0,0,0.1,0,0.1,0c0.1,0,0.2,0.1,0.4,0.1c0.3,0,0.7,0,1-0.1
					c0.3-0.1,0.5-0.4,0.7-0.7c0.2-0.3,0.2-0.6,0.3-0.8c0.1-0.5,0.2-0.8,0.2-0.8c0,0,0.1,0.1,0.1,0.2l0,0c0,0.1,0,0.4,0,0.7
					c0,0.3-0.1,0.6-0.3,0.9c-0.1,0.2-0.3,0.4-0.5,0.6c0,0,0,0,0,0c0.2,0,0.5,0,0.8-0.1c0.1,0,0.2-0.1,0.3-0.1c0.5-0.2,0.9-0.5,1.4-1
					c0.5-0.5,0.8-1.1,1-1.8c0.2-0.7,0.3-1.4,0.3-2.1C161,120.1,160.9,119.5,160.8,119z"/>
				<g>
					<path class="st5" d="M153.8,116.6c0,0,5.3,1.4,7.1,3.3c0,0-0.1-2.1-0.3-2.4C160.6,117.5,155.4,117.2,153.8,116.6z"/>
					<path class="st5" d="M157.9,125.8c-0.3,0.1-0.6,0.1-0.8,0.1c0,0,0,0,0,0c0.2-0.2,0.4-0.4,0.5-0.6c0.2-0.3,0.2-0.7,0.3-0.9
						c0-0.3,0-0.5,0-0.7C158,123.9,158.5,124.7,157.9,125.8z"/>
					<path class="st5" d="M155.2,125.7c0,0-0.1,0-0.1,0c-0.1,0-0.3-0.1-0.4-0.1c-0.1,0-0.3-0.1-0.4-0.1c0.2-0.1,0.3-0.2,0.4-0.3
						c0.2-0.2,0.4-0.4,0.5-0.7c0.2-0.4,0.4-0.8,0.4-1.1c0,0,0-0.1,0-0.1C155.8,123.6,156.2,124.6,155.2,125.7z"/>
					<path class="st5" d="M153.8,121.8c0,0.3-0.2,1.6-2,2.5c-0.1-0.1-0.1-0.2-0.2-0.3c-0.1-0.1-0.1-0.2-0.2-0.3l0-0.1c0,0,0,0,0,0
						l0,0c0,0,0,0,0,0c0,0,0,0,0,0c0,0,0,0,0,0c0.1,0,0.1-0.1,0.2-0.1c0.1-0.1,0.2-0.1,0.3-0.2c0.2-0.1,0.4-0.2,0.6-0.3
						c0.4-0.2,0.7-0.5,0.9-0.8C153.6,122.1,153.7,121.9,153.8,121.8z"/>
				</g>
			</g>
			<g>
				<g>
					<g id="Body_1_">
						<path class="st6" d="M162.6,102.6c-0.4-3.4-1.1-6.3-2.5-9.4c-1.4-3-3.5-5.7-6.1-7.7c-1.3-1.1-2.8-2-4.4-2.7
							c-0.3-0.2-0.4-0.2-0.7,0c-0.1,0.1-0.3,0.3-0.4,0.4c-0.5,0.5-1.2,0.9-1.8,1.2c-1.2,0.7-2.6,1-4,0.9c-0.6,0-1.2-0.1-1.8-0.3
							c-0.2-0.1-0.7-0.3-0.9-0.2c-0.2,0.1-0.4,0.3-0.6,0.5c-1.1,0.9-2.4,1.6-3.6,2.2c-1,0.5-2,1-3,1.3c-0.5,0.2-1.1,0.3-1.6,0.3
							c-0.1,0-0.2,0-0.3,0c0,0.2,0,0.4,0,0.7c0,0.5,0,0.9,0,1.4c0,1.5,0,3,0,4.5c0,3.2-0.2,6.5-0.4,9.7c-0.3,3.2-0.5,6.6-1.6,9.6
							c6,0,11.9,0,17.9,0c1.2,0,2.4,0,3.6,0c0.3,0,0.5,0,0.8,0c0.8,0,0.7-0.7,0.7-1.3c0.3-3.3,0.1-6.6-0.6-9.8
							c-0.4-1.6-0.9-3.2-1.4-4.7c-0.3-0.8-0.7-1.7-1.1-2.5c-0.1-0.1-0.6-1.3-0.6-1.3c0.3-0.1,1,1.4,1.2,1.7c0.4,0.6,0.7,1.3,1,2
							c0.7,1.6,1.3,3.3,1.6,5c0.7,3.1,0.9,6.3,0.3,9.4c0.3-0.1,0.6,0.1,0.9,0.1c0.4,0.1,0.9,0.2,1.3,0.3c0.8,0.2,1.6,0.3,2.3,0.4
							c0.3,0,4.3,0.4,4.3,0.4c0,0.3-4.3,0-4.6,0c-0.7-0.1-1.4-0.2-2.1-0.3c-0.7-0.1-1.6-0.2-2.2-0.6c-0.1,0.6-0.2,1.1-0.4,1.6
							c0.3-0.1,0.9,0.2,1.2,0.2c0.5,0.1,0.9,0.3,1.4,0.4c0.9,0.2,1.7,0.5,2.6,0.6c0.9,0.2,1.9,0.3,2.9,0.4c0.5,0,1,0,1.6,0
							c0.4,0,0.9-0.1,1.3-0.1c-0.1-0.5,0.1-1.1,0.1-1.6c0-0.6,0.1-1.2,0.1-1.8c0.1-0.9,0.1-1.9,0.1-2.8
							C163.1,108.4,163,105.2,162.6,102.6z"/>
						<path class="st6" d="M128.7,114.2c0.6-2.6,0.9-5.3,1.1-7.9c0.2-2.6,0.3-5.3,0.4-7.9c0.1-2.4,0.1-4.8,0.1-7.3
							c0-0.6,0-1.1,0-1.7c0,0-0.1-0.6,0-0.6c0.2-0.2,1-0.1,1.2-0.1c0.3-0.1,0.7-0.1,1-0.2c-0.6,0-1.4-0.6-1.9-1
							c-0.5-0.4-1-1-1.4-1.6c-0.2-0.3-0.3-0.6-0.4-1c0-0.1,0-0.5-0.2-0.6c-0.5-0.2-0.7,0-1.2,0.1c-0.5,0.2-1.2,0.1-1.7,0.1
							c-1.7,0-3.3-0.5-4.8-1.3c-2.5-1.2-4.6-3.2-6.4-5.3c-1.1-1.2-2-2.5-2.9-3.9c-0.2-0.4-0.2-0.6-0.6-0.4c-0.8,0.3-1.6,0.5-2.4,0.7
							c-0.9,0.3-1.8,0.6-2.7,0.9c-0.6,0.2-1.1,0.6-1.7,0.8c-0.2-0.3,2.6-1.5,3-1.6c1.2-0.5,2.6-1,3.9-1.2c-0.2-0.4-0.4-1.1-0.9-1.1
							c-1.1,0.1-2.3,0.4-3.3,0.7c-1,0.3-1.9,0.6-2.8,1c-0.8,0.3-1.6,0.8-2.4,1c0.4,0.9,0.6,1.9,0.9,2.8c0.5,1.2,1,2.4,1.6,3.6
							c1,2.1,2.3,4.1,3.7,5.9c1.6,2.1,3.5,4,5.5,5.7c2.1,1.7,4.4,3.1,6.8,4.4c0.9-1.8,2-3.6,3.2-5.3c0.4-0.6,0.8-1.2,1.3-1.7
							c0.3-0.4,0.8-1.3,1.3-1.4c0,0-1.9,2.7-2,2.9c-0.9,1.4-1.8,2.9-2.6,4.3c-1.4,2.6-2.5,5.4-3.3,8.3c-0.4,1.6-0.7,3.3-0.8,5
							c-0.1,1.8-0.2,4,0.5,5.7c0,0.1,0.8,0.1,0.9,0.1c0.8,0,1.5,0,2.3,0c1.7,0,3.4,0,5.2,0c0.6,0,1.2,0,1.8,0c0.1,0,0.3,0,0.4,0
							C128.6,115.2,128.7,114.4,128.7,114.2C128.9,113.5,128.7,114.5,128.7,114.2z"/>
						<g>
							<g>
								<path class="st7" d="M110.5,71.9c0,0-3.3,0.7-3.6,1c0,0,6.6,7.2,9.6,7.2c0,0-3.7-4.5-4.8-6.5
									C110.6,71.6,110.5,71.9,110.5,71.9z"/>
							</g>
							<path class="st7" d="M154.5,115.2c-0.7-13.2-4.9-17.2-4.9-17.2c3.4,8,2.5,15.7,2.3,17.2c0,0.2,0,0.3,0,0.3s-0.1,0,0.3,0.2
								c0.4,0.2,2.5,0.6,2.5,0.6C154.6,116,154.5,115.6,154.5,115.2z"/>
						</g>
						<g id="Button_1_">
							<g>
								<path class="st1" d="M133.7,91.1c0,0-0.1,0.1-0.1,0.2c-0.1,0.1-0.2,0.2-0.4,0.3c-0.2,0.1-0.5,0.1-0.8,0
									c-0.1,0-0.3-0.1-0.4-0.2c-0.1-0.1-0.2-0.2-0.2-0.3c0-0.1,0-0.2,0.1-0.3c0.1-0.1,0.2-0.2,0.4-0.2c0.3-0.1,0.6-0.1,0.8,0
									c0.2,0.1,0.4,0.2,0.4,0.3C133.6,91,133.7,91.1,133.7,91.1c0,0,0.1-0.1,0.1-0.3c0-0.2-0.2-0.4-0.5-0.6
									c-0.3-0.2-0.7-0.2-1.1-0.1c-0.2,0.1-0.4,0.2-0.6,0.3c-0.2,0.2-0.4,0.4-0.3,0.8c0,0.3,0.2,0.6,0.4,0.7
									c0.2,0.2,0.4,0.2,0.6,0.3c0.4,0.1,0.8,0,1.1-0.2c0.3-0.2,0.4-0.4,0.4-0.6C133.8,91.2,133.8,91.1,133.7,91.1z"/>
							</g>
							<g>
								<path class="st1" d="M133.7,99.6c0,0-0.1,0.1-0.1,0.2c-0.1,0.1-0.2,0.2-0.4,0.3c-0.2,0.1-0.5,0.1-0.8,0.1
									c-0.1,0-0.3-0.1-0.4-0.2c-0.1-0.1-0.2-0.2-0.2-0.3c0-0.1,0-0.2,0.1-0.3c0.1-0.1,0.2-0.2,0.4-0.2c0.3-0.1,0.6-0.1,0.8,0
									c0.2,0.1,0.4,0.2,0.4,0.3C133.6,99.5,133.7,99.6,133.7,99.6c0,0,0.1-0.1,0.1-0.3c0-0.2-0.2-0.4-0.5-0.6
									c-0.3-0.2-0.7-0.2-1.1-0.1c-0.2,0.1-0.4,0.1-0.6,0.3c-0.2,0.2-0.4,0.4-0.3,0.8c0,0.3,0.2,0.6,0.4,0.7
									c0.2,0.2,0.4,0.2,0.6,0.3c0.4,0.1,0.8,0,1.1-0.2c0.3-0.2,0.4-0.4,0.4-0.6C133.8,99.6,133.7,99.6,133.7,99.6z"/>
							</g>
							<g>
								<path class="st1" d="M133.3,107.9c0,0-0.1,0.1-0.1,0.2c-0.1,0.1-0.2,0.2-0.4,0.3c-0.2,0.1-0.5,0.1-0.8,0
									c-0.1,0-0.3-0.1-0.4-0.2c-0.1-0.1-0.2-0.2-0.2-0.3c0-0.1,0-0.2,0.1-0.3c0.1-0.1,0.2-0.2,0.4-0.2c0.3-0.1,0.6-0.1,0.8,0
									c0.2,0.1,0.4,0.2,0.4,0.3C133.3,107.8,133.3,107.9,133.3,107.9c0,0,0.1-0.1,0.1-0.3c0-0.2-0.2-0.4-0.5-0.6
									c-0.3-0.2-0.7-0.2-1.1-0.1c-0.2,0.1-0.4,0.2-0.6,0.3c-0.2,0.2-0.3,0.4-0.3,0.8c0,0.3,0.2,0.6,0.4,0.7
									c0.2,0.2,0.4,0.2,0.6,0.3c0.4,0.1,0.8,0,1.1-0.2c0.3-0.2,0.4-0.4,0.4-0.6C133.4,108,133.4,107.9,133.3,107.9z"/>
							</g>
						</g>
						<g>
							<g>
								<path class="st1" d="M144,94.7c-0.3,0-0.6,0-0.9,0c-0.4,0-0.8,0-1.2,0c-0.4,0-0.8,0-1.3,0.1c-0.2,0-0.4,0-0.7,0
									c-0.2,0-0.4,0-0.7,0.1c-0.9,0.1-1.7,0.2-2.4,0.3c-0.1,0-0.2,0-0.3,0.1c-0.1,0-0.1,0-0.2,0c-0.1,0-0.2,0-0.2,0.1
									c-0.1,0-0.1,0.1-0.1,0.2c0,0.1,0,0.1,0,0.2c0,0,0,0.1,0,0.1c0,0,0,0.1,0,0.1c0,0.2,0,0.4,0,0.5c0,0.2,0.1,0.2,0.2,0.3
									c0.1,0,0.2,0,0.2-0.1c0-0.1,0.1-0.2,0.2-0.5c0-0.1,0-0.1,0-0.2c0,0,0,0,0,0h0c0,0,0,0,0,0h0c0,0,0,0,0,0c0,0,0,0,0.1,0
									c0.1,0,0.2,0,0.3-0.1c0.6-0.1,1.4-0.3,2.3-0.4c0.2,0,0.4-0.1,0.6-0.1c0.2,0,0.4-0.1,0.7-0.1c0.4,0,0.9-0.1,1.3-0.1
									c0.4,0,0.8-0.1,1.2-0.1c0.4,0,0.7,0,0.9,0c0.5,0,0.9-0.1,0.9-0.1C144.8,94.8,144.5,94.8,144,94.7z"/>
							</g>
							<g>
								<path class="st1" d="M142.5,96.4c-0.2,0-0.4,0-0.7,0c-0.3,0-0.5,0-0.8,0c-1.2,0.1-2.6,0.2-3.6,0.4c-1.2,0.2-1.2,0.3-1.1,0.5
									c0,0.1,0,0.2,1.2,0c0.9-0.2,2.4-0.4,3.5-0.5c0.3,0,0.6-0.1,0.8-0.1c0.3,0,0.5,0,0.7-0.1c0.4,0,0.6-0.1,0.6-0.1
									C143.1,96.4,142.8,96.4,142.5,96.4z"/>
							</g>
						</g>
					</g>
					<g id="Head_2_">
						<g id="Cook_hat_1_">
							<path class="st6" d="M160.2,49.9c-0.3-1.5-1.3-2.7-2.7-3.3c-0.6-0.2-1.2-0.3-1.8-0.4c-0.9-0.1-1.8,0-2.7,0.2
								c-0.1,0-0.3,0-0.4,0.1c-0.1,0-0.1,0-0.1,0.1c0,0.1,0,0.2,0,0.3c-0.1,0.4-0.2,0.8-0.3,1.1c-0.2,0.6-0.6,1.2-1.1,1.5
								c0,0,0,0,0,0c0,0-0.2,0.1-0.1,0c0,0,0,0,0,0c0.1-0.2,0.3-0.4,0.4-0.6c0.4-0.6,0.6-1.3,0.7-2c0.1-0.6,0.1-1.1,0-1.7
								c0-0.1-0.1-0.2-0.1-0.4c-0.2-0.6-0.6-1.2-1-1.7c-1-1.2-2.3-2-3.8-2.3c-1.6-0.4-3.3-0.3-4.9,0.1c-1.3,0.3-2.6,0.9-3.6,1.9
								c-0.1,0.1-0.1,0.1-0.2,0.2c-1.2,1.3-1.8,3.1-2,4.9c0,0.2,0,0.4,0,0.6c0,0.1,0,0.2,0,0.3c0,0-0.1-0.6-0.1-0.6
								c-0.1-1,0.1-2.1,0.4-3c-0.6,0-1.2-0.1-1.8-0.2c-0.7,0-1.5,0-2.2,0.1c-1.6,0.2-3.2,0.8-4.4,1.8c-1.2,0.9-2.1,2.2-2.4,3.7
								c-0.3,1.5,0.2,3.1,1.3,4.2c1.1,1,2.7,1.4,4.2,1.2c0.8-0.1,1.5-0.4,2.2-0.7c0.7-0.3,1.4-0.5,2.1-0.7c0.3-0.1,0.6-0.1,0.9-0.2
								c0,0,0.4,0,0.4,0c-0.1,0.1-0.3,0.1-0.4,0.1c-0.3,0.1-0.7,0.2-1,0.3c-0.7,0.3-1.4,0.6-2.1,0.9c-0.3,0.2-0.7,0.3-1,0.4
								c-0.1,0-0.4,0.1-0.4,0.2c0,0.2,0,0.4,0,0.5c0,0.3-0.1,0.7-0.2,1c0,0.2-0.1,0.3-0.1,0.5c1-0.3,2-0.4,3.1-0.5
								c1-0.1,1.9-0.1,2.9,0h0c0.5,0,1,0,1.5,0.1c1.5,0.1,2.9,0.4,4.3,0.8c0.2,0.1,3.1,1,3.1,1.2c0,0.1-1.3-0.4-1.3-0.4
								c-0.7-0.2-1.5-0.4-2.2-0.6c-1.6-0.4-3.2-0.6-4.8-0.6c-0.2,0-0.4,0-0.6,0h-0.1c-1.4,0-2.7,0.1-4.1,0.2c-0.5,0.1-1,0.2-1.6,0.2
								c-0.1,0-0.3,0-0.4,0.1c-0.1,0.4-0.3,0.8-0.5,1.2c-0.2,0.4-0.3,0.7-0.6,1c1.8-0.9,3.9-1.1,5.8-1.1h0.1c0,0,0.1,0,0.1,0h0.1
								c0.2,0,0.4,0,0.6,0c0.1,0,0.1,0,0.2,0c2,0.1,3.9,0.4,5.8,1.1c1,0.3,1.9,0.7,2.8,1.2c0.7,0.3,1.6,0.7,2.2,1.3
								c-0.2-1.4-0.1-2.8,0.1-4.2c0.2-1.4,0.4-2.8,0.8-4.1c0-0.1,0.1-0.3,0.1-0.4c0.2-0.5,0.3-1,0.5-1.6c0,0,0.1-0.2,0.1-0.3v0
								c0.1-0.1,0.1-0.2,0.1-0.2c0.1,0.2-0.1,0.6-0.1,0.8c0,0,0,0,0,0c-0.1,0.6-0.3,1.2-0.4,1.8c-0.1,0.4-0.2,0.8-0.2,1.1
								c0,0.1-0.1,0.2,0,0.2c0.1,0,0.1,0.1,0.2,0.1c0.1,0.1,0.3,0.2,0.5,0.2c0.6,0.3,1.3,0.4,1.9,0.5c0,0,0.1,0,0.1,0
								c0.1,0,0.1,0,0.2,0.1c0.9,0.1,1.9,0.1,2.8-0.1c0.4-0.1,0.8-0.2,1.2-0.4c0.1-0.1,0.3-0.1,0.4-0.2
								C159,55.8,160.9,52.8,160.2,49.9z"/>
							<g>
								<g>
									<path class="st7" d="M138.7,42.8c-0.1,0.1-0.1,0.1-0.2,0.2c-1.2,1.3-1.8,3.1-2,4.9c0,0.2,0,0.4,0,0.6c0,0.1,0,0.2,0,0.3
										c0,0-0.1-0.6-0.1-0.6c-0.1-1,0.1-2.1,0.4-3c-0.6,0-1.2-0.1-1.8-0.2c-0.7,0-1.5,0-2.2,0.1c-1.6,0.2-3.1,0.8-4.4,1.8
										c-1.2,0.9-2.1,2.2-2.4,3.7c-0.3,1.5,0.2,3.1,1.3,4.2c1.1,1,2.7,1.4,4.2,1.2c0.8-0.1,1.5-0.4,2.2-0.7
										c0.7-0.3,1.4-0.5,2.2-0.7c0.3-0.1,0.6-0.1,0.9-0.2c0,0,0.4,0,0.4,0c-0.1,0.1-0.3,0.1-0.4,0.1c-0.3,0.1-0.7,0.2-1,0.3
										c-0.7,0.3-1.4,0.6-2.1,0.9c-0.3,0.2-0.7,0.3-1,0.4c-0.1,0-0.4,0.1-0.4,0.2c0,0.2,0,0.4,0,0.5c0,0.5-0.2,1-0.3,1.5
										c1-0.3,2-0.4,3.1-0.5c1-0.1,1.9-0.1,2.9,0c0.8-4.8,3.6-11.4,3.6-11.4C138.8,45.7,138.4,44.2,138.7,42.8z"/>
									<path class="st7" d="M131.9,58.8c-0.1,0-0.3,0-0.4,0.1c-0.1,0.4-0.3,0.8-0.5,1.2c-0.2,0.4-0.3,0.7-0.6,1
										c1.8-0.9,3.9-1.1,5.8-1.1h0.1c0,0,0.1,0,0.1,0h0.1c0.2,0,0.4,0,0.6,0c0-0.5,0.2-1.1,0.3-1.7c-1.4,0-2.7,0.1-4.1,0.2
										C132.9,58.6,132.4,58.7,131.9,58.8z"/>
								</g>
								<path class="st7" d="M153.1,46.4c-0.1,0-0.3,0-0.4,0.1c-0.1,0-0.1,0-0.1,0.1c0,0.1,0,0.2,0,0.3c-0.1,0.4-0.2,0.8-0.3,1.1
									c-0.2,0.6-0.6,1.2-1.1,1.5c0,0,0,0,0,0c2.3,0.4,1.3-2.9,5.2-3.3C155.1,46,153.9,46.2,153.1,46.4z"/>
								<path class="st7" d="M149.9,53.6C149.9,53.6,149.9,53.6,149.9,53.6c-0.1,0.6-0.3,1.2-0.4,1.8c-0.1,0.4-0.2,0.8-0.2,1.1
									c0,0.1-0.1,0.2,0,0.2c0.1,0,0.1,0.1,0.2,0.1c0.1,0.1,0.3,0.2,0.5,0.2c0.6,0.3,1.3,0.4,1.9,0.5c0.1,0,0.2,0,0.3,0
									C150.2,57.1,149.9,54.8,149.9,53.6z"/>
							</g>
						</g>
						<g>
							<path class="st4" d="M149.9,75.4c0-0.1-0.1-0.2-0.1-0.4c0-0.1-0.1-0.2-0.1-0.3c0-0.1-0.1-0.2-0.1-0.3
								c-0.2-0.5-0.3-0.9-0.5-1.3c-0.3-0.7-0.5-1.4-0.6-2c0,0,0,0,0,0c0-0.2-0.1-0.4-0.1-0.6c-0.1-0.3-0.1-0.6-0.1-0.9
								c0,0,0-0.1,0-0.1c0-0.1,0-0.2,0-0.2c0-0.4-0.1-0.8-0.1-1.1c-0.1-1.4,0-2.6,0.1-3.4c0-0.5,0.1-0.8,0.1-1c0,0-0.1,0-0.1-0.1
								c-0.1-0.1-0.3-0.2-0.6-0.3c-0.6-0.3-1.4-0.6-2.5-1c-1.1-0.4-2.3-0.8-3.8-1.2c-1.4-0.3-3.1-0.5-4.8-0.5
								c-1.7,0-3.3,0.2-4.7,0.6c-0.7,0.2-1.3,0.5-1.8,0.9c-0.5,0.4-0.9,0.8-1.1,1.3c-0.2,0.5-0.3,1-0.4,1.4c0,0.4,0,0.8,0,1.1
								c0.1,0.6,0.2,1,0.1,1c0,0,0,0-0.1-0.1c-0.1,0.1-0.3,0.3-0.6,0.6c-0.1,0.1-0.1,0.1-0.2,0.2c-0.1,0.1-0.1,0.1-0.2,0.2
								c-0.1,0.1-0.3,0.3-0.4,0.4c-0.2,0.1-0.3,0.3-0.5,0.5c-0.1,0.1-0.2,0.2-0.2,0.3c-0.1,0.1-0.2,0.2-0.3,0.3
								c-0.7,0.9-1.4,2-1.8,3.3c-0.5,1.4-0.6,3-0.4,4.6l0,0.2l0,0.1c0,0.1,0,0.2,0.1,0.3c0,0.1,0,0.2,0.1,0.3l0,0.1c0,0,0,0.1,0,0.1
								c0.1,0.4,0.2,0.8,0.4,1.1c0.1,0.2,0.1,0.4,0.2,0.5c0.1,0.2,0.2,0.3,0.3,0.5c0.2,0.3,0.4,0.6,0.6,0.9c0,0.1,0.1,0.1,0.2,0.2
								l0.2,0.2c0.1,0.1,0.1,0.1,0.2,0.2l0.1,0.1l0.1,0.1c0.1,0.1,0.2,0.2,0.4,0.4l0.1,0.1l0.1,0.1c0.1,0,0.1,0.1,0.2,0.1
								c0.2,0.2,0.5,0.4,0.8,0.5c0.1,0.1,0.3,0.1,0.4,0.2c0.1,0.1,0.2,0.1,0.4,0.2c1,0.4,1.9,0.6,2.5,0.6c0.2,0,0.4,0,0.6,0
								c0-0.1-0.1-0.1-0.1-0.2c-0.2-0.3-0.4-0.6-0.6-0.9c-0.3-0.6-0.6-1-0.9-1.2c-0.1-0.1-0.2-0.2-0.3-0.3c-0.1-0.1-0.1-0.1-0.1-0.1
								c0,0,0.1,0,0.2,0c0.1,0,0.2,0.1,0.4,0.2c0.3,0.2,0.7,0.6,1.1,1.2c0.4,0.5,0.8,1.2,1.4,1.6c0.3,0.2,0.7,0.4,1.1,0.4
								c0.4,0.1,0.9,0.1,1.4,0.1c0.9-0.1,1.8-0.5,2.4-0.9c0.7-0.5,1.2-1,1.8-1.4c0.5-0.4,1-0.7,1.4-0.8c0.4-0.1,0.6-0.1,0.6,0
								c0,0-0.2,0.1-0.5,0.3c-0.3,0.2-0.7,0.5-1.2,0.9c-0.3,0.3-0.6,0.6-1,1c0.2,0,0.5,0.1,0.9,0.2c0.8,0.2,1.9,0.5,3.3,0.6
								c0.7,0,1.4-0.1,2.2-0.3c0.8-0.2,1.6-0.6,2.3-1.1c0.2-0.1,0.4-0.3,0.6-0.4l0,0c0.5-0.4,1.1-0.9,1.5-1.5c0.6-0.8,0.9-1.8,1-2.8
								c0.1-1-0.1-2.1-0.3-3C150,75.6,150,75.5,149.9,75.4z"/>
							<path class="st4" d="M151.9,65.6c-0.4-0.2-0.7-0.3-1.1-0.3c-0.4,0-0.7,0-1,0.1c-0.6,0.2-0.9,0.7-1.1,0.9
								c-0.1,0.1-0.1,0.2-0.2,0.2c0,0.4,0,0.9,0.1,1.4c0,0.4,0.1,0.7,0.1,1.1c0.1,0.4,0.1,0.8,0.2,1.2c0.2,0.8,0.4,1.7,0.7,2.5
								c0,0.1,0,0.1,0.1,0.2c0,0,0.1,0,0.1,0c0.2,0,0.4,0,0.6,0c0.1,0,0.2-0.1,0.3-0.2c0.1,0,0.1-0.1,0.2-0.1c0.1,0,0.1-0.1,0.2-0.1
								c0.2-0.2,0.4-0.5,0.5-0.8c0.1-0.4,0.2-0.8,0.3-1.2c0.1-0.2,0.1-0.4,0.2-0.7c0.1-0.2,0.2-0.4,0.3-0.7c0-0.1,0.1-0.2,0.1-0.3
								c0-0.1,0.1-0.2,0.1-0.3c0.1-0.2,0.1-0.5,0.2-0.7c0.1-0.5,0-0.9-0.1-1.3C152.5,66.1,152.2,65.8,151.9,65.6z M151.8,69.4
								c0,0.2-0.1,0.3-0.2,0.5c-0.1,0.1-0.2,0.2-0.3,0.3c-0.4,0.3-0.7,0.3-0.7,0.3c0-0.1,0.2-0.2,0.5-0.5c0.1-0.1,0.3-0.3,0.3-0.5
								c0-0.1,0-0.2-0.1-0.3c0-0.1-0.1-0.1-0.1-0.2c0,0,0-0.1-0.1-0.1l-0.1-0.1c-0.2-0.2-0.4-0.2-0.7-0.2c-0.2,0.1-0.4,0.2-0.6,0.3
								c-0.1,0.1-0.2,0.2-0.3,0.3c-0.1,0.3-0.1,0.5-0.1,0.7c-0.1,0.4-0.2,0.7-0.2,0.7c-0.1,0-0.1-0.3-0.1-0.7c0-0.5,0.1-1.1,0.3-1.8
								c0.1-0.3,0.3-0.6,0.6-0.9c0.3-0.2,0.6-0.3,0.8-0.3c0.2,0,0.4,0.1,0.6,0.1c0.1,0.1,0.2,0.1,0.2,0.1c0,0-0.1,0-0.2,0
								c-0.1,0-0.3,0-0.5,0c-0.2,0-0.4,0.1-0.6,0.3c-0.2,0.2-0.3,0.4-0.5,0.7c0,0.1-0.1,0.2-0.1,0.3c0.1-0.1,0.3-0.3,0.5-0.3
								c0.2-0.1,0.4-0.1,0.6,0c0.2,0,0.4,0.1,0.5,0.3l0.1,0.1c0,0,0.1,0.1,0.1,0.1c0.1,0.1,0.1,0.2,0.1,0.2
								C151.8,69,151.8,69.2,151.8,69.4z"/>
							<g>
								<path class="st5" d="M149.9,75.4c0-0.1-0.1-0.2-0.1-0.4c0-0.1-0.1-0.2-0.1-0.3c0-0.1-0.1-0.2-0.1-0.3
									c-0.2-0.5-0.3-0.9-0.5-1.3c-0.3-0.7-0.5-1.4-0.6-2c0.2,1.6-0.6,2.3-1.2,3.8c0.1-0.1,1.3,0,1.8,0.7c0.2,0.3,0.6,1.5,0.6,2.5
									c-0.1,1.5-0.5,3.8-1.9,5c0.5-0.4,1.1-0.9,1.5-1.5c0.6-0.8,0.9-1.8,1-2.8c0.1-1-0.1-2.1-0.3-3C150,75.6,150,75.5,149.9,75.4z
									"/>
								<path class="st5" d="M136,63.5c0,0-1.5,0.8-1.6,2.1c0,0,0.7,1.3,0.1,1.4c0,0-2.3-2.7-3.1-2.9c-0.8-0.2-1.3-0.1-1.9,0.4
									c-0.3,0.1-0.4,0.3-0.5,0.9c-0.1,0.5,0,0.9-0.1,1.4c0,0.3,0.5,0.7,1.7,0.5c0.8-0.1,1.4,0.1,1.8,0.3c-0.2,0.3-0.2,1,0.2,1.9
									c0.3,0.5,0.4,0.7,1,0.9c0,0-0.8-1.5-0.6-2c0.1-0.4,0.2-0.6,0.2-0.7c0.6-0.3,1.3-0.6,1.8-0.5c0,0-0.2-1.3,0-2
									C135.4,64.5,135.8,63.9,136,63.5z"/>
								<path class="st5" d="M143.5,65.9c-0.6-0.3-2.3-1.6-2.5-1.6c-0.3-0.1-0.8,0.4-2,1.8c-1.1,1.3-1.1,2.2-1.1,2.2
									c3.7,0.1,5.6,1,6.4,1.1c0.8,0.1,0.6-0.2,0.5-0.8C144.5,68,144.1,66.3,143.5,65.9z"/>
								<path class="st5" d="M139.1,73.7c0,0,2.9-0.1,1.7,4.9c0,0,2.2-2.3,0.8-4.6C141.2,73.2,140.5,73.5,139.1,73.7z"/>
								<path class="st5" d="M129.9,82c-0.3-0.2-0.4-0.3-0.4-0.3s-0.2-0.1,0.2,0.5c0.8,1.2-0.5,1.9-3.1,0.5c0,0,1.9,2.1,5.1,1.8
									C131.7,84.5,130.2,82.2,129.9,82z"/>
								<path class="st5" d="M140.5,83c0.1-0.4,0.9-0.8,0.3-0.7c-0.6,0-2.3,1.9-2.3,1.9c4.1,1.3,6.2,0.6,6.2,0.6
									C140.5,84.7,140.4,83.4,140.5,83z"/>
								<path class="st5" d="M151.6,67c-0.5-0.3-1.4,0.3-1.4,0.3c-0.5,0.2-1.2,2.5-1,3c0.2,0.5,0.9,0.6,1.5,0
									c0.6-0.5,1.1-0.5,1.1-1.3C151.8,68.3,152.1,67.4,151.6,67z"/>
								<path class="st5" d="M128.2,67.1c-1.7,0.9-3.2,3.7-3.2,3.7s-0.3,0.3-0.3,0.6c-1.4,2.6-0.9,5.8-0.9,5.8
									c-0.2-1.2,0.2-2.9,0.3-3.4c0.2-0.5,0.5-0.8,0.9-0.8c1.5,0.1,2.7,2,3.1,2.6c0.4,0.7,1.3,2.5,1.5,2.8c0,0-1.8-4.1-1.8-4.3
									C128,74.1,126,70.2,128.2,67.1z"/>
								<g>
									<path class="st5" d="M136.6,83.1c-0.1,0-0.3,0.1-0.6,0.1c-0.5,0.1-1.1,0.1-1.8,0c-0.3-0.1-0.7-0.2-0.9-0.3
										c-0.3-0.1-0.5-0.2-0.7-0.3c-0.4-0.2-0.7-0.4-0.7-0.3c0,0,0.1,0.3,0.5,0.6c0.2,0.2,0.5,0.3,0.8,0.5c0.3,0.1,0.6,0.3,1,0.3
										c0.8,0.2,1.5,0,1.9-0.1c0.2-0.1,0.4-0.2,0.5-0.2c0.1-0.1,0.2-0.1,0.2-0.2C136.8,83.1,136.7,83.1,136.6,83.1z"/>
								</g>
								<path class="st5" d="M133.5,60.8c-3.9,0.6-4.7,2.5-4.6,2.7c0,0,3.3-3.9,13.5-2.2C142.3,61.3,138.9,60,133.5,60.8z"/>
							</g>
							<path class="st5" d="M138.5,84.2c-0.2,0.2-0.4,0.3-0.6,0.5c-0.4,0.3-0.8,0.5-1.2,0.7c-0.5,0.2-1,0.3-1.5,0.4
								c-0.5,0-1,0-1.5-0.1c-0.5-0.1-1-0.3-1.4-0.5c-0.3-0.2-0.5-0.4-0.7-0.6c-0.2,0-0.4,0.1-0.7,0.1c-0.5,0-1.2,0-2-0.2
								c0.1,0.1,0.1,0.3,0.3,0.5c0.3,0.5,0.7,1.1,1.3,1.7c0.3,0.3,0.6,0.5,0.9,0.8c0.3,0.2,0.6,0.4,0.8,0.5c0.3,0.2,0.5,0.3,0.7,0.4
								c0.6-0.2,1.3-0.4,1.8-0.7c1.2-0.5,2.2-1,3-1.5c1.2-0.7,2-1.2,2.3-1.3c-0.2-0.1-0.4-0.1-0.6-0.2
								C139,84.4,138.7,84.3,138.5,84.2z"/>
							<path class="st8" d="M151.6,68.5c0,0-0.1-0.1-0.1-0.1l-0.1-0.1c-0.2-0.1-0.3-0.3-0.5-0.3c-0.2,0-0.4,0-0.6,0
								c-0.2,0.1-0.4,0.2-0.5,0.3c0-0.1,0.1-0.2,0.1-0.3c0.1-0.3,0.3-0.5,0.5-0.7c0.2-0.2,0.4-0.2,0.6-0.3c0.2,0,0.4,0,0.5,0
								c0.1,0,0.2,0,0.2,0c0,0,0-0.1-0.2-0.1c-0.1-0.1-0.3-0.1-0.6-0.1c-0.2,0-0.6,0.1-0.8,0.3c-0.3,0.2-0.5,0.5-0.6,0.9
								c-0.3,0.7-0.3,1.3-0.3,1.8c0,0.5,0,0.7,0.1,0.7c0.1,0,0.1-0.3,0.2-0.7c0-0.2,0.1-0.4,0.1-0.7c0.1-0.1,0.2-0.2,0.3-0.3
								c0.2-0.1,0.4-0.3,0.6-0.3c0.2-0.1,0.5,0,0.7,0.2l0.1,0.1c0,0,0,0.1,0.1,0.1c0,0.1,0.1,0.1,0.1,0.2c0.1,0.1,0.1,0.2,0.1,0.3
								c0,0.2-0.2,0.4-0.3,0.5c-0.3,0.3-0.5,0.4-0.5,0.5c0,0.1,0.3,0,0.7-0.3c0.1-0.1,0.2-0.2,0.3-0.3c0.1-0.1,0.2-0.3,0.2-0.5
								c0-0.2,0-0.4-0.1-0.6C151.7,68.7,151.7,68.6,151.6,68.5z"/>
							<g id="face_1_">
								<g>
									<g>
										<g>
											<path class="st1" d="M132.7,64.3c-0.3-0.3-0.6-0.5-0.9-0.7c-0.2-0.1-0.4-0.2-0.6-0.3c-0.2-0.1-0.5-0.1-0.8,0
												c-0.4,0.1-0.7,0.4-0.9,0.6c-0.3,0.3-0.5,0.7-0.4,0.9c0,0.1,0.1,0.1,0.1,0.2c0,0,0.1,0,0.1,0c0.1,0,0.2-0.1,0.4-0.3
												c0.1-0.1,0.2-0.2,0.3-0.2c0.2-0.2,0.4-0.3,0.6-0.3c0.1,0,0.2,0,0.3,0c0.1,0,0.3,0.1,0.4,0.2c0.6,0.3,1.1,0.8,1.5,1.1
												c0.1,0.1,0.2,0.2,0.3,0.2c0.2,0.2,0.4,0.3,0.5,0.3c0,0,0.1,0,0.1,0c0.1,0,0.1-0.1,0.1-0.2c0.1-0.2-0.2-0.6-0.4-0.9
												C133.1,64.8,132.9,64.5,132.7,64.3z"/>
											<path class="st1" d="M143.1,65c-0.3-0.3-0.6-0.5-0.9-0.7c-0.1-0.1-0.3-0.2-0.6-0.3c-0.1,0-0.2-0.1-0.4-0.1
												c-0.1,0-0.1,0-0.2,0l-0.1,0c-0.1,0-0.2,0-0.4,0.1c-0.1,0-0.2,0.1-0.2,0.1l0,0c-0.1,0-0.1,0.1-0.1,0.1l-0.3,0.2
												c-0.2,0.2-0.3,0.3-0.5,0.5c-0.2,0.3-0.5,0.6-0.7,0.9c-0.6,0.9-0.5,1-0.4,1.1c0,0,0.1,0,0.1,0c0.1,0,0.3-0.1,0.9-0.7
												l0.7-0.7l0,0c0.1-0.1,0.3-0.2,0.4-0.4l0.2-0.2c0,0,0,0,0.1,0c0,0,0,0,0,0c0,0,0,0,0,0h0c0,0,0,0,0,0l0,0
												c0.1,0,0.2,0,0.2,0.1c0.2,0.1,0.4,0.2,0.5,0.2c0.3,0.2,0.5,0.3,0.8,0.4l0.3,0.2c0.4,0.3,0.6,0.4,0.7,0.4
												c0.1,0,0.1,0,0.2-0.1c0,0,0.1-0.1,0.1-0.2C143.7,65.6,143.2,65.2,143.1,65z"/>
										</g>
										<path class="st1" d="M132,65.8c-0.6-0.3-1.2-0.2-1.5,0.2c-0.3,0.4-0.8,0.7-0.8,0.7c0.6,0.8,1.5,0,1.9-0.1
											c0.4-0.1,1,0.5,1.2,0.3C133,66.9,132.5,66.1,132,65.8z"/>
										<path class="st1" d="M140.2,67.1c-0.4,0.3-1.1,0.7-1.1,0.7c-0.1,0-0.3,0.1,0,0.2c0.3,0.1,1.8-0.2,2.1,0
											c0.4,0.2,0.9,0.3,0.9,0.3c-0.2-0.2,0-0.6-0.4-1.2C141.4,66.5,140.6,66.8,140.2,67.1z"/>
									</g>
									<g>
										<path class="st1" d="M133.4,68.5L133.4,68.5c0.1-0.2,0.1-0.2,0.1-0.3c0.2-0.2,0.5-0.4,0.8-0.4c0.2,0,0.4-0.1,0.7-0.1h0.1
											h0.1c0.1,0,0.2,0,0.4,0c0.2,0,0.5,0.1,0.8,0.1c-0.2-0.3-0.3-0.5-0.5-0.8l-0.1-0.1c0,0,0,0,0-0.1l0,0l0,0l0-0.1
											c0-0.1-0.1-0.1-0.1-0.2c-0.1-0.1-0.1-0.3-0.1-0.4c0-0.1-0.1-0.2-0.1-0.4c-0.1-0.5,0-0.9,0.2-1.3c0.1-0.3,0.3-0.6,0.4-0.8
											c0.1-0.2,0.2-0.3,0.2-0.3c0,0-0.1,0-0.3,0.2c-0.2,0.1-0.4,0.4-0.6,0.8c-0.2,0.4-0.4,0.9-0.3,1.5c0,0.1,0,0.3,0.1,0.5
											c0,0.1,0.1,0.3,0.1,0.5c0,0.1,0.1,0.1,0.1,0.2l0,0.1l0,0l0,0c0,0,0,0,0,0l0,0c0,0,0,0,0,0l0,0l0,0h-0.2
											c-0.2,0-0.5,0-0.8,0.1c-0.2,0-0.4,0.1-0.7,0.2c-0.2,0.1-0.4,0.3-0.6,0.5c-0.1,0.1-0.1,0.2-0.2,0.3c0,0.1,0,0.1,0,0.2
											l0,0.2c0,0.2,0,0.4,0,0.6c0.1,0.4,0.3,0.8,0.6,1c0.3,0.2,0.6,0.3,0.9,0.3c0.6,0,1.1-0.2,1.3-0.4c0.2-0.2,0.3-0.4,0.3-0.4
											c0,0-0.2,0.1-0.4,0.2c-0.2,0.1-0.6,0.3-1.1,0.2c-0.2,0-0.5-0.1-0.7-0.3c-0.2-0.2-0.3-0.4-0.4-0.7c0-0.1,0-0.3,0-0.5
											L133.4,68.5z"/>
									</g>
								</g>
								<g>
									<path class="st9" d="M130.4,78.3c1.2,3,1.2,3.4,4.4,3.8c3.2,0.4,4.7-0.2,5.2-2.7c0.5-2.5,0.3-3.8,1.2-4.3l-12.9-1.5
										C128.3,73.7,129.1,75.2,130.4,78.3z"/>
									<path class="st10" d="M137.7,78.3c-0.4,0.1-1.5,0.7-1.5,0.7s-1.2-0.7-3-0.3c-1.3,0.3-2.2,1.2-2.2,1.2
										c0.7,1.6,1.2,1.9,3.8,2.3c3.2,0.4,4.7-0.2,5.2-2.7c0.1-0.5,0.2-0.9,0.2-1.3C140.2,78.1,138.7,77.9,137.7,78.3z"/>
									<g>
										<path class="st11" d="M134.7,73.3l-5.5,0.6c0,0-0.2,1.8,1.5,2.1c1.7,0.3,8.4,1.1,8.8,0.9c0.4-0.2,0.8-0.6,0.9-1.4
											C140.6,74.8,134.7,73.3,134.7,73.3z"/>
										<g>
											<path class="st11" d="M131.5,79.7c-0.2,0-0.3,0.1-0.4,0.2c0.7,1.5,1.2,1.8,3.7,2.2c3.1,0.4,4.6-0.2,5.1-2.5
												C136.5,81.2,132.1,79.7,131.5,79.7z"/>
											<path class="st1" d="M136.2,80.2c-1.6,0-3.1-0.3-4-0.5c-0.4-0.1-0.6-0.1-0.7-0.1c-0.2,0-0.4,0.1-0.5,0.3l-0.1,0.1l0,0.1
												c0.7,1.6,1.3,1.9,3.9,2.3c0.6,0.1,1.2,0.1,1.6,0.1c0,0,0,0,0,0c2.1,0,3.2-0.8,3.7-2.7l0.1-0.4l-0.4,0.2
												C138.8,79.9,137.6,80.2,136.2,80.2z M136.4,82L136.4,82c-0.5,0-1,0-1.6-0.1c-2.4-0.3-2.9-0.6-3.5-1.9
												c0.1,0,0.1-0.1,0.2-0.1c0.1,0,0.3,0.1,0.6,0.1c0.8,0.2,2.4,0.5,4.1,0.5c1.3,0,2.5-0.2,3.5-0.6
												C139.2,81.4,138.3,82,136.4,82z"/>
										</g>
									</g>
									<path class="st1" d="M140.9,75.2c-0.1,0.1-0.3,0.3-0.4,0.6c-0.2,0.5-0.3,1.3-0.5,2.2c-0.1-0.1-0.4-0.1-0.6-0.1
										c-0.3,0-0.6,0-0.9,0c-0.2,0-0.3,0-0.5,0.1c-0.1,0-0.2,0-0.3,0.1c-0.1,0-0.2,0.1-0.3,0.1c-0.4,0.2-0.8,0.4-1.1,0.6
										c-0.1-0.1-0.3-0.2-0.7-0.3c-0.5-0.1-1.2-0.2-2-0.1c-0.4,0.1-0.8,0.2-1.1,0.3c-0.1,0-0.2,0.1-0.2,0.1
										c-0.1,0-0.1,0.1-0.2,0.1c-0.1,0.1-0.2,0.2-0.3,0.3c-0.2,0.2-0.3,0.3-0.4,0.5c-0.2-0.5-0.4-1-0.6-1.5
										c-0.3-0.6-0.5-1.1-0.7-1.5c-0.9-1.9-1.6-3-1.6-2.9c-0.1,0,0.5,1.2,1.2,3.1c0.2,0.5,0.4,1,0.6,1.6c0.2,0.6,0.4,1.2,0.7,1.8
										c0.1,0.3,0.3,0.6,0.5,1c0.2,0.3,0.6,0.6,0.9,0.8c0.4,0.2,0.8,0.3,1.1,0.4c0.4,0.1,0.8,0.1,1.2,0.2c0.8,0.1,1.6,0.2,2.3,0.1
										c0.2,0,0.4,0,0.6-0.1c0.1,0,0.2,0,0.3-0.1c0.1,0,0.2-0.1,0.3-0.1c0.4-0.1,0.7-0.3,1-0.6c0.3-0.3,0.5-0.5,0.7-0.9
										c0.2-0.3,0.3-0.6,0.3-0.9c0-0.2,0.1-0.3,0.1-0.5c0-0.1,0-0.3,0.1-0.4c0-0.3,0.1-0.5,0.1-0.8c0.1-1,0.2-1.9,0.3-2.4
										c0.2-0.5,0.5-0.7,0.4-0.7C141.1,75.1,141.1,75.1,140.9,75.2z M139.8,79c0,0.1-0.1,0.3-0.1,0.4c0,0.1-0.1,0.3-0.1,0.4
										c-0.2,0.5-0.4,1.1-0.9,1.5c-0.2,0.2-0.5,0.3-0.8,0.4c-0.1,0-0.2,0-0.2,0.1c-0.1,0-0.2,0-0.2,0c-0.2,0-0.3,0-0.5,0.1
										c-0.7,0-1.5,0-2.2-0.1c-0.4-0.1-0.8-0.1-1.1-0.2c-0.4-0.1-0.7-0.2-1-0.3c-0.3-0.1-0.5-0.3-0.7-0.6
										c-0.2-0.2-0.3-0.6-0.5-0.8c0,0,0,0,0-0.1c0.1-0.1,0.3-0.2,0.6-0.3c0.1-0.1,0.2-0.1,0.3-0.2c0.1,0,0.1-0.1,0.2-0.1
										c0.1,0,0.1-0.1,0.2-0.1c0.3-0.1,0.6-0.2,1-0.2c0.7-0.1,1.4-0.1,1.9,0c0.2,0,0.4,0,0.6,0c-0.1,0.1-0.2,0.2-0.3,0.3
										c-0.2,0.2-0.3,0.4-0.4,0.5c-0.1,0.1-0.1,0.2-0.1,0.2c0,0,0.1,0,0.2-0.1c0.1-0.1,0.3-0.2,0.5-0.3c0.4-0.3,0.9-0.6,1.6-0.8
										c0.1,0,0.2-0.1,0.2-0.1c0.1,0,0.2,0,0.2-0.1c0.2-0.1,0.3-0.1,0.5-0.1c0.3-0.1,0.6-0.1,0.8-0.1c0.3,0,0.5-0.1,0.6-0.1
										C139.9,78.4,139.9,78.7,139.8,79z"/>
								</g>
								<g id="Beard_1_">
									<path class="st1" d="M145.9,69.7c-0.8,0.1-1.1,0.6-1.1,0.6c0.8-0.7,2.8,0.5,0.6,1.7c-4.8,2.6-6-1.9-9.4-1
										c-1.4,0.4-1.6,1.4-1.7,2c-0.2,1.5,1.7,3.1,5.3,3.1c3.6-0.1,6.1-2.1,6.1-2.1C148.9,71.8,147,69.6,145.9,69.7z"/>
									<path class="st1" d="M125.4,68.3c-0.6-1.2,0.7-1.8,1.6-1.5c0,0-1.5-1.3-2.7-0.2c-2,1.8,0.8,5.9,4,7.4
										c3.1,1.4,5.5,1,6.3-0.3c0.3-0.5,0.6-1.3-0.4-2.3C132.2,69.1,126.9,71.2,125.4,68.3z"/>
									<path class="st12" d="M131.5,70.7c-0.7-0.1-1.3,0-1.3,0c0.1,0.1,0.3,0.3,0.4,0.4c-0.9,0-1.8,0.1-2.3-0.2
										c0,0,0.9,0.6,1.5,0.8c0,0-2.7-0.2-3.6-1c0,0,2.4,2.2,4.7,2.7c2.3,0.5,2.6-0.6,2.5-1.6C133.4,71.7,133.1,70.7,131.5,70.7z"
										/>
									<path class="st12" d="M138.7,73.2c0.6,0.1,2-0.2,2-0.2c-0.5,0.1-1.3-0.3-2.2-0.5c0.2,0,0.3-0.3,0.5-0.3
										c0,0-0.5-0.3-1.2-0.5c-1.5-0.7-2.1,0-2.1,0c-0.3,0.4-0.8,1.9,1.4,2.4c2.2,0.5,5.4-0.5,5.4-0.5
										C141.4,74,138.7,73.2,138.7,73.2z"/>
								</g>
							</g>
							<path class="st1" d="M145.9,62.9c0.6,0.3,0.7,0.7,0.1,1c0,0,1.1,0.4,1.3,1c0.2,0.6-1.2,0.6-0.8,0.7c1.6,0.4,0.9,1.1,0.9,1.4
								c0,0.3,0.6,1,0.7,1.7c0,0,0-4.5,0.2-5c0,0-2.5-1.8-7.2-2.6C141.2,61,144.9,62.3,145.9,62.9z"/>
						</g>
					</g>
					<g id="XMLID_1_">
						<g>
							<path class="st1" d="M103.2,67.1c0-0.1,0.3-0.4,0.4-0.9c0.1-0.3,0.1-0.6,0-0.8c0-0.1-0.1-0.2-0.1-0.3
								c-0.1-0.3-0.3-0.5-0.6-0.8c-0.7-0.6-1.5-0.7-1.9-0.5c-0.3,0.1-0.5,0.3-0.6,0.4c0.6,0.1,1.2,0.4,1.7,0.9
								c0.5,0.4,0.9,1,1.1,1.6C103.2,66.9,103.2,67,103.2,67.1z M163.5,103.2c0.3,2.7,0.4,5.5,0.2,8.7c-0.1,1.6-0.2,3-0.5,4.3
								c0,0.1,0,0.1,0,0.2c0,0.5-0.1,1.1-0.5,1.3c-0.5,0.2-1.1,0.2-1.6,0.3c0.6,1.5,0.8,3.4,0.3,4.9c-0.4,1.7-1.8,3.5-3.7,3.6
								c-0.2,0-0.3,0-0.5,0c-0.2,0-0.4-0.1-0.5,0c-0.2,0.1-0.5,0.2-0.8,0.2c-0.2,0-0.3,0-0.6-0.1c-0.4-0.1-0.9-0.2-1.3-0.5
								c-0.1-0.1-0.3-0.1-0.5-0.1c-0.1,0-0.1,0-0.2,0c-0.1,0-0.2,0-0.4,0c-0.9-0.2-1.7-0.8-2.1-1.6c-0.3-0.5-0.3-0.8-0.2-1.1
								c0.1-0.1,0.1-0.2,0.3-0.3c0.1,0,0.1-0.1,0.2-0.1c-0.4-0.2-0.7-0.6-0.9-1c-0.3-0.7-0.2-1.5,0.2-2.3c0.6-1.1,1.5-2.2,2.6-2.9
								c-0.4-0.1-0.8-0.3-1.2-0.5c-0.3-0.2-0.4-0.5-0.4-0.7c0,0,0.1-0.7,0.1-0.7c0,0,0,0,0,0l0-0.3c0-0.2,0-0.4,0.1-0.5
								c0.1-0.6,0.1-1.2,0.1-1.8c0.1-1.2,0-2.4,0-3.5c-0.2-2.3-0.6-4.7-1.4-7c-0.4-1.1-0.8-2.3-1.3-3.4c0,0-0.1-0.2-0.2-0.3
								c-1.2-2.4-1.1-2.4-0.9-2.5c0.1-0.1,0.2-0.1,0.3,0c0.3,0.1,0.6,0.6,0.9,1.1c0,0.1,0.1,0.1,0.1,0.2c0.4,0.7,0.8,1.4,1.2,2.2
								c0.7,1.6,1.3,3.3,1.7,5.1c0.8,3.2,0.9,6.5,0.5,9.5c0.2,0,0.4,0.1,0.6,0.1c0.1,0,0.2,0.1,0.2,0.1c0.1,0,0.2,0.1,0.3,0.1
								c0.2,0.1,0.5,0.1,0.8,0.2c0.4,0.1,0.8,0.2,1.3,0.3c0.4,0.1,0.8,0.1,1.3,0.2c0.7,0.1,1.6,0.2,2.4,0.2h0.1
								c1.6,0,1.8,0.1,1.8,0.4c0,0.4-0.5,0.4-1.3,0.4c-1.3,0-3.4-0.2-3.7-0.2c-0.3,0-0.6-0.1-0.9-0.1c-0.5-0.1-0.9-0.1-1.3-0.2
								c-0.1,0-0.3-0.1-0.4-0.1c-0.5-0.1-1-0.2-1.4-0.4c-0.1,0.3-0.1,0.6-0.2,0.8c0,0,0,0,0,0.1c0.2,0,0.4,0.1,0.6,0.2
								c0.1,0,0.2,0.1,0.2,0.1c0.2,0.1,0.3,0.1,0.5,0.2c0.3,0.1,0.6,0.2,0.8,0.3c0.9,0.3,1.8,0.5,2.6,0.7c0.9,0.3,1.9,0.3,2.9,0.4
								c0.4,0,0.8,0,1.2,0h0.2c0.2,0,0.3,0,0.5,0c0.2,0,0.4,0,0.6,0c0-0.2,0-0.4,0.1-0.7c0-0.1,0-0.2,0.1-0.4l0-0.2
								c0-0.4,0.1-0.8,0.1-1.2c0.1-1,0.1-1.9,0.1-2.9c0,0,0,0,0-0.1c0-0.1,0-0.3,0-0.4v-0.2c0-0.4,0-0.7,0-1.1c0-2.6-0.2-5-0.5-7.2
								c-0.4-2.7-0.9-5-1.7-7.2c-1.5-4.3-4.4-8-8-10.5c-1-0.7-2-1.3-3.1-1.8c-0.1,0-0.1,0-0.2-0.1c0,0-0.1,0-0.1-0.1
								c0,0,0,0-0.1,0.1l0,0c-0.1,0.1-0.3,0.3-0.4,0.4c-0.4,0.3-0.8,0.6-1.1,0.8c-1.9,1.2-4.2,1.6-6.5,1.1c-0.1,0-0.2-0.1-0.3-0.1
								c-0.2-0.1-0.4-0.2-0.6-0.2c-0.2,0.2-0.5,0.4-0.8,0.6c-0.1,0.1-0.2,0.1-0.3,0.2c-1,0.7-2,1.3-3,1.8c-1.6,0.8-3.2,1.6-5,1.8
								c0,0.6,0,1.3,0,1.9c0,0.3,0,0.6,0,0.8c0,1,0,2,0,3c0,1.9-0.1,3.9-0.2,5.8c-0.1,2.4-0.3,5.1-0.6,7.7c-0.1,1-0.3,2.3-0.5,3.5
								c-0.1,0.7-0.3,1.3-0.4,1.9c0,0.2-0.1,0.3-0.2,0.5c-0.1,0.2-0.1,0.4-0.2,0.6c0,0.1-0.2,0.2-0.3,0.2h-0.4c-0.1,0-0.2,0-0.2-0.1
								c-0.1-0.1-0.1-0.2,0-0.3c0.2-0.5,0.3-1,0.4-1.6c0.5-2.4,0.7-4.9,0.9-7.2c0.2-2.4,0.3-4.9,0.4-7.7c0.1-2.6,0.1-5,0.1-7.3
								c0-0.5,0-1,0-1.5v-0.1c0-0.2,0-0.3,0-0.5c0,0,0-0.1,0-0.1c0-0.1,0-0.3,0-0.4c0.1-0.4,0.6-0.4,1.2-0.4c0.1,0,0.1,0,0.2,0
								c-0.3-0.1-0.5-0.3-0.7-0.4c-0.9-0.6-1.6-1.5-2-2.4c0-0.1-0.1-0.2-0.1-0.4c0-0.2-0.1-0.4-0.2-0.5c-0.2-0.1-0.3-0.1-0.6,0
								c-0.1,0-0.1,0-0.2,0c-0.5,0.1-1.1,0.2-1.8,0.2c-0.3,0-0.6,0-0.8,0c-3.9-0.3-7.8-2.9-11.5-7.4c-0.7-0.9-1.4-1.9-2.1-2.9
								c-0.1-0.1-0.1-0.2-0.2-0.3c-0.1-0.1-0.1-0.2-0.2-0.3c0,0,0,0-0.1,0c-0.3,0.2-0.6,0.2-1,0.3c-0.1,0-0.3,0.1-0.4,0.1
								c-1.1,0.3-2.2,0.7-3.3,1.1c-0.4,0.1-0.7,0.3-1.1,0.5l-0.2,0.1c-0.1,0-0.2,0.1-0.2,0.1c-0.2,0.1-0.4,0.2-0.6,0.3
								c-0.1,0-0.2,0-0.3-0.1c-0.1-0.1-0.1-0.2,0-0.3c0.2-0.5,3.2-1.8,3.2-1.8l0.3-0.1c1-0.4,2.1-0.8,3.2-1
								c-0.1-0.1-0.1-0.3-0.2-0.4c0-0.1,0-0.1-0.1-0.1c0,0,0-0.1,0-0.1c-0.1,0-0.3,0.1-0.5,0.1c-0.1,0-0.1,0-0.2,0
								c-1,0.2-1.9,0.4-2.9,0.7c-1,0.3-1.9,0.6-2.8,1c-0.3,0.1-0.5,0.2-0.8,0.4c-0.4,0.2-0.7,0.3-1.1,0.5c0.1,0.2,0.1,0.3,0.2,0.5
								c0.1,0.2,0.1,0.5,0.2,0.7c1.4,4.4,3.7,8.6,6.7,12.1c1.6,1.8,3.3,3.4,5.1,4.8c0.4,0.3,0.8,0.6,1.2,0.8
								c0.6,0.4,1.1,0.8,1.7,1.2c1,0.6,2,1.2,2.9,1.7c0.8-1.7,1.8-3.3,2.9-4.8c0,0,2.5-3.4,3-3.4c0.1,0,0.1,0,0.2,0c0,0,0,0,0,0
								c0,0,0,0,0,0c0,0,0.1,0.1,0.1,0.2c0,0.2,0,0.2-1,1.6l-0.1,0.1c-1.3,1.7-2.6,3.7-3.8,6.1c-0.9,1.8-1.8,3.7-2.4,5.6
								c-0.8,2.3-1.2,4.6-1.4,6.7c-0.1,1.4-0.1,2.6,0,3.8c0.1,0.8,0.2,1.6,0.4,2.3c0,0.1,0.1,0.1,0.1,0.2c0,0.2-0.1,0.3-0.3,0.3
								h-0.6c-0.1,0-0.2-0.1-0.3-0.2c-0.4-1.1-0.4-2.3-0.5-3.6c-0.2-4.5,0.9-9.3,3.3-14.1c-4.8-2-9.4-5.6-12.8-10.2
								c-1.4-1.9-2.6-3.9-3.6-6.1c-0.6-1.2-1-2.4-1.3-3.6c-0.2-0.6-0.4-1.2-0.5-1.9c0-0.1,0-0.1,0-0.2c-0.1-0.2-0.1-0.5-0.1-0.7
								c0-0.2,0.1-0.3,0.2-0.3c0,0,0.1,0,0.1-0.1c-0.1,0-0.2-0.1-0.3-0.1c-0.2-0.1-0.5-0.3-0.9-0.4c-0.3-0.2-0.7-0.4-1.1-0.7
								c-0.4-0.3-0.8-0.6-1.2-1c-0.4-0.4-0.8-0.8-1.2-1.4c-0.2-0.3-0.3-0.6-0.5-0.9c-0.1-0.3-0.2-0.7-0.4-1
								c-0.1-0.7-0.3-1.5,0.2-2.4c0.2-0.4,0.6-0.7,1-0.9c0.2-0.1,0.5-0.1,0.7-0.1c0-0.1,0-0.1,0-0.2c0-0.3,0.2-0.7,0.6-0.9
								c0.4-0.2,0.9-0.3,1.4-0.3c0-0.2,0.1-0.6,0.5-1c0.4-0.4,1.2-0.5,1.9-0.3c-0.1-0.1-0.1-0.2-0.2-0.3c-0.5-0.8-1.1-1.8-1.9-2.9
								c-0.2-0.3-0.4-0.5-0.6-0.8c-0.2-0.3-0.5-0.6-0.6-1.1c-0.1-0.2-0.1-0.5,0-0.8c0.1-0.1,0.2-0.3,0.3-0.4
								c0.1-0.1,0.3-0.2,0.4-0.2c0.1,0,0.3,0,0.4-0.1c0.1,0,0.2,0,0.3,0c0.2,0.1,0.4,0.1,0.6,0.2c0.9,0.3,1.4,0.9,2,1.4
								c0.5,0.6,0.9,1.2,1.3,1.7c0.7,1.1,1.2,2.2,1.7,3.1c0.4,0.9,0.8,1.5,1.2,2c0.1,0.1,0.2,0.2,0.3,0.3c0,0,0,0,0,0
								c0.4,0,0.7,0.1,1,0.1c0.4,0,0.8,0,1.2,0.2c0.4,0.1,0.7,0.3,1,0.6c0.3,0.3,0.5,0.8,0.6,1.2c0.2,1.7-0.5,3-1.2,3.8
								c-0.1,0.1-0.1,0.1-0.2,0.2c0.2,0,0.4-0.1,0.6-0.2c0,0,0,0,0,0c0,0,0,0.1,0,0.1c0.2,0,0.3,0.2,0.4,0.2
								c0.1,0.2,0.2,0.3,0.3,0.5c0.2,0.4,0.5,0.8,0.8,1.3c0.5,0.8,1.1,1.6,1.7,2.4c1.3,1.7,2.6,3.2,3.9,4.3c1.6,1.4,3.3,2.5,4.9,3.1
								c1,0.4,2.1,0.6,3,0.7c0.4,0,0.8,0,1.2,0c-0.9-0.6-1.8-1.4-2.5-2.4c-2.7-4.1-1.9-9.9,1.8-13.5c0.5-0.4,0.9-0.8,1.4-1.2
								c0.2-0.1,0.3-0.2,0.5-0.3c0-0.1-0.1-0.2-0.1-0.2c0-0.1-0.1-0.1-0.1-0.2c-0.3-1.3-0.2-2.6,0.4-3.6c0.3-0.5,0.7-1,1.2-1.3
								c0.1-0.1,0.1-0.3,0.2-0.4c0-0.1,0.1-0.2,0.1-0.2l0.3-0.8c0.2-0.6,0.4-1.2,0.6-1.8c0.1-0.4,0.3-0.8,0.4-1.3
								c-0.3,0-0.6,0.1-0.8,0.1c-1.7,0-3.3-0.7-4.3-1.8c-1.3-1.5-1.6-3.7-0.8-5.7c0.8-1.9,2.4-3.4,4.5-4.3c1.2-0.5,2.6-0.8,3.9-0.8
								c1,0,1.9,0.1,2.8,0.4c1.4-3.7,5.3-5,8.3-5c0.6,0,1.1,0,1.6,0.1c3.2,0.5,6.3,2.9,6.4,6.1c0.7-0.3,1.6-0.4,2.4-0.4
								c0.1,0,0.1,0,0.2,0c2.3,0,4.1,1,5.1,2.7c1,1.7,1,3.9,0,5.9c-1,2-2.7,3.6-4.7,4.2c-0.6,0.2-1.3,0.3-2,0.3
								c-0.5,0-1.1-0.1-1.7-0.1c-0.8-0.1-1.8-0.4-2.7-1c-0.5,2.7-0.7,5.5-0.7,8.1c0.7-0.8,1.8-1.1,2.9-0.7c1.1,0.3,1.9,1.2,2,2.4
								c0.1,1.1-0.3,2.1-0.7,3c-0.1,0.4-0.3,0.7-0.4,1.1c-0.5,1.5-1.3,2.3-2.3,2.3c0.6,1.5,1.1,3.2,1,4.9c-0.1,1.5-0.6,2.9-1.5,4
								c1.8,0.6,3.7,1.7,5.6,3.4c1.6,1.3,2.9,2.9,4.1,4.7c1.2,1.8,2.1,3.8,2.8,6c0.3,1,0.6,2.1,0.8,3.3c0.1,0.6,0.2,1.2,0.3,1.8
								l0,0.2c0.1,0.4,0.1,0.8,0.2,1.2C163.5,103.1,163.5,103.1,163.5,103.2L163.5,103.2z M160.7,120.9c0-0.7-0.1-1.3-0.2-2l0-0.1
								c0-0.2-0.1-0.4-0.1-0.7c0,0,0-0.1,0-0.1c0,0,0-0.1,0-0.2c-0.1,0-0.1,0-0.2,0c-0.1,0-0.1,0-0.2,0c-0.2,0-0.4,0-0.6,0
								c-0.7,0-1.4-0.1-2.2-0.2c-0.9-0.1-1.7-0.3-2.6-0.5c-0.1,0-0.2-0.1-0.3-0.1c-0.1,0-0.2-0.1-0.2-0.1c-0.1,0.1-0.3,0.3-0.4,0.4
								c-0.1,0.1-0.2,0.2-0.2,0.3c-0.6,0.6-1.2,1.3-1.7,2c-0.4,0.6-0.8,1.3-0.5,1.9c0.2,0.5,0.6,0.7,1.2,0.7c0.3,0,0.5-0.2,0.8-0.4
								c0.1-0.1,0.5-0.6,0.6-0.7c0,0,0-0.1,0-0.1c0.1-0.1,0.2-0.1,0.3-0.1c0.1,0,0.2,0.1,0.3,0.3c0.1,0.4-0.6,1.3-0.6,1.3
								c-0.3,0.3-0.7,0.6-1.1,0.8c0,0-0.1,0.1-0.3,0.1c-0.1,0.1-0.4,0.2-0.5,0.2c0.1,0.2,0.3,0.5,0.6,0.7c0.4,0.3,0.9,0.5,1.3,0.5
								c0.3,0,0.5-0.1,0.7-0.2c0.3-0.3,0.6-0.7,0.8-1c0,0,0-0.1,0.1-0.1c0.3-0.6,0.4-0.8,0.7-0.8c0.1,0,0.2,0.1,0.3,0.2
								c0.2,0.3,0,0.8-0.3,1.3c0,0-0.1,0.1-0.1,0.1c-0.2,0.5-0.4,0.8-0.7,1.1c0.3,0.1,0.6,0.2,0.9,0.2c0.3,0,0.5-0.1,0.6-0.1
								c0.4-0.2,0.7-0.7,0.8-1.4l0-0.1c0.1-0.3,0.1-0.8,0.5-0.8c0.1,0,0.2,0,0.2,0.1c0.1,0.1,0.2,0.3,0.1,0.7v0c0,0.4-0.1,1-0.4,1.6
								c1.2-0.2,2.1-1.3,2.6-2.4C160.6,122.4,160.7,121.7,160.7,120.9z M158.2,55.4c1.6-1.7,2.2-3.9,1.7-5.9c-0.3-1-0.9-1.9-1.7-2.4
								c-0.8-0.5-1.8-0.8-3.1-0.8H155c-0.6,0-1.1,0.1-1.8,0.2c0,0-0.1,0-0.1,0c-0.1,0-0.3,0-0.4,0c0,0.1,0,0.2,0,0.2
								c0,0.1,0,0.2,0,0.3c-0.1,0.6-0.4,1.2-0.7,1.7c-0.2,0.2-0.3,0.4-0.5,0.6c0,0-0.1,0.1-0.2,0.2c-0.1,0-0.1,0-0.1,0.1
								c-0.1,0.1-0.2,0.1-0.3,0c-0.1-0.1-0.2-0.2-0.2-0.4c0.1-0.2,0.2-0.4,0.4-0.6c0.1-0.1,0.2-0.2,0.2-0.3c1-1.9,0.7-4.1-0.9-5.7
								c-1.3-1.3-3.3-2-5.5-2c-0.2,0-0.4,0-0.6,0c-1.4,0.1-4.1,0.5-5.8,2.5c-0.7,0.8-1.2,1.7-1.4,2.8c-0.1,0.5-0.2,1.1-0.3,1.6v0
								c0,0.9,0,1.2-0.4,1.2h0c-0.3,0-0.4-0.3-0.4-1.5c0-0.7,0.1-1.5,0.3-2.2c-0.2,0-0.4,0-0.6-0.1c-0.6,0-1.1-0.1-1.6-0.1
								c-0.3,0-0.6,0-0.8,0c-1.5,0.1-3.5,0.6-5.2,2.2c-1.3,1.2-2.5,3.3-1.8,5.4c0.6,1.7,2.3,2.8,4.4,2.8h0.1c1,0,1.8-0.4,2.8-0.7
								c0.2-0.1,0.3-0.1,0.4-0.2c0.2-0.1,2.3-0.7,2.9-0.7c0.4,0,0.4,0.3,0.4,0.3c0,0.1,0,0.1,0,0.1c-0.1,0.1-0.1,0.1-1.2,0.5
								c-0.2,0.1-0.4,0.1-0.4,0.1c-0.7,0.2-1.3,0.5-2.1,0.9c-0.3,0.2-0.7,0.4-1.1,0.5c0,0-0.1,0-0.1,0c0,0-0.1,0-0.1,0
								c0,0.5-0.1,1-0.2,1.5c1.5-0.4,3.1-0.4,4.7-0.4c1.9,0,3.6,0.2,5.2,0.5c1,0.2,1.9,0.5,2.9,0.8l0,0c1.8,0.6,1.9,0.7,1.9,0.9
								c0,0.1,0,0.2,0,0.2c0,0.1-0.1,0.2-0.3,0.2c-0.1,0-0.4-0.1-1.1-0.3l-0.1,0c-0.6-0.2-1.2-0.4-2-0.6c-1.6-0.4-3.3-0.6-4.9-0.7
								c-1.5-0.1-3.1,0-4.9,0.2c-0.5,0.1-0.9,0.1-1.4,0.2c-0.1,0-0.1,0-0.2,0c-0.1,0-0.2,0-0.3,0c-0.1,0.4-0.3,0.9-0.6,1.4
								c1.1-0.4,2.3-0.7,3.8-0.8c0.5,0,1-0.1,1.5-0.1c1.1,0,2.2,0.1,3.3,0.2c1.5,0.2,3.1,0.7,4.7,1.3c0.8,0.3,1.6,0.7,2.2,1l0.2,0.1
								c0.3,0.2,0.7,0.3,1,0.6c-0.2-1.7,0.1-3.5,0.4-5.2c0.2-1,0.4-1.9,0.6-2.8c0.1-0.4,0.2-0.8,0.3-1.1c0,0,0-0.1,0-0.1
								c0.2-0.8,0.4-1.1,0.7-1.1c0.1,0,0.2,0,0.3,0.1c0.1,0.1,0.1,0.2-0.3,1.9c-0.1,0.7-0.3,1.3-0.4,2l0,0.1c0,0,0,0,0,0
								c0,0,0,0,0,0c0.1,0.1,0.2,0.1,0.3,0.2c0.2,0.1,0.5,0.2,0.8,0.3c0.4,0.2,1,0.2,1.6,0.3c0.4,0,0.9,0.1,1.2,0.1
								c0.8,0,1.5-0.1,2.2-0.4C156.6,56.8,157.4,56.2,158.2,55.4z M152.1,69.4c0.6-1.5,0.9-2.8-0.2-3.4c-0.4-0.2-0.8-0.3-1.2-0.3
								c-0.3,0-0.6,0.1-0.8,0.2c-0.4,0.2-1.1,0.7-1.1,1c0.1,2,0.4,3.9,0.9,5.4c0,0.1,0.1,0.1,0.1,0.2c0.1,0.3,0.1,0.3,0.2,0.3h0.1
								c0.3,0,0.6-0.1,0.8-0.3c0.5-0.4,0.6-1.1,0.8-1.7c0-0.1,0.1-0.3,0.1-0.4C151.8,70,152,69.7,152.1,69.4z M150,78.7
								c0-0.5,0-1-0.1-1.6c0-0.3-0.1-0.6-0.2-0.9c-0.1-0.2-0.1-0.5-0.2-0.7c-0.2-0.6-0.4-1.2-0.6-1.8c-0.2-0.4-0.3-0.9-0.5-1.3
								c-0.3-0.9-0.5-2-0.6-3.2c-0.1-1.1-0.2-2.3-0.1-3.6c0-0.6,0.1-1.1,0.1-1.6c0,0,0-0.1,0-0.1c0,0,0-0.1,0-0.1
								c-0.2-0.1-0.4-0.2-0.6-0.3c-3.5-1.8-7.3-2.7-11-2.7c-0.7,0-1.4,0-2.1,0.1c-1.7,0.2-3.9,0.6-5,2c-0.4,0.6-0.7,1.4-0.7,2.2
								c0,0.4,0,0.8,0.1,1.2c0,0.2,0.1,0.5,0,0.7c-0.1,0.1-0.1,0.1-0.2,0.1c-0.3,0.3-0.5,0.5-0.8,0.7c-0.3,0.2-0.5,0.5-0.8,0.7
								c-0.5,0.5-1,1.2-1.5,2c-0.8,1.4-1.3,2.9-1.5,4.4c-0.1,1.7,0.2,3.4,0.9,5c0.7,1.5,1.7,2.7,3.2,3.5c0,0,0,0,0.1,0
								c0.8,0.4,1.7,0.6,2.7,0.7c-0.1-0.2-0.2-0.3-0.3-0.5c-0.2-0.4-0.4-0.7-0.7-1c-0.1-0.1-0.2-0.2-0.3-0.3
								c-0.1-0.1-0.2-0.2-0.3-0.2c-0.1-0.1-0.2-0.2-0.1-0.4c0.1-0.1,0.2-0.2,0.3-0.2c0.1,0,0.3,0.1,0.4,0.1c0.2,0.1,0.5,0.3,0.8,0.6
								l0,0c0.3,0.3,0.5,0.6,0.7,0.8l0.1,0.2c0.4,0.5,0.7,1,1.2,1.3c0.5,0.3,1.1,0.5,1.8,0.5c1,0,2.1-0.4,2.9-1
								c0.3-0.2,0.7-0.5,1-0.8c0.3-0.3,0.7-0.6,1.1-0.8c0.3-0.2,0.8-0.5,1.3-0.6c0,0,0,0,0,0c0.1,0,0.2,0,0.3,0c0.1,0,0.2,0,0.3,0.1
								c0.1,0.1,0.1,0.2,0,0.3c-0.1,0.2-0.3,0.3-0.6,0.4c-0.1,0-0.2,0.1-0.2,0.1c-0.2,0.1-0.3,0.2-0.5,0.4c-0.3,0.2-0.6,0.5-0.8,0.8
								c-0.1,0.1-0.1,0.1-0.2,0.2c0.1,0,0.2,0.1,0.3,0.1c1.2,0.3,2.3,0.6,3.5,0.6c0.6,0,1.1-0.1,1.6-0.2c1.9-0.5,3.6-1.8,4.6-3.3
								C149.7,80.4,150,79.5,150,78.7z M138.4,85.3c0.3-0.2,0.6-0.3,0.8-0.5c-0.2-0.1-0.4-0.1-0.5-0.2c-0.1-0.1-0.2-0.1-0.2-0.1
								c0,0-0.1,0.1-0.2,0.1l-0.1,0.1c-0.7,0.6-1.5,1-2.2,1.2c-0.8,0.2-1.6,0.2-2.4,0.1c-0.9-0.2-1.6-0.6-2.1-1.1c0,0,0,0,0,0
								c0,0,0,0,0,0c0,0,0,0,0,0c0,0,0,0,0,0c0,0-0.1,0-0.1,0c-0.3,0-0.6,0-0.9,0c-0.3,0-0.6-0.1-0.9-0.1c0.5,0.9,1.1,1.6,1.7,2.1
								c0.3,0.3,0.7,0.5,1.2,0.8c0.1,0,0.1,0.1,0.2,0.1c0.1,0,0.2,0.1,0.2,0.1c0,0,0.1,0,0.1,0c0.1,0,0.2-0.1,0.3-0.1
								C135.1,87.2,136.8,86.3,138.4,85.3z M109.8,70.7c0.4-0.7,0.9-2,0.8-3.2c-0.1-1.2-1.6-1.4-2.4-1.4c-0.6,0-1.1,0-1.3,0
								c-0.3,0.1-0.5,0.2-0.8,0.3c-0.6,0.2-1.2,0.7-1.3,1.2c0,0.2,0,0.3,0.1,0.3c0.1,0.1,0.3,0.2,0.6,0.2c0.2,0,0.5,0.1,0.8,0.1
								c0.1,0,0.3,0,0.4,0.1c0.1,0,0.2,0,0.5,0.1c0.2,0.1,0.3,0.1,0.4,0.3c0.1,0.1,0.1,0.3,0.1,0.4c0,0.3-0.1,0.5-0.1,0.6
								c-0.1,0.3-0.2,0.5-0.2,0.7c-0.1,0.4,0.1,0.6,0,0.7c0,0.1-0.4-0.1-0.5-0.6c-0.1-0.4,0.2-1.5,0-1.3c0,0-0.1,0-0.2,0
								c-0.1,0-0.2,0-0.4,0c-0.3,0-0.6,0-0.8-0.1c-0.3-0.1-0.7-0.1-1-0.4c-0.4-0.2-0.6-0.9-0.5-1.3c0-0.2,0.1-0.4,0.2-0.6
								c-0.1,0.2-0.3,0.3-0.4,0.3c-0.2,0.1-0.3,0.1-0.4,0c0,0.2,0.1,0.3,0.1,0.5c0,0.4-0.2,0.7-0.5,0.8c-0.5,0.3-0.9,0.3-1.1,0.2
								c-0.3-0.1-0.4-0.1-0.4-0.2c0-0.2,0.6-0.1,1-0.6c0.1-0.1,0.1-0.2,0.1-0.3c-0.1-0.2-0.1-0.4-0.2-0.6c-0.2-0.4-0.5-0.8-0.9-1.2
								c-0.7-0.7-1.9-0.9-2.4-0.7c-0.4,0.1-0.6,0.4-0.7,0.6c0.1,0,0.2,0,0.3,0c0.4,0.1,0.7,0.3,1,0.5c0.3,0.2,0.5,0.5,0.7,0.7
								c0.4,0.5,0.7,1.1,0.9,1.6c0.1,0.3,0.2,0.7,0,1c-0.1,0.4-0.5,0.6-0.7,0.7c-0.3,0.1-0.6,0.1-0.8,0c-0.3-0.1-0.4-0.2-0.6-0.3
								c-0.3-0.3-0.6-0.5-0.7-0.7C98.1,69,98,68.7,98,68.6c0.1,0,0.3,0.2,0.6,0.5c0.4,0.3,1,0.9,1.6,0.6c1.2-0.2-1.9-4.6-3.2-2.5
								c-0.3,0.3-0.2,1.1-0.1,1.6c0.1,0.3,0.2,0.6,0.3,0.8c0.1,0.3,0.3,0.5,0.4,0.8c0.3,0.5,0.7,0.9,1,1.3c0.4,0.4,0.8,0.7,1.1,1
								c0.3,0.3,0.7,0.6,1,0.8c0.3,0.2,0.5,0.4,0.7,0.6c0.2,0.1,0.3,0.2,0.4,0.3c0.1-0.1,0.3-0.2,0.4-0.3c0,0,0,0.1,0,0.1
								c0,0,0.1,0,0.1-0.1c0.1-0.1,0.2-0.1,0.2-0.2c0.2-0.1,0.5-0.3,0.7-0.4c0.7-0.3,1.4-0.6,2.4-1c1.1-0.4,2.3-0.7,3.5-1
								C109.3,71.4,109.5,71.1,109.8,70.7z M107.2,65.3c0,0-0.1-0.1-0.1-0.1c-0.4-0.4-1-1-1.5-1.9c-0.6-0.8-1.1-1.9-1.8-2.9
								c-0.7-1-1.6-2.3-2.8-2.7c-0.2-0.1-0.3-0.1-0.4-0.1c-0.1,0-0.2,0-0.2,0c0,0-0.1,0-0.1,0c0,0,0,0-0.1,0c0,0,0,0,0,0
								c0,0,0,0.1,0,0.2c0,0.2,0.2,0.5,0.4,0.7c0.2,0.3,0.4,0.6,0.6,0.8c0.8,1.1,1.3,2.1,1.8,3.1c0.2,0.4,0.3,0.7,0.4,1
								c0.1,0.1,0.1,0.1,0.2,0.1c0.5,0.4,0.8,0.9,0.9,1.4c0.1,0.6,0,1.1-0.2,1.4c0.1-0.1,0.2-0.2,0.3-0.3c0.4-0.3,0.7-0.4,1.1-0.6
								C106.2,65.4,106.7,65.3,107.2,65.3z"/>
							<path class="st4" d="M110.5,67.5c0.2,1.2-0.3,2.5-0.8,3.2c-0.2,0.4-0.4,0.6-0.6,0.8c-1.2,0.2-2.4,0.6-3.5,1
								c-1,0.4-1.7,0.7-2.4,1c-0.3,0.1-0.5,0.3-0.7,0.4c-0.1,0-0.1,0.1-0.2,0.2c0,0-0.1,0-0.1,0.1c0,0,0-0.1,0-0.1
								c-0.1,0.1-0.2,0.2-0.4,0.3c-0.1-0.1-0.2-0.2-0.4-0.3c-0.2-0.1-0.5-0.3-0.7-0.6c-0.3-0.2-0.6-0.4-1-0.8
								c-0.3-0.3-0.7-0.6-1.1-1c-0.3-0.4-0.7-0.8-1-1.3c-0.1-0.3-0.3-0.5-0.4-0.8c-0.1-0.3-0.2-0.6-0.3-0.8
								c-0.1-0.5-0.2-1.3,0.1-1.6c1.4-2.1,4.4,2.3,3.2,2.5c-0.6,0.3-1.3-0.3-1.6-0.6c-0.4-0.3-0.6-0.5-0.6-0.5c-0.1,0,0,0.3,0.4,0.8
								c0.2,0.2,0.4,0.5,0.7,0.7c0.2,0.1,0.4,0.2,0.6,0.3c0.3,0.1,0.6,0,0.8,0c0.3-0.1,0.6-0.3,0.7-0.7c0.1-0.4,0.1-0.7,0-1
								c-0.2-0.6-0.5-1.1-0.9-1.6c-0.2-0.3-0.5-0.5-0.7-0.7c-0.3-0.2-0.6-0.4-1-0.5c-0.1,0-0.2,0-0.3,0c0.1-0.2,0.3-0.4,0.7-0.6
								c0.5-0.2,1.7,0,2.4,0.7c0.4,0.4,0.7,0.8,0.9,1.2c0.1,0.2,0.1,0.4,0.2,0.6c0,0.1,0,0.2-0.1,0.3c-0.4,0.4-1,0.4-1,0.6
								c0,0.1,0.1,0.2,0.4,0.2c0.2,0.1,0.6,0.1,1.1-0.2c0.2-0.2,0.5-0.5,0.5-0.8c0-0.2-0.1-0.3-0.1-0.5c0,0.1,0.2,0.1,0.4,0
								c0.1-0.1,0.3-0.2,0.4-0.3c-0.1,0.2-0.2,0.4-0.2,0.6c-0.1,0.4,0.1,1,0.5,1.3c0.4,0.3,0.7,0.3,1,0.4c0.3,0,0.6,0,0.8,0.1
								c0.1,0,0.2,0,0.4,0c0.1,0,0.2,0,0.2,0c0.2-0.2-0.1,0.9,0,1.3c0.1,0.6,0.4,0.7,0.5,0.6c0.1-0.1-0.1-0.3,0-0.7
								c0-0.2,0.1-0.4,0.2-0.7c0.1-0.2,0.1-0.3,0.1-0.6c0-0.2,0-0.3-0.1-0.4c-0.1-0.1-0.2-0.2-0.4-0.3c-0.2-0.1-0.3-0.1-0.5-0.1
								c-0.1,0-0.3,0-0.4-0.1c-0.3,0-0.5-0.1-0.8-0.1c-0.2-0.1-0.5-0.1-0.6-0.2c-0.1-0.1-0.1-0.1-0.1-0.3c0.1-0.5,0.7-0.9,1.3-1.2
								c0.3-0.1,0.5-0.2,0.8-0.3c0.3,0,0.7,0,1.3,0C109,66.1,110.4,66.3,110.5,67.5z"/>
							<path class="st4" d="M107.1,65.2c0,0,0.1,0.1,0.1,0.1c-0.5,0-1,0.1-1.5,0.3c-0.4,0.1-0.7,0.3-1.1,0.6
								c-0.1,0.1-0.2,0.2-0.3,0.3c0.2-0.3,0.3-0.8,0.2-1.4c-0.1-0.5-0.5-1.1-0.9-1.4c-0.1-0.1-0.1-0.1-0.2-0.1
								c-0.1-0.3-0.3-0.7-0.4-1c-0.4-0.9-1-2-1.8-3.1c-0.2-0.3-0.4-0.6-0.6-0.8c-0.2-0.2-0.4-0.5-0.4-0.7c0-0.1,0-0.2,0-0.2
								c0,0,0,0,0,0c0,0,0,0,0.1,0c0,0,0.1,0,0.1,0c0.1,0,0.1,0,0.2,0c0.1,0,0.3,0,0.4,0.1c1.2,0.5,2.1,1.7,2.8,2.7
								c0.7,1.1,1.3,2.1,1.8,2.9C106.1,64.1,106.6,64.8,107.1,65.2z"/>
							<path class="st4" d="M103.6,65.4c0.1,0.3,0.1,0.6,0,0.8c-0.1,0.5-0.3,0.7-0.4,0.9c0-0.1,0-0.2-0.1-0.3
								c-0.2-0.6-0.6-1.1-1.1-1.6c-0.5-0.5-1.1-0.8-1.7-0.9c0.1-0.1,0.3-0.3,0.6-0.4c0.5-0.2,1.3-0.1,1.9,0.5
								c0.3,0.2,0.4,0.5,0.6,0.8C103.5,65.2,103.6,65.3,103.6,65.4z"/>
						</g>
					</g>
					<path class="st5" d="M102.1,69.3c0.9-0.4,0.9-0.1,1.6-0.8c0.3,0.8,2.2,0.7,2.7,1.4c-1.5-0.1-4.5,1-5.9,1.2L102.1,69.3z"/>
					<g id="scarf">
						<g>
							<g>
								<path class="st10" d="M126.6,84.2L126.6,84.2C126.6,84.2,126.6,84.1,126.6,84.2z"/>
								<path class="st10" d="M126.6,84.2L126.6,84.2C126.4,85.1,126.5,84.5,126.6,84.2z"/>
								<polygon class="st10" points="126.6,84.2 126.6,84.2 126.6,84.2 								"/>
								<path class="st10" d="M131.2,85.8c-0.3-0.1-0.7-0.2-1-0.4c-0.7-0.3-1.4-0.7-2.1-1.2c-0.1-0.1-0.4-0.1-0.6-0.1
									c-0.2,0-0.9-0.1-1,0.2l0,0c-0.2,0.7,0.3,1.3,0.7,1.8c0.7,0.8,1.8,1.4,2.8,1.7c0.2,0.1,1.6,0.6,1.7,0.4
									c0.1-0.3,0.2-0.7,0.2-1.1c0.1-0.3,0.2-0.8,0.1-1.1C132.1,85.9,131.3,85.8,131.2,85.8z"/>
								<g>
									<path class="st1" d="M126.6,84.2C126.6,84.2,126.6,84.3,126.6,84.2C126.6,84.2,126.6,84.2,126.6,84.2L126.6,84.2z"/>
									<path class="st1" d="M132,85.7c-0.7-0.1-1.4-0.3-2-0.6c-0.6-0.3-1.2-0.6-1.7-1c-0.2-0.2-0.7-0.1-1-0.1
										c-0.2,0-0.3,0-0.5,0.1c0,0-0.3,0.2-0.2,0.3c0,0,0.2-0.1,0.2-0.1c0.1,0,0.2,0,0.2,0c0.2,0,0.3,0,0.5,0.1
										c0.3,0,0.5,0.1,0.7,0.2c0.6,0.5,1.2,0.9,1.9,1.2c0.3,0.2,0.7,0.3,1,0.4c0.2,0.1,0.5,0.1,0.7,0.2c0,0,0,0.5-0.1,0.5
										c-0.1,0.4-0.2,0.7-0.2,1.1c0,0.1-1.4-0.4-1.6-0.4c-1.2-0.5-2.7-1.3-3.2-2.6c-0.1-0.2-0.1-0.3-0.1-0.5c0,0,0-0.1,0-0.1l0,0
										c0,0,0,0,0,0c-0.2,0.1-0.1,0.6-0.1,0.7c0.1,0.7,0.6,1.2,1.1,1.7c1,0.9,2.4,1.5,3.8,1.8c0.2,0,0.4,0.1,0.6,0.1
										c0.1,0,0.1-0.4,0.2-0.5c0.1-0.5,0.3-1.1,0.3-1.6c0-0.2,0-0.5-0.1-0.7C132.3,85.7,132.1,85.7,132,85.7z"/>
								</g>
							</g>
							<g>
								<path class="st10" d="M137.8,85.4c-1,0.4-2,0.8-3.1,0.9c-0.4,0-0.9-0.2-1.1,0.2c-0.2,0.3,0,0.7,0,1.1c0,0.1,0,0.3,0.1,0.4
									c0.1,0.2,0.3,0.3,0.5,0.4c0.3,0.1,0.6,0.3,0.9,0.4c0,0,0.1,0,0.2-0.1c0.2-0.1,0.3-0.1,0.5-0.2c0.6-0.2,1.1-0.5,1.7-0.7
									c1.3-0.6,2.7-1.4,3.6-2.7c-0.5-0.2-1-0.3-1.5-0.5C138.9,84.9,138.3,85.2,137.8,85.4z"/>
								<g>
									<path class="st1" d="M139.4,84.6c0,0.1,1.1,0.5,1.2,0.6c0.1,0.1-1.5,1.2-1.6,1.3c-0.7,0.5-1.5,0.9-2.3,1.2
										c-0.4,0.2-0.8,0.4-1.3,0.5c-0.1,0-0.3,0.1-0.4,0.1c-0.1,0-0.5-0.2-0.5-0.2c-0.1,0-0.6-0.2-0.6-0.4c0-0.3-0.1-0.7-0.1-1
										c0-0.3,0.2-0.3,0.4-0.2c0.3,0,0.6,0,0.8,0c1.1-0.1,2.2-0.6,3.1-1.1c0.4-0.2,0.8-0.4,1.1-0.7
										C139.3,84.7,139.4,84.6,139.4,84.6c-0.2,0-0.4,0.1-0.6,0.2c-1,0.4-1.9,0.8-2.9,1.1c-0.4,0.1-0.8,0.2-1.2,0.2
										c-0.3,0-0.7-0.1-1,0c-0.7,0.2-0.5,1.1-0.4,1.6c0,0.1,0,0.2,0,0.3c0.1,0.3,0.4,0.5,0.6,0.6c0.3,0.1,0.6,0.2,0.8,0.3
										c0.1,0,0.2,0.1,0.4,0.1c1.2-0.4,2.3-0.9,3.3-1.6c0.6-0.4,1.3-0.8,1.8-1.3c0.1-0.1,1-1.1,0.9-1.1
										C141,84.9,139.4,84.4,139.4,84.6z"/>
								</g>
							</g>
							<g>
								<path class="st10" d="M131.3,87.9c-0.6,0-1.4,0.2-1.9,0.6c-0.3,0.3-0.4,0.8-0.5,1.1c-0.2,0.5-0.3,1-0.3,1.6
									c-0.1,0.7,0,1.5,0.1,2.2c0.1,0.6,0.1,1.1,0,1.6c-0.2,0.8-0.6,1.6-1,2.3c0,0,0,0,0,0c1.4,0,2.8-0.8,3.2-2.3
									c0.4-1.8,0.4-3.7,0.9-5.4c0.1-0.3,0.2-0.6,0.4-0.8c0.1-0.1,0.1-0.2,0.2-0.2c0.1-0.1,0.3-0.1,0.4-0.2
									C133,88.1,131.5,87.9,131.3,87.9z"/>
								<g>
									<path class="st1" d="M131.3,87.9L131.3,87.9C131.3,87.9,131.3,87.9,131.3,87.9z"/>
									<path class="st1" d="M131.3,87.9L131.3,87.9C131.3,87.9,131.3,87.9,131.3,87.9z"/>
									<polygon class="st1" points="131.3,87.9 131.3,87.9 131.3,87.9 									"/>
									<path class="st1" d="M132.5,88c-0.3-0.1-0.6-0.2-0.9-0.2c0,0-0.4,0-0.3,0.1l0,0c0,0,0.5,0.1,0.6,0.1
										c0.2,0.1,0.5,0.1,0.6,0.3c0.2,0.2-0.1,0.2-0.2,0.3c-0.2,0.2-0.3,0.3-0.5,0.5c-0.5,0.9-0.6,2.1-0.8,3.1
										c-0.1,0.6-0.2,1.2-0.3,1.9c-0.1,0.6-0.2,1.1-0.4,1.6c-0.2,0.4-0.6,0.8-1.1,1c-0.3,0.1-0.7,0.3-1,0.3
										c0.5-0.9,0.9-1.9,0.9-2.9c0-0.6-0.2-1.2-0.3-1.8c-0.1-0.5,0-1.1,0-1.6c0.1-0.4,0.2-0.8,0.3-1.2c0.1-0.3,0.1-0.5,0.3-0.8
										c0.3-0.6,1.2-0.7,1.7-0.8c0.2,0,0.1-0.1,0-0.1c-0.3,0-0.6,0-0.9,0.1c-0.4,0.1-0.7,0.2-1,0.5c-0.2,0.2-0.3,0.5-0.4,0.7
										c-0.3,0.7-0.5,1.4-0.5,2.2c-0.1,0.8,0,1.6,0.2,2.4c0.2,1.4-0.7,2.8-1.4,4c1.2,0,2.4-0.2,3.3-1.1c0.9-1,0.9-2.6,1.1-3.9
										c0.1-0.7,0.2-1.4,0.3-2.1c0.1-0.5,0.2-1.3,0.6-1.7c0.1-0.2,0.5-0.2,0.6-0.4C133.1,88.3,132.7,88.1,132.5,88z"/>
								</g>
							</g>
							<g>
								<path class="st10" d="M137.7,96.2c-0.4-0.9-0.4-1.8-0.5-2.7c0-0.9,0-1.8,0-2.7c0-0.3,0-0.6,0-0.9c0-0.3-0.2-0.5-0.4-0.7
									c-0.6-0.5-1.3-0.9-2-1.1c-0.2-0.1-0.5,0.1-0.7,0.3c-0.1,0.1-0.2,0.2-0.1,0.3c0,0.1,0.1,0.2,0.1,0.2c0.3,1,0.3,2.1,0.3,3.1
									c0,1.1,0.1,2.3,0.4,3.4c0.5,1.5,2.2,2.1,3.7,2C138.1,97,137.8,96.6,137.7,96.2z"/>
								<g>
									<path class="st1" d="M137.9,95.9c-0.4-1.1-0.4-2.3-0.5-3.5c0-0.8,0-1.6,0-2.4c0-0.3-0.1-0.7-0.3-0.9
										c-0.2-0.3-0.5-0.5-0.8-0.6c-0.3-0.2-0.7-0.3-1-0.5c-0.1,0-0.4-0.2-0.6-0.1c0,0,0.4,0.3,0.4,0.3c0.3,0.2,0.6,0.3,0.9,0.5
										c0.3,0.2,0.6,0.4,0.8,0.7c0.2,0.3,0.2,0.6,0.2,0.9c0,0.8-0.1,1.6-0.1,2.4c0,1.4,0,2.9,0.8,4.1c-0.8-0.1-1.6-0.3-2.2-0.9
										c-0.7-0.7-0.8-1.9-0.9-2.8c-0.1-1.1-0.1-2.2-0.3-3.2c-0.1-0.5-0.1-0.9-0.3-1.4c-0.1-0.2,0.1-0.3,0.3-0.5
										c0.1-0.1,0.1-0.1,0.2-0.1c0,0,0.1,0,0.1,0c0,0-0.2-0.1-0.2,0c-0.1,0-0.2,0.1-0.3,0.2c-0.1,0.1-0.2,0.1-0.2,0.2
										c-0.1,0.1-0.1,0.2-0.1,0.3c0.2,0.6,0.2,1.2,0.2,1.7c0.1,1.3,0,2.6,0.2,3.9c0.1,0.6,0.3,1.3,0.6,1.9
										c0.4,0.5,0.9,0.9,1.5,1.1c0.9,0.4,1.9,0.3,2.9,0.2C138.7,97,138.2,96.6,137.9,95.9z"/>
									<path class="st1" d="M134.7,87.9C134.7,87.9,134.7,87.9,134.7,87.9L134.7,87.9z"/>
								</g>
							</g>
							<g>
								<path class="st10" d="M132.2,85.7C132.2,85.7,132.2,85.7,132.2,85.7C132.3,85.7,132.4,85.6,132.2,85.7z"/>
								<path class="st10" d="M132.2,85.7L132.2,85.7C131.9,85.9,132,85.8,132.2,85.7z"/>
								<polygon class="st10" points="132.2,85.7 132.2,85.7 132.2,85.7 								"/>
								<path class="st10" d="M134.8,86c-0.6,0.1-1,0.3-1.6,0c-0.3-0.1-0.7-0.5-1-0.3c0,0,0,0,0,0c-0.2,0.1-0.3,0.4-0.4,0.6
									c-0.2,0.4-0.4,1-0.3,1.5c0.1,0.3,0.3,0.5,0.4,0.8c0.2,0.2,0.3,0.4,0.6,0.5c0.5,0.1,1.1-0.1,1.7-0.2c0.3,0,0.5,0,0.7-0.1
									c0.2-0.1,0.3-0.3,0.4-0.5c0.2-0.6,0.4-1.2,0.1-1.8C135.2,86.3,135.1,85.9,134.8,86z"/>
								<g>
									<path class="st1" d="M132.2,85.7L132.2,85.7L132.2,85.7C132.2,85.7,132.2,85.7,132.2,85.7
										C132.2,85.8,132.2,85.7,132.2,85.7z"/>
									<path class="st1" d="M135.4,86c-0.3-0.6-1-0.1-1.5-0.1c-0.4,0-0.8-0.2-1.1-0.4c-0.1,0-0.7-0.1-0.5,0.2l0,0
										c0.1,0.2,0.4,0.3,0.5,0.4c0.3,0.2,0.6,0.3,0.9,0.4c0.4,0.1,0.7,0,1-0.1c0.3-0.1,0.2-0.1,0.4,0.2c0.2,0.3,0.3,0.6,0.2,1
										c-0.1,0.3-0.1,0.8-0.4,1c-0.1,0.1-0.3,0.1-0.5,0.1c-0.2,0-0.3,0-0.5,0.1c-0.4,0.1-0.7,0.2-1.1,0.2c-0.3,0-0.5-0.2-0.7-0.4
										c-0.2-0.3-0.5-0.5-0.5-0.9c0-0.4,0.1-0.8,0.3-1.2c0-0.1,0.4-0.6,0.4-0.6c0-0.1-0.3,0.3-0.4,0.3c-0.1,0.2-0.2,0.4-0.3,0.6
										c-0.2,0.5-0.4,1-0.1,1.5c0.1,0.3,0.4,0.8,0.7,1c0.4,0.3,0.9,0.2,1.4,0.2c0.3,0,0.5-0.1,0.8-0.1c0.1,0,0.3,0,0.4,0
										c0.4-0.1,0.6-0.3,0.7-0.6c0.2-0.4,0.4-1,0.3-1.4C135.7,86.7,135.6,86.3,135.4,86z"/>
								</g>
							</g>
							<g>
								<g>
									<path class="st1" d="M136,93.4C136,93.4,135.9,93.4,136,93.4L136,93.4z"/>
									<path class="st1" d="M137.3,95.3c-0.2-0.2-0.5-0.3-0.6-0.6c-0.2-0.3-0.4-0.6-0.5-0.9c0,0-0.1-0.5-0.2-0.5
										c-0.1,0,0,0.4,0,0.5c0,0.3,0.1,0.6,0.3,0.8c0.2,0.3,0.4,0.5,0.6,0.8c0.1,0.1,0.3,0.3,0.5,0.3c0.1,0,0.2-0.2,0.1-0.3
										C137.5,95.4,137.4,95.4,137.3,95.3z"/>
								</g>
								<g>
									<path class="st1" d="M134.7,88.9c-0.2,0.3,0.1,0.4,0.3,0.6c0.1,0.1,0.2,0.2,0.4,0.3c0,0,0.1,0.2,0.2,0.2
										c0.2,0-0.2-0.8-0.3-0.9C135.1,89,134.9,88.6,134.7,88.9z"/>
									<path class="st1" d="M135.5,90C135.5,90,135.5,90,135.5,90L135.5,90z"/>
								</g>
								<g>
									<path class="st1" d="M131.1,88.4c-0.3,0.1-0.5,0.2-0.7,0.4c-0.1,0.1-0.2,0.3-0.2,0.5c0,0.1,0,0.6,0.1,0.6
										c0.1,0,0.1-0.6,0.1-0.7c0.1-0.3,0.4-0.3,0.6-0.4c0.1,0,0.9-0.2,0.5-0.5C131.5,88.2,131.2,88.3,131.1,88.4z"/>
									<path class="st1" d="M130.3,89.8C130.3,89.8,130.4,89.8,130.3,89.8L130.3,89.8z"/>
								</g>
								<g>
									<path class="st1" d="M136.7,86.7c-0.3,0.1-0.7,0.2-1.1,0.4c-0.1,0.1-0.1,0.1-0.1,0.2c0.1,0.4,2.9-1.1,2.9-1.2l0,0
										C138.3,86,136.8,86.6,136.7,86.7z"/>
									<path class="st1" d="M138.4,86.1L138.4,86.1C138.4,86,138.4,86,138.4,86.1z"/>
									<polygon class="st1" points="138.4,86.1 138.4,86.1 138.4,86.1 									"/>
									<path class="st1" d="M138.4,86.1L138.4,86.1C138.4,86.1,138.4,86.1,138.4,86.1z"/>
								</g>
								<g>
									<path class="st1" d="M131,86.7c-0.3-0.1-0.6-0.2-0.8-0.3c-0.1,0-1.2-0.5-1.3-0.4c-0.1,0.1,2.4,1.5,2.6,1
										C131.5,86.8,131.2,86.8,131,86.7z"/>
								</g>
								<g>
									<path class="st1" d="M129.4,94c-0.1-0.2-0.4-1-0.7-0.8c-0.3,0.2,0.1,0.7,0.3,0.9c0.2,0.3,0.3,0.5,0.4,0.8
										c0,0.1,0.2,0.6,0.3,0.6c0.1,0,0-0.6,0-0.6C129.6,94.6,129.5,94.3,129.4,94z"/>
								</g>
							</g>
						</g>
					</g>
				</g>
				<g>
					<g>
						<g>
							<path class="st13" d="M112.9,60.8c-3.2,1.1-7.1,1.8-11,1.6c-10.4-0.2-18.4-6.8-16.2-11c1.1-2.4,4.3-2.8,9.2-2.3
								c2.6,0.3,5.6,0.7,8.8,1c4.2,0.5,8.4,0.7,11.7,0.9c4.8,0.3,6.1,1.2,6.3,2.5C122,55.5,119,58.6,112.9,60.8z M94.8,51.6
								c-4.5-0.4-6.5,0.2-6.8,0.9c-0.8,1.4,4,7,14.3,7.5c3.5,0.2,7.1-0.4,10-1.3c5.1-1.8,6.7-3.7,6.7-4.3c-0.1-0.6-1.4-1-4.3-1.2
								c-3.1-0.2-7.1-0.4-11.2-0.8C100.3,52.1,97.4,51.8,94.8,51.6z"/>
							<path class="st5" d="M120.3,54c0.5,2.3-7.8,7.7-18.2,7.2c-10.5-0.4-16.7-6.5-15.3-9.2c1.4-2.9,8.2-1.6,16.8-0.7
								C112.2,52.3,119.9,51.6,120.3,54z"/>
						</g>
						
							<linearGradient id="SVGID_1_" gradientUnits="userSpaceOnUse" x1="122.8534" y1="36.6934" x2="122.2844" y2="40.92" gradientTransform="matrix(0.9922 -0.125 0.125 0.9922 -24.3753 31.1132)">
							<stop  offset="0" style="stop-color:#D99550"/>
							<stop  offset="1" style="stop-color:#F0B77D"/>
						</linearGradient>
						<path class="st14" d="M95.2,56.4c1.7-0.8,3.3-1.7,4.7-2.9c0.5-0.4,1.2-1.3,1.9-1.3c1,0,2.2,1.3,2.8,1.9
							c1.3,1.2,2.5,1.9,4.2,2.3L95.2,56.4z"/>
					</g>
					<g>
						<g>
							<path class="st13" d="M117.9,60.8c-0.1-0.2,0.7-0.5,1.7-1.1c1-0.7,2.4-1.7,3.3-3.2c1-1.5,1.1-3.3,0.4-4.1
								c-0.8-0.7-1.7-0.7-1.6-0.9c0-0.1,0.2-0.1,0.6-0.1c0.4,0,1,0.1,1.5,0.5c0.6,0.5,0.9,1.4,0.9,2.3c0,0.9-0.4,1.9-0.9,2.8
								c-1.1,1.7-2.7,2.8-3.8,3.3C118.8,60.9,118,60.9,117.9,60.8z"/>
						</g>
						<g>
							<path class="st13" d="M103.5,48.2c0,0.1-1,0.1-2.6-0.1c-1.6-0.2-3.7-0.6-6.1-1c-2.3-0.4-4.5-0.4-5.9,0.1
								c-1.4,0.5-2.2,1.1-2.3,1c-0.1-0.1,0.6-0.9,2.1-1.6c1.5-0.8,3.9-0.9,6.3-0.5c2.4,0.4,4.5,1,6,1.3
								C102.5,47.8,103.5,48.1,103.5,48.2z"/>
						</g>
						<g>
							<path class="st13" d="M92.5,63.1c-0.1,0.2-2.3-0.2-4.7-1.8c-0.6-0.4-1.1-0.9-1.5-1.3c-0.4-0.4-0.8-0.9-1.1-1.2
								c-0.5-0.7-0.8-1.2-0.8-1.3c0.1-0.1,0.6,0.2,1.3,0.8c0.3,0.3,0.7,0.7,1.1,1c0.5,0.3,0.9,0.8,1.5,1.1
								C90.5,62,92.6,62.8,92.5,63.1z"/>
						</g>
					</g>
				</g>
			</g>
		</g>
	</g>
</g>
</svg>
